<?xml version="1.0" encoding="UTF-8" standalone="no"?>
<!DOCTYPE svg PUBLIC "-//W3C//DTD SVG 1.1//EN"
 "http://www.w3.org/Graphics/SVG/1.1/DTD/svg11.dtd">
<!-- Generated by graphviz version 2.43.0 (0)
 -->
<!-- Title: Factory.H Pages: 1 -->
<svg width="3328pt" height="308pt"
 viewBox="0.00 0.00 3328.00 308.00" xmlns="http://www.w3.org/2000/svg" xmlns:xlink="http://www.w3.org/1999/xlink">
<g id="graph0" class="graph" transform="scale(1 1) rotate(0) translate(4 304)">
<title>Factory.H</title>
<polygon fill="white" stroke="transparent" points="-4,4 -4,-304 3324,-304 3324,4 -4,4"/>
<!-- Node1 -->
<g id="node1" class="node">
<title>Node1</title>
<g id="a_node1"><a xlink:title=" ">
<polygon fill="#bfbfbf" stroke="black" points="2186.5,-280.5 2186.5,-299.5 2247.5,-299.5 2247.5,-280.5 2186.5,-280.5"/>
<text text-anchor="middle" x="2217" y="-287.5" font-family="Helvetica,sans-Serif" font-size="10.00">Factory.H</text>
</a>
</g>
</g>
<!-- Node2 -->
<g id="node2" class="node">
<title>Node2</title>
<g id="a_node2"><a xlink:href="_p_d_e_base_8_h.html" target="_top" xlink:title=" ">
<polygon fill="white" stroke="black" points="2041.5,-224.5 2041.5,-243.5 2112.5,-243.5 2112.5,-224.5 2041.5,-224.5"/>
<text text-anchor="middle" x="2077" y="-231.5" font-family="Helvetica,sans-Serif" font-size="10.00">PDEBase.H</text>
</a>
</g>
</g>
<!-- Node1&#45;&gt;Node2 -->
<g id="edge1" class="edge">
<title>Node1&#45;&gt;Node2</title>
<path fill="none" stroke="midnightblue" d="M2185.3,-276.77C2159,-266.63 2122.28,-252.47 2099.08,-243.52"/>
<polygon fill="midnightblue" stroke="midnightblue" points="2184.23,-280.11 2194.82,-280.44 2186.75,-273.58 2184.23,-280.11"/>
</g>
<!-- Node63 -->
<g id="node5" class="node">
<title>Node63</title>
<g id="a_node5"><a xlink:href="_a_b_l_stats_base_8_h.html" target="_top" xlink:title=" ">
<polygon fill="white" stroke="red" points="584.5,-112.5 584.5,-131.5 679.5,-131.5 679.5,-112.5 584.5,-112.5"/>
<text text-anchor="middle" x="632" y="-119.5" font-family="Helvetica,sans-Serif" font-size="10.00">ABLStatsBase.H</text>
</a>
</g>
</g>
<!-- Node1&#45;&gt;Node63 -->
<g id="edge61" class="edge">
<title>Node1&#45;&gt;Node63</title>
<path fill="none" stroke="midnightblue" d="M2176.08,-288.6C1892.89,-285.64 233.57,-265.05 163,-188 105.05,-124.73 453.46,-121.42 584.04,-122.36"/>
<polygon fill="midnightblue" stroke="midnightblue" points="2176.28,-292.1 2186.31,-288.71 2176.35,-285.1 2176.28,-292.1"/>
</g>
<!-- Node122 -->
<g id="node16" class="node">
<title>Node122</title>
<g id="a_node16"><a xlink:href="_derived_quantity_8_h.html" target="_top" xlink:title=" ">
<polygon fill="white" stroke="red" points="1717,-112.5 1717,-131.5 1823,-131.5 1823,-112.5 1717,-112.5"/>
<text text-anchor="middle" x="1770" y="-119.5" font-family="Helvetica,sans-Serif" font-size="10.00">DerivedQuantity.H</text>
</a>
</g>
</g>
<!-- Node1&#45;&gt;Node122 -->
<g id="edge73" class="edge">
<title>Node1&#45;&gt;Node122</title>
<path fill="none" stroke="midnightblue" d="M2199.86,-272.98C2166.12,-241.61 2093.14,-174.52 2079,-168 2034.57,-147.5 1899.18,-133.54 1823.18,-127.09"/>
<polygon fill="midnightblue" stroke="midnightblue" points="2197.83,-275.88 2207.53,-280.13 2202.6,-270.75 2197.83,-275.88"/>
</g>
<!-- Node155 -->
<g id="node22" class="node">
<title>Node155</title>
<g id="a_node22"><a xlink:href="_physics_8_h.html" target="_top" xlink:title=" ">
<polygon fill="white" stroke="black" points="809,-224.5 809,-243.5 873,-243.5 873,-224.5 809,-224.5"/>
<text text-anchor="middle" x="841" y="-231.5" font-family="Helvetica,sans-Serif" font-size="10.00">Physics.H</text>
</a>
</g>
</g>
<!-- Node1&#45;&gt;Node155 -->
<g id="edge27" class="edge">
<title>Node1&#45;&gt;Node155</title>
<path fill="none" stroke="midnightblue" d="M2176.3,-287.4C1971.6,-279.37 1057.08,-243.48 873.25,-236.27"/>
<polygon fill="midnightblue" stroke="midnightblue" points="2176.2,-290.9 2186.33,-287.8 2176.48,-283.91 2176.2,-290.9"/>
</g>
<!-- Node170 -->
<g id="node35" class="node">
<title>Node170</title>
<g id="a_node35"><a xlink:href="_turbulence_model_8_h.html" target="_top" xlink:title=" ">
<polygon fill="white" stroke="red" points="1605,-224.5 1605,-243.5 1715,-243.5 1715,-224.5 1605,-224.5"/>
<text text-anchor="middle" x="1660" y="-231.5" font-family="Helvetica,sans-Serif" font-size="10.00">TurbulenceModel.H</text>
</a>
</g>
</g>
<!-- Node1&#45;&gt;Node170 -->
<g id="edge50" class="edge">
<title>Node1&#45;&gt;Node170</title>
<path fill="none" stroke="midnightblue" d="M2176.35,-285.32C2094.36,-277.87 1903.33,-260.3 1743,-244 1734.06,-243.09 1724.58,-242.09 1715.35,-241.11"/>
<polygon fill="midnightblue" stroke="midnightblue" points="2176.21,-288.83 2186.49,-286.25 2176.84,-281.86 2176.21,-288.83"/>
</g>
<!-- Node171 -->
<g id="node36" class="node">
<title>Node171</title>
<g id="a_node36"><a xlink:href="_post_processing_8_h.html" target="_top" xlink:title=" ">
<polygon fill="white" stroke="red" points="1752.5,-224.5 1752.5,-243.5 1853.5,-243.5 1853.5,-224.5 1752.5,-224.5"/>
<text text-anchor="middle" x="1803" y="-231.5" font-family="Helvetica,sans-Serif" font-size="10.00">PostProcessing.H</text>
</a>
</g>
</g>
<!-- Node1&#45;&gt;Node171 -->
<g id="edge52" class="edge">
<title>Node1&#45;&gt;Node171</title>
<path fill="none" stroke="midnightblue" d="M2176.08,-283.66C2099.96,-273.73 1936.82,-252.46 1853.8,-241.63"/>
<polygon fill="midnightblue" stroke="midnightblue" points="2175.85,-287.16 2186.22,-284.99 2176.76,-280.22 2175.85,-287.16"/>
</g>
<!-- Node172 -->
<g id="node37" class="node">
<title>Node172</title>
<g id="a_node37"><a xlink:href="_time_averaging_8_h.html" target="_top" xlink:title=" ">
<polygon fill="white" stroke="red" points="1761.5,-168.5 1761.5,-187.5 1862.5,-187.5 1862.5,-168.5 1761.5,-168.5"/>
<text text-anchor="middle" x="1812" y="-175.5" font-family="Helvetica,sans-Serif" font-size="10.00">TimeAveraging.H</text>
</a>
</g>
</g>
<!-- Node1&#45;&gt;Node172 -->
<g id="edge72" class="edge">
<title>Node1&#45;&gt;Node172</title>
<path fill="none" stroke="midnightblue" d="M2176.39,-279.72C2138.81,-270.99 2081.45,-257.31 2032,-244 1962.2,-225.21 1880.79,-200.39 1839.32,-187.54"/>
<polygon fill="midnightblue" stroke="midnightblue" points="2175.91,-283.2 2186.44,-282.05 2177.49,-276.38 2175.91,-283.2"/>
</g>
<!-- Node175 -->
<g id="node38" class="node">
<title>Node175</title>
<g id="a_node38"><a xlink:href="_overset_manager_8_h.html" target="_top" xlink:title=" ">
<polygon fill="white" stroke="red" points="2241.5,-56.5 2241.5,-75.5 2348.5,-75.5 2348.5,-56.5 2241.5,-56.5"/>
<text text-anchor="middle" x="2295" y="-63.5" font-family="Helvetica,sans-Serif" font-size="10.00">OversetManager.H</text>
</a>
</g>
</g>
<!-- Node1&#45;&gt;Node175 -->
<g id="edge56" class="edge">
<title>Node1&#45;&gt;Node175</title>
<path fill="none" stroke="midnightblue" d="M2206.91,-271.29C2200.34,-257.15 2194.71,-237.52 2205,-224 2241.3,-176.28 2284.4,-220.16 2335,-188 2362.67,-170.42 2371.63,-162.74 2383,-132 2386.08,-123.66 2387.64,-119.58 2383,-112 2371.63,-93.41 2349.88,-82.19 2330.85,-75.6"/>
<polygon fill="midnightblue" stroke="midnightblue" points="2203.95,-273.18 2211.65,-280.46 2210.17,-269.96 2203.95,-273.18"/>
</g>
<!-- Node177 -->
<g id="node39" class="node">
<title>Node177</title>
<g id="a_node39"><a xlink:href="_ext_solver_8_h.html" target="_top" xlink:title=" ">
<polygon fill="white" stroke="red" points="2213.5,-224.5 2213.5,-243.5 2286.5,-243.5 2286.5,-224.5 2213.5,-224.5"/>
<text text-anchor="middle" x="2250" y="-231.5" font-family="Helvetica,sans-Serif" font-size="10.00">ExtSolver.H</text>
</a>
</g>
</g>
<!-- Node1&#45;&gt;Node177 -->
<g id="edge58" class="edge">
<title>Node1&#45;&gt;Node177</title>
<path fill="none" stroke="midnightblue" d="M2227.83,-271.27C2233.47,-262.05 2240.12,-251.17 2244.65,-243.75"/>
<polygon fill="midnightblue" stroke="midnightblue" points="2224.68,-269.73 2222.45,-280.08 2230.65,-273.38 2224.68,-269.73"/>
</g>
<!-- Node180 -->
<g id="node40" class="node">
<title>Node180</title>
<g id="a_node40"><a xlink:href="_density_source_8_h.html" target="_top" xlink:title=" ">
<polygon fill="white" stroke="red" points="2305,-224.5 2305,-243.5 2403,-243.5 2403,-224.5 2305,-224.5"/>
<text text-anchor="middle" x="2354" y="-231.5" font-family="Helvetica,sans-Serif" font-size="10.00">DensitySource.H</text>
</a>
</g>
</g>
<!-- Node1&#45;&gt;Node180 -->
<g id="edge59" class="edge">
<title>Node1&#45;&gt;Node180</title>
<path fill="none" stroke="midnightblue" d="M2248.02,-276.77C2273.76,-266.63 2309.69,-252.47 2332.39,-243.52"/>
<polygon fill="midnightblue" stroke="midnightblue" points="2246.73,-273.52 2238.71,-280.44 2249.29,-280.03 2246.73,-273.52"/>
</g>
<!-- Node181 -->
<g id="node41" class="node">
<title>Node181</title>
<g id="a_node41"><a xlink:href="_momentum_source_8_h.html" target="_top" xlink:title=" ">
<polygon fill="white" stroke="red" points="2421,-224.5 2421,-243.5 2537,-243.5 2537,-224.5 2421,-224.5"/>
<text text-anchor="middle" x="2479" y="-231.5" font-family="Helvetica,sans-Serif" font-size="10.00">MomentumSource.H</text>
</a>
</g>
</g>
<!-- Node1&#45;&gt;Node181 -->
<g id="edge60" class="edge">
<title>Node1&#45;&gt;Node181</title>
<path fill="none" stroke="midnightblue" d="M2257.47,-280.66C2306.34,-270.59 2388.09,-253.74 2437.44,-243.57"/>
<polygon fill="midnightblue" stroke="midnightblue" points="2256.66,-277.25 2247.57,-282.7 2258.07,-284.11 2256.66,-277.25"/>
</g>
<!-- Node192 -->
<g id="node42" class="node">
<title>Node192</title>
<g id="a_node42"><a xlink:href="_source_term_8_h.html" target="_top" xlink:title=" ">
<polygon fill="white" stroke="red" points="2555,-224.5 2555,-243.5 2639,-243.5 2639,-224.5 2555,-224.5"/>
<text text-anchor="middle" x="2597" y="-231.5" font-family="Helvetica,sans-Serif" font-size="10.00">SourceTerm.H</text>
</a>
</g>
</g>
<!-- Node1&#45;&gt;Node192 -->
<g id="edge62" class="edge">
<title>Node1&#45;&gt;Node192</title>
<path fill="none" stroke="midnightblue" d="M2258.11,-283.9C2320.46,-276.04 2442.62,-260.18 2546,-244 2548.93,-243.54 2551.95,-243.05 2555,-242.55"/>
<polygon fill="midnightblue" stroke="midnightblue" points="2257.39,-280.46 2247.9,-285.18 2258.26,-287.41 2257.39,-280.46"/>
</g>
<!-- Node193 -->
<g id="node43" class="node">
<title>Node193</title>
<g id="a_node43"><a xlink:href="_s_d_r_source_8_h.html" target="_top" xlink:title=" ">
<polygon fill="white" stroke="red" points="2657,-224.5 2657,-243.5 2737,-243.5 2737,-224.5 2657,-224.5"/>
<text text-anchor="middle" x="2697" y="-231.5" font-family="Helvetica,sans-Serif" font-size="10.00">SDRSource.H</text>
</a>
</g>
</g>
<!-- Node1&#45;&gt;Node193 -->
<g id="edge63" class="edge">
<title>Node1&#45;&gt;Node193</title>
<path fill="none" stroke="midnightblue" d="M2257.86,-285.8C2334.55,-279.55 2505.22,-264.53 2648,-244 2650.91,-243.58 2653.91,-243.12 2656.93,-242.62"/>
<polygon fill="midnightblue" stroke="midnightblue" points="2257.36,-282.33 2247.67,-286.62 2257.92,-289.3 2257.36,-282.33"/>
</g>
<!-- Node195 -->
<g id="node44" class="node">
<title>Node195</title>
<g id="a_node44"><a xlink:href="_temperature_source_8_h.html" target="_top" xlink:title=" ">
<polygon fill="white" stroke="red" points="2755,-224.5 2755,-243.5 2877,-243.5 2877,-224.5 2755,-224.5"/>
<text text-anchor="middle" x="2816" y="-231.5" font-family="Helvetica,sans-Serif" font-size="10.00">TemperatureSource.H</text>
</a>
</g>
</g>
<!-- Node1&#45;&gt;Node195 -->
<g id="edge64" class="edge">
<title>Node1&#45;&gt;Node195</title>
<path fill="none" stroke="midnightblue" d="M2257.95,-286.12C2346.9,-279.73 2564.35,-263.39 2746,-244 2748.92,-243.69 2751.92,-243.36 2754.93,-243.01"/>
<polygon fill="midnightblue" stroke="midnightblue" points="2257.48,-282.64 2247.75,-286.85 2257.98,-289.63 2257.48,-282.64"/>
</g>
<!-- Node196 -->
<g id="node45" class="node">
<title>Node196</title>
<g id="a_node45"><a xlink:href="_t_k_e_source_8_h.html" target="_top" xlink:title=" ">
<polygon fill="white" stroke="red" points="2895.5,-224.5 2895.5,-243.5 2974.5,-243.5 2974.5,-224.5 2895.5,-224.5"/>
<text text-anchor="middle" x="2935" y="-231.5" font-family="Helvetica,sans-Serif" font-size="10.00">TKESource.H</text>
</a>
</g>
</g>
<!-- Node1&#45;&gt;Node196 -->
<g id="edge65" class="edge">
<title>Node1&#45;&gt;Node196</title>
<path fill="none" stroke="midnightblue" d="M2257.94,-287.88C2362.77,-284.65 2649.25,-273.61 2886,-244 2889.09,-243.61 2892.28,-243.16 2895.48,-242.66"/>
<polygon fill="midnightblue" stroke="midnightblue" points="2257.68,-284.38 2247.79,-288.18 2257.89,-291.38 2257.68,-284.38"/>
</g>
<!-- Node200 -->
<g id="node46" class="node">
<title>Node200</title>
<g id="a_node46"><a xlink:href="_refinement_criteria_8_h.html" target="_top" xlink:title=" ">
<polygon fill="white" stroke="red" points="172.5,-56.5 172.5,-75.5 291.5,-75.5 291.5,-56.5 172.5,-56.5"/>
<text text-anchor="middle" x="232" y="-63.5" font-family="Helvetica,sans-Serif" font-size="10.00">RefinementCriteria.H</text>
</a>
</g>
</g>
<!-- Node1&#45;&gt;Node200 -->
<g id="edge66" class="edge">
<title>Node1&#45;&gt;Node200</title>
<path fill="none" stroke="midnightblue" d="M2176.21,-288.65C1919.59,-286.34 533.29,-272.64 347,-244 258.3,-230.36 206.95,-259.72 153,-188 122.69,-147.7 188.68,-96.09 218.43,-75.78"/>
<polygon fill="midnightblue" stroke="midnightblue" points="2176.19,-292.15 2186.22,-288.74 2176.25,-285.15 2176.19,-292.15"/>
</g>
<!-- Node215 -->
<g id="node47" class="node">
<title>Node215</title>
<g id="a_node47"><a xlink:href="_u_d_f_8_h.html" target="_top" xlink:title=" ">
<polygon fill="white" stroke="red" points="1469.5,-224.5 1469.5,-243.5 1516.5,-243.5 1516.5,-224.5 1469.5,-224.5"/>
<text text-anchor="middle" x="1493" y="-231.5" font-family="Helvetica,sans-Serif" font-size="10.00">UDF.H</text>
</a>
</g>
</g>
<!-- Node1&#45;&gt;Node215 -->
<g id="edge69" class="edge">
<title>Node1&#45;&gt;Node215</title>
<path fill="none" stroke="midnightblue" d="M2176.09,-286.25C2076.69,-279.51 1814.58,-261.47 1596,-244 1568.8,-241.83 1537.59,-239.06 1516.72,-237.17"/>
<polygon fill="midnightblue" stroke="midnightblue" points="2176.08,-289.75 2186.3,-286.94 2176.55,-282.77 2176.08,-289.75"/>
</g>
<!-- Node217 -->
<g id="node48" class="node">
<title>Node217</title>
<g id="a_node48"><a xlink:href="_transport_model_8_h.html" target="_top" xlink:title=" ">
<polygon fill="white" stroke="red" points="2992,-224.5 2992,-243.5 3094,-243.5 3094,-224.5 2992,-224.5"/>
<text text-anchor="middle" x="3043" y="-231.5" font-family="Helvetica,sans-Serif" font-size="10.00">TransportModel.H</text>
</a>
</g>
</g>
<!-- Node1&#45;&gt;Node217 -->
<g id="edge71" class="edge">
<title>Node1&#45;&gt;Node217</title>
<path fill="none" stroke="midnightblue" d="M2257.87,-287.94C2372.61,-284.66 2707.43,-273.14 2984,-244 2986.58,-243.73 2989.21,-243.42 2991.87,-243.1"/>
<polygon fill="midnightblue" stroke="midnightblue" points="2257.67,-284.44 2247.77,-288.22 2257.87,-291.44 2257.67,-284.44"/>
</g>
<!-- Node219 -->
<g id="node49" class="node">
<title>Node219</title>
<g id="a_node49"><a xlink:href="_sampler_base_8_h.html" target="_top" xlink:title=" ">
<polygon fill="white" stroke="red" points="3112,-224.5 3112,-243.5 3204,-243.5 3204,-224.5 3112,-224.5"/>
<text text-anchor="middle" x="3158" y="-231.5" font-family="Helvetica,sans-Serif" font-size="10.00">SamplerBase.H</text>
</a>
</g>
</g>
<!-- Node1&#45;&gt;Node219 -->
<g id="edge74" class="edge">
<title>Node1&#45;&gt;Node219</title>
<path fill="none" stroke="midnightblue" d="M2258.06,-288.54C2384.43,-286.78 2778.6,-278.67 3103,-244 3105.89,-243.69 3108.85,-243.33 3111.84,-242.94"/>
<polygon fill="midnightblue" stroke="midnightblue" points="2257.65,-285.04 2247.7,-288.68 2257.75,-292.04 2257.65,-285.04"/>
</g>
<!-- Node144 -->
<g id="node50" class="node">
<title>Node144</title>
<g id="a_node50"><a xlink:href="_actuator_model_8_h.html" target="_top" xlink:title=" ">
<polygon fill="white" stroke="red" points="3222,-224.5 3222,-243.5 3320,-243.5 3320,-224.5 3222,-224.5"/>
<text text-anchor="middle" x="3271" y="-231.5" font-family="Helvetica,sans-Serif" font-size="10.00">ActuatorModel.H</text>
</a>
</g>
</g>
<!-- Node1&#45;&gt;Node144 -->
<g id="edge75" class="edge">
<title>Node1&#45;&gt;Node144</title>
<path fill="none" stroke="midnightblue" d="M2258.02,-288.74C2394.21,-287.55 2843.65,-280.89 3213,-244 3215.84,-243.72 3218.75,-243.39 3221.69,-243.03"/>
<polygon fill="midnightblue" stroke="midnightblue" points="2257.62,-285.25 2247.65,-288.83 2257.68,-292.25 2257.62,-285.25"/>
</g>
<!-- Node3 -->
<g id="node3" class="node">
<title>Node3</title>
<g id="a_node3"><a xlink:href="_c_f_d_sim_8_h.html" target="_top" xlink:title=" ">
<polygon fill="white" stroke="red" points="1511,-168.5 1511,-187.5 1577,-187.5 1577,-168.5 1511,-168.5"/>
<text text-anchor="middle" x="1544" y="-175.5" font-family="Helvetica,sans-Serif" font-size="10.00">CFDSim.H</text>
</a>
</g>
</g>
<!-- Node2&#45;&gt;Node3 -->
<g id="edge2" class="edge">
<title>Node2&#45;&gt;Node3</title>
<path fill="none" stroke="midnightblue" d="M2031.33,-230.64C1944.29,-225.75 1748.84,-212.82 1586,-188 1583.2,-187.57 1580.3,-187.07 1577.4,-186.54"/>
<polygon fill="midnightblue" stroke="midnightblue" points="2031.22,-234.14 2041.39,-231.2 2031.6,-227.15 2031.22,-234.14"/>
</g>
<!-- Node36 -->
<g id="node4" class="node">
<title>Node36</title>
<g id="a_node4"><a xlink:href="_p_d_e_8_h.html" target="_top" xlink:title=" ">
<polygon fill="white" stroke="red" points="1553.5,-112.5 1553.5,-131.5 1600.5,-131.5 1600.5,-112.5 1553.5,-112.5"/>
<text text-anchor="middle" x="1577" y="-119.5" font-family="Helvetica,sans-Serif" font-size="10.00">PDE.H</text>
</a>
</g>
</g>
<!-- Node2&#45;&gt;Node36 -->
<g id="edge16" class="edge">
<title>Node2&#45;&gt;Node36</title>
<path fill="none" stroke="midnightblue" d="M2040.21,-221.25C2014.2,-212.68 1978.66,-200.44 1948,-188 1928.47,-180.07 1925.27,-173.79 1905,-168 1778,-131.7 1739.61,-157.44 1610,-132 1606.97,-131.41 1603.81,-130.68 1600.7,-129.9"/>
<polygon fill="midnightblue" stroke="midnightblue" points="2039.43,-224.68 2050.03,-224.46 2041.61,-218.03 2039.43,-224.68"/>
</g>
<!-- Node8 -->
<g id="node7" class="node">
<title>Node8</title>
<g id="a_node7"><a xlink:href="incflo_8cpp.html" target="_top" xlink:title=" ">
<polygon fill="white" stroke="black" points="1819.5,-0.5 1819.5,-19.5 1882.5,-19.5 1882.5,-0.5 1819.5,-0.5"/>
<text text-anchor="middle" x="1851" y="-7.5" font-family="Helvetica,sans-Serif" font-size="10.00">incflo.cpp</text>
</a>
</g>
</g>
<!-- Node2&#45;&gt;Node8 -->
<g id="edge18" class="edge">
<title>Node2&#45;&gt;Node8</title>
<path fill="none" stroke="midnightblue" d="M2082.26,-214.31C2085.02,-200.69 2086.47,-182.21 2079,-168 2035.51,-85.25 1926.49,-37.62 1876.62,-19.5"/>
<polygon fill="midnightblue" stroke="midnightblue" points="2078.77,-213.86 2079.8,-224.41 2085.57,-215.52 2078.77,-213.86"/>
</g>
<!-- Node86 -->
<g id="node9" class="node">
<title>Node86</title>
<g id="a_node9"><a xlink:href="_p_d_e_base_8cpp.html" target="_top" xlink:title=" ">
<polygon fill="white" stroke="black" points="1619,-112.5 1619,-131.5 1699,-131.5 1699,-112.5 1619,-112.5"/>
<text text-anchor="middle" x="1659" y="-119.5" font-family="Helvetica,sans-Serif" font-size="10.00">PDEBase.cpp</text>
</a>
</g>
</g>
<!-- Node2&#45;&gt;Node86 -->
<g id="edge17" class="edge">
<title>Node2&#45;&gt;Node86</title>
<path fill="none" stroke="midnightblue" d="M2076.85,-214.07C2075.64,-199.18 2071.39,-179.15 2058,-168 1997.92,-117.96 1785.4,-143.07 1708,-132 1705.09,-131.58 1702.09,-131.12 1699.07,-130.63"/>
<polygon fill="midnightblue" stroke="midnightblue" points="2073.36,-214.37 2077.28,-224.22 2080.36,-214.08 2073.36,-214.37"/>
</g>
<!-- Node90 -->
<g id="node10" class="node">
<title>Node90</title>
<g id="a_node10"><a xlink:href="_tioga_interface_8cpp.html" target="_top" xlink:title=" ">
<polygon fill="white" stroke="black" points="1428.5,-112.5 1428.5,-131.5 1535.5,-131.5 1535.5,-112.5 1428.5,-112.5"/>
<text text-anchor="middle" x="1482" y="-119.5" font-family="Helvetica,sans-Serif" font-size="10.00">TiogaInterface.cpp</text>
</a>
</g>
</g>
<!-- Node2&#45;&gt;Node90 -->
<g id="edge20" class="edge">
<title>Node2&#45;&gt;Node90</title>
<path fill="none" stroke="midnightblue" d="M2031.47,-224.67C1996.14,-217.36 1946.38,-205.19 1905,-188 1888.81,-181.27 1887.64,-173.53 1871,-168 1732.24,-121.91 1689.04,-150.5 1544,-132 1541.3,-131.66 1538.54,-131.29 1535.75,-130.92"/>
<polygon fill="midnightblue" stroke="midnightblue" points="2030.99,-228.14 2041.49,-226.69 2032.38,-221.28 2030.99,-228.14"/>
</g>
<!-- Node9 -->
<g id="node17" class="node">
<title>Node9</title>
<g id="a_node17"><a xlink:href="incflo__advance_8cpp.html" target="_top" xlink:title=" ">
<polygon fill="white" stroke="black" points="1595,-168.5 1595,-187.5 1705,-187.5 1705,-168.5 1595,-168.5"/>
<text text-anchor="middle" x="1650" y="-175.5" font-family="Helvetica,sans-Serif" font-size="10.00">incflo_advance.cpp</text>
</a>
</g>
</g>
<!-- Node2&#45;&gt;Node9 -->
<g id="edge19" class="edge">
<title>Node2&#45;&gt;Node9</title>
<path fill="none" stroke="midnightblue" d="M2031.19,-227.21C1952.07,-217.2 1790.15,-196.72 1705.05,-185.96"/>
<polygon fill="midnightblue" stroke="midnightblue" points="2030.97,-230.71 2041.33,-228.49 2031.85,-223.76 2030.97,-230.71"/>
</g>
<!-- Node52 -->
<g id="node18" class="node">
<title>Node52</title>
<g id="a_node18"><a xlink:href="_one_eq_ksgs_8cpp.html" target="_top" xlink:title=" ">
<polygon fill="white" stroke="black" points="1957,-168.5 1957,-187.5 2049,-187.5 2049,-168.5 1957,-168.5"/>
<text text-anchor="middle" x="2003" y="-175.5" font-family="Helvetica,sans-Serif" font-size="10.00">OneEqKsgs.cpp</text>
</a>
</g>
</g>
<!-- Node2&#45;&gt;Node52 -->
<g id="edge21" class="edge">
<title>Node2&#45;&gt;Node52</title>
<path fill="none" stroke="midnightblue" d="M2056.97,-218.38C2043.59,-208.62 2026.44,-196.11 2015.11,-187.83"/>
<polygon fill="midnightblue" stroke="midnightblue" points="2054.97,-221.26 2065.11,-224.32 2059.1,-215.6 2054.97,-221.26"/>
</g>
<!-- Node46 -->
<g id="node19" class="node">
<title>Node46</title>
<g id="a_node19"><a xlink:href="_k_omega_s_s_t_i_8_h.html" target="_top" xlink:title=" ">
<polygon fill="white" stroke="black" points="2219.5,-168.5 2219.5,-187.5 2308.5,-187.5 2308.5,-168.5 2219.5,-168.5"/>
<text text-anchor="middle" x="2264" y="-175.5" font-family="Helvetica,sans-Serif" font-size="10.00">KOmegaSSTI.H</text>
</a>
</g>
</g>
<!-- Node2&#45;&gt;Node46 -->
<g id="edge22" class="edge">
<title>Node2&#45;&gt;Node46</title>
<path fill="none" stroke="midnightblue" d="M2116.59,-221.57C2151.87,-211.38 2202.69,-196.7 2234.51,-187.52"/>
<polygon fill="midnightblue" stroke="midnightblue" points="2115.27,-218.31 2106.63,-224.44 2117.21,-225.03 2115.27,-218.31"/>
</g>
<!-- Node47 -->
<g id="node20" class="node">
<title>Node47</title>
<g id="a_node20"><a xlink:href="_k_omega_s_s_t_8cpp.html" target="_top" xlink:title=" ">
<polygon fill="white" stroke="black" points="2134.5,-112.5 2134.5,-131.5 2229.5,-131.5 2229.5,-112.5 2134.5,-112.5"/>
<text text-anchor="middle" x="2182" y="-119.5" font-family="Helvetica,sans-Serif" font-size="10.00">KOmegaSST.cpp</text>
</a>
</g>
</g>
<!-- Node2&#45;&gt;Node47 -->
<g id="edge25" class="edge">
<title>Node2&#45;&gt;Node47</title>
<path fill="none" stroke="midnightblue" d="M2096.13,-217.8C2106.28,-209.41 2118.73,-198.57 2129,-188 2147.26,-169.2 2166.04,-144.7 2175.59,-131.81"/>
<polygon fill="midnightblue" stroke="midnightblue" points="2093.8,-215.19 2088.25,-224.21 2098.22,-220.62 2093.8,-215.19"/>
</g>
<!-- Node48 -->
<g id="node21" class="node">
<title>Node48</title>
<g id="a_node21"><a xlink:href="_k_omega_s_s_t_i_d_d_e_s_8cpp.html" target="_top" xlink:title=" ">
<polygon fill="white" stroke="black" points="2248,-112.5 2248,-131.5 2374,-131.5 2374,-112.5 2248,-112.5"/>
<text text-anchor="middle" x="2311" y="-119.5" font-family="Helvetica,sans-Serif" font-size="10.00">KOmegaSSTIDDES.cpp</text>
</a>
</g>
</g>
<!-- Node2&#45;&gt;Node48 -->
<g id="edge26" class="edge">
<title>Node2&#45;&gt;Node48</title>
<path fill="none" stroke="midnightblue" d="M2122.91,-227.6C2189.32,-219.32 2305.64,-202.88 2318,-188 2331.34,-171.93 2321.89,-145.38 2315.52,-131.72"/>
<polygon fill="midnightblue" stroke="midnightblue" points="2122.2,-224.16 2112.71,-228.85 2123.06,-231.11 2122.2,-224.16"/>
</g>
<!-- Node3&#45;&gt;Node36 -->
<g id="edge3" class="edge">
<title>Node3&#45;&gt;Node36</title>
<path fill="none" stroke="midnightblue" d="M1554.83,-159.27C1560.47,-150.05 1567.12,-139.17 1571.65,-131.75"/>
<polygon fill="midnightblue" stroke="midnightblue" points="1551.68,-157.73 1549.45,-168.08 1557.65,-161.38 1551.68,-157.73"/>
</g>
<!-- Node3&#45;&gt;Node63 -->
<g id="edge4" class="edge">
<title>Node3&#45;&gt;Node63</title>
<path fill="none" stroke="midnightblue" d="M1500.54,-168.19C1174.41,-126.83 1088.59,-150.86 765,-132 736.7,-130.35 705.03,-128.22 679.69,-126.44"/>
<polygon fill="midnightblue" stroke="midnightblue" points="1500.39,-171.7 1510.75,-169.5 1501.28,-164.76 1500.39,-171.7"/>
</g>
<!-- Node3&#45;&gt;Node86 -->
<g id="edge8" class="edge">
<title>Node3&#45;&gt;Node86</title>
<path fill="none" stroke="midnightblue" d="M1571.48,-164.1C1592.97,-154.01 1622.22,-140.27 1640.86,-131.52"/>
<polygon fill="midnightblue" stroke="midnightblue" points="1569.79,-161.02 1562.22,-168.44 1572.76,-167.36 1569.79,-161.02"/>
</g>
<!-- Node3&#45;&gt;Node90 -->
<g id="edge9" class="edge">
<title>Node3&#45;&gt;Node90</title>
<path fill="none" stroke="midnightblue" d="M1526.25,-161.54C1515.19,-151.91 1501.37,-139.87 1492.14,-131.83"/>
<polygon fill="midnightblue" stroke="midnightblue" points="1524.2,-164.4 1534.04,-168.32 1528.8,-159.12 1524.2,-164.4"/>
</g>
<!-- Node91 -->
<g id="node11" class="node">
<title>Node91</title>
<g id="a_node11"><a xlink:href="_channel_flow_8_h.html" target="_top" xlink:title=" ">
<polygon fill="white" stroke="red" points="774.5,-112.5 774.5,-131.5 863.5,-131.5 863.5,-112.5 774.5,-112.5"/>
<text text-anchor="middle" x="819" y="-119.5" font-family="Helvetica,sans-Serif" font-size="10.00">ChannelFlow.H</text>
</a>
</g>
</g>
<!-- Node3&#45;&gt;Node91 -->
<g id="edge10" class="edge">
<title>Node3&#45;&gt;Node91</title>
<path fill="none" stroke="midnightblue" d="M1500.51,-168.17C1237.55,-133.37 1167.84,-153.02 908,-132 893.6,-130.84 877.92,-129.33 863.79,-127.88"/>
<polygon fill="midnightblue" stroke="midnightblue" points="1500.37,-171.68 1510.75,-169.54 1501.3,-164.75 1500.37,-171.68"/>
</g>
<!-- Node93 -->
<g id="node12" class="node">
<title>Node93</title>
<g id="a_node12"><a xlink:href="_convecting_taylor_vortex_8_h.html" target="_top" xlink:title=" ">
<polygon fill="white" stroke="red" points="917.5,-112.5 917.5,-131.5 1060.5,-131.5 1060.5,-112.5 917.5,-112.5"/>
<text text-anchor="middle" x="989" y="-119.5" font-family="Helvetica,sans-Serif" font-size="10.00">ConvectingTaylorVortex.H</text>
</a>
</g>
</g>
<!-- Node3&#45;&gt;Node93 -->
<g id="edge11" class="edge">
<title>Node3&#45;&gt;Node93</title>
<path fill="none" stroke="midnightblue" d="M1500.72,-168.15C1316.58,-141.29 1267.73,-148.16 1087,-132 1078.49,-131.24 1069.57,-130.43 1060.72,-129.63"/>
<polygon fill="midnightblue" stroke="midnightblue" points="1500.33,-171.63 1510.74,-169.63 1501.35,-164.71 1500.33,-171.63"/>
</g>
<!-- Node95 -->
<g id="node13" class="node">
<title>Node95</title>
<g id="a_node13"><a xlink:href="_ekman_spiral_8_h.html" target="_top" xlink:title=" ">
<polygon fill="white" stroke="red" points="1096.5,-112.5 1096.5,-131.5 1185.5,-131.5 1185.5,-112.5 1096.5,-112.5"/>
<text text-anchor="middle" x="1141" y="-119.5" font-family="Helvetica,sans-Serif" font-size="10.00">EkmanSpiral.H</text>
</a>
</g>
</g>
<!-- Node3&#45;&gt;Node95 -->
<g id="edge12" class="edge">
<title>Node3&#45;&gt;Node95</title>
<path fill="none" stroke="midnightblue" d="M1500.55,-168.07C1367.64,-146.46 1332.01,-149.15 1203,-132 1197.39,-131.25 1191.51,-130.44 1185.68,-129.62"/>
<polygon fill="midnightblue" stroke="midnightblue" points="1500.28,-171.57 1510.72,-169.74 1501.42,-164.67 1500.28,-171.57"/>
</g>
<!-- Node98 -->
<g id="node14" class="node">
<title>Node98</title>
<g id="a_node14"><a xlink:href="_m_m_s_8_h.html" target="_top" xlink:title=" ">
<polygon fill="white" stroke="red" points="1212.5,-112.5 1212.5,-131.5 1263.5,-131.5 1263.5,-112.5 1212.5,-112.5"/>
<text text-anchor="middle" x="1238" y="-119.5" font-family="Helvetica,sans-Serif" font-size="10.00">MMS.H</text>
</a>
</g>
</g>
<!-- Node3&#45;&gt;Node98 -->
<g id="edge13" class="edge">
<title>Node3&#45;&gt;Node98</title>
<path fill="none" stroke="midnightblue" d="M1500.69,-168.03C1399.71,-149.73 1372.24,-151.07 1276,-132 1272.01,-131.21 1267.8,-130.29 1263.7,-129.36"/>
<polygon fill="midnightblue" stroke="midnightblue" points="1500.23,-171.51 1510.7,-169.87 1501.49,-164.62 1500.23,-171.51"/>
</g>
<!-- Node107 -->
<g id="node15" class="node">
<title>Node107</title>
<g id="a_node15"><a xlink:href="_synthetic_turbulence_8_h.html" target="_top" xlink:title=" ">
<polygon fill="white" stroke="red" points="1285.5,-112.5 1285.5,-131.5 1410.5,-131.5 1410.5,-112.5 1285.5,-112.5"/>
<text text-anchor="middle" x="1348" y="-119.5" font-family="Helvetica,sans-Serif" font-size="10.00">SyntheticTurbulence.H</text>
</a>
</g>
</g>
<!-- Node3&#45;&gt;Node107 -->
<g id="edge14" class="edge">
<title>Node3&#45;&gt;Node107</title>
<path fill="none" stroke="midnightblue" d="M1502.98,-165.7C1465.99,-155.51 1412.4,-140.74 1378.91,-131.52"/>
<polygon fill="midnightblue" stroke="midnightblue" points="1502.37,-169.16 1512.94,-168.44 1504.23,-162.41 1502.37,-169.16"/>
</g>
<!-- Node3&#45;&gt;Node122 -->
<g id="edge15" class="edge">
<title>Node3&#45;&gt;Node122</title>
<path fill="none" stroke="midnightblue" d="M1587.17,-166.69C1629.85,-156.49 1694.39,-141.07 1734.28,-131.54"/>
<polygon fill="midnightblue" stroke="midnightblue" points="1586.26,-163.3 1577.35,-169.03 1587.89,-170.11 1586.26,-163.3"/>
</g>
<!-- Node60 -->
<g id="node6" class="node">
<title>Node60</title>
<g id="a_node6"><a xlink:href="_a_b_l_8_h.html" target="_top" xlink:title=" ">
<polygon fill="white" stroke="red" points="647,-56.5 647,-75.5 693,-75.5 693,-56.5 647,-56.5"/>
<text text-anchor="middle" x="670" y="-63.5" font-family="Helvetica,sans-Serif" font-size="10.00">ABL.H</text>
</a>
</g>
</g>
<!-- Node63&#45;&gt;Node60 -->
<g id="edge5" class="edge">
<title>Node63&#45;&gt;Node60</title>
<path fill="none" stroke="midnightblue" d="M644.06,-103.86C650.64,-94.5 658.51,-83.33 663.84,-75.75"/>
<polygon fill="midnightblue" stroke="midnightblue" points="641.17,-101.89 638.27,-112.08 646.89,-105.92 641.17,-101.89"/>
</g>
<!-- Node60&#45;&gt;Node8 -->
<g id="edge6" class="edge">
<title>Node60&#45;&gt;Node8</title>
<path fill="none" stroke="midnightblue" d="M703.2,-63.48C874.05,-55.67 1652.55,-20.07 1819.44,-12.44"/>
<polygon fill="midnightblue" stroke="midnightblue" points="702.89,-59.99 693.06,-63.95 703.21,-66.99 702.89,-59.99"/>
</g>
<!-- Node14 -->
<g id="node8" class="node">
<title>Node14</title>
<g id="a_node8"><a xlink:href="init_8cpp.html" target="_top" xlink:title=" ">
<polygon fill="white" stroke="black" points="161.5,-0.5 161.5,-19.5 214.5,-19.5 214.5,-0.5 161.5,-0.5"/>
<text text-anchor="middle" x="188" y="-7.5" font-family="Helvetica,sans-Serif" font-size="10.00">init.cpp</text>
</a>
</g>
</g>
<!-- Node60&#45;&gt;Node14 -->
<g id="edge7" class="edge">
<title>Node60&#45;&gt;Node14</title>
<path fill="none" stroke="midnightblue" d="M636.78,-61.28C546.36,-51.15 297.13,-23.23 214.79,-14"/>
<polygon fill="midnightblue" stroke="midnightblue" points="636.42,-64.76 646.75,-62.4 637.2,-57.8 636.42,-64.76"/>
</g>
<!-- Node46&#45;&gt;Node47 -->
<g id="edge23" class="edge">
<title>Node46&#45;&gt;Node47</title>
<path fill="none" stroke="midnightblue" d="M2242.17,-162.62C2227.19,-152.76 2207.8,-139.99 2195.14,-131.65"/>
<polygon fill="midnightblue" stroke="midnightblue" points="2240.55,-165.75 2250.83,-168.32 2244.4,-159.9 2240.55,-165.75"/>
</g>
<!-- Node46&#45;&gt;Node48 -->
<g id="edge24" class="edge">
<title>Node46&#45;&gt;Node48</title>
<path fill="none" stroke="midnightblue" d="M2278.42,-160.43C2286.66,-150.97 2296.65,-139.48 2303.38,-131.75"/>
<polygon fill="midnightblue" stroke="midnightblue" points="2275.69,-158.24 2271.76,-168.08 2280.97,-162.84 2275.69,-158.24"/>
</g>
<!-- Node155&#45;&gt;Node3 -->
<g id="edge28" class="edge">
<title>Node155&#45;&gt;Node3</title>
<path fill="none" stroke="midnightblue" d="M883.29,-232.14C988.29,-229.57 1269.19,-220.01 1501,-188 1504.17,-187.56 1507.46,-187.03 1510.74,-186.43"/>
<polygon fill="midnightblue" stroke="midnightblue" points="883.01,-228.65 873.1,-232.38 883.18,-235.64 883.01,-228.65"/>
</g>
<!-- Node155&#45;&gt;Node60 -->
<g id="edge29" class="edge">
<title>Node155&#45;&gt;Node60</title>
<path fill="none" stroke="midnightblue" d="M812.9,-219.9C797.52,-211.94 778.66,-200.85 764,-188 723.19,-152.23 687.73,-96.63 675.01,-75.52"/>
<polygon fill="midnightblue" stroke="midnightblue" points="811.46,-223.09 821.96,-224.43 814.59,-216.83 811.46,-223.09"/>
</g>
<!-- Node155&#45;&gt;Node14 -->
<g id="edge48" class="edge">
<title>Node155&#45;&gt;Node14</title>
<path fill="none" stroke="midnightblue" d="M798.93,-233.46C657.62,-234.57 206.45,-234.43 163,-188 122.91,-145.16 148.28,-112.79 163,-56 166.54,-42.33 175.23,-28.39 181.37,-19.73"/>
<polygon fill="midnightblue" stroke="midnightblue" points="798.97,-236.96 808.94,-233.38 798.91,-229.96 798.97,-236.96"/>
</g>
<!-- Node155&#45;&gt;Node91 -->
<g id="edge35" class="edge">
<title>Node155&#45;&gt;Node91</title>
<path fill="none" stroke="midnightblue" d="M806.4,-219.92C792.49,-212.75 777.89,-202.34 770,-188 758.01,-166.21 785.67,-143.66 804.12,-131.69"/>
<polygon fill="midnightblue" stroke="midnightblue" points="805.3,-223.27 815.84,-224.38 808.29,-216.94 805.3,-223.27"/>
</g>
<!-- Node155&#45;&gt;Node93 -->
<g id="edge36" class="edge">
<title>Node155&#45;&gt;Node93</title>
<path fill="none" stroke="midnightblue" d="M823.26,-217.08C810.03,-203.27 796.14,-183.17 808,-168 821.81,-150.33 873.66,-138.61 918.34,-131.57"/>
<polygon fill="midnightblue" stroke="midnightblue" points="821.16,-219.92 830.77,-224.39 826.05,-214.91 821.16,-219.92"/>
</g>
<!-- Node155&#45;&gt;Node95 -->
<g id="edge37" class="edge">
<title>Node155&#45;&gt;Node95</title>
<path fill="none" stroke="midnightblue" d="M836.78,-214.2C834.71,-199.72 834.71,-180.16 846,-168 850.24,-163.43 1014.91,-140.29 1096.34,-129.09"/>
<polygon fill="midnightblue" stroke="midnightblue" points="833.34,-214.89 838.6,-224.09 840.23,-213.62 833.34,-214.89"/>
</g>
<!-- Node155&#45;&gt;Node98 -->
<g id="edge39" class="edge">
<title>Node155&#45;&gt;Node98</title>
<path fill="none" stroke="midnightblue" d="M846.74,-214.21C852.4,-199.09 862.61,-178.69 879,-168 938.02,-129.52 1124.42,-143.07 1194,-132 1200.01,-131.04 1206.44,-129.84 1212.48,-128.62"/>
<polygon fill="midnightblue" stroke="midnightblue" points="843.3,-213.46 843.4,-224.06 849.93,-215.71 843.3,-213.46"/>
</g>
<!-- Node155&#45;&gt;Node107 -->
<g id="edge46" class="edge">
<title>Node155&#45;&gt;Node107</title>
<path fill="none" stroke="midnightblue" d="M883.18,-232.55C1001.32,-230.84 1328.93,-222.96 1361,-188 1375.31,-172.39 1362.34,-145.64 1353.9,-131.83"/>
<polygon fill="midnightblue" stroke="midnightblue" points="883.02,-229.05 873.07,-232.68 883.12,-236.05 883.02,-229.05"/>
</g>
<!-- Node155&#45;&gt;Node9 -->
<g id="edge32" class="edge">
<title>Node155&#45;&gt;Node9</title>
<path fill="none" stroke="midnightblue" d="M883.04,-231.63C996.62,-227.68 1319.07,-214.79 1586,-188 1588.9,-187.71 1591.88,-187.38 1594.88,-187.03"/>
<polygon fill="midnightblue" stroke="midnightblue" points="882.9,-228.13 873.02,-231.98 883.14,-235.13 882.9,-228.13"/>
</g>
<!-- Node156 -->
<g id="node23" class="node">
<title>Node156</title>
<g id="a_node23"><a xlink:href="_actuator_8_h.html" target="_top" xlink:title=" ">
<polygon fill="white" stroke="red" points="888,-168.5 888,-187.5 956,-187.5 956,-168.5 888,-168.5"/>
<text text-anchor="middle" x="922" y="-175.5" font-family="Helvetica,sans-Serif" font-size="10.00">Actuator.H</text>
</a>
</g>
</g>
<!-- Node155&#45;&gt;Node156 -->
<g id="edge30" class="edge">
<title>Node155&#45;&gt;Node156</title>
<path fill="none" stroke="midnightblue" d="M862.57,-218.62C877.36,-208.76 896.51,-195.99 909.02,-187.65"/>
<polygon fill="midnightblue" stroke="midnightblue" points="860.39,-215.86 854.01,-224.32 864.28,-221.69 860.39,-215.86"/>
</g>
<!-- Node158 -->
<g id="node24" class="node">
<title>Node158</title>
<g id="a_node24"><a xlink:href="_multi_phase_8_h.html" target="_top" xlink:title=" ">
<polygon fill="white" stroke="red" points="974.5,-168.5 974.5,-187.5 1055.5,-187.5 1055.5,-168.5 974.5,-168.5"/>
<text text-anchor="middle" x="1015" y="-175.5" font-family="Helvetica,sans-Serif" font-size="10.00">MultiPhase.H</text>
</a>
</g>
</g>
<!-- Node155&#45;&gt;Node158 -->
<g id="edge31" class="edge">
<title>Node155&#45;&gt;Node158</title>
<path fill="none" stroke="midnightblue" d="M878.26,-221.44C911.07,-211.26 958.08,-196.66 987.56,-187.52"/>
<polygon fill="midnightblue" stroke="midnightblue" points="877.08,-218.14 868.57,-224.44 879.16,-224.82 877.08,-218.14"/>
</g>
<!-- Node161 -->
<g id="node25" class="node">
<title>Node161</title>
<g id="a_node25"><a xlink:href="_boussinesq_bubble_8_h.html" target="_top" xlink:title=" ">
<polygon fill="white" stroke="red" points="0,-56.5 0,-75.5 116,-75.5 116,-56.5 0,-56.5"/>
<text text-anchor="middle" x="58" y="-63.5" font-family="Helvetica,sans-Serif" font-size="10.00">BoussinesqBubble.H</text>
</a>
</g>
</g>
<!-- Node155&#45;&gt;Node161 -->
<g id="edge33" class="edge">
<title>Node155&#45;&gt;Node161</title>
<path fill="none" stroke="midnightblue" d="M798.71,-232.6C654.38,-230.93 187.01,-222.85 130,-188 86.83,-161.61 66.4,-98.79 60.16,-75.7"/>
<polygon fill="midnightblue" stroke="midnightblue" points="798.89,-236.1 808.93,-232.71 798.97,-229.1 798.89,-236.1"/>
</g>
<!-- Node162 -->
<g id="node26" class="node">
<title>Node162</title>
<g id="a_node26"><a xlink:href="_free_stream_8_h.html" target="_top" xlink:title=" ">
<polygon fill="white" stroke="red" points="1409.5,-168.5 1409.5,-187.5 1492.5,-187.5 1492.5,-168.5 1409.5,-168.5"/>
<text text-anchor="middle" x="1451" y="-175.5" font-family="Helvetica,sans-Serif" font-size="10.00">FreeStream.H</text>
</a>
</g>
</g>
<!-- Node155&#45;&gt;Node162 -->
<g id="edge38" class="edge">
<title>Node155&#45;&gt;Node162</title>
<path fill="none" stroke="midnightblue" d="M883.38,-230.69C976.27,-225.39 1204.74,-210.98 1395,-188 1399.69,-187.43 1404.59,-186.76 1409.46,-186.05"/>
<polygon fill="midnightblue" stroke="midnightblue" points="883.04,-227.21 873.25,-231.27 883.43,-234.2 883.04,-227.21"/>
</g>
<!-- Node163 -->
<g id="node27" class="node">
<title>Node163</title>
<g id="a_node27"><a xlink:href="_dam_break_8_h.html" target="_top" xlink:title=" ">
<polygon fill="white" stroke="red" points="1073.5,-168.5 1073.5,-187.5 1152.5,-187.5 1152.5,-168.5 1073.5,-168.5"/>
<text text-anchor="middle" x="1113" y="-175.5" font-family="Helvetica,sans-Serif" font-size="10.00">DamBreak.H</text>
</a>
</g>
</g>
<!-- Node155&#45;&gt;Node163 -->
<g id="edge40" class="edge">
<title>Node155&#45;&gt;Node163</title>
<path fill="none" stroke="midnightblue" d="M882.87,-224.69C934.7,-214.4 1022.34,-197 1073.2,-186.9"/>
<polygon fill="midnightblue" stroke="midnightblue" points="882.13,-221.27 873,-226.65 883.49,-228.13 882.13,-221.27"/>
</g>
<!-- Node164 -->
<g id="node28" class="node">
<title>Node164</title>
<g id="a_node28"><a xlink:href="_rain_drop_8_h.html" target="_top" xlink:title=" ">
<polygon fill="white" stroke="red" points="1171,-168.5 1171,-187.5 1243,-187.5 1243,-168.5 1171,-168.5"/>
<text text-anchor="middle" x="1207" y="-175.5" font-family="Helvetica,sans-Serif" font-size="10.00">RainDrop.H</text>
</a>
</g>
</g>
<!-- Node155&#45;&gt;Node164 -->
<g id="edge41" class="edge">
<title>Node155&#45;&gt;Node164</title>
<path fill="none" stroke="midnightblue" d="M883.42,-227.77C944.8,-220.03 1061.89,-204.65 1161,-188 1164.21,-187.46 1167.54,-186.87 1170.87,-186.26"/>
<polygon fill="midnightblue" stroke="midnightblue" points="882.82,-224.32 873.34,-229.03 883.69,-231.26 882.82,-224.32"/>
</g>
<!-- Node165 -->
<g id="node29" class="node">
<title>Node165</title>
<g id="a_node29"><a xlink:href="_sloshing_tank_8_h.html" target="_top" xlink:title=" ">
<polygon fill="white" stroke="red" points="1261.5,-168.5 1261.5,-187.5 1352.5,-187.5 1352.5,-168.5 1261.5,-168.5"/>
<text text-anchor="middle" x="1307" y="-175.5" font-family="Helvetica,sans-Serif" font-size="10.00">SloshingTank.H</text>
</a>
</g>
</g>
<!-- Node155&#45;&gt;Node165 -->
<g id="edge42" class="edge">
<title>Node155&#45;&gt;Node165</title>
<path fill="none" stroke="midnightblue" d="M883.43,-229.1C958.1,-222.08 1117.78,-206.32 1252,-188 1255.07,-187.58 1258.23,-187.13 1261.41,-186.65"/>
<polygon fill="midnightblue" stroke="midnightblue" points="882.68,-225.66 873.05,-230.08 883.33,-232.63 882.68,-225.66"/>
</g>
<!-- Node166 -->
<g id="node30" class="node">
<title>Node166</title>
<g id="a_node30"><a xlink:href="_vortex_patch_8_h.html" target="_top" xlink:title=" ">
<polygon fill="white" stroke="red" points="172.5,-168.5 172.5,-187.5 257.5,-187.5 257.5,-168.5 172.5,-168.5"/>
<text text-anchor="middle" x="215" y="-175.5" font-family="Helvetica,sans-Serif" font-size="10.00">VortexPatch.H</text>
</a>
</g>
</g>
<!-- Node155&#45;&gt;Node166 -->
<g id="edge43" class="edge">
<title>Node155&#45;&gt;Node166</title>
<path fill="none" stroke="midnightblue" d="M798.75,-231.04C703.56,-226.32 465.13,-212.86 267,-188 263.91,-187.61 260.72,-187.17 257.52,-186.69"/>
<polygon fill="midnightblue" stroke="midnightblue" points="798.69,-234.54 808.84,-231.53 799.03,-227.55 798.69,-234.54"/>
</g>
<!-- Node167 -->
<g id="node31" class="node">
<title>Node167</title>
<g id="a_node31"><a xlink:href="_zalesak_disk_8_h.html" target="_top" xlink:title=" ">
<polygon fill="white" stroke="red" points="276,-168.5 276,-187.5 364,-187.5 364,-168.5 276,-168.5"/>
<text text-anchor="middle" x="320" y="-175.5" font-family="Helvetica,sans-Serif" font-size="10.00">ZalesakDisk.H</text>
</a>
</g>
</g>
<!-- Node155&#45;&gt;Node167 -->
<g id="edge44" class="edge">
<title>Node155&#45;&gt;Node167</title>
<path fill="none" stroke="midnightblue" d="M798.65,-229.96C716.4,-223.83 529.39,-208.77 373,-188 370.13,-187.62 367.18,-187.2 364.21,-186.75"/>
<polygon fill="midnightblue" stroke="midnightblue" points="798.62,-233.47 808.85,-230.71 799.14,-226.49 798.62,-233.47"/>
</g>
<!-- Node168 -->
<g id="node32" class="node">
<title>Node168</title>
<g id="a_node32"><a xlink:href="_rayleigh_taylor_8_h.html" target="_top" xlink:title=" ">
<polygon fill="white" stroke="red" points="382,-168.5 382,-187.5 480,-187.5 480,-168.5 382,-168.5"/>
<text text-anchor="middle" x="431" y="-175.5" font-family="Helvetica,sans-Serif" font-size="10.00">RayleighTaylor.H</text>
</a>
</g>
</g>
<!-- Node155&#45;&gt;Node168 -->
<g id="edge45" class="edge">
<title>Node155&#45;&gt;Node168</title>
<path fill="none" stroke="midnightblue" d="M798.9,-227.99C732.82,-220.04 600.75,-203.81 489,-188 486.07,-187.59 483.07,-187.15 480.03,-186.7"/>
<polygon fill="midnightblue" stroke="midnightblue" points="798.58,-231.47 808.93,-229.19 799.42,-224.52 798.58,-231.47"/>
</g>
<!-- Node169 -->
<g id="node33" class="node">
<title>Node169</title>
<g id="a_node33"><a xlink:href="_taylor_green_vortex_8_h.html" target="_top" xlink:title=" ">
<polygon fill="white" stroke="red" points="498.5,-168.5 498.5,-187.5 615.5,-187.5 615.5,-168.5 498.5,-168.5"/>
<text text-anchor="middle" x="557" y="-175.5" font-family="Helvetica,sans-Serif" font-size="10.00">TaylorGreenVortex.H</text>
</a>
</g>
</g>
<!-- Node155&#45;&gt;Node169 -->
<g id="edge47" class="edge">
<title>Node155&#45;&gt;Node169</title>
<path fill="none" stroke="midnightblue" d="M798.94,-225C746.17,-214.97 656.06,-197.83 601.96,-187.55"/>
<polygon fill="midnightblue" stroke="midnightblue" points="798.5,-228.48 808.97,-226.91 799.8,-221.6 798.5,-228.48"/>
</g>
<!-- Node17 -->
<g id="node34" class="node">
<title>Node17</title>
<g id="a_node34"><a xlink:href="io_8cpp.html" target="_top" xlink:title=" ">
<polygon fill="white" stroke="black" points="634,-168.5 634,-187.5 680,-187.5 680,-168.5 634,-168.5"/>
<text text-anchor="middle" x="657" y="-175.5" font-family="Helvetica,sans-Serif" font-size="10.00">io.cpp</text>
</a>
</g>
</g>
<!-- Node155&#45;&gt;Node17 -->
<g id="edge49" class="edge">
<title>Node155&#45;&gt;Node17</title>
<path fill="none" stroke="midnightblue" d="M801.91,-221.53C764.96,-210.68 710.76,-194.78 680.19,-185.81"/>
<polygon fill="midnightblue" stroke="midnightblue" points="801.26,-224.99 811.84,-224.44 803.23,-218.27 801.26,-224.99"/>
</g>
<!-- Node161&#45;&gt;Node14 -->
<g id="edge34" class="edge">
<title>Node161&#45;&gt;Node14</title>
<path fill="none" stroke="midnightblue" d="M88.09,-52.5C112.46,-42.38 146.14,-28.39 167.5,-19.52"/>
<polygon fill="midnightblue" stroke="midnightblue" points="86.49,-49.38 78.6,-56.44 89.18,-55.84 86.49,-49.38"/>
</g>
<!-- Node170&#45;&gt;Node9 -->
<g id="edge51" class="edge">
<title>Node170&#45;&gt;Node9</title>
<path fill="none" stroke="midnightblue" d="M1656.5,-214.1C1654.84,-205.14 1652.94,-194.86 1651.62,-187.75"/>
<polygon fill="midnightblue" stroke="midnightblue" points="1653.09,-214.89 1658.35,-224.08 1659.97,-213.61 1653.09,-214.89"/>
</g>
<!-- Node171&#45;&gt;Node8 -->
<g id="edge53" class="edge">
<title>Node171&#45;&gt;Node8</title>
<path fill="none" stroke="midnightblue" d="M1779.02,-218.8C1760.57,-206 1740.1,-186.41 1752,-168 1773.17,-135.26 1808.35,-163 1832,-132 1858.32,-97.52 1854.76,-41.15 1852.22,-19.68"/>
<polygon fill="midnightblue" stroke="midnightblue" points="1777.2,-221.8 1787.49,-224.34 1781.04,-215.94 1777.2,-221.8"/>
</g>
<!-- Node171&#45;&gt;Node9 -->
<g id="edge54" class="edge">
<title>Node171&#45;&gt;Node9</title>
<path fill="none" stroke="midnightblue" d="M1769.11,-221.04C1740.32,-210.88 1699.71,-196.55 1674.13,-187.52"/>
<polygon fill="midnightblue" stroke="midnightblue" points="1768.16,-224.42 1778.76,-224.44 1770.49,-217.81 1768.16,-224.42"/>
</g>
<!-- Node171&#45;&gt;Node172 -->
<g id="edge55" class="edge">
<title>Node171&#45;&gt;Node172</title>
<path fill="none" stroke="midnightblue" d="M1806.15,-214.1C1807.64,-205.14 1809.36,-194.86 1810.54,-187.75"/>
<polygon fill="midnightblue" stroke="midnightblue" points="1802.68,-213.64 1804.49,-224.08 1809.58,-214.79 1802.68,-213.64"/>
</g>
<!-- Node175&#45;&gt;Node8 -->
<g id="edge57" class="edge">
<title>Node175&#45;&gt;Node8</title>
<path fill="none" stroke="midnightblue" d="M2231.23,-57.24C2134.68,-45.5 1954.99,-23.65 1882.51,-14.83"/>
<polygon fill="midnightblue" stroke="midnightblue" points="2231.09,-60.75 2241.44,-58.49 2231.94,-53.8 2231.09,-60.75"/>
</g>
<!-- Node200&#45;&gt;Node8 -->
<g id="edge67" class="edge">
<title>Node200&#45;&gt;Node8</title>
<path fill="none" stroke="midnightblue" d="M301.59,-62.68C582.14,-53.32 1624.35,-18.56 1819.43,-12.05"/>
<polygon fill="midnightblue" stroke="midnightblue" points="301.42,-59.18 291.54,-63.01 301.65,-66.18 301.42,-59.18"/>
</g>
<!-- Node200&#45;&gt;Node14 -->
<g id="edge68" class="edge">
<title>Node200&#45;&gt;Node14</title>
<path fill="none" stroke="midnightblue" d="M218.27,-48.14C210.6,-38.74 201.37,-27.4 195.13,-19.75"/>
<polygon fill="midnightblue" stroke="midnightblue" points="215.7,-50.54 224.73,-56.08 221.13,-46.12 215.7,-50.54"/>
</g>
<!-- Node215&#45;&gt;Node162 -->
<g id="edge70" class="edge">
<title>Node215&#45;&gt;Node162</title>
<path fill="none" stroke="midnightblue" d="M1479.89,-216.14C1472.57,-206.74 1463.76,-195.4 1457.81,-187.75"/>
<polygon fill="midnightblue" stroke="midnightblue" points="1477.16,-218.34 1486.06,-224.08 1482.69,-214.04 1477.16,-218.34"/>
</g>
</g>
</svg>
