<?xml version="1.0" encoding="UTF-8" standalone="no"?>
<!DOCTYPE svg PUBLIC "-//W3C//DTD SVG 1.1//EN"
 "http://www.w3.org/Graphics/SVG/1.1/DTD/svg11.dtd">
<!-- Generated by graphviz version 2.43.0 (0)
 -->
<!-- Title: PDEBase.H Pages: 1 -->
<!--zoomable 252 -->
<svg id="main" version="1.1" xmlns="http://www.w3.org/2000/svg" xmlns:xlink="http://www.w3.org/1999/xlink" xml:space="preserve" onload="init(evt)">
<style type="text/css"><![CDATA[
.edge:hover path { stroke: red; }
.edge:hover polygon { stroke: red; fill: red; }
]]></style>
<script type="text/javascript"><![CDATA[
var edges = document.getElementsByTagName('g');
if (edges && edges.length) {
  for (var i=0;i<edges.length;i++) {
    if (edges[i].id.substr(0,4)=='edge') {
      edges[i].setAttribute('class','edge');
    }
  }
}
]]></script>
        <defs>
                <circle id="rim" cx="0" cy="0" r="7"/>
                <circle id="rim2" cx="0" cy="0" r="3.5"/>
                <g id="zoomPlus">
                        <use xlink:href="#rim" fill="#404040">
                                <set attributeName="fill" to="#808080" begin="zoomplus.mouseover" end="zoomplus.mouseout"/>
                        </use>
                        <path d="M-4,0h8M0,-4v8" fill="none" stroke="white" stroke-width="1.5" pointer-events="none"/>
                </g>
                <g id="zoomMin">
                        <use xlink:href="#rim" fill="#404040">
                                <set attributeName="fill" to="#808080" begin="zoomminus.mouseover" end="zoomminus.mouseout"/>
                        </use>
                        <path d="M-4,0h8" fill="none" stroke="white" stroke-width="1.5" pointer-events="none"/>
                </g>
                <g id="dirArrow">
                        <path fill="none" stroke="white" stroke-width="1.5" d="M0,-3.0v7 M-2.5,-0.5L0,-3.0L2.5,-0.5"/>
                </g>
               <g id="resetDef">
                       <use xlink:href="#rim2" fill="#404040">
                               <set attributeName="fill" to="#808080" begin="reset.mouseover" end="reset.mouseout"/>
                       </use>
               </g>
        </defs>

<script type="text/javascript">
var viewWidth = 4724;
var viewHeight = 252;
var sectionId = 'dynsection-1';
</script>
<script xlink:href="svgpan.js"/>
<svg id="graph" class="graph">
<g id="viewport">
<title>PDEBase.H</title>
<polygon fill="white" stroke="transparent" points="-4,4 -4,-248 4719.5,-248 4719.5,4 -4,4"/>
<!-- Node1 -->
<g id="node1" class="node">
<title>Node1</title>
<g id="a_node1"><a xlink:title=" ">
<polygon fill="#bfbfbf" stroke="black" points="4308,-224.5 4308,-243.5 4379,-243.5 4379,-224.5 4308,-224.5"/>
<text text-anchor="middle" x="4343.5" y="-231.5" font-family="Helvetica,sans-Serif" font-size="10.00">PDEBase.H</text>
</a>
</g>
</g>
<!-- Node2 -->
<g id="node2" class="node">
<title>Node2</title>
<g id="a_node2"><a xlink:href="_c_f_d_sim_8_h.html" target="_top" xlink:title=" ">
<polygon fill="white" stroke="red" points="2432.5,-168.5 2432.5,-187.5 2498.5,-187.5 2498.5,-168.5 2432.5,-168.5"/>
<text text-anchor="middle" x="2465.5" y="-175.5" font-family="Helvetica,sans-Serif" font-size="10.00">CFDSim.H</text>
</a>
</g>
</g>
<!-- Node1&#45;&gt;Node2 -->
<g id="edge1" class="edge">
<title>Node1&#45;&gt;Node2</title>
<path fill="none" stroke="midnightblue" d="M4297.31,-231.67C4033.84,-224.1 2724.6,-186.45 2498.72,-179.96"/>
<polygon fill="midnightblue" stroke="midnightblue" points="4297.56,-235.18 4307.66,-231.97 4297.77,-228.18 4297.56,-235.18"/>
</g>
<!-- Node7 -->
<g id="node5" class="node">
<title>Node7</title>
<g id="a_node5"><a xlink:href="incflo_8cpp.html" target="_top" xlink:title=" ">
<polygon fill="white" stroke="black" points="0,-56.5 0,-75.5 63,-75.5 63,-56.5 0,-56.5"/>
<text text-anchor="middle" x="31.5" y="-63.5" font-family="Helvetica,sans-Serif" font-size="10.00">incflo.cpp</text>
</a>
</g>
</g>
<!-- Node1&#45;&gt;Node7 -->
<g id="edge56" class="edge">
<title>Node1&#45;&gt;Node7</title>
<path fill="none" stroke="midnightblue" d="M4297.73,-233.06C3846.5,-233.57 208.73,-236.21 109.5,-188 62.74,-165.28 40.47,-99.6 33.77,-75.77"/>
<polygon fill="midnightblue" stroke="midnightblue" points="4297.8,-236.56 4307.79,-233.05 4297.79,-229.56 4297.8,-236.56"/>
</g>
<!-- Node8 -->
<g id="node6" class="node">
<title>Node8</title>
<g id="a_node6"><a xlink:href="incflo__advance_8cpp.html" target="_top" xlink:title=" ">
<polygon fill="white" stroke="black" points="110.5,-56.5 110.5,-75.5 220.5,-75.5 220.5,-56.5 110.5,-56.5"/>
<text text-anchor="middle" x="165.5" y="-63.5" font-family="Helvetica,sans-Serif" font-size="10.00">incflo_advance.cpp</text>
</a>
</g>
</g>
<!-- Node1&#45;&gt;Node8 -->
<g id="edge57" class="edge">
<title>Node1&#45;&gt;Node8</title>
<path fill="none" stroke="midnightblue" d="M4297.8,-233.05C3924.13,-233.37 1365.58,-233.83 595.5,-188 362.58,-174.14 229.44,-305.57 73.5,-132 51.15,-107.12 99.71,-86.48 134.42,-75.51"/>
<polygon fill="midnightblue" stroke="midnightblue" points="4297.97,-236.55 4307.97,-233.04 4297.97,-229.55 4297.97,-236.55"/>
</g>
<!-- Node35 -->
<g id="node8" class="node">
<title>Node35</title>
<g id="a_node8"><a xlink:href="_p_d_e_8_h.html" target="_top" xlink:title=" ">
<polygon fill="white" stroke="red" points="4167,-56.5 4167,-75.5 4214,-75.5 4214,-56.5 4167,-56.5"/>
<text text-anchor="middle" x="4190.5" y="-63.5" font-family="Helvetica,sans-Serif" font-size="10.00">PDE.H</text>
</a>
</g>
</g>
<!-- Node1&#45;&gt;Node35 -->
<g id="edge54" class="edge">
<title>Node1&#45;&gt;Node35</title>
<path fill="none" stroke="midnightblue" d="M4353.58,-215.71C4370.04,-186.38 4399.6,-128.45 4386.5,-112 4365.18,-85.24 4261.62,-73.08 4214.24,-68.85"/>
<polygon fill="midnightblue" stroke="midnightblue" points="4350.5,-214.04 4348.58,-224.46 4356.58,-217.51 4350.5,-214.04"/>
</g>
<!-- Node85 -->
<g id="node24" class="node">
<title>Node85</title>
<g id="a_node24"><a xlink:href="_p_d_e_base_8cpp.html" target="_top" xlink:title=" ">
<polygon fill="white" stroke="black" points="82.5,-112.5 82.5,-131.5 162.5,-131.5 162.5,-112.5 82.5,-112.5"/>
<text text-anchor="middle" x="122.5" y="-119.5" font-family="Helvetica,sans-Serif" font-size="10.00">PDEBase.cpp</text>
</a>
</g>
</g>
<!-- Node1&#45;&gt;Node85 -->
<g id="edge55" class="edge">
<title>Node1&#45;&gt;Node85</title>
<path fill="none" stroke="midnightblue" d="M4297.67,-231.95C4084.91,-227.07 3172.1,-206.08 2423.5,-188 1422.59,-163.83 1167.37,-235.2 171.5,-132 168.57,-131.7 165.56,-131.32 162.54,-130.88"/>
<polygon fill="midnightblue" stroke="midnightblue" points="4297.77,-235.45 4307.85,-232.18 4297.93,-228.45 4297.77,-235.45"/>
</g>
<!-- Node89 -->
<g id="node28" class="node">
<title>Node89</title>
<g id="a_node28"><a xlink:href="_tioga_interface_8cpp.html" target="_top" xlink:title=" ">
<polygon fill="white" stroke="black" points="4271,-112.5 4271,-131.5 4378,-131.5 4378,-112.5 4271,-112.5"/>
<text text-anchor="middle" x="4324.5" y="-119.5" font-family="Helvetica,sans-Serif" font-size="10.00">TiogaInterface.cpp</text>
</a>
</g>
</g>
<!-- Node1&#45;&gt;Node89 -->
<g id="edge58" class="edge">
<title>Node1&#45;&gt;Node89</title>
<path fill="none" stroke="midnightblue" d="M4340.28,-214.35C4336.12,-190.25 4329.04,-149.31 4325.98,-131.59"/>
<polygon fill="midnightblue" stroke="midnightblue" points="4336.86,-215.11 4342.01,-224.37 4343.76,-213.92 4336.86,-215.11"/>
</g>
<!-- Node51 -->
<g id="node47" class="node">
<title>Node51</title>
<g id="a_node47"><a xlink:href="_one_eq_ksgs_8cpp.html" target="_top" xlink:title=" ">
<polygon fill="white" stroke="black" points="4390.5,-168.5 4390.5,-187.5 4482.5,-187.5 4482.5,-168.5 4390.5,-168.5"/>
<text text-anchor="middle" x="4436.5" y="-175.5" font-family="Helvetica,sans-Serif" font-size="10.00">OneEqKsgs.cpp</text>
</a>
</g>
</g>
<!-- Node1&#45;&gt;Node51 -->
<g id="edge59" class="edge">
<title>Node1&#45;&gt;Node51</title>
<path fill="none" stroke="midnightblue" d="M4367.31,-219.18C4384.42,-209.24 4406.97,-196.15 4421.6,-187.65"/>
<polygon fill="midnightblue" stroke="midnightblue" points="4365.33,-216.28 4358.44,-224.32 4368.85,-222.33 4365.33,-216.28"/>
</g>
<!-- Node45 -->
<g id="node48" class="node">
<title>Node45</title>
<g id="a_node48"><a xlink:href="_k_omega_s_s_t_i_8_h.html" target="_top" xlink:title=" ">
<polygon fill="white" stroke="black" points="4539,-168.5 4539,-187.5 4628,-187.5 4628,-168.5 4539,-168.5"/>
<text text-anchor="middle" x="4583.5" y="-175.5" font-family="Helvetica,sans-Serif" font-size="10.00">KOmegaSSTI.H</text>
</a>
</g>
</g>
<!-- Node1&#45;&gt;Node45 -->
<g id="edge60" class="edge">
<title>Node1&#45;&gt;Node45</title>
<path fill="none" stroke="midnightblue" d="M4389.04,-222.75C4434.39,-212.55 4503.21,-197.07 4545.65,-187.52"/>
<polygon fill="midnightblue" stroke="midnightblue" points="4388.16,-219.36 4379.17,-224.97 4389.7,-226.19 4388.16,-219.36"/>
</g>
<!-- Node46 -->
<g id="node49" class="node">
<title>Node46</title>
<g id="a_node49"><a xlink:href="_k_omega_s_s_t_8cpp.html" target="_top" xlink:title=" ">
<polygon fill="white" stroke="black" points="4468,-112.5 4468,-131.5 4563,-131.5 4563,-112.5 4468,-112.5"/>
<text text-anchor="middle" x="4515.5" y="-119.5" font-family="Helvetica,sans-Serif" font-size="10.00">KOmegaSST.cpp</text>
</a>
</g>
</g>
<!-- Node1&#45;&gt;Node46 -->
<g id="edge63" class="edge">
<title>Node1&#45;&gt;Node46</title>
<path fill="none" stroke="midnightblue" d="M4389.13,-229.71C4421.45,-225.1 4463.82,-214.1 4491.5,-188 4507.6,-172.81 4512.96,-145.88 4514.69,-131.93"/>
<polygon fill="midnightblue" stroke="midnightblue" points="4388.5,-226.26 4379.02,-230.99 4389.38,-233.21 4388.5,-226.26"/>
</g>
<!-- Node47 -->
<g id="node50" class="node">
<title>Node47</title>
<g id="a_node50"><a xlink:href="_k_omega_s_s_t_i_d_d_e_s_8cpp.html" target="_top" xlink:title=" ">
<polygon fill="white" stroke="black" points="4589.5,-112.5 4589.5,-131.5 4715.5,-131.5 4715.5,-112.5 4589.5,-112.5"/>
<text text-anchor="middle" x="4652.5" y="-119.5" font-family="Helvetica,sans-Serif" font-size="10.00">KOmegaSSTIDDES.cpp</text>
</a>
</g>
</g>
<!-- Node1&#45;&gt;Node47 -->
<g id="edge64" class="edge">
<title>Node1&#45;&gt;Node47</title>
<path fill="none" stroke="midnightblue" d="M4389.41,-232.08C4462.9,-229.63 4602.28,-220.68 4637.5,-188 4653.29,-173.35 4654.05,-145.67 4653.29,-131.64"/>
<polygon fill="midnightblue" stroke="midnightblue" points="4388.96,-228.59 4379.07,-232.39 4389.17,-235.59 4388.96,-228.59"/>
</g>
<!-- Node3 -->
<g id="node3" class="node">
<title>Node3</title>
<g id="a_node3"><a xlink:href="_c_f_d_sim_8cpp.html" target="_top" xlink:title=" ">
<polygon fill="white" stroke="black" points="3838.5,-112.5 3838.5,-131.5 3914.5,-131.5 3914.5,-112.5 3838.5,-112.5"/>
<text text-anchor="middle" x="3876.5" y="-119.5" font-family="Helvetica,sans-Serif" font-size="10.00">CFDSim.cpp</text>
</a>
</g>
</g>
<!-- Node2&#45;&gt;Node3 -->
<g id="edge2" class="edge">
<title>Node2&#45;&gt;Node3</title>
<path fill="none" stroke="midnightblue" d="M2509.04,-176.46C2711.68,-173.79 3563.76,-161.02 3828.5,-132 3831.7,-131.65 3835.01,-131.2 3838.33,-130.7"/>
<polygon fill="midnightblue" stroke="midnightblue" points="2508.75,-172.96 2498.79,-176.59 2508.84,-179.96 2508.75,-172.96"/>
</g>
<!-- Node4 -->
<g id="node4" class="node">
<title>Node4</title>
<g id="a_node4"><a xlink:href="incflo_8_h.html" target="_top" xlink:title=" ">
<polygon fill="white" stroke="red" points="181,-112.5 181,-131.5 234,-131.5 234,-112.5 181,-112.5"/>
<text text-anchor="middle" x="207.5" y="-119.5" font-family="Helvetica,sans-Serif" font-size="10.00">incflo.H</text>
</a>
</g>
</g>
<!-- Node2&#45;&gt;Node4 -->
<g id="edge3" class="edge">
<title>Node2&#45;&gt;Node4</title>
<path fill="none" stroke="midnightblue" d="M2422.27,-176.63C2132,-174.09 471.65,-158.5 248.5,-132 243.87,-131.45 238.99,-130.61 234.28,-129.67"/>
<polygon fill="midnightblue" stroke="midnightblue" points="2422.36,-180.13 2432.39,-176.72 2422.42,-173.13 2422.36,-180.13"/>
</g>
<!-- Node18 -->
<g id="node7" class="node">
<title>Node18</title>
<g id="a_node7"><a xlink:href="_p_d_e_ops_8_h.html" target="_top" xlink:title=" ">
<polygon fill="white" stroke="red" points="4002,-112.5 4002,-131.5 4067,-131.5 4067,-112.5 4002,-112.5"/>
<text text-anchor="middle" x="4034.5" y="-119.5" font-family="Helvetica,sans-Serif" font-size="10.00">PDEOps.H</text>
</a>
</g>
</g>
<!-- Node2&#45;&gt;Node18 -->
<g id="edge6" class="edge">
<title>Node2&#45;&gt;Node18</title>
<path fill="none" stroke="midnightblue" d="M2508.6,-176.79C2724.94,-175.56 3693.77,-168.1 3992.5,-132 3995.46,-131.64 3998.52,-131.18 4001.58,-130.65"/>
<polygon fill="midnightblue" stroke="midnightblue" points="2508.57,-173.29 2498.58,-176.84 2508.6,-180.29 2508.57,-173.29"/>
</g>
<!-- Node2&#45;&gt;Node35 -->
<g id="edge8" class="edge">
<title>Node2&#45;&gt;Node35</title>
<path fill="none" stroke="midnightblue" d="M2509.14,-176.65C2773.73,-174.44 4152.98,-161.51 4184.5,-132 4199.89,-117.59 4196.08,-89.81 4192.85,-75.69"/>
<polygon fill="midnightblue" stroke="midnightblue" points="2508.75,-173.15 2498.78,-176.74 2508.81,-180.15 2508.75,-173.15"/>
</g>
<!-- Node57 -->
<g id="node9" class="node">
<title>Node57</title>
<g id="a_node9"><a xlink:href="_a_b_l_forcing_8cpp.html" target="_top" xlink:title=" ">
<polygon fill="white" stroke="black" points="4085,-112.5 4085,-131.5 4176,-131.5 4176,-112.5 4085,-112.5"/>
<text text-anchor="middle" x="4130.5" y="-119.5" font-family="Helvetica,sans-Serif" font-size="10.00">ABLForcing.cpp</text>
</a>
</g>
</g>
<!-- Node2&#45;&gt;Node57 -->
<g id="edge9" class="edge">
<title>Node2&#45;&gt;Node57</title>
<path fill="none" stroke="midnightblue" d="M2508.74,-176.58C2732.29,-174.28 3758.67,-162.21 4075.5,-132 4078.58,-131.71 4081.75,-131.35 4084.94,-130.94"/>
<polygon fill="midnightblue" stroke="midnightblue" points="2508.67,-173.08 2498.71,-176.68 2508.75,-180.08 2508.67,-173.08"/>
</g>
<!-- Node58 -->
<g id="node10" class="node">
<title>Node58</title>
<g id="a_node10"><a xlink:href="_a_b_l_wall_function_8_h.html" target="_top" xlink:title=" ">
<polygon fill="white" stroke="red" points="2325,-56.5 2325,-75.5 2432,-75.5 2432,-56.5 2325,-56.5"/>
<text text-anchor="middle" x="2378.5" y="-63.5" font-family="Helvetica,sans-Serif" font-size="10.00">ABLWallFunction.H</text>
</a>
</g>
</g>
<!-- Node2&#45;&gt;Node58 -->
<g id="edge10" class="edge">
<title>Node2&#45;&gt;Node58</title>
<path fill="none" stroke="midnightblue" d="M2463.46,-157.86C2461.18,-144.02 2456.42,-125.46 2446.5,-112 2434.24,-95.36 2413.84,-83.07 2398.58,-75.57"/>
<polygon fill="midnightblue" stroke="midnightblue" points="2460.04,-158.72 2464.84,-168.16 2466.98,-157.79 2460.04,-158.72"/>
</g>
<!-- Node62 -->
<g id="node11" class="node">
<title>Node62</title>
<g id="a_node11"><a xlink:href="_a_b_l_stats_base_8_h.html" target="_top" xlink:title=" ">
<polygon fill="white" stroke="red" points="2891,-0.5 2891,-19.5 2986,-19.5 2986,-0.5 2891,-0.5"/>
<text text-anchor="middle" x="2938.5" y="-7.5" font-family="Helvetica,sans-Serif" font-size="10.00">ABLStatsBase.H</text>
</a>
</g>
</g>
<!-- Node2&#45;&gt;Node62 -->
<g id="edge16" class="edge">
<title>Node2&#45;&gt;Node62</title>
<path fill="none" stroke="midnightblue" d="M2508.74,-176.57C2773.86,-173.83 4169.5,-158.21 4204.5,-132 4225.42,-116.33 4218.45,-101.83 4222.5,-76 4223.88,-67.22 4228.67,-62.39 4222.5,-56 4178.78,-10.72 3213.68,-10.31 2986.22,-10.84"/>
<polygon fill="midnightblue" stroke="midnightblue" points="2508.69,-173.07 2498.72,-176.67 2508.76,-180.07 2508.69,-173.07"/>
</g>
<!-- Node65 -->
<g id="node12" class="node">
<title>Node65</title>
<g id="a_node12"><a xlink:href="_boussinesq_bubble_8cpp.html" target="_top" xlink:title=" ">
<polygon fill="white" stroke="black" points="1755.5,-0.5 1755.5,-19.5 1881.5,-19.5 1881.5,-0.5 1755.5,-0.5"/>
<text text-anchor="middle" x="1818.5" y="-7.5" font-family="Helvetica,sans-Serif" font-size="10.00">BoussinesqBubble.cpp</text>
</a>
</g>
</g>
<!-- Node2&#45;&gt;Node65 -->
<g id="edge31" class="edge">
<title>Node2&#45;&gt;Node65</title>
<path fill="none" stroke="midnightblue" d="M2422.31,-176.46C2119.93,-172.66 331.63,-149.45 310.5,-132 284.13,-110.23 274.68,-80.54 298.5,-56 324.27,-29.45 1471.24,-14.88 1755.35,-11.68"/>
<polygon fill="midnightblue" stroke="midnightblue" points="2422.39,-179.96 2432.43,-176.59 2422.48,-172.96 2422.39,-179.96"/>
</g>
<!-- Node66 -->
<g id="node13" class="node">
<title>Node66</title>
<g id="a_node13"><a xlink:href="_field_plane_averaging_8_h.html" target="_top" xlink:title=" ">
<polygon fill="white" stroke="red" points="2311.5,-112.5 2311.5,-131.5 2437.5,-131.5 2437.5,-112.5 2311.5,-112.5"/>
<text text-anchor="middle" x="2374.5" y="-119.5" font-family="Helvetica,sans-Serif" font-size="10.00">FieldPlaneAveraging.H</text>
</a>
</g>
</g>
<!-- Node2&#45;&gt;Node66 -->
<g id="edge13" class="edge">
<title>Node2&#45;&gt;Node66</title>
<path fill="none" stroke="midnightblue" d="M2442.21,-163.18C2425.46,-153.24 2403.4,-140.15 2389.08,-131.65"/>
<polygon fill="midnightblue" stroke="midnightblue" points="2440.49,-166.23 2450.88,-168.32 2444.07,-160.21 2440.49,-166.23"/>
</g>
<!-- Node73 -->
<g id="node14" class="node">
<title>Node73</title>
<g id="a_node14"><a xlink:href="_a_b_l_boundary_plane_8_h.html" target="_top" xlink:title=" ">
<polygon fill="white" stroke="red" points="436,-112.5 436,-131.5 555,-131.5 555,-112.5 436,-112.5"/>
<text text-anchor="middle" x="495.5" y="-119.5" font-family="Helvetica,sans-Serif" font-size="10.00">ABLBoundaryPlane.H</text>
</a>
</g>
</g>
<!-- Node2&#45;&gt;Node73 -->
<g id="edge15" class="edge">
<title>Node2&#45;&gt;Node73</title>
<path fill="none" stroke="midnightblue" d="M2422.2,-176.6C2175.29,-174.23 942.94,-161.08 564.5,-132 561.49,-131.77 558.41,-131.5 555.3,-131.19"/>
<polygon fill="midnightblue" stroke="midnightblue" points="2422.19,-180.1 2432.22,-176.7 2422.26,-173.1 2422.19,-180.1"/>
</g>
<!-- Node60 -->
<g id="node15" class="node">
<title>Node60</title>
<g id="a_node15"><a xlink:href="_a_b_l_mean_boussinesq_8cpp.html" target="_top" xlink:title=" ">
<polygon fill="white" stroke="black" points="573.5,-112.5 573.5,-131.5 711.5,-131.5 711.5,-112.5 573.5,-112.5"/>
<text text-anchor="middle" x="642.5" y="-119.5" font-family="Helvetica,sans-Serif" font-size="10.00">ABLMeanBoussinesq.cpp</text>
</a>
</g>
</g>
<!-- Node2&#45;&gt;Node60 -->
<g id="edge17" class="edge">
<title>Node2&#45;&gt;Node60</title>
<path fill="none" stroke="midnightblue" d="M2422.27,-177.3C2225.83,-178.38 1397.67,-179.7 720.5,-132 717.64,-131.8 714.73,-131.57 711.79,-131.32"/>
<polygon fill="midnightblue" stroke="midnightblue" points="2422.49,-180.8 2432.47,-177.24 2422.45,-173.8 2422.49,-180.8"/>
</g>
<!-- Node77 -->
<g id="node16" class="node">
<title>Node77</title>
<g id="a_node16"><a xlink:href="_actuator_forcing_8cpp.html" target="_top" xlink:title=" ">
<polygon fill="white" stroke="black" points="730,-112.5 730,-131.5 843,-131.5 843,-112.5 730,-112.5"/>
<text text-anchor="middle" x="786.5" y="-119.5" font-family="Helvetica,sans-Serif" font-size="10.00">ActuatorForcing.cpp</text>
</a>
</g>
</g>
<!-- Node2&#45;&gt;Node77 -->
<g id="edge18" class="edge">
<title>Node2&#45;&gt;Node77</title>
<path fill="none" stroke="midnightblue" d="M2422.19,-176.42C2198.3,-173.35 1170.29,-158.02 852.5,-132 849.5,-131.75 846.43,-131.47 843.34,-131.15"/>
<polygon fill="midnightblue" stroke="midnightblue" points="2422.19,-179.92 2432.24,-176.56 2422.29,-172.92 2422.19,-179.92"/>
</g>
<!-- Node78 -->
<g id="node17" class="node">
<title>Node78</title>
<g id="a_node17"><a xlink:href="_body_force_8cpp.html" target="_top" xlink:title=" ">
<polygon fill="white" stroke="black" points="861.5,-112.5 861.5,-131.5 949.5,-131.5 949.5,-112.5 861.5,-112.5"/>
<text text-anchor="middle" x="905.5" y="-119.5" font-family="Helvetica,sans-Serif" font-size="10.00">BodyForce.cpp</text>
</a>
</g>
</g>
<!-- Node2&#45;&gt;Node78 -->
<g id="edge19" class="edge">
<title>Node2&#45;&gt;Node78</title>
<path fill="none" stroke="midnightblue" d="M2421.97,-176.51C2206.6,-173.99 1253.54,-161.31 958.5,-132 955.62,-131.71 952.66,-131.37 949.68,-130.97"/>
<polygon fill="midnightblue" stroke="midnightblue" points="2422.2,-180.02 2432.24,-176.63 2422.28,-173.02 2422.2,-180.02"/>
</g>
<!-- Node79 -->
<g id="node18" class="node">
<title>Node79</title>
<g id="a_node18"><a xlink:href="_boussinesq_buoyancy_8cpp.html" target="_top" xlink:title=" ">
<polygon fill="white" stroke="black" points="968,-112.5 968,-131.5 1107,-131.5 1107,-112.5 968,-112.5"/>
<text text-anchor="middle" x="1037.5" y="-119.5" font-family="Helvetica,sans-Serif" font-size="10.00">BoussinesqBuoyancy.cpp</text>
</a>
</g>
</g>
<!-- Node2&#45;&gt;Node79 -->
<g id="edge20" class="edge">
<title>Node2&#45;&gt;Node79</title>
<path fill="none" stroke="midnightblue" d="M2422.12,-176.84C2253.9,-175.94 1628.64,-170.09 1115.5,-132 1112.78,-131.8 1110.01,-131.57 1107.21,-131.33"/>
<polygon fill="midnightblue" stroke="midnightblue" points="2422.28,-180.34 2432.3,-176.89 2422.32,-173.34 2422.28,-180.34"/>
</g>
<!-- Node80 -->
<g id="node19" class="node">
<title>Node80</title>
<g id="a_node19"><a xlink:href="_coriolis_forcing_8cpp.html" target="_top" xlink:title=" ">
<polygon fill="white" stroke="black" points="1125,-112.5 1125,-131.5 1234,-131.5 1234,-112.5 1125,-112.5"/>
<text text-anchor="middle" x="1179.5" y="-119.5" font-family="Helvetica,sans-Serif" font-size="10.00">CoriolisForcing.cpp</text>
</a>
</g>
</g>
<!-- Node2&#45;&gt;Node80 -->
<g id="edge21" class="edge">
<title>Node2&#45;&gt;Node80</title>
<path fill="none" stroke="midnightblue" d="M2422.07,-177.05C2263.76,-176.88 1702.78,-173.23 1242.5,-132 1239.75,-131.75 1236.93,-131.47 1234.09,-131.16"/>
<polygon fill="midnightblue" stroke="midnightblue" points="2422.34,-180.55 2432.34,-177.06 2422.34,-173.55 2422.34,-180.55"/>
</g>
<!-- Node81 -->
<g id="node20" class="node">
<title>Node81</title>
<g id="a_node20"><a xlink:href="_density_buoyancy_8cpp.html" target="_top" xlink:title=" ">
<polygon fill="white" stroke="black" points="1252,-112.5 1252,-131.5 1373,-131.5 1373,-112.5 1252,-112.5"/>
<text text-anchor="middle" x="1312.5" y="-119.5" font-family="Helvetica,sans-Serif" font-size="10.00">DensityBuoyancy.cpp</text>
</a>
</g>
</g>
<!-- Node2&#45;&gt;Node81 -->
<g id="edge22" class="edge">
<title>Node2&#45;&gt;Node81</title>
<path fill="none" stroke="midnightblue" d="M2421.78,-176.57C2274.75,-174.82 1784.75,-166.6 1381.5,-132 1378.73,-131.76 1375.9,-131.49 1373.05,-131.2"/>
<polygon fill="midnightblue" stroke="midnightblue" points="2422.13,-180.07 2432.17,-176.69 2422.21,-173.07 2422.13,-180.07"/>
</g>
<!-- Node82 -->
<g id="node21" class="node">
<title>Node82</title>
<g id="a_node21"><a xlink:href="_geostrophic_forcing_8cpp.html" target="_top" xlink:title=" ">
<polygon fill="white" stroke="black" points="1391,-112.5 1391,-131.5 1522,-131.5 1522,-112.5 1391,-112.5"/>
<text text-anchor="middle" x="1456.5" y="-119.5" font-family="Helvetica,sans-Serif" font-size="10.00">GeostrophicForcing.cpp</text>
</a>
</g>
</g>
<!-- Node2&#45;&gt;Node82 -->
<g id="edge23" class="edge">
<title>Node2&#45;&gt;Node82</title>
<path fill="none" stroke="midnightblue" d="M2422.16,-176.01C2289,-172.73 1874.08,-160.77 1531.5,-132 1528.49,-131.75 1525.42,-131.47 1522.32,-131.17"/>
<polygon fill="midnightblue" stroke="midnightblue" points="2422.27,-179.51 2432.35,-176.26 2422.44,-172.52 2422.27,-179.51"/>
</g>
<!-- Node83 -->
<g id="node22" class="node">
<title>Node83</title>
<g id="a_node22"><a xlink:href="_gravity_forcing_8cpp.html" target="_top" xlink:title=" ">
<polygon fill="white" stroke="black" points="1540.5,-112.5 1540.5,-131.5 1648.5,-131.5 1648.5,-112.5 1540.5,-112.5"/>
<text text-anchor="middle" x="1594.5" y="-119.5" font-family="Helvetica,sans-Serif" font-size="10.00">GravityForcing.cpp</text>
</a>
</g>
</g>
<!-- Node2&#45;&gt;Node83 -->
<g id="edge24" class="edge">
<title>Node2&#45;&gt;Node83</title>
<path fill="none" stroke="midnightblue" d="M2421.98,-175.9C2300.69,-172.54 1948.61,-160.85 1657.5,-132 1654.64,-131.72 1651.71,-131.4 1648.76,-131.05"/>
<polygon fill="midnightblue" stroke="midnightblue" points="2422.23,-179.4 2432.33,-176.18 2422.43,-172.41 2422.23,-179.4"/>
</g>
<!-- Node84 -->
<g id="node23" class="node">
<title>Node84</title>
<g id="a_node23"><a xlink:href="_synth_turb_forcing_8cpp.html" target="_top" xlink:title=" ">
<polygon fill="white" stroke="black" points="1666.5,-112.5 1666.5,-131.5 1786.5,-131.5 1786.5,-112.5 1666.5,-112.5"/>
<text text-anchor="middle" x="1726.5" y="-119.5" font-family="Helvetica,sans-Serif" font-size="10.00">SynthTurbForcing.cpp</text>
</a>
</g>
</g>
<!-- Node2&#45;&gt;Node84 -->
<g id="edge25" class="edge">
<title>Node2&#45;&gt;Node84</title>
<path fill="none" stroke="midnightblue" d="M2422.27,-175.04C2315.64,-169.99 2031.57,-155.3 1795.5,-132 1792.61,-131.72 1789.66,-131.4 1786.69,-131.08"/>
<polygon fill="midnightblue" stroke="midnightblue" points="2422.17,-178.54 2432.32,-175.51 2422.5,-171.54 2422.17,-178.54"/>
</g>
<!-- Node2&#45;&gt;Node85 -->
<g id="edge26" class="edge">
<title>Node2&#45;&gt;Node85</title>
<path fill="none" stroke="midnightblue" d="M2421.72,-176.57C2124.13,-173.58 403.09,-155.38 171.5,-132 168.57,-131.7 165.56,-131.33 162.54,-130.9"/>
<polygon fill="midnightblue" stroke="midnightblue" points="2422.06,-180.07 2432.1,-176.67 2422.13,-173.07 2422.06,-180.07"/>
</g>
<!-- Node86 -->
<g id="node25" class="node">
<title>Node86</title>
<g id="a_node25"><a xlink:href="_s_d_r_src_8cpp.html" target="_top" xlink:title=" ">
<polygon fill="white" stroke="black" points="1804.5,-112.5 1804.5,-131.5 1876.5,-131.5 1876.5,-112.5 1804.5,-112.5"/>
<text text-anchor="middle" x="1840.5" y="-119.5" font-family="Helvetica,sans-Serif" font-size="10.00">SDRSrc.cpp</text>
</a>
</g>
</g>
<!-- Node2&#45;&gt;Node86 -->
<g id="edge27" class="edge">
<title>Node2&#45;&gt;Node86</title>
<path fill="none" stroke="midnightblue" d="M2422.06,-175.41C2325.3,-171.49 2084.87,-159.57 1885.5,-132 1882.66,-131.61 1879.73,-131.15 1876.79,-130.65"/>
<polygon fill="midnightblue" stroke="midnightblue" points="2422.2,-178.92 2432.33,-175.82 2422.47,-171.93 2422.2,-178.92"/>
</g>
<!-- Node87 -->
<g id="node26" class="node">
<title>Node87</title>
<g id="a_node26"><a xlink:href="_ksgs_m84_src_8cpp.html" target="_top" xlink:title=" ">
<polygon fill="white" stroke="black" points="1894.5,-112.5 1894.5,-131.5 1990.5,-131.5 1990.5,-112.5 1894.5,-112.5"/>
<text text-anchor="middle" x="1942.5" y="-119.5" font-family="Helvetica,sans-Serif" font-size="10.00">KsgsM84Src.cpp</text>
</a>
</g>
</g>
<!-- Node2&#45;&gt;Node87 -->
<g id="edge28" class="edge">
<title>Node2&#45;&gt;Node87</title>
<path fill="none" stroke="midnightblue" d="M2422.38,-173.71C2340.02,-167.23 2154.73,-151.73 1999.5,-132 1996.62,-131.63 1993.66,-131.23 1990.67,-130.82"/>
<polygon fill="midnightblue" stroke="midnightblue" points="2422.13,-177.2 2432.37,-174.49 2422.67,-170.22 2422.13,-177.2"/>
</g>
<!-- Node88 -->
<g id="node27" class="node">
<title>Node88</title>
<g id="a_node27"><a xlink:href="_kw_s_s_t_src_8cpp.html" target="_top" xlink:title=" ">
<polygon fill="white" stroke="black" points="2009,-112.5 2009,-131.5 2094,-131.5 2094,-112.5 2009,-112.5"/>
<text text-anchor="middle" x="2051.5" y="-119.5" font-family="Helvetica,sans-Serif" font-size="10.00">KwSSTSrc.cpp</text>
</a>
</g>
</g>
<!-- Node2&#45;&gt;Node88 -->
<g id="edge29" class="edge">
<title>Node2&#45;&gt;Node88</title>
<path fill="none" stroke="midnightblue" d="M2422.04,-172.34C2353.83,-164.87 2217.55,-149.27 2102.5,-132 2099.74,-131.59 2096.91,-131.14 2094.05,-130.68"/>
<polygon fill="midnightblue" stroke="midnightblue" points="2422.07,-175.87 2432.39,-173.47 2422.83,-168.91 2422.07,-175.87"/>
</g>
<!-- Node2&#45;&gt;Node89 -->
<g id="edge30" class="edge">
<title>Node2&#45;&gt;Node89</title>
<path fill="none" stroke="midnightblue" d="M2508.89,-176.54C2747.43,-173.9 3901.3,-159.89 4256.5,-132 4261.13,-131.64 4265.93,-131.17 4270.73,-130.65"/>
<polygon fill="midnightblue" stroke="midnightblue" points="2508.51,-173.04 2498.55,-176.65 2508.59,-180.04 2508.51,-173.04"/>
</g>
<!-- Node90 -->
<g id="node29" class="node">
<title>Node90</title>
<g id="a_node29"><a xlink:href="_channel_flow_8_h.html" target="_top" xlink:title=" ">
<polygon fill="white" stroke="black" points="329,-112.5 329,-131.5 418,-131.5 418,-112.5 329,-112.5"/>
<text text-anchor="middle" x="373.5" y="-119.5" font-family="Helvetica,sans-Serif" font-size="10.00">ChannelFlow.H</text>
</a>
</g>
</g>
<!-- Node2&#45;&gt;Node90 -->
<g id="edge32" class="edge">
<title>Node2&#45;&gt;Node90</title>
<path fill="none" stroke="midnightblue" d="M2422.36,-176.91C2165.34,-176.22 833.48,-170.84 426.5,-132 423.81,-131.74 421.04,-131.43 418.26,-131.07"/>
<polygon fill="midnightblue" stroke="midnightblue" points="2422.41,-180.41 2432.42,-176.93 2422.43,-173.41 2422.41,-180.41"/>
</g>
<!-- Node91 -->
<g id="node30" class="node">
<title>Node91</title>
<g id="a_node30"><a xlink:href="_channel_flow_8cpp.html" target="_top" xlink:title=" ">
<polygon fill="white" stroke="black" points="308,-56.5 308,-75.5 407,-75.5 407,-56.5 308,-56.5"/>
<text text-anchor="middle" x="357.5" y="-63.5" font-family="Helvetica,sans-Serif" font-size="10.00">ChannelFlow.cpp</text>
</a>
</g>
</g>
<!-- Node2&#45;&gt;Node91 -->
<g id="edge34" class="edge">
<title>Node2&#45;&gt;Node91</title>
<path fill="none" stroke="midnightblue" d="M2421.97,-176.5C2119.17,-172.99 338.58,-151.49 319.5,-132 302.76,-114.91 329.37,-89.04 345.91,-75.67"/>
<polygon fill="midnightblue" stroke="midnightblue" points="2422.07,-180 2432.11,-176.62 2422.15,-173 2422.07,-180"/>
</g>
<!-- Node92 -->
<g id="node31" class="node">
<title>Node92</title>
<g id="a_node31"><a xlink:href="_convecting_taylor_vortex_8_h.html" target="_top" xlink:title=" ">
<polygon fill="white" stroke="black" points="2112,-112.5 2112,-131.5 2255,-131.5 2255,-112.5 2112,-112.5"/>
<text text-anchor="middle" x="2183.5" y="-119.5" font-family="Helvetica,sans-Serif" font-size="10.00">ConvectingTaylorVortex.H</text>
</a>
</g>
</g>
<!-- Node2&#45;&gt;Node92 -->
<g id="edge35" class="edge">
<title>Node2&#45;&gt;Node92</title>
<path fill="none" stroke="midnightblue" d="M2422.3,-168.73C2369.72,-158.66 2281.37,-141.74 2228.14,-131.55"/>
<polygon fill="midnightblue" stroke="midnightblue" points="2421.84,-172.2 2432.32,-170.65 2423.16,-165.33 2421.84,-172.2"/>
</g>
<!-- Node93 -->
<g id="node32" class="node">
<title>Node93</title>
<g id="a_node32"><a xlink:href="_convecting_taylor_vortex_8cpp.html" target="_top" xlink:title=" ">
<polygon fill="white" stroke="black" points="2130.5,-56.5 2130.5,-75.5 2282.5,-75.5 2282.5,-56.5 2130.5,-56.5"/>
<text text-anchor="middle" x="2206.5" y="-63.5" font-family="Helvetica,sans-Serif" font-size="10.00">ConvectingTaylorVortex.cpp</text>
</a>
</g>
</g>
<!-- Node2&#45;&gt;Node93 -->
<g id="edge37" class="edge">
<title>Node2&#45;&gt;Node93</title>
<path fill="none" stroke="midnightblue" d="M2422.26,-169.08C2388.61,-161.98 2341.27,-149.89 2302.5,-132 2268.69,-116.4 2233.61,-89.4 2216.75,-75.63"/>
<polygon fill="midnightblue" stroke="midnightblue" points="2421.74,-172.55 2432.24,-171.13 2423.14,-165.69 2421.74,-172.55"/>
</g>
<!-- Node94 -->
<g id="node33" class="node">
<title>Node94</title>
<g id="a_node33"><a xlink:href="_ekman_spiral_8_h.html" target="_top" xlink:title=" ">
<polygon fill="white" stroke="black" points="2643,-112.5 2643,-131.5 2732,-131.5 2732,-112.5 2643,-112.5"/>
<text text-anchor="middle" x="2687.5" y="-119.5" font-family="Helvetica,sans-Serif" font-size="10.00">EkmanSpiral.H</text>
</a>
</g>
</g>
<!-- Node2&#45;&gt;Node94 -->
<g id="edge38" class="edge">
<title>Node2&#45;&gt;Node94</title>
<path fill="none" stroke="midnightblue" d="M2508.64,-166.51C2550.49,-156.33 2613.23,-141.07 2652.2,-131.59"/>
<polygon fill="midnightblue" stroke="midnightblue" points="2507.63,-163.15 2498.74,-168.92 2509.28,-169.95 2507.63,-163.15"/>
</g>
<!-- Node95 -->
<g id="node34" class="node">
<title>Node95</title>
<g id="a_node34"><a xlink:href="_ekman_spiral_8cpp.html" target="_top" xlink:title=" ">
<polygon fill="white" stroke="black" points="2533.5,-56.5 2533.5,-75.5 2631.5,-75.5 2631.5,-56.5 2533.5,-56.5"/>
<text text-anchor="middle" x="2582.5" y="-63.5" font-family="Helvetica,sans-Serif" font-size="10.00">EkmanSpiral.cpp</text>
</a>
</g>
</g>
<!-- Node2&#45;&gt;Node95 -->
<g id="edge40" class="edge">
<title>Node2&#45;&gt;Node95</title>
<path fill="none" stroke="midnightblue" d="M2478.39,-160.47C2489.41,-146.8 2506.06,-127.23 2522.5,-112 2537.59,-98.02 2556.91,-84.15 2569.49,-75.59"/>
<polygon fill="midnightblue" stroke="midnightblue" points="2475.49,-158.49 2472.01,-168.5 2480.97,-162.84 2475.49,-158.49"/>
</g>
<!-- Node96 -->
<g id="node35" class="node">
<title>Node96</title>
<g id="a_node35"><a xlink:href="_free_stream_8cpp.html" target="_top" xlink:title=" ">
<polygon fill="white" stroke="black" points="2532,-112.5 2532,-131.5 2625,-131.5 2625,-112.5 2532,-112.5"/>
<text text-anchor="middle" x="2578.5" y="-119.5" font-family="Helvetica,sans-Serif" font-size="10.00">FreeStream.cpp</text>
</a>
</g>
</g>
<!-- Node2&#45;&gt;Node96 -->
<g id="edge41" class="edge">
<title>Node2&#45;&gt;Node96</title>
<path fill="none" stroke="midnightblue" d="M2492.5,-164.1C2513.61,-154.01 2542.36,-140.27 2560.68,-131.52"/>
<polygon fill="midnightblue" stroke="midnightblue" points="2490.92,-160.97 2483.41,-168.44 2493.94,-167.29 2490.92,-160.97"/>
</g>
<!-- Node97 -->
<g id="node36" class="node">
<title>Node97</title>
<g id="a_node36"><a xlink:href="_m_m_s_8_h.html" target="_top" xlink:title=" ">
<polygon fill="white" stroke="black" points="3933,-112.5 3933,-131.5 3984,-131.5 3984,-112.5 3933,-112.5"/>
<text text-anchor="middle" x="3958.5" y="-119.5" font-family="Helvetica,sans-Serif" font-size="10.00">MMS.H</text>
</a>
</g>
</g>
<!-- Node2&#45;&gt;Node97 -->
<g id="edge42" class="edge">
<title>Node2&#45;&gt;Node97</title>
<path fill="none" stroke="midnightblue" d="M2508.69,-176.95C2719.32,-176.52 3639.96,-172.33 3923.5,-132 3926.48,-131.58 3929.58,-130.99 3932.63,-130.33"/>
<polygon fill="midnightblue" stroke="midnightblue" points="2508.63,-173.45 2498.64,-176.97 2508.65,-180.45 2508.63,-173.45"/>
</g>
<!-- Node98 -->
<g id="node37" class="node">
<title>Node98</title>
<g id="a_node37"><a xlink:href="_m_m_s_8cpp.html" target="_top" xlink:title=" ">
<polygon fill="white" stroke="black" points="3329,-56.5 3329,-75.5 3390,-75.5 3390,-56.5 3329,-56.5"/>
<text text-anchor="middle" x="3359.5" y="-63.5" font-family="Helvetica,sans-Serif" font-size="10.00">MMS.cpp</text>
</a>
</g>
</g>
<!-- Node2&#45;&gt;Node98 -->
<g id="edge44" class="edge">
<title>Node2&#45;&gt;Node98</title>
<path fill="none" stroke="midnightblue" d="M2508.99,-174.08C2564.05,-169.44 2661.28,-158.08 2740.5,-132 2759,-125.91 2760.76,-117.3 2779.5,-112 2884.34,-82.35 3224.42,-70.71 3328.77,-67.79"/>
<polygon fill="midnightblue" stroke="midnightblue" points="2508.57,-170.6 2498.89,-174.9 2509.14,-177.58 2508.57,-170.6"/>
</g>
<!-- Node99 -->
<g id="node38" class="node">
<title>Node99</title>
<g id="a_node38"><a xlink:href="_m_m_s_forcing_8cpp.html" target="_top" xlink:title=" ">
<polygon fill="white" stroke="black" points="2788.5,-112.5 2788.5,-131.5 2884.5,-131.5 2884.5,-112.5 2788.5,-112.5"/>
<text text-anchor="middle" x="2836.5" y="-119.5" font-family="Helvetica,sans-Serif" font-size="10.00">MMSForcing.cpp</text>
</a>
</g>
</g>
<!-- Node2&#45;&gt;Node99 -->
<g id="edge45" class="edge">
<title>Node2&#45;&gt;Node99</title>
<path fill="none" stroke="midnightblue" d="M2508.97,-170.67C2578.87,-160.5 2715.77,-140.57 2788.47,-129.99"/>
<polygon fill="midnightblue" stroke="midnightblue" points="2508.14,-167.26 2498.75,-172.16 2509.15,-174.18 2508.14,-167.26"/>
</g>
<!-- Node100 -->
<g id="node39" class="node">
<title>Node100</title>
<g id="a_node39"><a xlink:href="_dam_break_8cpp.html" target="_top" xlink:title=" ">
<polygon fill="white" stroke="black" points="2903,-112.5 2903,-131.5 2992,-131.5 2992,-112.5 2903,-112.5"/>
<text text-anchor="middle" x="2947.5" y="-119.5" font-family="Helvetica,sans-Serif" font-size="10.00">DamBreak.cpp</text>
</a>
</g>
</g>
<!-- Node2&#45;&gt;Node100 -->
<g id="edge46" class="edge">
<title>Node2&#45;&gt;Node100</title>
<path fill="none" stroke="midnightblue" d="M2508.93,-173.31C2586.36,-166.53 2753.32,-151.03 2893.5,-132 2896.51,-131.59 2899.62,-131.14 2902.74,-130.67"/>
<polygon fill="midnightblue" stroke="midnightblue" points="2508.27,-169.85 2498.61,-174.21 2508.87,-176.83 2508.27,-169.85"/>
</g>
<!-- Node33 -->
<g id="node40" class="node">
<title>Node33</title>
<g id="a_node40"><a xlink:href="_multi_phase_8cpp.html" target="_top" xlink:title=" ">
<polygon fill="white" stroke="black" points="3010,-112.5 3010,-131.5 3101,-131.5 3101,-112.5 3010,-112.5"/>
<text text-anchor="middle" x="3055.5" y="-119.5" font-family="Helvetica,sans-Serif" font-size="10.00">MultiPhase.cpp</text>
</a>
</g>
</g>
<!-- Node2&#45;&gt;Node33 -->
<g id="edge47" class="edge">
<title>Node2&#45;&gt;Node33</title>
<path fill="none" stroke="midnightblue" d="M2509.01,-174.5C2600.33,-168.99 2818.53,-154.51 3000.5,-132 3003.57,-131.62 3006.74,-131.19 3009.92,-130.74"/>
<polygon fill="midnightblue" stroke="midnightblue" points="2508.55,-171.02 2498.78,-175.11 2508.97,-178.01 2508.55,-171.02"/>
</g>
<!-- Node101 -->
<g id="node41" class="node">
<title>Node101</title>
<g id="a_node41"><a xlink:href="_rain_drop_8cpp.html" target="_top" xlink:title=" ">
<polygon fill="white" stroke="black" points="3119.5,-112.5 3119.5,-131.5 3201.5,-131.5 3201.5,-112.5 3119.5,-112.5"/>
<text text-anchor="middle" x="3160.5" y="-119.5" font-family="Helvetica,sans-Serif" font-size="10.00">RainDrop.cpp</text>
</a>
</g>
</g>
<!-- Node2&#45;&gt;Node101 -->
<g id="edge48" class="edge">
<title>Node2&#45;&gt;Node101</title>
<path fill="none" stroke="midnightblue" d="M2508.91,-175.54C2612.92,-171.7 2884.45,-159.64 3109.5,-132 3112.71,-131.61 3116.03,-131.14 3119.36,-130.64"/>
<polygon fill="midnightblue" stroke="midnightblue" points="2508.66,-172.05 2498.8,-175.91 2508.92,-179.04 2508.66,-172.05"/>
</g>
<!-- Node102 -->
<g id="node42" class="node">
<title>Node102</title>
<g id="a_node42"><a xlink:href="_sloshing_tank_8cpp.html" target="_top" xlink:title=" ">
<polygon fill="white" stroke="black" points="3220,-112.5 3220,-131.5 3321,-131.5 3321,-112.5 3220,-112.5"/>
<text text-anchor="middle" x="3270.5" y="-119.5" font-family="Helvetica,sans-Serif" font-size="10.00">SloshingTank.cpp</text>
</a>
</g>
</g>
<!-- Node2&#45;&gt;Node102 -->
<g id="edge49" class="edge">
<title>Node2&#45;&gt;Node102</title>
<path fill="none" stroke="midnightblue" d="M2508.76,-175.73C2623.43,-172.06 2944.63,-159.91 3210.5,-132 3213.54,-131.68 3216.66,-131.32 3219.8,-130.93"/>
<polygon fill="midnightblue" stroke="midnightblue" points="2508.52,-172.23 2498.63,-176.05 2508.74,-179.23 2508.52,-172.23"/>
</g>
<!-- Node103 -->
<g id="node43" class="node">
<title>Node103</title>
<g id="a_node43"><a xlink:href="_vortex_patch_8cpp.html" target="_top" xlink:title=" ">
<polygon fill="white" stroke="black" points="3339,-112.5 3339,-131.5 3434,-131.5 3434,-112.5 3339,-112.5"/>
<text text-anchor="middle" x="3386.5" y="-119.5" font-family="Helvetica,sans-Serif" font-size="10.00">VortexPatch.cpp</text>
</a>
</g>
</g>
<!-- Node2&#45;&gt;Node103 -->
<g id="edge50" class="edge">
<title>Node2&#45;&gt;Node103</title>
<path fill="none" stroke="midnightblue" d="M2508.61,-176.35C2635.02,-174.09 3015.65,-164.86 3329.5,-132 3332.59,-131.68 3335.77,-131.3 3338.96,-130.89"/>
<polygon fill="midnightblue" stroke="midnightblue" points="2508.49,-172.85 2498.56,-176.52 2508.62,-179.85 2508.49,-172.85"/>
</g>
<!-- Node104 -->
<g id="node44" class="node">
<title>Node104</title>
<g id="a_node44"><a xlink:href="_zalesak_disk_8cpp.html" target="_top" xlink:title=" ">
<polygon fill="white" stroke="black" points="3452.5,-112.5 3452.5,-131.5 3550.5,-131.5 3550.5,-112.5 3452.5,-112.5"/>
<text text-anchor="middle" x="3501.5" y="-119.5" font-family="Helvetica,sans-Serif" font-size="10.00">ZalesakDisk.cpp</text>
</a>
</g>
</g>
<!-- Node2&#45;&gt;Node104 -->
<g id="edge51" class="edge">
<title>Node2&#45;&gt;Node104</title>
<path fill="none" stroke="midnightblue" d="M2509.03,-176.63C2646.44,-175.1 3083.08,-167.59 3442.5,-132 3445.7,-131.68 3448.98,-131.31 3452.29,-130.9"/>
<polygon fill="midnightblue" stroke="midnightblue" points="2508.87,-173.13 2498.91,-176.74 2508.95,-180.13 2508.87,-173.13"/>
</g>
<!-- Node105 -->
<g id="node45" class="node">
<title>Node105</title>
<g id="a_node45"><a xlink:href="_rayleigh_taylor_8cpp.html" target="_top" xlink:title=" ">
<polygon fill="white" stroke="black" points="3568.5,-112.5 3568.5,-131.5 3676.5,-131.5 3676.5,-112.5 3568.5,-112.5"/>
<text text-anchor="middle" x="3622.5" y="-119.5" font-family="Helvetica,sans-Serif" font-size="10.00">RayleighTaylor.cpp</text>
</a>
</g>
</g>
<!-- Node2&#45;&gt;Node105 -->
<g id="edge52" class="edge">
<title>Node2&#45;&gt;Node105</title>
<path fill="none" stroke="midnightblue" d="M2509.14,-176.78C2656.96,-175.71 3152.29,-169.37 3559.5,-132 3562.36,-131.74 3565.29,-131.44 3568.24,-131.1"/>
<polygon fill="midnightblue" stroke="midnightblue" points="2508.67,-173.29 2498.7,-176.85 2508.72,-180.29 2508.67,-173.29"/>
</g>
<!-- Node106 -->
<g id="node46" class="node">
<title>Node106</title>
<g id="a_node46"><a xlink:href="_synthetic_turbulence_8_h.html" target="_top" xlink:title=" ">
<polygon fill="white" stroke="red" points="3695,-112.5 3695,-131.5 3820,-131.5 3820,-112.5 3695,-112.5"/>
<text text-anchor="middle" x="3757.5" y="-119.5" font-family="Helvetica,sans-Serif" font-size="10.00">SyntheticTurbulence.H</text>
</a>
</g>
</g>
<!-- Node2&#45;&gt;Node106 -->
<g id="edge53" class="edge">
<title>Node2&#45;&gt;Node106</title>
<path fill="none" stroke="midnightblue" d="M2508.8,-176.77C2666.64,-175.65 3226,-169.12 3685.5,-132 3688.51,-131.76 3691.59,-131.48 3694.7,-131.18"/>
<polygon fill="midnightblue" stroke="midnightblue" points="2508.53,-173.27 2498.56,-176.84 2508.58,-180.27 2508.53,-173.27"/>
</g>
<!-- Node4&#45;&gt;Node7 -->
<g id="edge4" class="edge">
<title>Node4&#45;&gt;Node7</title>
<path fill="none" stroke="midnightblue" d="M170.99,-109.8C137.8,-99.61 89.53,-84.81 59.36,-75.55"/>
<polygon fill="midnightblue" stroke="midnightblue" points="170.18,-113.21 180.77,-112.8 172.24,-106.52 170.18,-113.21"/>
</g>
<!-- Node4&#45;&gt;Node8 -->
<g id="edge5" class="edge">
<title>Node4&#45;&gt;Node8</title>
<path fill="none" stroke="midnightblue" d="M194.39,-104.14C187.07,-94.74 178.26,-83.4 172.31,-75.75"/>
<polygon fill="midnightblue" stroke="midnightblue" points="191.66,-106.34 200.56,-112.08 197.19,-102.04 191.66,-106.34"/>
</g>
<!-- Node18&#45;&gt;Node35 -->
<g id="edge7" class="edge">
<title>Node18&#45;&gt;Node35</title>
<path fill="none" stroke="midnightblue" d="M4068.79,-109.13C4098.54,-98.83 4140.83,-84.19 4166.92,-75.16"/>
<polygon fill="midnightblue" stroke="midnightblue" points="4067.52,-105.86 4059.22,-112.44 4069.81,-112.48 4067.52,-105.86"/>
</g>
<!-- Node58&#45;&gt;Node62 -->
<g id="edge11" class="edge">
<title>Node58&#45;&gt;Node62</title>
<path fill="none" stroke="midnightblue" d="M2442.47,-58.83C2556.05,-47.88 2790.41,-25.28 2890.97,-15.58"/>
<polygon fill="midnightblue" stroke="midnightblue" points="2441.81,-55.38 2432.2,-59.82 2442.48,-62.35 2441.81,-55.38"/>
</g>
<!-- Node58&#45;&gt;Node65 -->
<g id="edge12" class="edge">
<title>Node58&#45;&gt;Node65</title>
<path fill="none" stroke="midnightblue" d="M2314.54,-58.32C2306.78,-57.53 2298.96,-56.74 2291.5,-56 2144.77,-41.43 1972.34,-25.27 1881.64,-16.84"/>
<polygon fill="midnightblue" stroke="midnightblue" points="2314.37,-61.82 2324.67,-59.36 2315.08,-54.86 2314.37,-61.82"/>
</g>
<!-- Node66&#45;&gt;Node58 -->
<g id="edge14" class="edge">
<title>Node66&#45;&gt;Node58</title>
<path fill="none" stroke="midnightblue" d="M2375.9,-102.1C2376.56,-93.14 2377.33,-82.86 2377.85,-75.75"/>
<polygon fill="midnightblue" stroke="midnightblue" points="2372.41,-101.85 2375.16,-112.08 2379.39,-102.37 2372.41,-101.85"/>
</g>
<!-- Node90&#45;&gt;Node91 -->
<g id="edge33" class="edge">
<title>Node90&#45;&gt;Node91</title>
<path fill="none" stroke="midnightblue" d="M367.99,-102.4C365.31,-93.36 362.22,-82.94 360.09,-75.75"/>
<polygon fill="midnightblue" stroke="midnightblue" points="364.66,-103.49 370.86,-112.08 371.37,-101.5 364.66,-103.49"/>
</g>
<!-- Node92&#45;&gt;Node93 -->
<g id="edge36" class="edge">
<title>Node92&#45;&gt;Node93</title>
<path fill="none" stroke="midnightblue" d="M2191.3,-102.69C2195.18,-93.59 2199.68,-83.01 2202.77,-75.75"/>
<polygon fill="midnightblue" stroke="midnightblue" points="2188,-101.51 2187.3,-112.08 2194.44,-104.25 2188,-101.51"/>
</g>
<!-- Node94&#45;&gt;Node95 -->
<g id="edge39" class="edge">
<title>Node94&#45;&gt;Node95</title>
<path fill="none" stroke="midnightblue" d="M2661.69,-107.73C2642.25,-97.73 2616.15,-84.31 2599.33,-75.65"/>
<polygon fill="midnightblue" stroke="midnightblue" points="2660.14,-110.86 2670.63,-112.32 2663.34,-104.64 2660.14,-110.86"/>
</g>
<!-- Node97&#45;&gt;Node98 -->
<g id="edge43" class="edge">
<title>Node97&#45;&gt;Node98</title>
<path fill="none" stroke="midnightblue" d="M3923.08,-112.25C3714.32,-78.04 3474.27,-69.63 3390.3,-67.6"/>
<polygon fill="midnightblue" stroke="midnightblue" points="3922.56,-115.71 3932.99,-113.9 3923.7,-108.81 3922.56,-115.71"/>
</g>
<!-- Node45&#45;&gt;Node46 -->
<g id="edge61" class="edge">
<title>Node45&#45;&gt;Node46</title>
<path fill="none" stroke="midnightblue" d="M4564.74,-162.1C4552.5,-152.38 4536.94,-140.03 4526.62,-131.83"/>
<polygon fill="midnightblue" stroke="midnightblue" points="4562.57,-164.85 4572.57,-168.32 4566.92,-159.36 4562.57,-164.85"/>
</g>
<!-- Node45&#45;&gt;Node47 -->
<g id="edge62" class="edge">
<title>Node45&#45;&gt;Node47</title>
<path fill="none" stroke="midnightblue" d="M4602.54,-162.1C4614.96,-152.38 4630.74,-140.03 4641.21,-131.83"/>
<polygon fill="midnightblue" stroke="midnightblue" points="4600.3,-159.4 4594.59,-168.32 4604.62,-164.92 4600.3,-159.4"/>
</g>
</g>
</svg>
        <g id="navigator" transform="translate(0 0)" fill="#404254">
                <rect fill="#f2f5e9" fill-opacity="0.5" stroke="#606060" stroke-width=".5" x="0" y="0" width="60" height="60"/>
                <use id="zoomplus" xlink:href="#zoomPlus" x="17" y="9" onmousedown="handleZoom(evt,'in')"/>
                <use id="zoomminus" xlink:href="#zoomMin" x="42" y="9" onmousedown="handleZoom(evt,'out')"/>
                <use id="reset" xlink:href="#resetDef" x="30" y="36" onmousedown="handleReset()"/>
                <g id="arrowUp" xlink:href="#dirArrow" transform="translate(30 24)" onmousedown="handlePan(0,-1)">
                  <use xlink:href="#rim" fill="#404040">
                        <set attributeName="fill" to="#808080" begin="arrowUp.mouseover" end="arrowUp.mouseout"/>
                  </use>
                  <path fill="none" stroke="white" stroke-width="1.5" d="M0,-3.0v7 M-2.5,-0.5L0,-3.0L2.5,-0.5"/>
                </g>
                <g id="arrowRight" xlink:href="#dirArrow" transform="rotate(90) translate(36 -43)" onmousedown="handlePan(1,0)">
                  <use xlink:href="#rim" fill="#404040">
                        <set attributeName="fill" to="#808080" begin="arrowRight.mouseover" end="arrowRight.mouseout"/>
                  </use>
                  <path fill="none" stroke="white" stroke-width="1.5" d="M0,-3.0v7 M-2.5,-0.5L0,-3.0L2.5,-0.5"/>
                </g>
                <g id="arrowDown" xlink:href="#dirArrow" transform="rotate(180) translate(-30 -48)" onmousedown="handlePan(0,1)">
                  <use xlink:href="#rim" fill="#404040">
                        <set attributeName="fill" to="#808080" begin="arrowDown.mouseover" end="arrowDown.mouseout"/>
                  </use>
                  <path fill="none" stroke="white" stroke-width="1.5" d="M0,-3.0v7 M-2.5,-0.5L0,-3.0L2.5,-0.5"/>
                </g>
                <g id="arrowLeft" xlink:href="#dirArrow" transform="rotate(270) translate(-36 17)" onmousedown="handlePan(-1,0)">
                  <use xlink:href="#rim" fill="#404040">
                        <set attributeName="fill" to="#808080" begin="arrowLeft.mouseover" end="arrowLeft.mouseout"/>
                  </use>
                  <path fill="none" stroke="white" stroke-width="1.5" d="M0,-3.0v7 M-2.5,-0.5L0,-3.0L2.5,-0.5"/>
                </g>
        </g>
        <svg viewBox="0 0 15 15" width="100%" height="30px" preserveAspectRatio="xMaxYMin meet">
         <g id="arrow_out" transform="scale(0.3 0.3)">
          <a xlink:href="_p_d_e_base_8_h__dep__incl_org.svg" target="_base">
           <rect id="button" ry="5" rx="5" y="6" x="6" height="38" width="38"
                fill="#f2f5e9" fill-opacity="0.5" stroke="#606060" stroke-width="1.0"/>
           <path id="arrow"
             d="M 11.500037,31.436501 C 11.940474,20.09759 22.043105,11.32322 32.158766,21.979434 L 37.068811,17.246167 C 37.068811,17.246167 37.088388,32 37.088388,32 L 22.160133,31.978069 C 22.160133,31.978069 26.997745,27.140456 26.997745,27.140456 C 18.528582,18.264221 13.291696,25.230495 11.500037,31.436501 z"
             style="fill:#404040;"/>
          </a>
         </g>
        </svg>
</svg>
