<?xml version="1.0" encoding="UTF-8" standalone="no"?>
<!DOCTYPE svg PUBLIC "-//W3C//DTD SVG 1.1//EN"
 "http://www.w3.org/Graphics/SVG/1.1/DTD/svg11.dtd">
<!-- Generated by graphviz version 2.43.0 (0)
 -->
<!-- Title: PostProcessing.H Pages: 1 -->
<svg width="794pt" height="196pt"
 viewBox="0.00 0.00 794.00 196.00" xmlns="http://www.w3.org/2000/svg" xmlns:xlink="http://www.w3.org/1999/xlink">
<g id="graph0" class="graph" transform="scale(1 1) rotate(0) translate(4 192)">
<title>PostProcessing.H</title>
<polygon fill="white" stroke="transparent" points="-4,4 -4,-192 790,-192 790,4 -4,4"/>
<!-- Node1 -->
<g id="node1" class="node">
<title>Node1</title>
<g id="a_node1"><a xlink:title=" ">
<polygon fill="#bfbfbf" stroke="black" points="343.5,-168.5 343.5,-187.5 444.5,-187.5 444.5,-168.5 343.5,-168.5"/>
<text text-anchor="middle" x="394" y="-175.5" font-family="Helvetica,sans-Serif" font-size="10.00">PostProcessing.H</text>
</a>
</g>
</g>
<!-- Node2 -->
<g id="node2" class="node">
<title>Node2</title>
<g id="a_node2"><a xlink:href="_c_f_d_sim_8cpp.html" target="_top" xlink:title=" ">
<polygon fill="white" stroke="black" points="0,-112.5 0,-131.5 76,-131.5 76,-112.5 0,-112.5"/>
<text text-anchor="middle" x="38" y="-119.5" font-family="Helvetica,sans-Serif" font-size="10.00">CFDSim.cpp</text>
</a>
</g>
</g>
<!-- Node1&#45;&gt;Node2 -->
<g id="edge1" class="edge">
<title>Node1&#45;&gt;Node2</title>
<path fill="none" stroke="midnightblue" d="M333.25,-168.97C270.84,-160.53 170.96,-146.48 85,-132 82.13,-131.52 79.17,-131 76.19,-130.46"/>
<polygon fill="midnightblue" stroke="midnightblue" points="332.93,-172.46 343.31,-170.32 333.87,-165.52 332.93,-172.46"/>
</g>
<!-- Node3 -->
<g id="node3" class="node">
<title>Node3</title>
<g id="a_node3"><a xlink:href="incflo_8cpp.html" target="_top" xlink:title=" ">
<polygon fill="white" stroke="black" points="94.5,-112.5 94.5,-131.5 157.5,-131.5 157.5,-112.5 94.5,-112.5"/>
<text text-anchor="middle" x="126" y="-119.5" font-family="Helvetica,sans-Serif" font-size="10.00">incflo.cpp</text>
</a>
</g>
</g>
<!-- Node1&#45;&gt;Node3 -->
<g id="edge2" class="edge">
<title>Node1&#45;&gt;Node3</title>
<path fill="none" stroke="midnightblue" d="M339.52,-166.52C293.5,-157.6 225.87,-144.29 167,-132 164,-131.37 160.89,-130.71 157.77,-130.04"/>
<polygon fill="midnightblue" stroke="midnightblue" points="339.1,-170.01 349.58,-168.47 340.43,-163.13 339.1,-170.01"/>
</g>
<!-- Node4 -->
<g id="node4" class="node">
<title>Node4</title>
<g id="a_node4"><a xlink:href="incflo__advance_8cpp.html" target="_top" xlink:title=" ">
<polygon fill="white" stroke="black" points="176,-112.5 176,-131.5 286,-131.5 286,-112.5 176,-112.5"/>
<text text-anchor="middle" x="231" y="-119.5" font-family="Helvetica,sans-Serif" font-size="10.00">incflo_advance.cpp</text>
</a>
</g>
</g>
<!-- Node1&#45;&gt;Node4 -->
<g id="edge3" class="edge">
<title>Node1&#45;&gt;Node4</title>
<path fill="none" stroke="midnightblue" d="M358.3,-165.17C327.6,-155 284.08,-140.59 256.71,-131.52"/>
<polygon fill="midnightblue" stroke="midnightblue" points="357.58,-168.62 368.17,-168.44 359.78,-161.98 357.58,-168.62"/>
</g>
<!-- Node5 -->
<g id="node5" class="node">
<title>Node5</title>
<g id="a_node5"><a xlink:href="_time_averaging_8_h.html" target="_top" xlink:title=" ">
<polygon fill="white" stroke="black" points="304.5,-112.5 304.5,-131.5 405.5,-131.5 405.5,-112.5 304.5,-112.5"/>
<text text-anchor="middle" x="355" y="-119.5" font-family="Helvetica,sans-Serif" font-size="10.00">TimeAveraging.H</text>
</a>
</g>
</g>
<!-- Node1&#45;&gt;Node5 -->
<g id="edge4" class="edge">
<title>Node1&#45;&gt;Node5</title>
<path fill="none" stroke="midnightblue" d="M381.62,-159.86C374.86,-150.5 366.79,-139.33 361.32,-131.75"/>
<polygon fill="midnightblue" stroke="midnightblue" points="378.87,-162.03 387.56,-168.08 384.54,-157.93 378.87,-162.03"/>
</g>
<!-- Node11 -->
<g id="node11" class="node">
<title>Node11</title>
<g id="a_node11"><a xlink:href="_post_processing_8cpp.html" target="_top" xlink:title=" ">
<polygon fill="white" stroke="black" points="366,-56.5 366,-75.5 476,-75.5 476,-56.5 366,-56.5"/>
<text text-anchor="middle" x="421" y="-63.5" font-family="Helvetica,sans-Serif" font-size="10.00">PostProcessing.cpp</text>
</a>
</g>
</g>
<!-- Node1&#45;&gt;Node11 -->
<g id="edge12" class="edge">
<title>Node1&#45;&gt;Node11</title>
<path fill="none" stroke="midnightblue" d="M403.45,-159.19C407.34,-151.1 411.5,-141.29 414,-132 419.31,-112.27 420.61,-88.15 420.92,-75.57"/>
<polygon fill="midnightblue" stroke="midnightblue" points="400.22,-157.83 398.83,-168.33 406.46,-160.99 400.22,-157.83"/>
</g>
<!-- Node12 -->
<g id="node12" class="node">
<title>Node12</title>
<g id="a_node12"><a xlink:href="_field_norms_8_h.html" target="_top" xlink:title=" ">
<polygon fill="white" stroke="black" points="486.5,-112.5 486.5,-131.5 569.5,-131.5 569.5,-112.5 486.5,-112.5"/>
<text text-anchor="middle" x="528" y="-119.5" font-family="Helvetica,sans-Serif" font-size="10.00">FieldNorms.H</text>
</a>
</g>
</g>
<!-- Node1&#45;&gt;Node12 -->
<g id="edge13" class="edge">
<title>Node1&#45;&gt;Node12</title>
<path fill="none" stroke="midnightblue" d="M424.68,-164.64C449.82,-154.5 484.75,-140.43 506.87,-131.52"/>
<polygon fill="midnightblue" stroke="midnightblue" points="423.2,-161.46 415.23,-168.44 425.82,-167.95 423.2,-161.46"/>
</g>
<!-- Node14 -->
<g id="node14" class="node">
<title>Node14</title>
<g id="a_node14"><a xlink:href="_sampling_8_h.html" target="_top" xlink:title=" ">
<polygon fill="white" stroke="black" points="598.5,-112.5 598.5,-131.5 671.5,-131.5 671.5,-112.5 598.5,-112.5"/>
<text text-anchor="middle" x="635" y="-119.5" font-family="Helvetica,sans-Serif" font-size="10.00">Sampling.H</text>
</a>
</g>
</g>
<!-- Node1&#45;&gt;Node14 -->
<g id="edge15" class="edge">
<title>Node1&#45;&gt;Node14</title>
<path fill="none" stroke="midnightblue" d="M442.21,-166.2C488.18,-155.9 556.42,-140.61 598.18,-131.25"/>
<polygon fill="midnightblue" stroke="midnightblue" points="441.18,-162.84 432.19,-168.44 442.71,-169.67 441.18,-162.84"/>
</g>
<!-- Node16 -->
<g id="node16" class="node">
<title>Node16</title>
<g id="a_node16"><a xlink:href="_a_b_l_stats_8_h.html" target="_top" xlink:title=" ">
<polygon fill="white" stroke="black" points="705.5,-112.5 705.5,-131.5 776.5,-131.5 776.5,-112.5 705.5,-112.5"/>
<text text-anchor="middle" x="741" y="-119.5" font-family="Helvetica,sans-Serif" font-size="10.00">ABLStats.H</text>
</a>
</g>
</g>
<!-- Node1&#45;&gt;Node16 -->
<g id="edge17" class="edge">
<title>Node1&#45;&gt;Node16</title>
<path fill="none" stroke="midnightblue" d="M454.75,-167.55C527.31,-156.25 646.29,-137.74 705.38,-128.54"/>
<polygon fill="midnightblue" stroke="midnightblue" points="454.17,-164.09 444.83,-169.09 455.25,-171.01 454.17,-164.09"/>
</g>
<!-- Node6 -->
<g id="node6" class="node">
<title>Node6</title>
<g id="a_node6"><a xlink:href="_re_averaging_8_h.html" target="_top" xlink:title=" ">
<polygon fill="white" stroke="black" points="100.5,-56.5 100.5,-75.5 189.5,-75.5 189.5,-56.5 100.5,-56.5"/>
<text text-anchor="middle" x="145" y="-63.5" font-family="Helvetica,sans-Serif" font-size="10.00">ReAveraging.H</text>
</a>
</g>
</g>
<!-- Node5&#45;&gt;Node6 -->
<g id="edge5" class="edge">
<title>Node5&#45;&gt;Node6</title>
<path fill="none" stroke="midnightblue" d="M311.81,-109.89C272.15,-99.7 214.23,-84.8 178.12,-75.52"/>
<polygon fill="midnightblue" stroke="midnightblue" points="311.17,-113.34 321.72,-112.44 312.91,-106.56 311.17,-113.34"/>
</g>
<!-- Node8 -->
<g id="node8" class="node">
<title>Node8</title>
<g id="a_node8"><a xlink:href="_time_averaging_8cpp.html" target="_top" xlink:title=" ">
<polygon fill="white" stroke="black" points="138,-0.5 138,-19.5 248,-19.5 248,-0.5 138,-0.5"/>
<text text-anchor="middle" x="193" y="-7.5" font-family="Helvetica,sans-Serif" font-size="10.00">TimeAveraging.cpp</text>
</a>
</g>
</g>
<!-- Node5&#45;&gt;Node8 -->
<g id="edge10" class="edge">
<title>Node5&#45;&gt;Node8</title>
<path fill="none" stroke="midnightblue" d="M305.78,-109.57C283.16,-102.57 256.98,-91.83 237,-76 217.35,-60.43 203.21,-33.66 196.82,-19.84"/>
<polygon fill="midnightblue" stroke="midnightblue" points="304.98,-112.98 315.56,-112.44 306.95,-106.26 304.98,-112.98"/>
</g>
<!-- Node9 -->
<g id="node9" class="node">
<title>Node9</title>
<g id="a_node9"><a xlink:href="_reynolds_stress_8_h.html" target="_top" xlink:title=" ">
<polygon fill="white" stroke="black" points="246,-56.5 246,-75.5 348,-75.5 348,-56.5 246,-56.5"/>
<text text-anchor="middle" x="297" y="-63.5" font-family="Helvetica,sans-Serif" font-size="10.00">ReynoldsStress.H</text>
</a>
</g>
</g>
<!-- Node5&#45;&gt;Node9 -->
<g id="edge8" class="edge">
<title>Node5&#45;&gt;Node9</title>
<path fill="none" stroke="midnightblue" d="M338.09,-105.25C327.8,-95.67 315.03,-83.79 306.49,-75.83"/>
<polygon fill="midnightblue" stroke="midnightblue" points="335.98,-108.07 345.68,-112.32 340.75,-102.95 335.98,-108.07"/>
</g>
<!-- Node5&#45;&gt;Node11 -->
<g id="edge11" class="edge">
<title>Node5&#45;&gt;Node11</title>
<path fill="none" stroke="midnightblue" d="M373.55,-105.82C385.38,-96.15 400.29,-83.95 410.2,-75.83"/>
<polygon fill="midnightblue" stroke="midnightblue" points="371.13,-103.28 365.6,-112.32 375.56,-108.7 371.13,-103.28"/>
</g>
<!-- Node7 -->
<g id="node7" class="node">
<title>Node7</title>
<g id="a_node7"><a xlink:href="_re_averaging_8cpp.html" target="_top" xlink:title=" ">
<polygon fill="white" stroke="black" points="22,-0.5 22,-19.5 120,-19.5 120,-0.5 22,-0.5"/>
<text text-anchor="middle" x="71" y="-7.5" font-family="Helvetica,sans-Serif" font-size="10.00">ReAveraging.cpp</text>
</a>
</g>
</g>
<!-- Node6&#45;&gt;Node7 -->
<g id="edge6" class="edge">
<title>Node6&#45;&gt;Node7</title>
<path fill="none" stroke="midnightblue" d="M124.97,-50.38C111.59,-40.62 94.44,-28.11 83.11,-19.83"/>
<polygon fill="midnightblue" stroke="midnightblue" points="122.97,-53.26 133.11,-56.32 127.1,-47.6 122.97,-53.26"/>
</g>
<!-- Node6&#45;&gt;Node8 -->
<g id="edge7" class="edge">
<title>Node6&#45;&gt;Node8</title>
<path fill="none" stroke="midnightblue" d="M159.73,-48.43C168.14,-38.97 178.35,-27.48 185.22,-19.75"/>
<polygon fill="midnightblue" stroke="midnightblue" points="156.95,-46.28 152.93,-56.08 162.19,-50.93 156.95,-46.28"/>
</g>
<!-- Node10 -->
<g id="node10" class="node">
<title>Node10</title>
<g id="a_node10"><a xlink:href="_reynolds_stress_8cpp.html" target="_top" xlink:title=" ">
<polygon fill="white" stroke="black" points="266,-0.5 266,-19.5 378,-19.5 378,-0.5 266,-0.5"/>
<text text-anchor="middle" x="322" y="-7.5" font-family="Helvetica,sans-Serif" font-size="10.00">ReynoldsStress.cpp</text>
</a>
</g>
</g>
<!-- Node9&#45;&gt;Node10 -->
<g id="edge9" class="edge">
<title>Node9&#45;&gt;Node10</title>
<path fill="none" stroke="midnightblue" d="M305.34,-46.98C309.58,-37.82 314.55,-27.09 317.95,-19.75"/>
<polygon fill="midnightblue" stroke="midnightblue" points="302.15,-45.54 301.13,-56.08 308.51,-48.48 302.15,-45.54"/>
</g>
<!-- Node13 -->
<g id="node13" class="node">
<title>Node13</title>
<g id="a_node13"><a xlink:href="_field_norms_8cpp.html" target="_top" xlink:title=" ">
<polygon fill="white" stroke="black" points="494,-56.5 494,-75.5 586,-75.5 586,-56.5 494,-56.5"/>
<text text-anchor="middle" x="540" y="-63.5" font-family="Helvetica,sans-Serif" font-size="10.00">FieldNorms.cpp</text>
</a>
</g>
</g>
<!-- Node12&#45;&gt;Node13 -->
<g id="edge14" class="edge">
<title>Node12&#45;&gt;Node13</title>
<path fill="none" stroke="midnightblue" d="M532.2,-102.1C534.19,-93.14 536.48,-82.86 538.06,-75.75"/>
<polygon fill="midnightblue" stroke="midnightblue" points="528.73,-101.56 529.98,-112.08 535.57,-103.08 528.73,-101.56"/>
</g>
<!-- Node15 -->
<g id="node15" class="node">
<title>Node15</title>
<g id="a_node15"><a xlink:href="_sampling_8cpp.html" target="_top" xlink:title=" ">
<polygon fill="white" stroke="black" points="604.5,-56.5 604.5,-75.5 687.5,-75.5 687.5,-56.5 604.5,-56.5"/>
<text text-anchor="middle" x="646" y="-63.5" font-family="Helvetica,sans-Serif" font-size="10.00">Sampling.cpp</text>
</a>
</g>
</g>
<!-- Node14&#45;&gt;Node15 -->
<g id="edge16" class="edge">
<title>Node14&#45;&gt;Node15</title>
<path fill="none" stroke="midnightblue" d="M638.85,-102.1C640.68,-93.14 642.77,-82.86 644.22,-75.75"/>
<polygon fill="midnightblue" stroke="midnightblue" points="635.38,-101.59 636.82,-112.08 642.24,-102.98 635.38,-101.59"/>
</g>
<!-- Node17 -->
<g id="node17" class="node">
<title>Node17</title>
<g id="a_node17"><a xlink:href="_a_b_l_stats_8cpp.html" target="_top" xlink:title=" ">
<polygon fill="white" stroke="black" points="706,-56.5 706,-75.5 786,-75.5 786,-56.5 706,-56.5"/>
<text text-anchor="middle" x="746" y="-63.5" font-family="Helvetica,sans-Serif" font-size="10.00">ABLStats.cpp</text>
</a>
</g>
</g>
<!-- Node16&#45;&gt;Node17 -->
<g id="edge18" class="edge">
<title>Node16&#45;&gt;Node17</title>
<path fill="none" stroke="midnightblue" d="M742.75,-102.1C743.58,-93.14 744.53,-82.86 745.19,-75.75"/>
<polygon fill="midnightblue" stroke="midnightblue" points="739.26,-101.8 741.83,-112.08 746.23,-102.45 739.26,-101.8"/>
</g>
</g>
</svg>
