<?xml version="1.0" encoding="UTF-8" standalone="no"?>
<!DOCTYPE svg PUBLIC "-//W3C//DTD SVG 1.1//EN"
 "http://www.w3.org/Graphics/SVG/1.1/DTD/svg11.dtd">
<!-- Generated by graphviz version 2.43.0 (0)
 -->
<!-- Title: SimTime.H Pages: 1 -->
<svg width="3671pt" height="364pt"
 viewBox="0.00 0.00 3671.00 364.00" xmlns="http://www.w3.org/2000/svg" xmlns:xlink="http://www.w3.org/1999/xlink">
<g id="graph0" class="graph" transform="scale(1 1) rotate(0) translate(4 360)">
<title>SimTime.H</title>
<polygon fill="white" stroke="transparent" points="-4,4 -4,-360 3667,-360 3667,4 -4,4"/>
<!-- Node1 -->
<g id="node1" class="node">
<title>Node1</title>
<g id="a_node1"><a xlink:title=" ">
<polygon fill="#bfbfbf" stroke="black" points="2480.5,-336.5 2480.5,-355.5 2551.5,-355.5 2551.5,-336.5 2480.5,-336.5"/>
<text text-anchor="middle" x="2516" y="-343.5" font-family="Helvetica,sans-Serif" font-size="10.00">SimTime.H</text>
</a>
</g>
</g>
<!-- Node2 -->
<g id="node2" class="node">
<title>Node2</title>
<g id="a_node2"><a xlink:href="_field_fill_patch_ops_8_h.html" target="_top" xlink:title=" ">
<polygon fill="white" stroke="black" points="209,-280.5 209,-299.5 319,-299.5 319,-280.5 209,-280.5"/>
<text text-anchor="middle" x="264" y="-287.5" font-family="Helvetica,sans-Serif" font-size="10.00">FieldFillPatchOps.H</text>
</a>
</g>
</g>
<!-- Node1&#45;&gt;Node2 -->
<g id="edge1" class="edge">
<title>Node1&#45;&gt;Node2</title>
<path fill="none" stroke="midnightblue" d="M2470.1,-343.9C2182.63,-337.01 632.28,-299.83 319.15,-292.32"/>
<polygon fill="midnightblue" stroke="midnightblue" points="2470.09,-347.4 2480.17,-344.14 2470.26,-340.4 2470.09,-347.4"/>
</g>
<!-- Node3 -->
<g id="node3" class="node">
<title>Node3</title>
<g id="a_node3"><a xlink:href="velocity__bcs_8_h.html" target="_top" xlink:title=" ">
<polygon fill="white" stroke="black" points="0,-224.5 0,-243.5 88,-243.5 88,-224.5 0,-224.5"/>
<text text-anchor="middle" x="44" y="-231.5" font-family="Helvetica,sans-Serif" font-size="10.00">velocity_bcs.H</text>
</a>
</g>
</g>
<!-- Node1&#45;&gt;Node3 -->
<g id="edge10" class="edge">
<title>Node1&#45;&gt;Node3</title>
<path fill="none" stroke="midnightblue" d="M2469.98,-345.19C2145.68,-346.37 213.64,-351.26 102,-300 76.16,-288.14 56.99,-258.64 48.63,-243.81"/>
<polygon fill="midnightblue" stroke="midnightblue" points="2470.42,-348.69 2480.41,-345.15 2470.39,-341.69 2470.42,-348.69"/>
</g>
<!-- Node6 -->
<g id="node5" class="node">
<title>Node6</title>
<g id="a_node5"><a xlink:href="_field_8cpp.html" target="_top" xlink:title=" ">
<polygon fill="white" stroke="black" points="144,-224.5 144,-243.5 204,-243.5 204,-224.5 144,-224.5"/>
<text text-anchor="middle" x="174" y="-231.5" font-family="Helvetica,sans-Serif" font-size="10.00">Field.cpp</text>
</a>
</g>
</g>
<!-- Node1&#45;&gt;Node6 -->
<g id="edge62" class="edge">
<title>Node1&#45;&gt;Node6</title>
<path fill="none" stroke="midnightblue" d="M2470.1,-344.81C2148.84,-343.37 248.45,-333.49 200,-300 181.2,-287.01 175.99,-258.04 174.55,-243.57"/>
<polygon fill="midnightblue" stroke="midnightblue" points="2470.42,-348.31 2480.43,-344.85 2470.45,-341.31 2470.42,-348.31"/>
</g>
<!-- Node7 -->
<g id="node6" class="node">
<title>Node7</title>
<g id="a_node6"><a xlink:href="_p_d_e_helpers_8_h.html" target="_top" xlink:title=" ">
<polygon fill="white" stroke="red" points="222,-224.5 222,-243.5 306,-243.5 306,-224.5 222,-224.5"/>
<text text-anchor="middle" x="264" y="-231.5" font-family="Helvetica,sans-Serif" font-size="10.00">PDEHelpers.H</text>
</a>
</g>
</g>
<!-- Node1&#45;&gt;Node7 -->
<g id="edge65" class="edge">
<title>Node1&#45;&gt;Node7</title>
<path fill="none" stroke="midnightblue" d="M2470.27,-344.04C2297.91,-340.32 1671.04,-325.7 1155,-300 780.86,-281.36 685.81,-289.7 314,-244 311.46,-243.69 308.86,-243.33 306.23,-242.94"/>
<polygon fill="midnightblue" stroke="midnightblue" points="2470.42,-347.55 2480.5,-344.26 2470.57,-340.55 2470.42,-347.55"/>
</g>
<!-- Node50 -->
<g id="node11" class="node">
<title>Node50</title>
<g id="a_node11"><a xlink:href="_c_f_d_sim_8_h.html" target="_top" xlink:title=" ">
<polygon fill="white" stroke="red" points="2001,-280.5 2001,-299.5 2067,-299.5 2067,-280.5 2001,-280.5"/>
<text text-anchor="middle" x="2034" y="-287.5" font-family="Helvetica,sans-Serif" font-size="10.00">CFDSim.H</text>
</a>
</g>
</g>
<!-- Node1&#45;&gt;Node50 -->
<g id="edge11" class="edge">
<title>Node1&#45;&gt;Node50</title>
<path fill="none" stroke="midnightblue" d="M2470.12,-339.86C2373.58,-329.04 2151.38,-304.15 2067.17,-294.72"/>
<polygon fill="midnightblue" stroke="midnightblue" points="2469.84,-343.35 2480.17,-340.99 2470.62,-336.39 2469.84,-343.35"/>
</g>
<!-- Node52 -->
<g id="node13" class="node">
<title>Node52</title>
<g id="a_node13"><a xlink:href="incflo_8_h.html" target="_top" xlink:title=" ">
<polygon fill="white" stroke="red" points="323.5,-224.5 323.5,-243.5 376.5,-243.5 376.5,-224.5 323.5,-224.5"/>
<text text-anchor="middle" x="350" y="-231.5" font-family="Helvetica,sans-Serif" font-size="10.00">incflo.H</text>
</a>
</g>
</g>
<!-- Node1&#45;&gt;Node52 -->
<g id="edge64" class="edge">
<title>Node1&#45;&gt;Node52</title>
<path fill="none" stroke="midnightblue" d="M2470.01,-342.79C2297.31,-334.47 1671.12,-304.37 1155,-280 812.34,-263.82 723.05,-296.18 384,-244 381.59,-243.63 379.1,-243.15 376.61,-242.62"/>
<polygon fill="midnightblue" stroke="midnightblue" points="2470.09,-346.29 2480.25,-343.28 2470.43,-339.3 2470.09,-346.29"/>
</g>
<!-- Node68 -->
<g id="node16" class="node">
<title>Node68</title>
<g id="a_node16"><a xlink:href="_a_b_l_8_h.html" target="_top" xlink:title=" ">
<polygon fill="white" stroke="red" points="2406,-56.5 2406,-75.5 2452,-75.5 2452,-56.5 2406,-56.5"/>
<text text-anchor="middle" x="2429" y="-63.5" font-family="Helvetica,sans-Serif" font-size="10.00">ABL.H</text>
</a>
</g>
</g>
<!-- Node1&#45;&gt;Node68 -->
<g id="edge69" class="edge">
<title>Node1&#45;&gt;Node68</title>
<path fill="none" stroke="midnightblue" d="M2469.97,-345.2C2151.71,-346.48 287.77,-351.73 181,-300 152.01,-285.96 145.86,-274.32 135,-244 104.97,-160.14 246.37,-175.02 278,-168 712.75,-71.44 2201.35,-67.13 2405.68,-67"/>
<polygon fill="midnightblue" stroke="midnightblue" points="2470.22,-348.7 2480.21,-345.16 2470.19,-341.7 2470.22,-348.7"/>
</g>
<!-- Node74 -->
<g id="node20" class="node">
<title>Node74</title>
<g id="a_node20"><a xlink:href="_field_plane_averaging_8_h.html" target="_top" xlink:title=" ">
<polygon fill="white" stroke="red" points="2875,-224.5 2875,-243.5 3001,-243.5 3001,-224.5 2875,-224.5"/>
<text text-anchor="middle" x="2938" y="-231.5" font-family="Helvetica,sans-Serif" font-size="10.00">FieldPlaneAveraging.H</text>
</a>
</g>
</g>
<!-- Node1&#45;&gt;Node74 -->
<g id="edge68" class="edge">
<title>Node1&#45;&gt;Node74</title>
<path fill="none" stroke="midnightblue" d="M2517.71,-325.98C2520.13,-311.04 2525.95,-290.98 2540,-280 2597.42,-235.11 2793.61,-252.52 2866,-244 2868.88,-243.66 2871.82,-243.31 2874.79,-242.95"/>
<polygon fill="midnightblue" stroke="midnightblue" points="2514.2,-325.81 2516.45,-336.17 2521.15,-326.68 2514.2,-325.81"/>
</g>
<!-- Node21 -->
<g id="node44" class="node">
<title>Node21</title>
<g id="a_node44"><a xlink:href="_multi_phase_8cpp.html" target="_top" xlink:title=" ">
<polygon fill="white" stroke="black" points="3057.5,-224.5 3057.5,-243.5 3148.5,-243.5 3148.5,-224.5 3057.5,-224.5"/>
<text text-anchor="middle" x="3103" y="-231.5" font-family="Helvetica,sans-Serif" font-size="10.00">MultiPhase.cpp</text>
</a>
</g>
</g>
<!-- Node1&#45;&gt;Node21 -->
<g id="edge76" class="edge">
<title>Node1&#45;&gt;Node21</title>
<path fill="none" stroke="midnightblue" d="M2526.99,-327.68C2537.88,-312.2 2556.07,-290.41 2578,-280 2671.63,-235.56 2940.02,-255.69 3043,-244 3047.61,-243.48 3052.4,-242.87 3057.18,-242.22"/>
<polygon fill="midnightblue" stroke="midnightblue" points="2523.85,-326.08 2521.19,-336.34 2529.67,-329.98 2523.85,-326.08"/>
</g>
<!-- Node157 -->
<g id="node45" class="node">
<title>Node157</title>
<g id="a_node45"><a xlink:href="_fast_iface_8cpp.html" target="_top" xlink:title=" ">
<polygon fill="white" stroke="black" points="3167,-224.5 3167,-243.5 3247,-243.5 3247,-224.5 3167,-224.5"/>
<text text-anchor="middle" x="3207" y="-231.5" font-family="Helvetica,sans-Serif" font-size="10.00">FastIface.cpp</text>
</a>
</g>
</g>
<!-- Node1&#45;&gt;Node157 -->
<g id="edge77" class="edge">
<title>Node1&#45;&gt;Node157</title>
<path fill="none" stroke="midnightblue" d="M2535.89,-330.56C2561.22,-312.29 2602.72,-282.86 2611,-280 2726.13,-240.19 3037.11,-259.03 3158,-244 3160.92,-243.64 3163.93,-243.21 3166.95,-242.75"/>
<polygon fill="midnightblue" stroke="midnightblue" points="2533.74,-327.79 2527.68,-336.49 2537.84,-333.47 2533.74,-327.79"/>
</g>
<!-- Node158 -->
<g id="node46" class="node">
<title>Node158</title>
<g id="a_node46"><a xlink:href="_sim_time_8cpp.html" target="_top" xlink:title=" ">
<polygon fill="white" stroke="black" points="2620,-280.5 2620,-299.5 2700,-299.5 2700,-280.5 2620,-280.5"/>
<text text-anchor="middle" x="2660" y="-287.5" font-family="Helvetica,sans-Serif" font-size="10.00">SimTime.cpp</text>
</a>
</g>
</g>
<!-- Node1&#45;&gt;Node158 -->
<g id="edge63" class="edge">
<title>Node1&#45;&gt;Node158</title>
<path fill="none" stroke="midnightblue" d="M2548.25,-332.91C2575.32,-322.75 2613.32,-308.51 2637.29,-299.52"/>
<polygon fill="midnightblue" stroke="midnightblue" points="2546.95,-329.66 2538.82,-336.44 2549.41,-336.21 2546.95,-329.66"/>
</g>
<!-- Node159 -->
<g id="node47" class="node">
<title>Node159</title>
<g id="a_node47"><a xlink:href="_a_b_l_forcing_8_h.html" target="_top" xlink:title=" ">
<polygon fill="white" stroke="red" points="3339.5,-56.5 3339.5,-75.5 3420.5,-75.5 3420.5,-56.5 3339.5,-56.5"/>
<text text-anchor="middle" x="3380" y="-63.5" font-family="Helvetica,sans-Serif" font-size="10.00">ABLForcing.H</text>
</a>
</g>
</g>
<!-- Node1&#45;&gt;Node159 -->
<g id="edge66" class="edge">
<title>Node1&#45;&gt;Node159</title>
<path fill="none" stroke="midnightblue" d="M2561.9,-344.45C2751.34,-341.99 3466.91,-330.74 3563,-300 3613.49,-283.85 3663,-288.01 3663,-235 3663,-235 3663,-235 3663,-177 3663,-125.6 3498.8,-88.68 3420.55,-74.01"/>
<polygon fill="midnightblue" stroke="midnightblue" points="2561.69,-340.95 2551.73,-344.58 2561.78,-347.95 2561.69,-340.95"/>
</g>
<!-- Node160 -->
<g id="node48" class="node">
<title>Node160</title>
<g id="a_node48"><a xlink:href="_actuator_forcing_8_h.html" target="_top" xlink:title=" ">
<polygon fill="white" stroke="black" points="2994,-280.5 2994,-299.5 3098,-299.5 3098,-280.5 2994,-280.5"/>
<text text-anchor="middle" x="3046" y="-287.5" font-family="Helvetica,sans-Serif" font-size="10.00">ActuatorForcing.H</text>
</a>
</g>
</g>
<!-- Node1&#45;&gt;Node160 -->
<g id="edge70" class="edge">
<title>Node1&#45;&gt;Node160</title>
<path fill="none" stroke="midnightblue" d="M2561.79,-340.33C2659.99,-330.33 2890.3,-306.86 2993.89,-296.31"/>
<polygon fill="midnightblue" stroke="midnightblue" points="2561.19,-336.88 2551.6,-341.37 2561.9,-343.84 2561.19,-336.88"/>
</g>
<!-- Node161 -->
<g id="node49" class="node">
<title>Node161</title>
<g id="a_node49"><a xlink:href="_body_force_8_h.html" target="_top" xlink:title=" ">
<polygon fill="white" stroke="black" points="3259,-280.5 3259,-299.5 3337,-299.5 3337,-280.5 3259,-280.5"/>
<text text-anchor="middle" x="3298" y="-287.5" font-family="Helvetica,sans-Serif" font-size="10.00">BodyForce.H</text>
</a>
</g>
</g>
<!-- Node1&#45;&gt;Node161 -->
<g id="edge72" class="edge">
<title>Node1&#45;&gt;Node161</title>
<path fill="none" stroke="midnightblue" d="M2561.65,-341.85C2702.33,-332.13 3127.63,-302.76 3258.95,-293.7"/>
<polygon fill="midnightblue" stroke="midnightblue" points="2561.37,-338.36 2551.63,-342.54 2561.85,-345.34 2561.37,-338.36"/>
</g>
<!-- Node162 -->
<g id="node50" class="node">
<title>Node162</title>
<g id="a_node50"><a xlink:href="_geostrophic_forcing_8_h.html" target="_top" xlink:title=" ">
<polygon fill="white" stroke="black" points="3432.5,-280.5 3432.5,-299.5 3553.5,-299.5 3553.5,-280.5 3432.5,-280.5"/>
<text text-anchor="middle" x="3493" y="-287.5" font-family="Helvetica,sans-Serif" font-size="10.00">GeostrophicForcing.H</text>
</a>
</g>
</g>
<!-- Node1&#45;&gt;Node162 -->
<g id="edge74" class="edge">
<title>Node1&#45;&gt;Node162</title>
<path fill="none" stroke="midnightblue" d="M2561.6,-342.64C2686.87,-336.13 3046.82,-317.27 3346,-300 3374.33,-298.36 3405.73,-296.46 3432.21,-294.82"/>
<polygon fill="midnightblue" stroke="midnightblue" points="2561.4,-339.15 2551.6,-343.16 2561.77,-346.14 2561.4,-339.15"/>
</g>
<!-- Node2&#45;&gt;Node3 -->
<g id="edge2" class="edge">
<title>Node2&#45;&gt;Node3</title>
<path fill="none" stroke="midnightblue" d="M219.28,-278.02C177.72,-267.82 116.69,-252.84 78.7,-243.52"/>
<polygon fill="midnightblue" stroke="midnightblue" points="218.59,-281.46 229.14,-280.44 220.26,-274.66 218.59,-281.46"/>
</g>
<!-- Node2&#45;&gt;Node6 -->
<g id="edge4" class="edge">
<title>Node2&#45;&gt;Node6</title>
<path fill="none" stroke="midnightblue" d="M240.96,-275.18C224.4,-265.24 202.58,-252.15 188.42,-243.65"/>
<polygon fill="midnightblue" stroke="midnightblue" points="239.16,-278.18 249.54,-280.32 242.77,-272.18 239.16,-278.18"/>
</g>
<!-- Node2&#45;&gt;Node7 -->
<g id="edge5" class="edge">
<title>Node2&#45;&gt;Node7</title>
<path fill="none" stroke="midnightblue" d="M264,-269.8C264,-260.91 264,-250.78 264,-243.75"/>
<polygon fill="midnightblue" stroke="midnightblue" points="260.5,-270.08 264,-280.08 267.5,-270.08 260.5,-270.08"/>
</g>
<!-- Node47 -->
<g id="node10" class="node">
<title>Node47</title>
<g id="a_node10"><a xlink:href="_a_b_l_fill_inflow_8_h.html" target="_top" xlink:title=" ">
<polygon fill="white" stroke="red" points="708.5,-168.5 708.5,-187.5 797.5,-187.5 797.5,-168.5 708.5,-168.5"/>
<text text-anchor="middle" x="753" y="-175.5" font-family="Helvetica,sans-Serif" font-size="10.00">ABLFillInflow.H</text>
</a>
</g>
</g>
<!-- Node2&#45;&gt;Node47 -->
<g id="edge9" class="edge">
<title>Node2&#45;&gt;Node47</title>
<path fill="none" stroke="midnightblue" d="M309.44,-278.15C364.62,-265.04 460.53,-242.44 543,-224 601.58,-210.9 669.54,-196.48 711.91,-187.58"/>
<polygon fill="midnightblue" stroke="midnightblue" points="308.55,-274.77 299.63,-280.49 310.17,-281.58 308.55,-274.77"/>
</g>
<!-- Node4 -->
<g id="node4" class="node">
<title>Node4</title>
<g id="a_node4"><a xlink:href="icns__bcop_8_h.html" target="_top" xlink:title=" ">
<polygon fill="white" stroke="red" points="6.5,-168.5 6.5,-187.5 81.5,-187.5 81.5,-168.5 6.5,-168.5"/>
<text text-anchor="middle" x="44" y="-175.5" font-family="Helvetica,sans-Serif" font-size="10.00">icns_bcop.H</text>
</a>
</g>
</g>
<!-- Node3&#45;&gt;Node4 -->
<g id="edge3" class="edge">
<title>Node3&#45;&gt;Node4</title>
<path fill="none" stroke="midnightblue" d="M44,-213.8C44,-204.91 44,-194.78 44,-187.75"/>
<polygon fill="midnightblue" stroke="midnightblue" points="40.5,-214.08 44,-224.08 47.5,-214.08 40.5,-214.08"/>
</g>
<!-- Node8 -->
<g id="node7" class="node">
<title>Node8</title>
<g id="a_node7"><a xlink:href="_p_d_e_ops_8_h.html" target="_top" xlink:title=" ">
<polygon fill="white" stroke="red" points="471.5,-168.5 471.5,-187.5 536.5,-187.5 536.5,-168.5 471.5,-168.5"/>
<text text-anchor="middle" x="504" y="-175.5" font-family="Helvetica,sans-Serif" font-size="10.00">PDEOps.H</text>
</a>
</g>
</g>
<!-- Node7&#45;&gt;Node8 -->
<g id="edge6" class="edge">
<title>Node7&#45;&gt;Node8</title>
<path fill="none" stroke="midnightblue" d="M312.02,-222.2C359.24,-211.57 430.03,-195.64 471.16,-186.39"/>
<polygon fill="midnightblue" stroke="midnightblue" points="311.02,-218.83 302.03,-224.44 312.55,-225.66 311.02,-218.83"/>
</g>
<!-- Node45 -->
<g id="node9" class="node">
<title>Node45</title>
<g id="a_node9"><a xlink:href="_p_d_e_base_8cpp.html" target="_top" xlink:title=" ">
<polygon fill="white" stroke="black" points="287,-168.5 287,-187.5 367,-187.5 367,-168.5 287,-168.5"/>
<text text-anchor="middle" x="327" y="-175.5" font-family="Helvetica,sans-Serif" font-size="10.00">PDEBase.cpp</text>
</a>
</g>
</g>
<!-- Node7&#45;&gt;Node45 -->
<g id="edge8" class="edge">
<title>Node7&#45;&gt;Node45</title>
<path fill="none" stroke="midnightblue" d="M282.04,-217.54C293.27,-207.91 307.32,-195.87 316.69,-187.83"/>
<polygon fill="midnightblue" stroke="midnightblue" points="279.44,-215.16 274.12,-224.32 283.99,-220.47 279.44,-215.16"/>
</g>
<!-- Node23 -->
<g id="node8" class="node">
<title>Node23</title>
<g id="a_node8"><a xlink:href="_p_d_e_8_h.html" target="_top" xlink:title=" ">
<polygon fill="white" stroke="red" points="1162.5,-112.5 1162.5,-131.5 1209.5,-131.5 1209.5,-112.5 1162.5,-112.5"/>
<text text-anchor="middle" x="1186" y="-119.5" font-family="Helvetica,sans-Serif" font-size="10.00">PDE.H</text>
</a>
</g>
</g>
<!-- Node8&#45;&gt;Node23 -->
<g id="edge7" class="edge">
<title>Node8&#45;&gt;Node23</title>
<path fill="none" stroke="midnightblue" d="M546.87,-173.61C676.68,-163.33 1062.73,-132.76 1162.34,-124.87"/>
<polygon fill="midnightblue" stroke="midnightblue" points="546.59,-170.12 536.89,-174.4 547.14,-177.1 546.59,-170.12"/>
</g>
<!-- Node50&#45;&gt;Node8 -->
<g id="edge14" class="edge">
<title>Node50&#45;&gt;Node8</title>
<path fill="none" stroke="midnightblue" d="M1990.67,-288.12C1751.33,-283.19 600.41,-258.75 567,-244 539.97,-232.06 518.67,-202.6 509.25,-187.8"/>
<polygon fill="midnightblue" stroke="midnightblue" points="1990.67,-291.62 2000.74,-288.32 1990.81,-284.62 1990.67,-291.62"/>
</g>
<!-- Node50&#45;&gt;Node23 -->
<g id="edge15" class="edge">
<title>Node50&#45;&gt;Node23</title>
<path fill="none" stroke="midnightblue" d="M2077.37,-287.85C2143.16,-285.1 2263.35,-275.74 2290,-244 2322.09,-205.78 2276.4,-187.26 2231,-168 2134.14,-126.92 1356.25,-123.34 1209.75,-123.03"/>
<polygon fill="midnightblue" stroke="midnightblue" points="2077.16,-284.36 2067.31,-288.24 2077.43,-291.35 2077.16,-284.36"/>
</g>
<!-- Node50&#45;&gt;Node45 -->
<g id="edge40" class="edge">
<title>Node50&#45;&gt;Node45</title>
<path fill="none" stroke="midnightblue" d="M1990.75,-288.1C1738.52,-282.84 467.4,-255.78 429,-244 391.06,-232.36 353.54,-202.48 336.51,-187.63"/>
<polygon fill="midnightblue" stroke="midnightblue" points="1990.91,-291.61 2000.98,-288.32 1991.05,-284.61 1990.91,-291.61"/>
</g>
<!-- Node51 -->
<g id="node12" class="node">
<title>Node51</title>
<g id="a_node12"><a xlink:href="_c_f_d_sim_8cpp.html" target="_top" xlink:title=" ">
<polygon fill="white" stroke="black" points="2135,-224.5 2135,-243.5 2211,-243.5 2211,-224.5 2135,-224.5"/>
<text text-anchor="middle" x="2173" y="-231.5" font-family="Helvetica,sans-Serif" font-size="10.00">CFDSim.cpp</text>
</a>
</g>
</g>
<!-- Node50&#45;&gt;Node51 -->
<g id="edge12" class="edge">
<title>Node50&#45;&gt;Node51</title>
<path fill="none" stroke="midnightblue" d="M2065.48,-276.77C2091.59,-266.63 2128.04,-252.47 2151.08,-243.52"/>
<polygon fill="midnightblue" stroke="midnightblue" points="2064.08,-273.56 2056.02,-280.44 2066.61,-280.08 2064.08,-273.56"/>
</g>
<!-- Node50&#45;&gt;Node52 -->
<g id="edge13" class="edge">
<title>Node50&#45;&gt;Node52</title>
<path fill="none" stroke="midnightblue" d="M1990.57,-288.04C1738.58,-282.46 472.59,-253.98 391,-244 386.37,-243.43 381.49,-242.59 376.78,-241.64"/>
<polygon fill="midnightblue" stroke="midnightblue" points="1990.72,-291.55 2000.8,-288.27 1990.88,-284.55 1990.72,-291.55"/>
</g>
<!-- Node66 -->
<g id="node14" class="node">
<title>Node66</title>
<g id="a_node14"><a xlink:href="_a_b_l_forcing_8cpp.html" target="_top" xlink:title=" ">
<polygon fill="white" stroke="black" points="2983.5,-0.5 2983.5,-19.5 3074.5,-19.5 3074.5,-0.5 2983.5,-0.5"/>
<text text-anchor="middle" x="3029" y="-7.5" font-family="Helvetica,sans-Serif" font-size="10.00">ABLForcing.cpp</text>
</a>
</g>
</g>
<!-- Node50&#45;&gt;Node66 -->
<g id="edge16" class="edge">
<title>Node50&#45;&gt;Node66</title>
<path fill="none" stroke="midnightblue" d="M2077.11,-288.4C2261.1,-285.66 2972.86,-273.2 3010,-244 3033.66,-225.4 3029,-209.1 3029,-179 3029,-179 3029,-179 3029,-121 3029,-83.19 3029,-38.06 3029,-19.56"/>
<polygon fill="midnightblue" stroke="midnightblue" points="2076.95,-284.9 2067,-288.55 2077.06,-291.9 2076.95,-284.9"/>
</g>
<!-- Node67 -->
<g id="node15" class="node">
<title>Node67</title>
<g id="a_node15"><a xlink:href="_a_b_l_wall_function_8_h.html" target="_top" xlink:title=" ">
<polygon fill="white" stroke="red" points="2413.5,-168.5 2413.5,-187.5 2520.5,-187.5 2520.5,-168.5 2413.5,-168.5"/>
<text text-anchor="middle" x="2467" y="-175.5" font-family="Helvetica,sans-Serif" font-size="10.00">ABLWallFunction.H</text>
</a>
</g>
</g>
<!-- Node50&#45;&gt;Node67 -->
<g id="edge17" class="edge">
<title>Node50&#45;&gt;Node67</title>
<path fill="none" stroke="midnightblue" d="M2077.45,-287.06C2161.47,-282.75 2342.91,-270.59 2399,-244 2426.74,-230.85 2450.41,-201.96 2461.03,-187.54"/>
<polygon fill="midnightblue" stroke="midnightblue" points="2077.03,-283.57 2067.22,-287.57 2077.38,-290.57 2077.03,-283.57"/>
</g>
<!-- Node69 -->
<g id="node17" class="node">
<title>Node69</title>
<g id="a_node17"><a xlink:href="_a_b_l_mean_boussinesq_8cpp.html" target="_top" xlink:title=" ">
<polygon fill="white" stroke="black" points="1386,-0.5 1386,-19.5 1524,-19.5 1524,-0.5 1386,-0.5"/>
<text text-anchor="middle" x="1455" y="-7.5" font-family="Helvetica,sans-Serif" font-size="10.00">ABLMeanBoussinesq.cpp</text>
</a>
</g>
</g>
<!-- Node50&#45;&gt;Node69 -->
<g id="edge31" class="edge">
<title>Node50&#45;&gt;Node69</title>
<path fill="none" stroke="midnightblue" d="M1990.89,-288.41C1752.59,-285.08 604.78,-267.86 534,-244 486.9,-228.12 443,-228.7 443,-179 443,-179 443,-179 443,-121 443,-25.95 1157.63,-12.97 1385.84,-11.25"/>
<polygon fill="midnightblue" stroke="midnightblue" points="1990.86,-291.91 2000.91,-288.55 1990.96,-284.91 1990.86,-291.91"/>
</g>
<!-- Node71 -->
<g id="node18" class="node">
<title>Node71</title>
<g id="a_node18"><a xlink:href="_a_b_l_stats_base_8_h.html" target="_top" xlink:title=" ">
<polygon fill="white" stroke="red" points="2381.5,-112.5 2381.5,-131.5 2476.5,-131.5 2476.5,-112.5 2381.5,-112.5"/>
<text text-anchor="middle" x="2429" y="-119.5" font-family="Helvetica,sans-Serif" font-size="10.00">ABLStatsBase.H</text>
</a>
</g>
</g>
<!-- Node50&#45;&gt;Node71 -->
<g id="edge30" class="edge">
<title>Node50&#45;&gt;Node71</title>
<path fill="none" stroke="midnightblue" d="M2077.46,-286.76C2151.3,-282.28 2297.5,-270.3 2341,-244 2364.45,-229.82 2409.03,-156.82 2423.97,-131.59"/>
<polygon fill="midnightblue" stroke="midnightblue" points="2076.88,-283.29 2067.11,-287.37 2077.3,-290.27 2076.88,-283.29"/>
</g>
<!-- Node73 -->
<g id="node19" class="node">
<title>Node73</title>
<g id="a_node19"><a xlink:href="_boussinesq_bubble_8cpp.html" target="_top" xlink:title=" ">
<polygon fill="white" stroke="black" points="2237,-112.5 2237,-131.5 2363,-131.5 2363,-112.5 2237,-112.5"/>
<text text-anchor="middle" x="2300" y="-119.5" font-family="Helvetica,sans-Serif" font-size="10.00">BoussinesqBubble.cpp</text>
</a>
</g>
</g>
<!-- Node50&#45;&gt;Node73 -->
<g id="edge45" class="edge">
<title>Node50&#45;&gt;Node73</title>
<path fill="none" stroke="midnightblue" d="M2077.21,-288.85C2149.92,-287.57 2291.87,-280.35 2323,-244 2351.51,-210.7 2319.61,-153.14 2305.77,-131.53"/>
<polygon fill="midnightblue" stroke="midnightblue" points="2076.95,-285.35 2067.01,-288.99 2077.06,-292.35 2076.95,-285.35"/>
</g>
<!-- Node50&#45;&gt;Node74 -->
<g id="edge24" class="edge">
<title>Node50&#45;&gt;Node74</title>
<path fill="none" stroke="midnightblue" d="M2077.54,-287.72C2201.2,-283.87 2565,-270.92 2866,-244 2868.89,-243.74 2871.83,-243.46 2874.81,-243.15"/>
<polygon fill="midnightblue" stroke="midnightblue" points="2077.24,-284.23 2067.35,-288.04 2077.45,-291.23 2077.24,-284.23"/>
</g>
<!-- Node81 -->
<g id="node21" class="node">
<title>Node81</title>
<g id="a_node21"><a xlink:href="_a_b_l_boundary_plane_8_h.html" target="_top" xlink:title=" ">
<polygon fill="white" stroke="red" points="1852.5,-224.5 1852.5,-243.5 1971.5,-243.5 1971.5,-224.5 1852.5,-224.5"/>
<text text-anchor="middle" x="1912" y="-231.5" font-family="Helvetica,sans-Serif" font-size="10.00">ABLBoundaryPlane.H</text>
</a>
</g>
</g>
<!-- Node50&#45;&gt;Node81 -->
<g id="edge27" class="edge">
<title>Node50&#45;&gt;Node81</title>
<path fill="none" stroke="midnightblue" d="M2005.46,-276.37C1982.61,-266.26 1951.19,-252.35 1931.24,-243.52"/>
<polygon fill="midnightblue" stroke="midnightblue" points="2004.11,-279.6 2014.67,-280.44 2006.94,-273.2 2004.11,-279.6"/>
</g>
<!-- Node82 -->
<g id="node22" class="node">
<title>Node82</title>
<g id="a_node22"><a xlink:href="_actuator_forcing_8cpp.html" target="_top" xlink:title=" ">
<polygon fill="white" stroke="black" points="3265.5,-224.5 3265.5,-243.5 3378.5,-243.5 3378.5,-224.5 3265.5,-224.5"/>
<text text-anchor="middle" x="3322" y="-231.5" font-family="Helvetica,sans-Serif" font-size="10.00">ActuatorForcing.cpp</text>
</a>
</g>
</g>
<!-- Node50&#45;&gt;Node82 -->
<g id="edge32" class="edge">
<title>Node50&#45;&gt;Node82</title>
<path fill="none" stroke="midnightblue" d="M2077.38,-288.95C2235.53,-288.44 2795.96,-283.74 3256,-244 3259,-243.74 3262.06,-243.44 3265.16,-243.11"/>
<polygon fill="midnightblue" stroke="midnightblue" points="2077.11,-285.45 2067.12,-288.98 2077.13,-292.45 2077.11,-285.45"/>
</g>
<!-- Node83 -->
<g id="node23" class="node">
<title>Node83</title>
<g id="a_node23"><a xlink:href="_body_force_8cpp.html" target="_top" xlink:title=" ">
<polygon fill="white" stroke="black" points="3397,-224.5 3397,-243.5 3485,-243.5 3485,-224.5 3397,-224.5"/>
<text text-anchor="middle" x="3441" y="-231.5" font-family="Helvetica,sans-Serif" font-size="10.00">BodyForce.cpp</text>
</a>
</g>
</g>
<!-- Node50&#45;&gt;Node83 -->
<g id="edge33" class="edge">
<title>Node50&#45;&gt;Node83</title>
<path fill="none" stroke="midnightblue" d="M2077.24,-288.35C2278.5,-285.2 3124.77,-270.6 3388,-244 3390.88,-243.71 3393.84,-243.36 3396.81,-242.96"/>
<polygon fill="midnightblue" stroke="midnightblue" points="2077.01,-284.85 2067.07,-288.51 2077.12,-291.85 2077.01,-284.85"/>
</g>
<!-- Node84 -->
<g id="node24" class="node">
<title>Node84</title>
<g id="a_node24"><a xlink:href="_boussinesq_buoyancy_8cpp.html" target="_top" xlink:title=" ">
<polygon fill="white" stroke="black" points="2451.5,-224.5 2451.5,-243.5 2590.5,-243.5 2590.5,-224.5 2451.5,-224.5"/>
<text text-anchor="middle" x="2521" y="-231.5" font-family="Helvetica,sans-Serif" font-size="10.00">BoussinesqBuoyancy.cpp</text>
</a>
</g>
</g>
<!-- Node50&#45;&gt;Node84 -->
<g id="edge34" class="edge">
<title>Node50&#45;&gt;Node84</title>
<path fill="none" stroke="midnightblue" d="M2077.09,-284.22C2161.46,-274.87 2349.07,-254.06 2451.31,-242.73"/>
<polygon fill="midnightblue" stroke="midnightblue" points="2076.64,-280.75 2067.09,-285.33 2077.42,-287.71 2076.64,-280.75"/>
</g>
<!-- Node85 -->
<g id="node25" class="node">
<title>Node85</title>
<g id="a_node25"><a xlink:href="_coriolis_forcing_8cpp.html" target="_top" xlink:title=" ">
<polygon fill="white" stroke="black" points="2608.5,-224.5 2608.5,-243.5 2717.5,-243.5 2717.5,-224.5 2608.5,-224.5"/>
<text text-anchor="middle" x="2663" y="-231.5" font-family="Helvetica,sans-Serif" font-size="10.00">CoriolisForcing.cpp</text>
</a>
</g>
</g>
<!-- Node50&#45;&gt;Node85 -->
<g id="edge35" class="edge">
<title>Node50&#45;&gt;Node85</title>
<path fill="none" stroke="midnightblue" d="M2077.32,-286.48C2172.21,-280.77 2405.47,-265.61 2600,-244 2602.75,-243.7 2605.56,-243.36 2608.39,-243.01"/>
<polygon fill="midnightblue" stroke="midnightblue" points="2077.02,-283 2067.24,-287.09 2077.43,-289.98 2077.02,-283"/>
</g>
<!-- Node86 -->
<g id="node26" class="node">
<title>Node86</title>
<g id="a_node26"><a xlink:href="_density_buoyancy_8cpp.html" target="_top" xlink:title=" ">
<polygon fill="white" stroke="black" points="2735.5,-224.5 2735.5,-243.5 2856.5,-243.5 2856.5,-224.5 2735.5,-224.5"/>
<text text-anchor="middle" x="2796" y="-231.5" font-family="Helvetica,sans-Serif" font-size="10.00">DensityBuoyancy.cpp</text>
</a>
</g>
</g>
<!-- Node50&#45;&gt;Node86 -->
<g id="edge36" class="edge">
<title>Node50&#45;&gt;Node86</title>
<path fill="none" stroke="midnightblue" d="M2077.54,-287.16C2186.91,-282.31 2481.97,-267.91 2727,-244 2729.77,-243.73 2732.59,-243.44 2735.44,-243.12"/>
<polygon fill="midnightblue" stroke="midnightblue" points="2077.08,-283.67 2067.24,-287.61 2077.38,-290.67 2077.08,-283.67"/>
</g>
<!-- Node87 -->
<g id="node27" class="node">
<title>Node87</title>
<g id="a_node27"><a xlink:href="_geostrophic_forcing_8cpp.html" target="_top" xlink:title=" ">
<polygon fill="white" stroke="black" points="3503.5,-224.5 3503.5,-243.5 3634.5,-243.5 3634.5,-224.5 3503.5,-224.5"/>
<text text-anchor="middle" x="3569" y="-231.5" font-family="Helvetica,sans-Serif" font-size="10.00">GeostrophicForcing.cpp</text>
</a>
</g>
</g>
<!-- Node50&#45;&gt;Node87 -->
<g id="edge37" class="edge">
<title>Node50&#45;&gt;Node87</title>
<path fill="none" stroke="midnightblue" d="M2077.17,-288.19C2287.69,-284.14 3208.02,-265.52 3494,-244 3497.01,-243.77 3500.08,-243.52 3503.18,-243.23"/>
<polygon fill="midnightblue" stroke="midnightblue" points="2077.05,-284.69 2067.12,-288.38 2077.19,-291.69 2077.05,-284.69"/>
</g>
<!-- Node88 -->
<g id="node28" class="node">
<title>Node88</title>
<g id="a_node28"><a xlink:href="_gravity_forcing_8cpp.html" target="_top" xlink:title=" ">
<polygon fill="white" stroke="black" points="585,-224.5 585,-243.5 693,-243.5 693,-224.5 585,-224.5"/>
<text text-anchor="middle" x="639" y="-231.5" font-family="Helvetica,sans-Serif" font-size="10.00">GravityForcing.cpp</text>
</a>
</g>
</g>
<!-- Node50&#45;&gt;Node88 -->
<g id="edge38" class="edge">
<title>Node50&#45;&gt;Node88</title>
<path fill="none" stroke="midnightblue" d="M1990.82,-288.17C1791.73,-284.25 960.99,-266.81 702,-244 699.14,-243.75 696.21,-243.45 693.25,-243.13"/>
<polygon fill="midnightblue" stroke="midnightblue" points="1990.83,-291.67 2000.9,-288.37 1990.97,-284.67 1990.83,-291.67"/>
</g>
<!-- Node89 -->
<g id="node29" class="node">
<title>Node89</title>
<g id="a_node29"><a xlink:href="_synth_turb_forcing_8cpp.html" target="_top" xlink:title=" ">
<polygon fill="white" stroke="black" points="711,-224.5 711,-243.5 831,-243.5 831,-224.5 711,-224.5"/>
<text text-anchor="middle" x="771" y="-231.5" font-family="Helvetica,sans-Serif" font-size="10.00">SynthTurbForcing.cpp</text>
</a>
</g>
</g>
<!-- Node50&#45;&gt;Node89 -->
<g id="edge39" class="edge">
<title>Node50&#45;&gt;Node89</title>
<path fill="none" stroke="midnightblue" d="M1990.58,-287.9C1804.12,-283.1 1070.28,-263.32 840,-244 837.11,-243.76 834.16,-243.48 831.18,-243.18"/>
<polygon fill="midnightblue" stroke="midnightblue" points="1990.73,-291.41 2000.82,-288.16 1990.91,-284.41 1990.73,-291.41"/>
</g>
<!-- Node90 -->
<g id="node30" class="node">
<title>Node90</title>
<g id="a_node30"><a xlink:href="_s_d_r_src_8cpp.html" target="_top" xlink:title=" ">
<polygon fill="white" stroke="black" points="849,-224.5 849,-243.5 921,-243.5 921,-224.5 849,-224.5"/>
<text text-anchor="middle" x="885" y="-231.5" font-family="Helvetica,sans-Serif" font-size="10.00">SDRSrc.cpp</text>
</a>
</g>
</g>
<!-- Node50&#45;&gt;Node90 -->
<g id="edge41" class="edge">
<title>Node50&#45;&gt;Node90</title>
<path fill="none" stroke="midnightblue" d="M1990.69,-288.14C1813.2,-284.49 1140.92,-269.23 930,-244 927.15,-243.66 924.22,-243.24 921.27,-242.76"/>
<polygon fill="midnightblue" stroke="midnightblue" points="1990.87,-291.65 2000.94,-288.35 1991.01,-284.65 1990.87,-291.65"/>
</g>
<!-- Node91 -->
<g id="node31" class="node">
<title>Node91</title>
<g id="a_node31"><a xlink:href="_ksgs_m84_src_8cpp.html" target="_top" xlink:title=" ">
<polygon fill="white" stroke="black" points="939,-224.5 939,-243.5 1035,-243.5 1035,-224.5 939,-224.5"/>
<text text-anchor="middle" x="987" y="-231.5" font-family="Helvetica,sans-Serif" font-size="10.00">KsgsM84Src.cpp</text>
</a>
</g>
</g>
<!-- Node50&#45;&gt;Node91 -->
<g id="edge42" class="edge">
<title>Node50&#45;&gt;Node91</title>
<path fill="none" stroke="midnightblue" d="M1990.4,-288.7C1851.84,-287.39 1409.2,-280.43 1045,-244 1041.76,-243.68 1038.42,-243.29 1035.06,-242.87"/>
<polygon fill="midnightblue" stroke="midnightblue" points="1990.58,-292.2 2000.61,-288.79 1990.64,-285.2 1990.58,-292.2"/>
</g>
<!-- Node92 -->
<g id="node32" class="node">
<title>Node92</title>
<g id="a_node32"><a xlink:href="_kw_s_s_t_src_8cpp.html" target="_top" xlink:title=" ">
<polygon fill="white" stroke="black" points="1053.5,-224.5 1053.5,-243.5 1138.5,-243.5 1138.5,-224.5 1053.5,-224.5"/>
<text text-anchor="middle" x="1096" y="-231.5" font-family="Helvetica,sans-Serif" font-size="10.00">KwSSTSrc.cpp</text>
</a>
</g>
</g>
<!-- Node50&#45;&gt;Node92 -->
<g id="edge43" class="edge">
<title>Node50&#45;&gt;Node92</title>
<path fill="none" stroke="midnightblue" d="M1990.67,-288.65C1861.88,-287.2 1470.33,-279.95 1148,-244 1144.9,-243.65 1141.71,-243.24 1138.51,-242.79"/>
<polygon fill="midnightblue" stroke="midnightblue" points="1990.86,-292.15 2000.9,-288.76 1990.94,-285.15 1990.86,-292.15"/>
</g>
<!-- Node93 -->
<g id="node33" class="node">
<title>Node93</title>
<g id="a_node33"><a xlink:href="_tioga_interface_8cpp.html" target="_top" xlink:title=" ">
<polygon fill="white" stroke="black" points="1156.5,-224.5 1156.5,-243.5 1263.5,-243.5 1263.5,-224.5 1156.5,-224.5"/>
<text text-anchor="middle" x="1210" y="-231.5" font-family="Helvetica,sans-Serif" font-size="10.00">TiogaInterface.cpp</text>
</a>
</g>
</g>
<!-- Node50&#45;&gt;Node93 -->
<g id="edge44" class="edge">
<title>Node50&#45;&gt;Node93</title>
<path fill="none" stroke="midnightblue" d="M1990.64,-287.69C1874.25,-283.92 1545.31,-271.45 1273,-244 1269.92,-243.69 1266.76,-243.34 1263.58,-242.96"/>
<polygon fill="midnightblue" stroke="midnightblue" points="1990.81,-291.2 2000.92,-288.02 1991.03,-284.2 1990.81,-291.2"/>
</g>
<!-- Node94 -->
<g id="node34" class="node">
<title>Node94</title>
<g id="a_node34"><a xlink:href="_channel_flow_8_h.html" target="_top" xlink:title=" ">
<polygon fill="white" stroke="black" points="1281.5,-224.5 1281.5,-243.5 1370.5,-243.5 1370.5,-224.5 1281.5,-224.5"/>
<text text-anchor="middle" x="1326" y="-231.5" font-family="Helvetica,sans-Serif" font-size="10.00">ChannelFlow.H</text>
</a>
</g>
</g>
<!-- Node50&#45;&gt;Node94 -->
<g id="edge46" class="edge">
<title>Node50&#45;&gt;Node94</title>
<path fill="none" stroke="midnightblue" d="M1990.68,-287.47C1885.66,-283.43 1609.21,-270.92 1380,-244 1376.98,-243.65 1373.87,-243.24 1370.74,-242.8"/>
<polygon fill="midnightblue" stroke="midnightblue" points="1990.76,-290.97 2000.89,-287.85 1991.03,-283.98 1990.76,-290.97"/>
</g>
<!-- Node95 -->
<g id="node35" class="node">
<title>Node95</title>
<g id="a_node35"><a xlink:href="_channel_flow_8cpp.html" target="_top" xlink:title=" ">
<polygon fill="white" stroke="black" points="1122.5,-168.5 1122.5,-187.5 1221.5,-187.5 1221.5,-168.5 1122.5,-168.5"/>
<text text-anchor="middle" x="1172" y="-175.5" font-family="Helvetica,sans-Serif" font-size="10.00">ChannelFlow.cpp</text>
</a>
</g>
</g>
<!-- Node50&#45;&gt;Node95 -->
<g id="edge48" class="edge">
<title>Node50&#45;&gt;Node95</title>
<path fill="none" stroke="midnightblue" d="M1990.66,-288.07C1750.02,-282.86 588.64,-257.04 576,-244 569.81,-237.62 569.96,-230.52 576,-224 594.5,-204.05 982.79,-186.58 1122.48,-180.92"/>
<polygon fill="midnightblue" stroke="midnightblue" points="1990.7,-291.57 2000.77,-288.29 1990.85,-284.57 1990.7,-291.57"/>
</g>
<!-- Node96 -->
<g id="node36" class="node">
<title>Node96</title>
<g id="a_node36"><a xlink:href="_convecting_taylor_vortex_8_h.html" target="_top" xlink:title=" ">
<polygon fill="white" stroke="black" points="1388.5,-224.5 1388.5,-243.5 1531.5,-243.5 1531.5,-224.5 1388.5,-224.5"/>
<text text-anchor="middle" x="1460" y="-231.5" font-family="Helvetica,sans-Serif" font-size="10.00">ConvectingTaylorVortex.H</text>
</a>
</g>
</g>
<!-- Node50&#45;&gt;Node96 -->
<g id="edge49" class="edge">
<title>Node50&#45;&gt;Node96</title>
<path fill="none" stroke="midnightblue" d="M1990.78,-285.19C1905.64,-277.66 1710.19,-260.16 1546,-244 1541.37,-243.54 1536.6,-243.07 1531.79,-242.58"/>
<polygon fill="midnightblue" stroke="midnightblue" points="1990.58,-288.69 2000.85,-286.09 1991.2,-281.72 1990.58,-288.69"/>
</g>
<!-- Node97 -->
<g id="node37" class="node">
<title>Node97</title>
<g id="a_node37"><a xlink:href="_convecting_taylor_vortex_8cpp.html" target="_top" xlink:title=" ">
<polygon fill="white" stroke="black" points="1434,-168.5 1434,-187.5 1586,-187.5 1586,-168.5 1434,-168.5"/>
<text text-anchor="middle" x="1510" y="-175.5" font-family="Helvetica,sans-Serif" font-size="10.00">ConvectingTaylorVortex.cpp</text>
</a>
</g>
</g>
<!-- Node50&#45;&gt;Node97 -->
<g id="edge51" class="edge">
<title>Node50&#45;&gt;Node97</title>
<path fill="none" stroke="midnightblue" d="M1990.44,-288.2C1891.46,-285.82 1652.63,-276.75 1580,-244 1551.58,-231.18 1527.15,-202.14 1516.18,-187.61"/>
<polygon fill="midnightblue" stroke="midnightblue" points="1990.61,-291.7 2000.68,-288.43 1990.77,-284.7 1990.61,-291.7"/>
</g>
<!-- Node98 -->
<g id="node38" class="node">
<title>Node98</title>
<g id="a_node38"><a xlink:href="_ekman_spiral_8_h.html" target="_top" xlink:title=" ">
<polygon fill="white" stroke="black" points="1989.5,-224.5 1989.5,-243.5 2078.5,-243.5 2078.5,-224.5 1989.5,-224.5"/>
<text text-anchor="middle" x="2034" y="-231.5" font-family="Helvetica,sans-Serif" font-size="10.00">EkmanSpiral.H</text>
</a>
</g>
</g>
<!-- Node50&#45;&gt;Node98 -->
<g id="edge52" class="edge">
<title>Node50&#45;&gt;Node98</title>
<path fill="none" stroke="midnightblue" d="M2034,-269.8C2034,-260.91 2034,-250.78 2034,-243.75"/>
<polygon fill="midnightblue" stroke="midnightblue" points="2030.5,-270.08 2034,-280.08 2037.5,-270.08 2030.5,-270.08"/>
</g>
<!-- Node99 -->
<g id="node39" class="node">
<title>Node99</title>
<g id="a_node39"><a xlink:href="_ekman_spiral_8cpp.html" target="_top" xlink:title=" ">
<polygon fill="white" stroke="black" points="1974,-168.5 1974,-187.5 2072,-187.5 2072,-168.5 1974,-168.5"/>
<text text-anchor="middle" x="2023" y="-175.5" font-family="Helvetica,sans-Serif" font-size="10.00">EkmanSpiral.cpp</text>
</a>
</g>
</g>
<!-- Node50&#45;&gt;Node99 -->
<g id="edge54" class="edge">
<title>Node50&#45;&gt;Node99</title>
<path fill="none" stroke="midnightblue" d="M1990.62,-289.25C1914.62,-288.65 1762.28,-282.55 1729,-244 1723.19,-237.27 1723.21,-230.74 1729,-224 1759.99,-187.91 1898.66,-180.46 1973.96,-179.12"/>
<polygon fill="midnightblue" stroke="midnightblue" points="1990.8,-292.75 2000.82,-289.3 1990.83,-285.75 1990.8,-292.75"/>
</g>
<!-- Node100 -->
<g id="node40" class="node">
<title>Node100</title>
<g id="a_node40"><a xlink:href="_free_stream_8cpp.html" target="_top" xlink:title=" ">
<polygon fill="white" stroke="black" points="1588.5,-224.5 1588.5,-243.5 1681.5,-243.5 1681.5,-224.5 1588.5,-224.5"/>
<text text-anchor="middle" x="1635" y="-231.5" font-family="Helvetica,sans-Serif" font-size="10.00">FreeStream.cpp</text>
</a>
</g>
</g>
<!-- Node50&#45;&gt;Node100 -->
<g id="edge55" class="edge">
<title>Node50&#45;&gt;Node100</title>
<path fill="none" stroke="midnightblue" d="M1990.71,-283.43C1926.38,-275.12 1801.79,-258.85 1696,-244 1691.34,-243.35 1686.47,-242.65 1681.62,-241.95"/>
<polygon fill="midnightblue" stroke="midnightblue" points="1990.51,-286.94 2000.87,-284.75 1991.41,-280 1990.51,-286.94"/>
</g>
<!-- Node101 -->
<g id="node41" class="node">
<title>Node101</title>
<g id="a_node41"><a xlink:href="_m_m_s_8_h.html" target="_top" xlink:title=" ">
<polygon fill="white" stroke="black" points="2229.5,-224.5 2229.5,-243.5 2280.5,-243.5 2280.5,-224.5 2229.5,-224.5"/>
<text text-anchor="middle" x="2255" y="-231.5" font-family="Helvetica,sans-Serif" font-size="10.00">MMS.H</text>
</a>
</g>
</g>
<!-- Node50&#45;&gt;Node101 -->
<g id="edge56" class="edge">
<title>Node50&#45;&gt;Node101</title>
<path fill="none" stroke="midnightblue" d="M2077.43,-278.68C2115.15,-269.67 2171.24,-256.17 2220,-244 2223.04,-243.24 2226.23,-242.43 2229.4,-241.63"/>
<polygon fill="midnightblue" stroke="midnightblue" points="2076.21,-275.37 2067.3,-281.1 2077.84,-282.18 2076.21,-275.37"/>
</g>
<!-- Node102 -->
<g id="node42" class="node">
<title>Node102</title>
<g id="a_node42"><a xlink:href="_m_m_s_8cpp.html" target="_top" xlink:title=" ">
<polygon fill="white" stroke="black" points="2160.5,-168.5 2160.5,-187.5 2221.5,-187.5 2221.5,-168.5 2160.5,-168.5"/>
<text text-anchor="middle" x="2191" y="-175.5" font-family="Helvetica,sans-Serif" font-size="10.00">MMS.cpp</text>
</a>
</g>
</g>
<!-- Node50&#45;&gt;Node102 -->
<g id="edge58" class="edge">
<title>Node50&#45;&gt;Node102</title>
<path fill="none" stroke="midnightblue" d="M2054.49,-274.44C2073.1,-261.23 2101.35,-241.24 2126,-224 2144.22,-211.26 2165.41,-196.62 2178.51,-187.59"/>
<polygon fill="midnightblue" stroke="midnightblue" points="2052.3,-271.7 2046.18,-280.34 2056.36,-277.41 2052.3,-271.7"/>
</g>
<!-- Node103 -->
<g id="node43" class="node">
<title>Node103</title>
<g id="a_node43"><a xlink:href="_m_m_s_forcing_8cpp.html" target="_top" xlink:title=" ">
<polygon fill="white" stroke="black" points="1738,-224.5 1738,-243.5 1834,-243.5 1834,-224.5 1738,-224.5"/>
<text text-anchor="middle" x="1786" y="-231.5" font-family="Helvetica,sans-Serif" font-size="10.00">MMSForcing.cpp</text>
</a>
</g>
</g>
<!-- Node50&#45;&gt;Node103 -->
<g id="edge59" class="edge">
<title>Node50&#45;&gt;Node103</title>
<path fill="none" stroke="midnightblue" d="M1990.99,-279.63C1944.26,-269.46 1870.26,-253.35 1825.12,-243.52"/>
<polygon fill="midnightblue" stroke="midnightblue" points="1990.3,-283.07 2000.81,-281.77 1991.78,-276.23 1990.3,-283.07"/>
</g>
<!-- Node50&#45;&gt;Node21 -->
<g id="edge60" class="edge">
<title>Node50&#45;&gt;Node21</title>
<path fill="none" stroke="midnightblue" d="M2077.5,-288.68C2217.75,-287.3 2670.49,-280.15 3043,-244 3047.61,-243.55 3052.41,-242.99 3057.2,-242.37"/>
<polygon fill="midnightblue" stroke="midnightblue" points="2077.15,-285.18 2067.19,-288.78 2077.22,-292.18 2077.15,-285.18"/>
</g>
<!-- Node50&#45;&gt;Node157 -->
<g id="edge61" class="edge">
<title>Node50&#45;&gt;Node157</title>
<path fill="none" stroke="midnightblue" d="M2077.22,-288.09C2256.55,-284.18 2942.72,-267.96 3158,-244 3160.92,-243.67 3163.93,-243.28 3166.96,-242.83"/>
<polygon fill="midnightblue" stroke="midnightblue" points="2077.04,-284.59 2067.11,-288.31 2077.19,-291.59 2077.04,-284.59"/>
</g>
<!-- Node67&#45;&gt;Node68 -->
<g id="edge18" class="edge">
<title>Node67&#45;&gt;Node68</title>
<path fill="none" stroke="midnightblue" d="M2478.84,-159.55C2486.37,-146.12 2493.43,-127.32 2486,-112 2477.97,-95.43 2460.56,-83.13 2447.08,-75.61"/>
<polygon fill="midnightblue" stroke="midnightblue" points="2475.74,-157.9 2473.47,-168.25 2481.7,-161.57 2475.74,-157.9"/>
</g>
<!-- Node67&#45;&gt;Node71 -->
<g id="edge21" class="edge">
<title>Node67&#45;&gt;Node71</title>
<path fill="none" stroke="midnightblue" d="M2454.94,-159.86C2448.36,-150.5 2440.49,-139.33 2435.16,-131.75"/>
<polygon fill="midnightblue" stroke="midnightblue" points="2452.11,-161.92 2460.73,-168.08 2457.83,-157.89 2452.11,-161.92"/>
</g>
<!-- Node67&#45;&gt;Node73 -->
<g id="edge23" class="edge">
<title>Node67&#45;&gt;Node73</title>
<path fill="none" stroke="midnightblue" d="M2430.83,-165.3C2399.36,-155.13 2354.51,-140.62 2326.34,-131.52"/>
<polygon fill="midnightblue" stroke="midnightblue" points="2429.95,-168.7 2440.54,-168.44 2432.1,-162.04 2429.95,-168.7"/>
</g>
<!-- Node68&#45;&gt;Node66 -->
<g id="edge19" class="edge">
<title>Node68&#45;&gt;Node66</title>
<path fill="none" stroke="midnightblue" d="M2462.4,-61.99C2563.71,-52.88 2867.66,-25.52 2983.49,-15.1"/>
<polygon fill="midnightblue" stroke="midnightblue" points="2461.8,-58.53 2452.15,-62.92 2462.43,-65.51 2461.8,-58.53"/>
</g>
<!-- Node68&#45;&gt;Node69 -->
<g id="edge20" class="edge">
<title>Node68&#45;&gt;Node69</title>
<path fill="none" stroke="midnightblue" d="M2395.83,-63.16C2256.57,-55.44 1717.51,-25.55 1524.35,-14.84"/>
<polygon fill="midnightblue" stroke="midnightblue" points="2395.71,-66.66 2405.88,-63.72 2396.09,-59.67 2395.71,-66.66"/>
</g>
<!-- Node71&#45;&gt;Node68 -->
<g id="edge22" class="edge">
<title>Node71&#45;&gt;Node68</title>
<path fill="none" stroke="midnightblue" d="M2429,-101.8C2429,-92.91 2429,-82.78 2429,-75.75"/>
<polygon fill="midnightblue" stroke="midnightblue" points="2425.5,-102.08 2429,-112.08 2432.5,-102.08 2425.5,-102.08"/>
</g>
<!-- Node74&#45;&gt;Node67 -->
<g id="edge25" class="edge">
<title>Node74&#45;&gt;Node67</title>
<path fill="none" stroke="midnightblue" d="M2864.68,-223.86C2735.11,-208.5 2595.26,-193.01 2520.59,-184.84"/>
<polygon fill="midnightblue" stroke="midnightblue" points="2864.45,-227.35 2874.79,-225.05 2865.27,-220.4 2864.45,-227.35"/>
</g>
<!-- Node74&#45;&gt;Node68 -->
<g id="edge26" class="edge">
<title>Node74&#45;&gt;Node68</title>
<path fill="none" stroke="midnightblue" d="M2901.94,-221.24C2803.66,-189.19 2533.11,-100.95 2452.17,-74.56"/>
<polygon fill="midnightblue" stroke="midnightblue" points="2901.11,-224.65 2911.71,-224.42 2903.28,-218 2901.11,-224.65"/>
</g>
<!-- Node81&#45;&gt;Node47 -->
<g id="edge29" class="edge">
<title>Node81&#45;&gt;Node47</title>
<path fill="none" stroke="midnightblue" d="M1842.03,-224.02C1615,-205.54 973.2,-185.57 797.76,-180.32"/>
<polygon fill="midnightblue" stroke="midnightblue" points="1841.94,-227.52 1852.2,-224.87 1842.52,-220.55 1841.94,-227.52"/>
</g>
<!-- Node81&#45;&gt;Node68 -->
<g id="edge28" class="edge">
<title>Node81&#45;&gt;Node68</title>
<path fill="none" stroke="midnightblue" d="M1921.69,-215.44C1930.87,-200.48 1946.07,-179.62 1965,-168 2113.95,-76.57 2334.41,-67.3 2405.79,-66.82"/>
<polygon fill="midnightblue" stroke="midnightblue" points="1918.56,-213.85 1916.54,-224.26 1924.61,-217.38 1918.56,-213.85"/>
</g>
<!-- Node94&#45;&gt;Node95 -->
<g id="edge47" class="edge">
<title>Node94&#45;&gt;Node95</title>
<path fill="none" stroke="midnightblue" d="M1291.89,-221.04C1262.91,-210.88 1222.04,-196.55 1196.29,-187.52"/>
<polygon fill="midnightblue" stroke="midnightblue" points="1291,-224.44 1301.6,-224.44 1293.32,-217.83 1291,-224.44"/>
</g>
<!-- Node96&#45;&gt;Node97 -->
<g id="edge50" class="edge">
<title>Node96&#45;&gt;Node97</title>
<path fill="none" stroke="midnightblue" d="M1475.08,-216.72C1483.89,-207.2 1494.67,-195.56 1501.9,-187.75"/>
<polygon fill="midnightblue" stroke="midnightblue" points="1472.48,-214.37 1468.26,-224.08 1477.62,-219.12 1472.48,-214.37"/>
</g>
<!-- Node98&#45;&gt;Node99 -->
<g id="edge53" class="edge">
<title>Node98&#45;&gt;Node99</title>
<path fill="none" stroke="midnightblue" d="M2030.15,-214.1C2028.32,-205.14 2026.23,-194.86 2024.78,-187.75"/>
<polygon fill="midnightblue" stroke="midnightblue" points="2026.76,-214.98 2032.18,-224.08 2033.62,-213.59 2026.76,-214.98"/>
</g>
<!-- Node101&#45;&gt;Node102 -->
<g id="edge57" class="edge">
<title>Node101&#45;&gt;Node102</title>
<path fill="none" stroke="midnightblue" d="M2237.01,-217.82C2225.54,-208.15 2211.09,-195.95 2201.47,-187.83"/>
<polygon fill="midnightblue" stroke="midnightblue" points="2234.82,-220.55 2244.72,-224.32 2239.33,-215.2 2234.82,-220.55"/>
</g>
<!-- Node159&#45;&gt;Node66 -->
<g id="edge67" class="edge">
<title>Node159&#45;&gt;Node66</title>
<path fill="none" stroke="midnightblue" d="M3329.3,-57.2C3261,-46.69 3140.45,-28.15 3074.78,-18.04"/>
<polygon fill="midnightblue" stroke="midnightblue" points="3328.98,-60.69 3339.39,-58.75 3330.04,-53.77 3328.98,-60.69"/>
</g>
<!-- Node160&#45;&gt;Node82 -->
<g id="edge71" class="edge">
<title>Node160&#45;&gt;Node82</title>
<path fill="none" stroke="midnightblue" d="M3099.8,-278.47C3151.96,-268.27 3230.11,-252.98 3278.47,-243.52"/>
<polygon fill="midnightblue" stroke="midnightblue" points="3098.87,-275.09 3089.73,-280.44 3100.22,-281.96 3098.87,-275.09"/>
</g>
<!-- Node161&#45;&gt;Node83 -->
<g id="edge73" class="edge">
<title>Node161&#45;&gt;Node83</title>
<path fill="none" stroke="midnightblue" d="M3330.03,-276.91C3356.91,-266.75 3394.64,-252.51 3418.45,-243.52"/>
<polygon fill="midnightblue" stroke="midnightblue" points="3328.78,-273.64 3320.66,-280.44 3331.25,-280.19 3328.78,-273.64"/>
</g>
<!-- Node162&#45;&gt;Node87 -->
<g id="edge75" class="edge">
<title>Node162&#45;&gt;Node87</title>
<path fill="none" stroke="midnightblue" d="M3513.58,-274.38C3527.31,-264.62 3544.93,-252.11 3556.57,-243.83"/>
<polygon fill="midnightblue" stroke="midnightblue" points="3511.34,-271.68 3505.21,-280.32 3515.39,-277.38 3511.34,-271.68"/>
</g>
</g>
</svg>
