<?xml version="1.0" encoding="UTF-8" standalone="no"?>
<!DOCTYPE svg PUBLIC "-//W3C//DTD SVG 1.1//EN"
 "http://www.w3.org/Graphics/SVG/1.1/DTD/svg11.dtd">
<!-- Generated by graphviz version 2.43.0 (0)
 -->
<!-- Title: incflo::Evolve Pages: 1 -->
<!--zoomable 694 -->
<svg id="main" version="1.1" xmlns="http://www.w3.org/2000/svg" xmlns:xlink="http://www.w3.org/1999/xlink" xml:space="preserve" onload="init(evt)">
<style type="text/css"><![CDATA[
.edge:hover path { stroke: red; }
.edge:hover polygon { stroke: red; fill: red; }
]]></style>
<script type="text/javascript"><![CDATA[
var edges = document.getElementsByTagName('g');
if (edges && edges.length) {
  for (var i=0;i<edges.length;i++) {
    if (edges[i].id.substr(0,4)=='edge') {
      edges[i].setAttribute('class','edge');
    }
  }
}
]]></script>
        <defs>
                <circle id="rim" cx="0" cy="0" r="7"/>
                <circle id="rim2" cx="0" cy="0" r="3.5"/>
                <g id="zoomPlus">
                        <use xlink:href="#rim" fill="#404040">
                                <set attributeName="fill" to="#808080" begin="zoomplus.mouseover" end="zoomplus.mouseout"/>
                        </use>
                        <path d="M-4,0h8M0,-4v8" fill="none" stroke="white" stroke-width="1.5" pointer-events="none"/>
                </g>
                <g id="zoomMin">
                        <use xlink:href="#rim" fill="#404040">
                                <set attributeName="fill" to="#808080" begin="zoomminus.mouseover" end="zoomminus.mouseout"/>
                        </use>
                        <path d="M-4,0h8" fill="none" stroke="white" stroke-width="1.5" pointer-events="none"/>
                </g>
                <g id="dirArrow">
                        <path fill="none" stroke="white" stroke-width="1.5" d="M0,-3.0v7 M-2.5,-0.5L0,-3.0L2.5,-0.5"/>
                </g>
               <g id="resetDef">
                       <use xlink:href="#rim2" fill="#404040">
                               <set attributeName="fill" to="#808080" begin="reset.mouseover" end="reset.mouseout"/>
                       </use>
               </g>
        </defs>

<script type="text/javascript">
var viewWidth = 287;
var viewHeight = 694;
var sectionId = 'dynsection-2';
</script>
<script xlink:href="svgpan.js"/>
<svg id="graph" class="graph">
<g id="viewport">
<title>incflo::Evolve</title>
<polygon fill="white" stroke="transparent" points="-4,4 -4,-689.5 283,-689.5 283,4 -4,4"/>
<!-- Node1 -->
<g id="node1" class="node">
<title>Node1</title>
<g id="a_node1"><a xlink:title="Perform time&#45;integration for user&#45;defined time or timesteps.">
<polygon fill="#bfbfbf" stroke="black" points="0,-349 0,-368 82,-368 82,-349 0,-349"/>
<text text-anchor="middle" x="41" y="-356" font-family="Helvetica,sans-Serif" font-size="10.00">incflo::Evolve</text>
</a>
</g>
</g>
<!-- Node2 -->
<g id="node2" class="node">
<title>Node2</title>
<g id="a_node2"><a xlink:href="classincflo.html#a22114d65c7a744e185cb768669061fec" target="_top" xlink:title="Advance simulation state by one timestep.">
<polygon fill="white" stroke="black" points="153.5,-666 153.5,-685 243.5,-685 243.5,-666 153.5,-666"/>
<text text-anchor="middle" x="198.5" y="-673" font-family="Helvetica,sans-Serif" font-size="10.00">incflo::advance</text>
</a>
</g>
</g>
<!-- Node1&#45;&gt;Node2 -->
<g id="edge1" class="edge">
<title>Node1&#45;&gt;Node2</title>
<path fill="none" stroke="midnightblue" d="M43.12,-368.07C48.69,-414.33 75.02,-614.16 118,-656.5 124.98,-663.37 133.97,-667.92 143.39,-670.9"/>
<polygon fill="midnightblue" stroke="midnightblue" points="142.73,-674.34 153.29,-673.46 144.49,-667.57 142.73,-674.34"/>
</g>
<!-- Node3 -->
<g id="node3" class="node">
<title>Node3</title>
<g id="a_node3"><a xlink:href="classincflo.html#aec8ae0c6fe958f54f2bcc99b6cc7e352" target="_top" xlink:title=" ">
<polygon fill="white" stroke="black" points="118,-628 118,-647 279,-647 279,-628 118,-628"/>
<text text-anchor="middle" x="198.5" y="-635" font-family="Helvetica,sans-Serif" font-size="10.00">incflo::ComputeKineticEnergy</text>
</a>
</g>
</g>
<!-- Node1&#45;&gt;Node3 -->
<g id="edge2" class="edge">
<title>Node1&#45;&gt;Node3</title>
<path fill="none" stroke="midnightblue" d="M41.64,-368.25C40.79,-406.43 43.04,-547.19 118,-618.5 119.5,-619.93 121.09,-621.26 122.76,-622.49"/>
<polygon fill="midnightblue" stroke="midnightblue" points="121.26,-625.68 131.62,-627.91 124.91,-619.71 121.26,-625.68"/>
</g>
<!-- Node4 -->
<g id="node4" class="node">
<title>Node4</title>
<g id="a_node4"><a xlink:href="classamr__wind_1_1_c_f_d_sim.html#a53f6989a504570158dff0a103e968b99" target="_top" xlink:title=" ">
<polygon fill="white" stroke="black" points="136,-578.5 136,-608.5 261,-608.5 261,-578.5 136,-578.5"/>
<text text-anchor="start" x="144" y="-596.5" font-family="Helvetica,sans-Serif" font-size="10.00">amr_wind::CFDSim::io</text>
<text text-anchor="middle" x="198.5" y="-585.5" font-family="Helvetica,sans-Serif" font-size="10.00">_manager</text>
</a>
</g>
</g>
<!-- Node1&#45;&gt;Node4 -->
<g id="edge3" class="edge">
<title>Node1&#45;&gt;Node4</title>
<path fill="none" stroke="midnightblue" d="M42.52,-368.1C44.83,-401.2 56.99,-511.61 118,-569.5 120.72,-572.08 123.71,-574.39 126.89,-576.45"/>
<polygon fill="midnightblue" stroke="midnightblue" points="125.24,-579.53 135.67,-581.34 128.64,-573.42 125.24,-579.53"/>
</g>
<!-- Node5 -->
<g id="node5" class="node">
<title>Node5</title>
<g id="a_node5"><a xlink:href="classamr__wind_1_1_sim_time.html#a41dbe1da02ae4d42df486c64f9014eaf" target="_top" xlink:title=" ">
<polygon fill="white" stroke="black" points="138.5,-529.5 138.5,-559.5 258.5,-559.5 258.5,-529.5 138.5,-529.5"/>
<text text-anchor="start" x="146.5" y="-547.5" font-family="Helvetica,sans-Serif" font-size="10.00">amr_wind::SimTime::</text>
<text text-anchor="middle" x="198.5" y="-536.5" font-family="Helvetica,sans-Serif" font-size="10.00">new_time</text>
</a>
</g>
</g>
<!-- Node1&#45;&gt;Node5 -->
<g id="edge4" class="edge">
<title>Node1&#45;&gt;Node5</title>
<path fill="none" stroke="midnightblue" d="M43.7,-368.18C49.12,-396.16 68.64,-477.84 118,-520.5 121.41,-523.44 125.16,-526.02 129.14,-528.29"/>
<polygon fill="midnightblue" stroke="midnightblue" points="127.61,-531.44 138.12,-532.76 130.73,-525.17 127.61,-531.44"/>
</g>
<!-- Node6 -->
<g id="node6" class="node">
<title>Node6</title>
<g id="a_node6"><a xlink:href="classamr__wind_1_1_sim_time.html#a6876c4852c53ab6f86bba1cb09386339" target="_top" xlink:title="Advance to a new time state and update internal time states.">
<polygon fill="white" stroke="black" points="138.5,-480.5 138.5,-510.5 258.5,-510.5 258.5,-480.5 138.5,-480.5"/>
<text text-anchor="start" x="146.5" y="-498.5" font-family="Helvetica,sans-Serif" font-size="10.00">amr_wind::SimTime::</text>
<text text-anchor="middle" x="198.5" y="-487.5" font-family="Helvetica,sans-Serif" font-size="10.00">new_timestep</text>
</a>
</g>
</g>
<!-- Node1&#45;&gt;Node6 -->
<g id="edge5" class="edge">
<title>Node1&#45;&gt;Node6</title>
<path fill="none" stroke="midnightblue" d="M45.91,-368.21C55.12,-389.87 80.29,-442.45 118,-470.5 121.46,-473.07 125.19,-475.39 129.09,-477.47"/>
<polygon fill="midnightblue" stroke="midnightblue" points="127.88,-480.77 138.42,-481.91 130.89,-474.45 127.88,-480.77"/>
</g>
<!-- Node7 -->
<g id="node7" class="node">
<title>Node7</title>
<g id="a_node7"><a xlink:href="classincflo.html#a339cc34ea0a08de4eaff982226dab8bf" target="_top" xlink:title="Perform actions after a timestep.">
<polygon fill="white" stroke="black" points="125.5,-442 125.5,-461 271.5,-461 271.5,-442 125.5,-442"/>
<text text-anchor="middle" x="198.5" y="-449" font-family="Helvetica,sans-Serif" font-size="10.00">incflo::post_advance_work</text>
</a>
</g>
</g>
<!-- Node1&#45;&gt;Node7 -->
<g id="edge6" class="edge">
<title>Node1&#45;&gt;Node7</title>
<path fill="none" stroke="midnightblue" d="M49.01,-368.11C61.19,-384.06 87.83,-415.89 118,-432.5 122.21,-434.82 126.69,-436.85 131.31,-438.64"/>
<polygon fill="midnightblue" stroke="midnightblue" points="130.32,-442 140.91,-441.98 132.62,-435.39 130.32,-442"/>
</g>
<!-- Node8 -->
<g id="node8" class="node">
<title>Node8</title>
<g id="a_node8"><a xlink:href="classincflo.html#a171fd353adf62e83b0e65a20fd27e567" target="_top" xlink:title=" ">
<polygon fill="white" stroke="black" points="143,-392.5 143,-422.5 254,-422.5 254,-392.5 143,-392.5"/>
<text text-anchor="start" x="151" y="-410.5" font-family="Helvetica,sans-Serif" font-size="10.00">incflo::pre_advance</text>
<text text-anchor="middle" x="198.5" y="-399.5" font-family="Helvetica,sans-Serif" font-size="10.00">_stage1</text>
</a>
</g>
</g>
<!-- Node1&#45;&gt;Node8 -->
<g id="edge7" class="edge">
<title>Node1&#45;&gt;Node8</title>
<path fill="none" stroke="midnightblue" d="M70.46,-368.04C84.71,-372.78 102.24,-378.53 118,-383.5 124.14,-385.44 130.55,-387.42 136.95,-389.39"/>
<polygon fill="midnightblue" stroke="midnightblue" points="136.39,-392.88 146.98,-392.45 138.43,-386.18 136.39,-392.88"/>
</g>
<!-- Node9 -->
<g id="node9" class="node">
<title>Node9</title>
<g id="a_node9"><a xlink:href="classincflo.html#ae9108a8fa888740a724bd6c2384f5bae" target="_top" xlink:title=" ">
<polygon fill="white" stroke="black" points="143,-343.5 143,-373.5 254,-373.5 254,-343.5 143,-343.5"/>
<text text-anchor="start" x="151" y="-361.5" font-family="Helvetica,sans-Serif" font-size="10.00">incflo::pre_advance</text>
<text text-anchor="middle" x="198.5" y="-350.5" font-family="Helvetica,sans-Serif" font-size="10.00">_stage2</text>
</a>
</g>
</g>
<!-- Node1&#45;&gt;Node9 -->
<g id="edge8" class="edge">
<title>Node1&#45;&gt;Node9</title>
<path fill="none" stroke="midnightblue" d="M82.05,-358.5C97.54,-358.5 115.67,-358.5 132.92,-358.5"/>
<polygon fill="midnightblue" stroke="midnightblue" points="132.94,-362 142.94,-358.5 132.94,-355 132.94,-362"/>
</g>
<!-- Node10 -->
<g id="node10" class="node">
<title>Node10</title>
<g id="a_node10"><a xlink:href="classincflo.html#ae09184db23dbf56c886e48000c7685d7" target="_top" xlink:title="Perform regrid actions at a given timestep.">
<polygon fill="white" stroke="black" points="148,-294.5 148,-324.5 249,-324.5 249,-294.5 148,-294.5"/>
<text text-anchor="start" x="156" y="-312.5" font-family="Helvetica,sans-Serif" font-size="10.00">incflo::regrid_and</text>
<text text-anchor="middle" x="198.5" y="-301.5" font-family="Helvetica,sans-Serif" font-size="10.00">_update</text>
</a>
</g>
</g>
<!-- Node1&#45;&gt;Node10 -->
<g id="edge9" class="edge">
<title>Node1&#45;&gt;Node10</title>
<path fill="none" stroke="midnightblue" d="M72.32,-348.92C86.24,-344.52 102.96,-339.24 118,-334.5 125.02,-332.29 132.39,-329.97 139.69,-327.67"/>
<polygon fill="midnightblue" stroke="midnightblue" points="141.08,-330.9 149.57,-324.56 138.98,-324.22 141.08,-330.9"/>
</g>
<!-- Node11 -->
<g id="node11" class="node">
<title>Node11</title>
<g id="a_node11"><a xlink:href="classamr__wind_1_1_i_o_manager.html#aae4a733a61f497223cb7b25a1c54beec" target="_top" xlink:title="Name of the checkpoint file to be read during a restart.">
<polygon fill="white" stroke="black" points="136.5,-245.5 136.5,-275.5 260.5,-275.5 260.5,-245.5 136.5,-245.5"/>
<text text-anchor="start" x="144.5" y="-263.5" font-family="Helvetica,sans-Serif" font-size="10.00">amr_wind::IOManager</text>
<text text-anchor="middle" x="198.5" y="-252.5" font-family="Helvetica,sans-Serif" font-size="10.00">::restart_file</text>
</a>
</g>
</g>
<!-- Node1&#45;&gt;Node11 -->
<g id="edge10" class="edge">
<title>Node1&#45;&gt;Node11</title>
<path fill="none" stroke="midnightblue" d="M49.78,-348.5C62.45,-332.87 89.04,-302.66 118,-285.5 121.64,-283.34 125.49,-281.35 129.45,-279.52"/>
<polygon fill="midnightblue" stroke="midnightblue" points="131.01,-282.66 138.84,-275.52 128.27,-276.22 131.01,-282.66"/>
</g>
<!-- Node12 -->
<g id="node12" class="node">
<title>Node12</title>
<g id="a_node12"><a xlink:href="classamr__wind_1_1_sim_time.html#a2e5adf26426dc2125954797919edd02b" target="_top" xlink:title=" ">
<polygon fill="white" stroke="black" points="138.5,-196.5 138.5,-226.5 258.5,-226.5 258.5,-196.5 138.5,-196.5"/>
<text text-anchor="start" x="146.5" y="-214.5" font-family="Helvetica,sans-Serif" font-size="10.00">amr_wind::SimTime::</text>
<text text-anchor="middle" x="198.5" y="-203.5" font-family="Helvetica,sans-Serif" font-size="10.00">time_index</text>
</a>
</g>
</g>
<!-- Node1&#45;&gt;Node12 -->
<g id="edge11" class="edge">
<title>Node1&#45;&gt;Node12</title>
<path fill="none" stroke="midnightblue" d="M45.27,-348.97C53.63,-326.06 77.96,-267.53 118,-236.5 121.41,-233.86 125.1,-231.49 128.97,-229.37"/>
<polygon fill="midnightblue" stroke="midnightblue" points="130.78,-232.39 138.25,-224.87 127.72,-226.09 130.78,-232.39"/>
</g>
<!-- Node13 -->
<g id="node13" class="node">
<title>Node13</title>
<g id="a_node13"><a xlink:href="classamr__wind_1_1_i_o_manager.html#aecde0a3df1b74085446b4bb47c3984c9" target="_top" xlink:title="Write all necessary fields for restart.">
<polygon fill="white" stroke="black" points="135.5,-147.5 135.5,-177.5 261.5,-177.5 261.5,-147.5 135.5,-147.5"/>
<text text-anchor="start" x="143.5" y="-165.5" font-family="Helvetica,sans-Serif" font-size="10.00">amr_wind::IOManager</text>
<text text-anchor="middle" x="198.5" y="-154.5" font-family="Helvetica,sans-Serif" font-size="10.00">::write_checkpoint_file</text>
</a>
</g>
</g>
<!-- Node1&#45;&gt;Node13 -->
<g id="edge12" class="edge">
<title>Node1&#45;&gt;Node13</title>
<path fill="none" stroke="midnightblue" d="M43.48,-348.74C48.39,-319.71 66.86,-233.14 118,-187.5 120.62,-185.17 123.45,-183.05 126.44,-181.13"/>
<polygon fill="midnightblue" stroke="midnightblue" points="128.18,-184.16 135.2,-176.23 124.76,-178.05 128.18,-184.16"/>
</g>
<!-- Node14 -->
<g id="node14" class="node">
<title>Node14</title>
<g id="a_node14"><a xlink:href="classamr__wind_1_1_sim_time.html#ac072a0b6439bf83a0a899dd01b486086" target="_top" xlink:title="Return true if checkpoint files should be written at this timestep.">
<polygon fill="white" stroke="black" points="137,-98.5 137,-128.5 260,-128.5 260,-98.5 137,-98.5"/>
<text text-anchor="start" x="145" y="-116.5" font-family="Helvetica,sans-Serif" font-size="10.00">amr_wind::SimTime::</text>
<text text-anchor="middle" x="198.5" y="-105.5" font-family="Helvetica,sans-Serif" font-size="10.00">write_last_checkpoint</text>
</a>
</g>
</g>
<!-- Node1&#45;&gt;Node14 -->
<g id="edge13" class="edge">
<title>Node1&#45;&gt;Node14</title>
<path fill="none" stroke="midnightblue" d="M42.38,-348.99C44.24,-315.2 55.13,-199.63 118,-138.5 121.03,-135.55 124.41,-132.95 128.02,-130.65"/>
<polygon fill="midnightblue" stroke="midnightblue" points="129.71,-133.72 136.78,-125.83 126.33,-127.58 129.71,-133.72"/>
</g>
<!-- Node15 -->
<g id="node15" class="node">
<title>Node15</title>
<g id="a_node15"><a xlink:href="classamr__wind_1_1_sim_time.html#af9a046349140b654143237bb569cff00" target="_top" xlink:title="Return true if plot files should be written at this timestep.">
<polygon fill="white" stroke="black" points="138.5,-49.5 138.5,-79.5 258.5,-79.5 258.5,-49.5 138.5,-49.5"/>
<text text-anchor="start" x="146.5" y="-67.5" font-family="Helvetica,sans-Serif" font-size="10.00">amr_wind::SimTime::</text>
<text text-anchor="middle" x="198.5" y="-56.5" font-family="Helvetica,sans-Serif" font-size="10.00">write_last_plot_file</text>
</a>
</g>
</g>
<!-- Node1&#45;&gt;Node15 -->
<g id="edge14" class="edge">
<title>Node1&#45;&gt;Node15</title>
<path fill="none" stroke="midnightblue" d="M41.68,-348.84C40.94,-310.36 43.45,-166.27 118,-89.5 121.41,-85.99 125.31,-82.97 129.51,-80.37"/>
<polygon fill="midnightblue" stroke="midnightblue" points="131.29,-83.39 138.48,-75.61 128.01,-77.2 131.29,-83.39"/>
</g>
<!-- Node16 -->
<g id="node16" class="node">
<title>Node16</title>
<g id="a_node16"><a xlink:href="classamr__wind_1_1_i_o_manager.html#a2751c61d7bc0b302032db0ebef39e57f" target="_top" xlink:title="Write all user&#45;requested fields to disk.">
<polygon fill="white" stroke="black" points="136.5,-0.5 136.5,-30.5 260.5,-30.5 260.5,-0.5 136.5,-0.5"/>
<text text-anchor="start" x="144.5" y="-18.5" font-family="Helvetica,sans-Serif" font-size="10.00">amr_wind::IOManager</text>
<text text-anchor="middle" x="198.5" y="-7.5" font-family="Helvetica,sans-Serif" font-size="10.00">::write_plot_file</text>
</a>
</g>
</g>
<!-- Node1&#45;&gt;Node16 -->
<g id="edge15" class="edge">
<title>Node1&#45;&gt;Node16</title>
<path fill="none" stroke="midnightblue" d="M43.01,-349C48.29,-301.21 74.07,-87.62 118,-40.5 120.81,-37.49 123.97,-34.84 127.38,-32.51"/>
<polygon fill="midnightblue" stroke="midnightblue" points="129.39,-35.39 136.28,-27.34 125.88,-29.33 129.39,-35.39"/>
</g>
</g>
</svg>
        <g id="navigator" transform="translate(0 0)" fill="#404254">
                <rect fill="#f2f5e9" fill-opacity="0.5" stroke="#606060" stroke-width=".5" x="0" y="0" width="60" height="60"/>
                <use id="zoomplus" xlink:href="#zoomPlus" x="17" y="9" onmousedown="handleZoom(evt,'in')"/>
                <use id="zoomminus" xlink:href="#zoomMin" x="42" y="9" onmousedown="handleZoom(evt,'out')"/>
                <use id="reset" xlink:href="#resetDef" x="30" y="36" onmousedown="handleReset()"/>
                <g id="arrowUp" xlink:href="#dirArrow" transform="translate(30 24)" onmousedown="handlePan(0,-1)">
                  <use xlink:href="#rim" fill="#404040">
                        <set attributeName="fill" to="#808080" begin="arrowUp.mouseover" end="arrowUp.mouseout"/>
                  </use>
                  <path fill="none" stroke="white" stroke-width="1.5" d="M0,-3.0v7 M-2.5,-0.5L0,-3.0L2.5,-0.5"/>
                </g>
                <g id="arrowRight" xlink:href="#dirArrow" transform="rotate(90) translate(36 -43)" onmousedown="handlePan(1,0)">
                  <use xlink:href="#rim" fill="#404040">
                        <set attributeName="fill" to="#808080" begin="arrowRight.mouseover" end="arrowRight.mouseout"/>
                  </use>
                  <path fill="none" stroke="white" stroke-width="1.5" d="M0,-3.0v7 M-2.5,-0.5L0,-3.0L2.5,-0.5"/>
                </g>
                <g id="arrowDown" xlink:href="#dirArrow" transform="rotate(180) translate(-30 -48)" onmousedown="handlePan(0,1)">
                  <use xlink:href="#rim" fill="#404040">
                        <set attributeName="fill" to="#808080" begin="arrowDown.mouseover" end="arrowDown.mouseout"/>
                  </use>
                  <path fill="none" stroke="white" stroke-width="1.5" d="M0,-3.0v7 M-2.5,-0.5L0,-3.0L2.5,-0.5"/>
                </g>
                <g id="arrowLeft" xlink:href="#dirArrow" transform="rotate(270) translate(-36 17)" onmousedown="handlePan(-1,0)">
                  <use xlink:href="#rim" fill="#404040">
                        <set attributeName="fill" to="#808080" begin="arrowLeft.mouseover" end="arrowLeft.mouseout"/>
                  </use>
                  <path fill="none" stroke="white" stroke-width="1.5" d="M0,-3.0v7 M-2.5,-0.5L0,-3.0L2.5,-0.5"/>
                </g>
        </g>
        <svg viewBox="0 0 15 15" width="100%" height="30px" preserveAspectRatio="xMaxYMin meet">
         <g id="arrow_out" transform="scale(0.3 0.3)">
          <a xlink:href="classincflo_a0141eeb4fa408c909bca038ec9de0ef5_cgraph_org.svg" target="_base">
           <rect id="button" ry="5" rx="5" y="6" x="6" height="38" width="38"
                fill="#f2f5e9" fill-opacity="0.5" stroke="#606060" stroke-width="1.0"/>
           <path id="arrow"
             d="M 11.500037,31.436501 C 11.940474,20.09759 22.043105,11.32322 32.158766,21.979434 L 37.068811,17.246167 C 37.068811,17.246167 37.088388,32 37.088388,32 L 22.160133,31.978069 C 22.160133,31.978069 26.997745,27.140456 26.997745,27.140456 C 18.528582,18.264221 13.291696,25.230495 11.500037,31.436501 z"
             style="fill:#404040;"/>
          </a>
         </g>
        </svg>
</svg>
