<?xml version="1.0" encoding="UTF-8" standalone="no"?>
<!DOCTYPE svg PUBLIC "-//W3C//DTD SVG 1.1//EN"
 "http://www.w3.org/Graphics/SVG/1.1/DTD/svg11.dtd">
<!-- Generated by graphviz version 2.43.0 (0)
 -->
<!-- Title: derive.cpp Pages: 1 -->
<svg width="2549pt" height="386pt"
 viewBox="0.00 0.00 2549.38 386.00" xmlns="http://www.w3.org/2000/svg" xmlns:xlink="http://www.w3.org/1999/xlink">
<g id="graph0" class="graph" transform="scale(1 1) rotate(0) translate(4 382)">
<title>derive.cpp</title>
<polygon fill="white" stroke="transparent" points="-4,4 -4,-382 2545.38,-382 2545.38,4 -4,4"/>
<!-- Node1 -->
<g id="node1" class="node">
<title>Node1</title>
<g id="a_node1"><a xlink:title=" ">
<polygon fill="#bfbfbf" stroke="black" points="1015,-358.5 1015,-377.5 1083,-377.5 1083,-358.5 1015,-358.5"/>
<text text-anchor="middle" x="1049" y="-365.5" font-family="Helvetica,sans-Serif" font-size="10.00">derive.cpp</text>
</a>
</g>
</g>
<!-- Node2 -->
<g id="node2" class="node">
<title>Node2</title>
<g id="a_node2"><a xlink:title=" ">
<polygon fill="white" stroke="#bfbfbf" points="893,-302.5 893,-321.5 979,-321.5 979,-302.5 893,-302.5"/>
<text text-anchor="middle" x="936" y="-309.5" font-family="Helvetica,sans-Serif" font-size="10.00">AMReX_Box.H</text>
</a>
</g>
</g>
<!-- Node1&#45;&gt;Node2 -->
<g id="edge1" class="edge">
<title>Node1&#45;&gt;Node2</title>
<path fill="none" stroke="midnightblue" d="M1031.09,-358.44C1012.75,-349.68 983.99,-335.94 962.91,-325.86"/>
<polygon fill="midnightblue" stroke="midnightblue" points="964.35,-322.67 953.82,-321.52 961.33,-328.99 964.35,-322.67"/>
</g>
<!-- Node3 -->
<g id="node3" class="node">
<title>Node3</title>
<g id="a_node3"><a xlink:href="incflo_8_h.html" target="_top" xlink:title=" ">
<polygon fill="white" stroke="black" points="997.5,-302.5 997.5,-321.5 1100.5,-321.5 1100.5,-302.5 997.5,-302.5"/>
<text text-anchor="middle" x="1049" y="-309.5" font-family="Helvetica,sans-Serif" font-size="10.00">amr&#45;wind/incflo.H</text>
</a>
</g>
</g>
<!-- Node1&#45;&gt;Node3 -->
<g id="edge2" class="edge">
<title>Node1&#45;&gt;Node3</title>
<path fill="none" stroke="midnightblue" d="M1049,-358.08C1049,-351.01 1049,-340.86 1049,-331.99"/>
<polygon fill="midnightblue" stroke="midnightblue" points="1052.5,-331.75 1049,-321.75 1045.5,-331.75 1052.5,-331.75"/>
</g>
<!-- Node8 -->
<g id="node8" class="node">
<title>Node8</title>
<g id="a_node8"><a xlink:title=" ">
<polygon fill="white" stroke="#bfbfbf" points="1748.5,-246.5 1748.5,-265.5 1887.5,-265.5 1887.5,-246.5 1748.5,-246.5"/>
<text text-anchor="middle" x="1818" y="-253.5" font-family="Helvetica,sans-Serif" font-size="10.00">AMReX_NodalProjector.H</text>
</a>
</g>
</g>
<!-- Node1&#45;&gt;Node8 -->
<g id="edge76" class="edge">
<title>Node1&#45;&gt;Node8</title>
<path fill="none" stroke="midnightblue" d="M1083.04,-362.13C1200.22,-345.37 1588.54,-289.82 1748.36,-266.96"/>
<polygon fill="midnightblue" stroke="midnightblue" points="1749.14,-270.39 1758.55,-265.5 1748.15,-263.46 1749.14,-270.39"/>
</g>
<!-- Node4 -->
<g id="node4" class="node">
<title>Node4</title>
<g id="a_node4"><a xlink:title=" ">
<polygon fill="white" stroke="#bfbfbf" points="1045,-129 1045,-148 1155,-148 1155,-129 1045,-129"/>
<text text-anchor="middle" x="1100" y="-136" font-family="Helvetica,sans-Serif" font-size="10.00">AMReX_AmrCore.H</text>
</a>
</g>
</g>
<!-- Node3&#45;&gt;Node4 -->
<g id="edge3" class="edge">
<title>Node3&#45;&gt;Node4</title>
<path fill="none" stroke="midnightblue" d="M1051.6,-302.26C1059.55,-275.54 1083.64,-194.52 1094.54,-157.86"/>
<polygon fill="midnightblue" stroke="midnightblue" points="1097.97,-158.6 1097.47,-148.02 1091.26,-156.61 1097.97,-158.6"/>
</g>
<!-- Node5 -->
<g id="node5" class="node">
<title>Node5</title>
<g id="a_node5"><a xlink:title=" ">
<polygon fill="white" stroke="#bfbfbf" points="0,-246.5 0,-265.5 126,-265.5 126,-246.5 0,-246.5"/>
<text text-anchor="middle" x="63" y="-253.5" font-family="Helvetica,sans-Serif" font-size="10.00">AMReX_MultiFabUtil.H</text>
</a>
</g>
</g>
<!-- Node3&#45;&gt;Node5 -->
<g id="edge4" class="edge">
<title>Node3&#45;&gt;Node5</title>
<path fill="none" stroke="midnightblue" d="M997.46,-303.01C994.26,-302.63 991.09,-302.29 988,-302 613.56,-266.57 514.86,-297.01 136.32,-266.03"/>
<polygon fill="midnightblue" stroke="midnightblue" points="136.44,-262.53 126.19,-265.2 135.86,-269.51 136.44,-262.53"/>
</g>
<!-- Node6 -->
<g id="node6" class="node">
<title>Node6</title>
<g id="a_node6"><a xlink:title=" ">
<polygon fill="white" stroke="#bfbfbf" points="144.5,-246.5 144.5,-265.5 263.5,-265.5 263.5,-246.5 144.5,-246.5"/>
<text text-anchor="middle" x="204" y="-253.5" font-family="Helvetica,sans-Serif" font-size="10.00">AMReX_ParmParse.H</text>
</a>
</g>
</g>
<!-- Node3&#45;&gt;Node6 -->
<g id="edge5" class="edge">
<title>Node3&#45;&gt;Node6</title>
<path fill="none" stroke="midnightblue" d="M997.46,-303.04C994.26,-302.66 991.09,-302.31 988,-302 673.57,-270.91 592.8,-293.09 278,-266 276.69,-265.89 275.38,-265.77 274.05,-265.65"/>
<polygon fill="midnightblue" stroke="midnightblue" points="274.03,-262.13 263.74,-264.63 273.35,-269.1 274.03,-262.13"/>
</g>
<!-- Node7 -->
<g id="node7" class="node">
<title>Node7</title>
<g id="a_node7"><a xlink:title=" ">
<polygon fill="white" stroke="#bfbfbf" points="1910,-62 1910,-81 2022,-81 2022,-62 1910,-62"/>
<text text-anchor="middle" x="1966" y="-69" font-family="Helvetica,sans-Serif" font-size="10.00">AMReX_iMultiFab.H</text>
</a>
</g>
</g>
<!-- Node3&#45;&gt;Node7 -->
<g id="edge6" class="edge">
<title>Node3&#45;&gt;Node7</title>
<path fill="none" stroke="midnightblue" d="M1094.76,-302.5C1143.24,-293.48 1222.03,-278.8 1290,-266 1421.15,-241.31 1456.28,-245.21 1585,-210 1718.92,-173.37 1872.9,-111.46 1936.33,-85.04"/>
<polygon fill="midnightblue" stroke="midnightblue" points="1937.84,-88.21 1945.72,-81.12 1935.14,-81.75 1937.84,-88.21"/>
</g>
<!-- Node3&#45;&gt;Node8 -->
<g id="edge7" class="edge">
<title>Node3&#45;&gt;Node8</title>
<path fill="none" stroke="midnightblue" d="M1100.61,-308.34C1214.86,-302.28 1497.71,-286.41 1734,-266 1735.32,-265.89 1736.64,-265.77 1737.98,-265.65"/>
<polygon fill="midnightblue" stroke="midnightblue" points="1738.72,-269.1 1748.35,-264.69 1738.07,-262.13 1738.72,-269.1"/>
</g>
<!-- Node9 -->
<g id="node9" class="node">
<title>Node9</title>
<g id="a_node9"><a xlink:href="incflo__enums_8_h.html" target="_top" xlink:title=" ">
<polygon fill="white" stroke="black" points="381.5,-62 381.5,-81 522.5,-81 522.5,-62 381.5,-62"/>
<text text-anchor="middle" x="452" y="-69" font-family="Helvetica,sans-Serif" font-size="10.00">amr&#45;wind/incflo_enums.H</text>
</a>
</g>
</g>
<!-- Node3&#45;&gt;Node9 -->
<g id="edge8" class="edge">
<title>Node3&#45;&gt;Node9</title>
<path fill="none" stroke="midnightblue" d="M1000.81,-302.47C840.35,-273.86 333.04,-181.53 311,-154 282.67,-118.62 345.11,-95.59 395.75,-83.32"/>
<polygon fill="midnightblue" stroke="midnightblue" points="396.75,-86.68 405.69,-81.01 395.16,-79.86 396.75,-86.68"/>
</g>
<!-- Node10 -->
<g id="node10" class="node">
<title>Node10</title>
<g id="a_node10"><a xlink:href="_c_f_d_sim_8_h.html" target="_top" xlink:title=" ">
<polygon fill="white" stroke="black" points="928,-246.5 928,-265.5 1044,-265.5 1044,-246.5 928,-246.5"/>
<text text-anchor="middle" x="986" y="-253.5" font-family="Helvetica,sans-Serif" font-size="10.00">amr&#45;wind/CFDSim.H</text>
</a>
</g>
</g>
<!-- Node3&#45;&gt;Node10 -->
<g id="edge9" class="edge">
<title>Node3&#45;&gt;Node10</title>
<path fill="none" stroke="midnightblue" d="M1038.88,-302.32C1029.47,-294.26 1015.26,-282.08 1003.93,-272.37"/>
<polygon fill="midnightblue" stroke="midnightblue" points="1006.18,-269.68 996.31,-265.83 1001.62,-275 1006.18,-269.68"/>
</g>
<!-- Node11 -->
<g id="node11" class="node">
<title>Node11</title>
<g id="a_node11"><a xlink:href="_sim_time_8_h.html" target="_top" xlink:title=" ">
<polygon fill="white" stroke="black" points="580,-190.5 580,-209.5 724,-209.5 724,-190.5 580,-190.5"/>
<text text-anchor="middle" x="652" y="-197.5" font-family="Helvetica,sans-Serif" font-size="10.00">amr&#45;wind/core/SimTime.H</text>
</a>
</g>
</g>
<!-- Node3&#45;&gt;Node11 -->
<g id="edge74" class="edge">
<title>Node3&#45;&gt;Node11</title>
<path fill="none" stroke="midnightblue" d="M1018.18,-302.46C947.16,-282.78 772.01,-234.25 692.47,-212.21"/>
<polygon fill="midnightblue" stroke="midnightblue" points="693.37,-208.83 682.8,-209.53 691.5,-215.58 693.37,-208.83"/>
</g>
<!-- Node15 -->
<g id="node15" class="node">
<title>Node15</title>
<g id="a_node15"><a xlink:href="_field_repo_8_h.html" target="_top" xlink:title=" ">
<polygon fill="white" stroke="black" points="1427.5,-190.5 1427.5,-209.5 1576.5,-209.5 1576.5,-190.5 1427.5,-190.5"/>
<text text-anchor="middle" x="1502" y="-197.5" font-family="Helvetica,sans-Serif" font-size="10.00">amr&#45;wind/core/FieldRepo.H</text>
</a>
</g>
</g>
<!-- Node3&#45;&gt;Node15 -->
<g id="edge75" class="edge">
<title>Node3&#45;&gt;Node15</title>
<path fill="none" stroke="midnightblue" d="M1084.17,-302.46C1165.54,-282.7 1366.69,-233.86 1456.93,-211.94"/>
<polygon fill="midnightblue" stroke="midnightblue" points="1457.96,-215.3 1466.85,-209.53 1456.31,-208.49 1457.96,-215.3"/>
</g>
<!-- Node10&#45;&gt;Node4 -->
<g id="edge10" class="edge">
<title>Node10&#45;&gt;Node4</title>
<path fill="none" stroke="midnightblue" d="M994.57,-246.32C1013.63,-227 1059.79,-180.24 1084.22,-155.48"/>
<polygon fill="midnightblue" stroke="midnightblue" points="1086.8,-157.86 1091.33,-148.28 1081.82,-152.94 1086.8,-157.86"/>
</g>
<!-- Node10&#45;&gt;Node11 -->
<g id="edge11" class="edge">
<title>Node10&#45;&gt;Node11</title>
<path fill="none" stroke="midnightblue" d="M933.08,-246.44C873.83,-236.87 777.9,-221.36 714.88,-211.17"/>
<polygon fill="midnightblue" stroke="midnightblue" points="715.11,-207.66 704.68,-209.52 713.99,-214.57 715.11,-207.66"/>
</g>
<!-- Node10&#45;&gt;Node15 -->
<g id="edge15" class="edge">
<title>Node10&#45;&gt;Node15</title>
<path fill="none" stroke="midnightblue" d="M1044.19,-248.91C1135.34,-239.37 1312.24,-220.86 1417.45,-209.85"/>
<polygon fill="midnightblue" stroke="midnightblue" points="1417.82,-213.33 1427.4,-208.81 1417.09,-206.37 1417.82,-213.33"/>
</g>
<!-- Node32 -->
<g id="node32" class="node">
<title>Node32</title>
<g id="a_node32"><a xlink:href="_p_d_e_base_8_h.html" target="_top" xlink:title=" ">
<polygon fill="white" stroke="black" points="716.5,-123.5 716.5,-153.5 871.5,-153.5 871.5,-123.5 716.5,-123.5"/>
<text text-anchor="start" x="724.5" y="-141.5" font-family="Helvetica,sans-Serif" font-size="10.00">amr&#45;wind/equation_systems</text>
<text text-anchor="middle" x="794" y="-130.5" font-family="Helvetica,sans-Serif" font-size="10.00">/PDEBase.H</text>
</a>
</g>
</g>
<!-- Node10&#45;&gt;Node32 -->
<g id="edge52" class="edge">
<title>Node10&#45;&gt;Node32</title>
<path fill="none" stroke="midnightblue" d="M971.57,-246.32C940.86,-227.84 868.39,-184.25 826.13,-158.83"/>
<polygon fill="midnightblue" stroke="midnightblue" points="827.72,-155.7 817.35,-153.55 824.11,-161.7 827.72,-155.7"/>
</g>
<!-- Node40 -->
<g id="node40" class="node">
<title>Node40</title>
<g id="a_node40"><a xlink:href="_physics_8_h.html" target="_top" xlink:title=" ">
<polygon fill="white" stroke="black" points="889.5,-129 889.5,-148 1026.5,-148 1026.5,-129 889.5,-129"/>
<text text-anchor="middle" x="958" y="-136" font-family="Helvetica,sans-Serif" font-size="10.00">amr&#45;wind/core/Physics.H</text>
</a>
</g>
</g>
<!-- Node10&#45;&gt;Node40 -->
<g id="edge69" class="edge">
<title>Node10&#45;&gt;Node40</title>
<path fill="none" stroke="midnightblue" d="M983.9,-246.32C979.38,-227.67 968.65,-183.44 962.52,-158.13"/>
<polygon fill="midnightblue" stroke="midnightblue" points="965.89,-157.18 960.13,-148.28 959.08,-158.83 965.89,-157.18"/>
</g>
<!-- Node12 -->
<g id="node12" class="node">
<title>Node12</title>
<g id="a_node12"><a xlink:title=" ">
<polygon fill="white" stroke="#bfbfbf" points="606,-129 606,-148 698,-148 698,-129 606,-129"/>
<text text-anchor="middle" x="652" y="-136" font-family="Helvetica,sans-Serif" font-size="10.00">AMReX_REAL.H</text>
</a>
</g>
</g>
<!-- Node11&#45;&gt;Node12 -->
<g id="edge12" class="edge">
<title>Node11&#45;&gt;Node12</title>
<path fill="none" stroke="midnightblue" d="M652,-190.48C652,-182.08 652,-168.98 652,-158.16"/>
<polygon fill="midnightblue" stroke="midnightblue" points="655.5,-158.01 652,-148.01 648.5,-158.01 655.5,-158.01"/>
</g>
<!-- Node13 -->
<g id="node13" class="node">
<title>Node13</title>
<g id="a_node13"><a xlink:title=" ">
<polygon fill="white" stroke="#bfbfbf" points="320,-129 320,-148 454,-148 454,-129 320,-129"/>
<text text-anchor="middle" x="387" y="-136" font-family="Helvetica,sans-Serif" font-size="10.00">AMReX_GpuQualifiers.H</text>
</a>
</g>
</g>
<!-- Node11&#45;&gt;Node13 -->
<g id="edge13" class="edge">
<title>Node11&#45;&gt;Node13</title>
<path fill="none" stroke="midnightblue" d="M614.03,-190.48C566.8,-179.87 486.14,-161.76 434.76,-150.22"/>
<polygon fill="midnightblue" stroke="midnightblue" points="435.42,-146.78 424.9,-148.01 433.89,-153.61 435.42,-146.78"/>
</g>
<!-- Node14 -->
<g id="node14" class="node">
<title>Node14</title>
<g id="a_node14"><a xlink:title=" ">
<polygon fill="white" stroke="#bfbfbf" points="472,-129 472,-148 588,-148 588,-129 472,-129"/>
<text text-anchor="middle" x="530" y="-136" font-family="Helvetica,sans-Serif" font-size="10.00">AMReX_Extension.H</text>
</a>
</g>
</g>
<!-- Node11&#45;&gt;Node14 -->
<g id="edge14" class="edge">
<title>Node11&#45;&gt;Node14</title>
<path fill="none" stroke="midnightblue" d="M634.52,-190.48C614.14,-180.53 580.22,-163.99 556.58,-152.46"/>
<polygon fill="midnightblue" stroke="midnightblue" points="557.97,-149.25 547.45,-148.01 554.9,-155.54 557.97,-149.25"/>
</g>
<!-- Node15&#45;&gt;Node4 -->
<g id="edge49" class="edge">
<title>Node15&#45;&gt;Node4</title>
<path fill="none" stroke="midnightblue" d="M1427.37,-190.49C1359.72,-182.4 1257.39,-169.24 1169,-154 1162.27,-152.84 1155.2,-151.5 1148.26,-150.11"/>
<polygon fill="midnightblue" stroke="midnightblue" points="1148.73,-146.63 1138.23,-148.05 1147.32,-153.49 1148.73,-146.63"/>
</g>
<!-- Node15&#45;&gt;Node7 -->
<g id="edge51" class="edge">
<title>Node15&#45;&gt;Node7</title>
<path fill="none" stroke="midnightblue" d="M1547.61,-190.5C1580.45,-183.35 1625.26,-171.48 1662,-154 1683.6,-143.72 1683.99,-132.38 1706,-123 1740.13,-108.46 1834.54,-92.18 1899.67,-82.14"/>
<polygon fill="midnightblue" stroke="midnightblue" points="1900.51,-85.55 1909.86,-80.58 1899.45,-78.63 1900.51,-85.55"/>
</g>
<!-- Node16 -->
<g id="node16" class="node">
<title>Node16</title>
<g id="a_node16"><a xlink:title=" ">
<polygon fill="white" stroke="#bfbfbf" points="1237,-0.5 1237,-19.5 1281,-19.5 1281,-0.5 1237,-0.5"/>
<text text-anchor="middle" x="1259" y="-7.5" font-family="Helvetica,sans-Serif" font-size="10.00">string</text>
</a>
</g>
</g>
<!-- Node15&#45;&gt;Node16 -->
<g id="edge16" class="edge">
<title>Node15&#45;&gt;Node16</title>
<path fill="none" stroke="midnightblue" d="M1434.37,-190.5C1374.72,-178.8 1292.39,-151.29 1260,-87 1251.02,-69.17 1252.3,-45.87 1254.86,-29.8"/>
<polygon fill="midnightblue" stroke="midnightblue" points="1258.38,-30.03 1256.81,-19.55 1251.5,-28.72 1258.38,-30.03"/>
</g>
<!-- Node17 -->
<g id="node17" class="node">
<title>Node17</title>
<g id="a_node17"><a xlink:title=" ">
<polygon fill="white" stroke="#bfbfbf" points="925.5,-0.5 925.5,-19.5 1018.5,-19.5 1018.5,-0.5 925.5,-0.5"/>
<text text-anchor="middle" x="972" y="-7.5" font-family="Helvetica,sans-Serif" font-size="10.00">unordered_map</text>
</a>
</g>
</g>
<!-- Node15&#45;&gt;Node17 -->
<g id="edge17" class="edge">
<title>Node15&#45;&gt;Node17</title>
<path fill="none" stroke="midnightblue" d="M1442.02,-190.47C1397.46,-183.22 1335.56,-171.23 1283,-154 1171.86,-117.56 1047.79,-52.63 996.36,-24.55"/>
<polygon fill="midnightblue" stroke="midnightblue" points="997.8,-21.35 987.35,-19.6 994.43,-27.48 997.8,-21.35"/>
</g>
<!-- Node18 -->
<g id="node18" class="node">
<title>Node18</title>
<g id="a_node18"><a xlink:href="_field_desc_types_8_h.html" target="_top" xlink:title=" ">
<polygon fill="white" stroke="black" points="1802,-0.5 1802,-19.5 1978,-19.5 1978,-0.5 1802,-0.5"/>
<text text-anchor="middle" x="1890" y="-7.5" font-family="Helvetica,sans-Serif" font-size="10.00">amr&#45;wind/core/FieldDescTypes.H</text>
</a>
</g>
</g>
<!-- Node15&#45;&gt;Node18 -->
<g id="edge18" class="edge">
<title>Node15&#45;&gt;Node18</title>
<path fill="none" stroke="midnightblue" d="M1576.53,-198.21C1727.93,-195.93 2066.48,-187.16 2177,-154 2234.76,-136.67 2264.66,-139.12 2295,-87 2301.93,-75.09 2304.19,-66.27 2295,-56 2274.88,-33.52 2101.71,-21.02 1988.42,-15.18"/>
<polygon fill="midnightblue" stroke="midnightblue" points="1988.5,-11.68 1978.33,-14.67 1988.14,-18.67 1988.5,-11.68"/>
</g>
<!-- Node19 -->
<g id="node19" class="node">
<title>Node19</title>
<g id="a_node19"><a xlink:href="_field_utils_8_h.html" target="_top" xlink:title=" ">
<polygon fill="white" stroke="black" points="2380,-62 2380,-81 2526,-81 2526,-62 2380,-62"/>
<text text-anchor="middle" x="2453" y="-69" font-family="Helvetica,sans-Serif" font-size="10.00">amr&#45;wind/core/FieldUtils.H</text>
</a>
</g>
</g>
<!-- Node15&#45;&gt;Node19 -->
<g id="edge19" class="edge">
<title>Node15&#45;&gt;Node19</title>
<path fill="none" stroke="midnightblue" d="M1576.52,-197.14C1766.28,-192.1 2257.75,-176.98 2328,-154 2370.79,-140 2413.1,-107.45 2435.85,-87.98"/>
<polygon fill="midnightblue" stroke="midnightblue" points="2438.35,-90.45 2443.57,-81.23 2433.74,-85.18 2438.35,-90.45"/>
</g>
<!-- Node20 -->
<g id="node20" class="node">
<title>Node20</title>
<g id="a_node20"><a xlink:title=" ">
<polygon fill="white" stroke="#bfbfbf" points="2133.5,-0.5 2133.5,-19.5 2242.5,-19.5 2242.5,-0.5 2133.5,-0.5"/>
<text text-anchor="middle" x="2188" y="-7.5" font-family="Helvetica,sans-Serif" font-size="10.00">AMReX_MultiFab.H</text>
</a>
</g>
</g>
<!-- Node15&#45;&gt;Node20 -->
<g id="edge50" class="edge">
<title>Node15&#45;&gt;Node20</title>
<path fill="none" stroke="midnightblue" d="M1576.72,-198.34C1758.65,-196.21 2220.71,-187.58 2371,-154 2447.84,-136.83 2491.1,-152.36 2535,-87 2542.68,-75.56 2544.09,-66.35 2535,-56 2516.7,-35.17 2347.97,-21.16 2252.71,-14.84"/>
<polygon fill="midnightblue" stroke="midnightblue" points="2252.81,-11.34 2242.6,-14.18 2252.35,-18.32 2252.81,-11.34"/>
</g>
<!-- Node22 -->
<g id="node22" class="node">
<title>Node22</title>
<g id="a_node22"><a xlink:href="_field_8_h.html" target="_top" xlink:title=" ">
<polygon fill="white" stroke="black" points="1357,-129 1357,-148 1481,-148 1481,-129 1357,-129"/>
<text text-anchor="middle" x="1419" y="-136" font-family="Helvetica,sans-Serif" font-size="10.00">amr&#45;wind/core/Field.H</text>
</a>
</g>
</g>
<!-- Node15&#45;&gt;Node22 -->
<g id="edge23" class="edge">
<title>Node15&#45;&gt;Node22</title>
<path fill="none" stroke="midnightblue" d="M1490.11,-190.48C1476.8,-180.93 1455,-165.31 1439.04,-153.87"/>
<polygon fill="midnightblue" stroke="midnightblue" points="1441.04,-150.99 1430.87,-148.01 1436.96,-156.68 1441.04,-150.99"/>
</g>
<!-- Node29 -->
<g id="node29" class="node">
<title>Node29</title>
<g id="a_node29"><a xlink:href="_int_field_8_h.html" target="_top" xlink:title=" ">
<polygon fill="white" stroke="black" points="1516.5,-129 1516.5,-148 1653.5,-148 1653.5,-129 1516.5,-129"/>
<text text-anchor="middle" x="1585" y="-136" font-family="Helvetica,sans-Serif" font-size="10.00">amr&#45;wind/core/IntField.H</text>
</a>
</g>
</g>
<!-- Node15&#45;&gt;Node29 -->
<g id="edge38" class="edge">
<title>Node15&#45;&gt;Node29</title>
<path fill="none" stroke="midnightblue" d="M1513.89,-190.48C1527.2,-180.93 1549,-165.31 1564.96,-153.87"/>
<polygon fill="midnightblue" stroke="midnightblue" points="1567.04,-156.68 1573.13,-148.01 1562.96,-150.99 1567.04,-156.68"/>
</g>
<!-- Node30 -->
<g id="node30" class="node">
<title>Node30</title>
<g id="a_node30"><a xlink:href="_scratch_field_8_h.html" target="_top" xlink:title=" ">
<polygon fill="white" stroke="black" points="2008,-129 2008,-148 2168,-148 2168,-129 2008,-129"/>
<text text-anchor="middle" x="2088" y="-136" font-family="Helvetica,sans-Serif" font-size="10.00">amr&#45;wind/core/ScratchField.H</text>
</a>
</g>
</g>
<!-- Node15&#45;&gt;Node30 -->
<g id="edge42" class="edge">
<title>Node15&#45;&gt;Node30</title>
<path fill="none" stroke="midnightblue" d="M1576.51,-191.43C1683.94,-180.53 1882.08,-160.41 1997.68,-148.67"/>
<polygon fill="midnightblue" stroke="midnightblue" points="1998.33,-152.12 2007.92,-147.63 1997.62,-145.16 1998.33,-152.12"/>
</g>
<!-- Node19&#45;&gt;Node18 -->
<g id="edge20" class="edge">
<title>Node19&#45;&gt;Node18</title>
<path fill="none" stroke="midnightblue" d="M2380.97,-61.98C2363.63,-59.98 2345.16,-57.88 2328,-56 2210.38,-43.14 2074.87,-29.38 1986.1,-20.51"/>
<polygon fill="midnightblue" stroke="midnightblue" points="1986.35,-17.02 1976.05,-19.5 1985.66,-23.98 1986.35,-17.02"/>
</g>
<!-- Node19&#45;&gt;Node20 -->
<g id="edge21" class="edge">
<title>Node19&#45;&gt;Node20</title>
<path fill="none" stroke="midnightblue" d="M2415.03,-61.98C2367.8,-51.37 2287.14,-33.26 2235.76,-21.72"/>
<polygon fill="midnightblue" stroke="midnightblue" points="2236.42,-18.28 2225.9,-19.51 2234.89,-25.11 2236.42,-18.28"/>
</g>
<!-- Node21 -->
<g id="node21" class="node">
<title>Node21</title>
<g id="a_node21"><a xlink:title=" ">
<polygon fill="white" stroke="#bfbfbf" points="2391,-0.5 2391,-19.5 2515,-19.5 2515,-0.5 2391,-0.5"/>
<text text-anchor="middle" x="2453" y="-7.5" font-family="Helvetica,sans-Serif" font-size="10.00">AMReX_Interpolater.H</text>
</a>
</g>
</g>
<!-- Node19&#45;&gt;Node21 -->
<g id="edge22" class="edge">
<title>Node19&#45;&gt;Node21</title>
<path fill="none" stroke="midnightblue" d="M2453,-61.98C2453,-53.58 2453,-40.48 2453,-29.66"/>
<polygon fill="midnightblue" stroke="midnightblue" points="2456.5,-29.51 2453,-19.51 2449.5,-29.51 2456.5,-29.51"/>
</g>
<!-- Node22&#45;&gt;Node9 -->
<g id="edge31" class="edge">
<title>Node22&#45;&gt;Node9</title>
<path fill="none" stroke="midnightblue" d="M1356.68,-133.95C1154.94,-122.48 532.64,-87.08 532,-87 522.84,-85.91 513.14,-84.44 503.78,-82.84"/>
<polygon fill="midnightblue" stroke="midnightblue" points="504.25,-79.37 493.79,-81.07 503.03,-86.26 504.25,-79.37"/>
</g>
<!-- Node22&#45;&gt;Node16 -->
<g id="edge24" class="edge">
<title>Node22&#45;&gt;Node16</title>
<path fill="none" stroke="midnightblue" d="M1357.5,-128.95C1329.63,-122.04 1298.42,-109.55 1278,-87 1263.91,-71.44 1259.9,-47.01 1258.94,-30.06"/>
<polygon fill="midnightblue" stroke="midnightblue" points="1262.43,-29.64 1258.68,-19.73 1255.43,-29.82 1262.43,-29.64"/>
</g>
<!-- Node22&#45;&gt;Node17 -->
<g id="edge26" class="edge">
<title>Node22&#45;&gt;Node17</title>
<path fill="none" stroke="midnightblue" d="M1391.79,-128.86C1329.86,-109.2 1181.97,-62.36 1159,-56 1112.32,-43.08 1058.51,-30.36 1020.63,-21.75"/>
<polygon fill="midnightblue" stroke="midnightblue" points="1021.4,-18.34 1010.88,-19.55 1019.86,-25.17 1021.4,-18.34"/>
</g>
<!-- Node22&#45;&gt;Node18 -->
<g id="edge32" class="edge">
<title>Node22&#45;&gt;Node18</title>
<path fill="none" stroke="midnightblue" d="M1449.29,-128.93C1482.2,-119.42 1536.22,-103.28 1582,-87 1616.76,-74.64 1623.62,-66.46 1659,-56 1711.93,-40.35 1773.32,-28.68 1819.51,-21.16"/>
<polygon fill="midnightblue" stroke="midnightblue" points="1820.1,-24.61 1829.42,-19.57 1818.99,-17.69 1820.1,-24.61"/>
</g>
<!-- Node22&#45;&gt;Node20 -->
<g id="edge28" class="edge">
<title>Node22&#45;&gt;Node20</title>
<path fill="none" stroke="midnightblue" d="M1468.27,-128.93C1480.88,-126.86 1494.42,-124.75 1507,-123 1647.88,-103.43 1687.19,-122.19 1825,-87 1860.35,-77.97 1865.86,-65.78 1901,-56 1975.71,-35.21 2064.22,-23.16 2122.99,-16.85"/>
<polygon fill="midnightblue" stroke="midnightblue" points="2123.67,-20.3 2133.25,-15.78 2122.94,-13.34 2123.67,-20.3"/>
</g>
<!-- Node23 -->
<g id="node23" class="node">
<title>Node23</title>
<g id="a_node23"><a xlink:title=" ">
<polygon fill="white" stroke="#bfbfbf" points="742,-0.5 742,-19.5 800,-19.5 800,-0.5 742,-0.5"/>
<text text-anchor="middle" x="771" y="-7.5" font-family="Helvetica,sans-Serif" font-size="10.00">memory</text>
</a>
</g>
</g>
<!-- Node22&#45;&gt;Node23 -->
<g id="edge25" class="edge">
<title>Node22&#45;&gt;Node23</title>
<path fill="none" stroke="midnightblue" d="M1368.41,-128.95C1315.82,-119.77 1231.25,-104.17 1159,-87 1109.58,-75.26 1098.6,-66.96 1049,-56 964.64,-37.35 864.27,-23 810.2,-15.91"/>
<polygon fill="midnightblue" stroke="midnightblue" points="810.39,-12.4 800.02,-14.59 809.49,-19.34 810.39,-12.4"/>
</g>
<!-- Node24 -->
<g id="node24" class="node">
<title>Node24</title>
<g id="a_node24"><a xlink:title=" ">
<polygon fill="white" stroke="#bfbfbf" points="1287,-62 1287,-81 1351,-81 1351,-62 1287,-62"/>
<text text-anchor="middle" x="1319" y="-69" font-family="Helvetica,sans-Serif" font-size="10.00">algorithm</text>
</a>
</g>
</g>
<!-- Node22&#45;&gt;Node24 -->
<g id="edge27" class="edge">
<title>Node22&#45;&gt;Node24</title>
<path fill="none" stroke="midnightblue" d="M1405.51,-128.73C1388.95,-117.96 1360.62,-99.55 1340.91,-86.74"/>
<polygon fill="midnightblue" stroke="midnightblue" points="1342.56,-83.64 1332.27,-81.13 1338.75,-89.51 1342.56,-83.64"/>
</g>
<!-- Node25 -->
<g id="node25" class="node">
<title>Node25</title>
<g id="a_node25"><a xlink:title=" ">
<polygon fill="white" stroke="#bfbfbf" points="1369.5,-62 1369.5,-81 1468.5,-81 1468.5,-62 1369.5,-62"/>
<text text-anchor="middle" x="1419" y="-69" font-family="Helvetica,sans-Serif" font-size="10.00">AMReX_BCRec.H</text>
</a>
</g>
</g>
<!-- Node22&#45;&gt;Node25 -->
<g id="edge29" class="edge">
<title>Node22&#45;&gt;Node25</title>
<path fill="none" stroke="midnightblue" d="M1419,-128.73C1419,-119.18 1419,-103.62 1419,-91.28"/>
<polygon fill="midnightblue" stroke="midnightblue" points="1422.5,-91.13 1419,-81.13 1415.5,-91.13 1422.5,-91.13"/>
</g>
<!-- Node26 -->
<g id="node26" class="node">
<title>Node26</title>
<g id="a_node26"><a xlink:title=" ">
<polygon fill="white" stroke="#bfbfbf" points="1486.5,-62 1486.5,-81 1573.5,-81 1573.5,-62 1486.5,-62"/>
<text text-anchor="middle" x="1530" y="-69" font-family="Helvetica,sans-Serif" font-size="10.00">AMReX_Gpu.H</text>
</a>
</g>
</g>
<!-- Node22&#45;&gt;Node26 -->
<g id="edge30" class="edge">
<title>Node22&#45;&gt;Node26</title>
<path fill="none" stroke="midnightblue" d="M1433.97,-128.73C1452.61,-117.82 1484.66,-99.05 1506.57,-86.22"/>
<polygon fill="midnightblue" stroke="midnightblue" points="1508.41,-89.2 1515.27,-81.13 1504.87,-83.16 1508.41,-89.2"/>
</g>
<!-- Node27 -->
<g id="node27" class="node">
<title>Node27</title>
<g id="a_node27"><a xlink:href="_view_field_8_h.html" target="_top" xlink:title=" ">
<polygon fill="white" stroke="black" points="1668,-62 1668,-81 1816,-81 1816,-62 1668,-62"/>
<text text-anchor="middle" x="1742" y="-69" font-family="Helvetica,sans-Serif" font-size="10.00">amr&#45;wind/core/ViewField.H</text>
</a>
</g>
</g>
<!-- Node22&#45;&gt;Node27 -->
<g id="edge33" class="edge">
<title>Node22&#45;&gt;Node27</title>
<path fill="none" stroke="midnightblue" d="M1461.56,-128.94C1520.34,-117.11 1626.3,-95.78 1689.79,-83.01"/>
<polygon fill="midnightblue" stroke="midnightblue" points="1690.49,-86.44 1699.6,-81.03 1689.11,-79.57 1690.49,-86.44"/>
</g>
<!-- Node27&#45;&gt;Node16 -->
<g id="edge34" class="edge">
<title>Node27&#45;&gt;Node16</title>
<path fill="none" stroke="midnightblue" d="M1672.8,-61.98C1566.92,-48.93 1368.84,-24.53 1291.3,-14.98"/>
<polygon fill="midnightblue" stroke="midnightblue" points="1291.53,-11.48 1281.18,-13.73 1290.68,-18.43 1291.53,-11.48"/>
</g>
<!-- Node27&#45;&gt;Node18 -->
<g id="edge35" class="edge">
<title>Node27&#45;&gt;Node18</title>
<path fill="none" stroke="midnightblue" d="M1763.2,-61.98C1788.37,-51.86 1830.54,-34.9 1859.28,-23.35"/>
<polygon fill="midnightblue" stroke="midnightblue" points="1860.86,-26.49 1868.83,-19.51 1858.25,-19.99 1860.86,-26.49"/>
</g>
<!-- Node27&#45;&gt;Node20 -->
<g id="edge36" class="edge">
<title>Node27&#45;&gt;Node20</title>
<path fill="none" stroke="midnightblue" d="M1791.75,-61.96C1804.22,-59.92 1817.59,-57.8 1830,-56 1932.22,-41.16 2051.28,-26.77 2123.08,-18.4"/>
<polygon fill="midnightblue" stroke="midnightblue" points="2123.8,-21.84 2133.33,-17.21 2122.99,-14.89 2123.8,-21.84"/>
</g>
<!-- Node28 -->
<g id="node28" class="node">
<title>Node28</title>
<g id="a_node28"><a xlink:title=" ">
<polygon fill="white" stroke="#bfbfbf" points="1686,-0.5 1686,-19.5 1784,-19.5 1784,-0.5 1686,-0.5"/>
<text text-anchor="middle" x="1735" y="-7.5" font-family="Helvetica,sans-Serif" font-size="10.00">AMReX_Vector.H</text>
</a>
</g>
</g>
<!-- Node27&#45;&gt;Node28 -->
<g id="edge37" class="edge">
<title>Node27&#45;&gt;Node28</title>
<path fill="none" stroke="midnightblue" d="M1741,-61.98C1740.01,-53.58 1738.47,-40.48 1737.2,-29.66"/>
<polygon fill="midnightblue" stroke="midnightblue" points="1740.65,-29.03 1736,-19.51 1733.69,-29.85 1740.65,-29.03"/>
</g>
<!-- Node29&#45;&gt;Node7 -->
<g id="edge41" class="edge">
<title>Node29&#45;&gt;Node7</title>
<path fill="none" stroke="midnightblue" d="M1633.26,-128.93C1644.64,-126.95 1656.74,-124.87 1668,-123 1769.2,-106.17 1795.08,-105.41 1896,-87 1902.64,-85.79 1909.63,-84.44 1916.5,-83.06"/>
<polygon fill="midnightblue" stroke="midnightblue" points="1917.35,-86.46 1926.45,-81.03 1915.96,-79.6 1917.35,-86.46"/>
</g>
<!-- Node29&#45;&gt;Node16 -->
<g id="edge39" class="edge">
<title>Node29&#45;&gt;Node16</title>
<path fill="none" stroke="midnightblue" d="M1587.87,-128.81C1592.72,-112.3 1600.32,-76.28 1582,-56 1543.75,-13.65 1365.46,-10.09 1291.39,-10.49"/>
<polygon fill="midnightblue" stroke="midnightblue" points="1291.22,-7 1281.25,-10.58 1291.28,-14 1291.22,-7"/>
</g>
<!-- Node29&#45;&gt;Node18 -->
<g id="edge40" class="edge">
<title>Node29&#45;&gt;Node18</title>
<path fill="none" stroke="midnightblue" d="M1633.73,-128.98C1699.04,-117.3 1808.7,-96.67 1825,-87 1849.19,-72.65 1868.8,-46.03 1879.93,-28.41"/>
<polygon fill="midnightblue" stroke="midnightblue" points="1883.03,-30.05 1885.22,-19.69 1877.04,-26.42 1883.03,-30.05"/>
</g>
<!-- Node30&#45;&gt;Node16 -->
<g id="edge43" class="edge">
<title>Node30&#45;&gt;Node16</title>
<path fill="none" stroke="midnightblue" d="M2084.94,-128.89C2078.26,-111.51 2060.55,-72.5 2031,-56 1998.23,-37.7 1433.39,-17.02 1291.25,-12.1"/>
<polygon fill="midnightblue" stroke="midnightblue" points="1291.14,-8.59 1281.02,-11.74 1290.9,-15.59 1291.14,-8.59"/>
</g>
<!-- Node30&#45;&gt;Node18 -->
<g id="edge44" class="edge">
<title>Node30&#45;&gt;Node18</title>
<path fill="none" stroke="midnightblue" d="M2093.44,-128.78C2102.8,-112.55 2119.35,-77.42 2102,-56 2087.18,-37.71 2036.2,-26.55 1987.95,-19.92"/>
<polygon fill="midnightblue" stroke="midnightblue" points="1988.4,-16.44 1978.03,-18.61 1987.48,-23.38 1988.4,-16.44"/>
</g>
<!-- Node30&#45;&gt;Node20 -->
<g id="edge46" class="edge">
<title>Node30&#45;&gt;Node20</title>
<path fill="none" stroke="midnightblue" d="M2162.75,-128.99C2215.11,-121.31 2278.55,-107.95 2295,-87 2303.51,-76.16 2302.62,-67.48 2295,-56 2284.22,-39.78 2266.34,-29.39 2248.24,-22.75"/>
<polygon fill="midnightblue" stroke="midnightblue" points="2249.1,-19.34 2238.51,-19.51 2246.9,-25.99 2249.1,-19.34"/>
</g>
<!-- Node30&#45;&gt;Node27 -->
<g id="edge45" class="edge">
<title>Node30&#45;&gt;Node27</title>
<path fill="none" stroke="midnightblue" d="M2042.41,-128.94C1979.31,-117.08 1865.47,-95.7 1797.51,-82.93"/>
<polygon fill="midnightblue" stroke="midnightblue" points="1797.89,-79.44 1787.42,-81.03 1796.6,-86.32 1797.89,-79.44"/>
</g>
<!-- Node30&#45;&gt;Node28 -->
<g id="edge47" class="edge">
<title>Node30&#45;&gt;Node28</title>
<path fill="none" stroke="midnightblue" d="M2088.28,-128.75C2088.31,-111.82 2085.73,-74.61 2064,-56 2020.02,-18.33 1868.31,-27.63 1794.36,-19.95"/>
<polygon fill="midnightblue" stroke="midnightblue" points="1794.39,-16.43 1784.04,-18.69 1793.54,-23.38 1794.39,-16.43"/>
</g>
<!-- Node31 -->
<g id="node31" class="node">
<title>Node31</title>
<g id="a_node31"><a xlink:title=" ">
<polygon fill="white" stroke="#bfbfbf" points="2154.5,-62 2154.5,-81 2285.5,-81 2285.5,-62 2154.5,-62"/>
<text text-anchor="middle" x="2220" y="-69" font-family="Helvetica,sans-Serif" font-size="10.00">AMReX_PhysBCFunct.H</text>
</a>
</g>
</g>
<!-- Node30&#45;&gt;Node31 -->
<g id="edge48" class="edge">
<title>Node30&#45;&gt;Node31</title>
<path fill="none" stroke="midnightblue" d="M2105.53,-128.87C2128.01,-117.8 2167.23,-98.49 2193.4,-85.6"/>
<polygon fill="midnightblue" stroke="midnightblue" points="2194.97,-88.72 2202.4,-81.17 2191.88,-82.44 2194.97,-88.72"/>
</g>
<!-- Node32&#45;&gt;Node9 -->
<g id="edge68" class="edge">
<title>Node32&#45;&gt;Node9</title>
<path fill="none" stroke="midnightblue" d="M720.21,-123.48C656.12,-111.29 564.74,-93.93 506.91,-82.94"/>
<polygon fill="midnightblue" stroke="midnightblue" points="507.35,-79.46 496.87,-81.03 506.04,-86.33 507.35,-79.46"/>
</g>
<!-- Node32&#45;&gt;Node16 -->
<g id="edge53" class="edge">
<title>Node32&#45;&gt;Node16</title>
<path fill="none" stroke="midnightblue" d="M807.33,-123.35C827.58,-102.21 865.58,-64 883,-56 943.99,-28.01 1146.82,-16.04 1226.48,-12.35"/>
<polygon fill="midnightblue" stroke="midnightblue" points="1227.04,-15.82 1236.87,-11.88 1226.73,-8.83 1227.04,-15.82"/>
</g>
<!-- Node32&#45;&gt;Node18 -->
<g id="edge67" class="edge">
<title>Node32&#45;&gt;Node18</title>
<path fill="none" stroke="midnightblue" d="M820.35,-123.3C837.49,-113.71 860.1,-100.4 879,-87 896.5,-74.59 895.99,-63.74 916,-56 1004.47,-21.77 1658.47,-26.23 1791.99,-19.92"/>
<polygon fill="midnightblue" stroke="midnightblue" points="1792.2,-23.42 1801.99,-19.37 1791.81,-16.43 1792.2,-23.42"/>
</g>
<!-- Node33 -->
<g id="node33" class="node">
<title>Node33</title>
<g id="a_node33"><a xlink:href="_factory_8_h.html" target="_top" xlink:title=" ">
<polygon fill="white" stroke="black" points="541,-62 541,-81 675,-81 675,-62 541,-62"/>
<text text-anchor="middle" x="608" y="-69" font-family="Helvetica,sans-Serif" font-size="10.00">amr&#45;wind/core/Factory.H</text>
</a>
</g>
</g>
<!-- Node32&#45;&gt;Node33 -->
<g id="edge54" class="edge">
<title>Node32&#45;&gt;Node33</title>
<path fill="none" stroke="midnightblue" d="M753.64,-123.4C720.28,-111.74 673.45,-95.37 641.98,-84.38"/>
<polygon fill="midnightblue" stroke="midnightblue" points="642.94,-81 632.34,-81.01 640.63,-87.61 642.94,-81"/>
</g>
<!-- Node37 -->
<g id="node37" class="node">
<title>Node37</title>
<g id="a_node37"><a xlink:href="_coll_mgr_8_h.html" target="_top" xlink:title=" ">
<polygon fill="white" stroke="black" points="693.5,-62 693.5,-81 830.5,-81 830.5,-62 693.5,-62"/>
<text text-anchor="middle" x="762" y="-69" font-family="Helvetica,sans-Serif" font-size="10.00">amr&#45;wind/core/CollMgr.H</text>
</a>
</g>
</g>
<!-- Node32&#45;&gt;Node37 -->
<g id="edge60" class="edge">
<title>Node32&#45;&gt;Node37</title>
<path fill="none" stroke="midnightblue" d="M787.06,-123.4C782.26,-113.66 775.86,-100.65 770.72,-90.21"/>
<polygon fill="midnightblue" stroke="midnightblue" points="773.84,-88.62 766.28,-81.19 767.56,-91.71 773.84,-88.62"/>
</g>
<!-- Node38 -->
<g id="node38" class="node">
<title>Node38</title>
<g id="a_node38"><a xlink:href="_p_d_e_fields_8_h.html" target="_top" xlink:title=" ">
<polygon fill="white" stroke="black" points="208.5,-56.5 208.5,-86.5 363.5,-86.5 363.5,-56.5 208.5,-56.5"/>
<text text-anchor="start" x="216.5" y="-74.5" font-family="Helvetica,sans-Serif" font-size="10.00">amr&#45;wind/equation_systems</text>
<text text-anchor="middle" x="286" y="-63.5" font-family="Helvetica,sans-Serif" font-size="10.00">/PDEFields.H</text>
</a>
</g>
</g>
<!-- Node32&#45;&gt;Node38 -->
<g id="edge65" class="edge">
<title>Node32&#45;&gt;Node38</title>
<path fill="none" stroke="midnightblue" d="M716.25,-124.31C713.13,-123.85 710.03,-123.42 707,-123 561.83,-103.12 522.04,-107.26 373.71,-87.19"/>
<polygon fill="midnightblue" stroke="midnightblue" points="374.17,-83.72 363.78,-85.83 373.22,-90.65 374.17,-83.72"/>
</g>
<!-- Node33&#45;&gt;Node17 -->
<g id="edge56" class="edge">
<title>Node33&#45;&gt;Node17</title>
<path fill="none" stroke="midnightblue" d="M651.36,-61.97C662.02,-59.94 673.41,-57.84 684,-56 764.08,-42.11 857.04,-27.94 915.19,-19.3"/>
<polygon fill="midnightblue" stroke="midnightblue" points="915.9,-22.73 925.28,-17.81 914.88,-15.81 915.9,-22.73"/>
</g>
<!-- Node33&#45;&gt;Node23 -->
<g id="edge55" class="edge">
<title>Node33&#45;&gt;Node23</title>
<path fill="none" stroke="midnightblue" d="M631.35,-61.98C659.31,-51.77 706.33,-34.61 737.99,-23.05"/>
<polygon fill="midnightblue" stroke="midnightblue" points="739.5,-26.23 747.69,-19.51 737.1,-19.65 739.5,-26.23"/>
</g>
<!-- Node34 -->
<g id="node34" class="node">
<title>Node34</title>
<g id="a_node34"><a xlink:title=" ">
<polygon fill="white" stroke="#bfbfbf" points="476,-0.5 476,-19.5 536,-19.5 536,-0.5 476,-0.5"/>
<text text-anchor="middle" x="506" y="-7.5" font-family="Helvetica,sans-Serif" font-size="10.00">iostream</text>
</a>
</g>
</g>
<!-- Node33&#45;&gt;Node34 -->
<g id="edge57" class="edge">
<title>Node33&#45;&gt;Node34</title>
<path fill="none" stroke="midnightblue" d="M593.39,-61.98C576.65,-52.21 549,-36.08 529.28,-24.58"/>
<polygon fill="midnightblue" stroke="midnightblue" points="530.99,-21.52 520.59,-19.51 527.46,-27.57 530.99,-21.52"/>
</g>
<!-- Node35 -->
<g id="node35" class="node">
<title>Node35</title>
<g id="a_node35"><a xlink:title=" ">
<polygon fill="white" stroke="#bfbfbf" points="554,-0.5 554,-19.5 644,-19.5 644,-0.5 554,-0.5"/>
<text text-anchor="middle" x="599" y="-7.5" font-family="Helvetica,sans-Serif" font-size="10.00">AMReX_Print.H</text>
</a>
</g>
</g>
<!-- Node33&#45;&gt;Node35 -->
<g id="edge58" class="edge">
<title>Node33&#45;&gt;Node35</title>
<path fill="none" stroke="midnightblue" d="M606.71,-61.98C605.44,-53.58 603.46,-40.48 601.82,-29.66"/>
<polygon fill="midnightblue" stroke="midnightblue" points="605.24,-28.87 600.29,-19.51 598.32,-29.92 605.24,-28.87"/>
</g>
<!-- Node36 -->
<g id="node36" class="node">
<title>Node36</title>
<g id="a_node36"><a xlink:title=" ">
<polygon fill="white" stroke="#bfbfbf" points="662,-0.5 662,-19.5 724,-19.5 724,-0.5 662,-0.5"/>
<text text-anchor="middle" x="693" y="-7.5" font-family="Helvetica,sans-Serif" font-size="10.00">AMReX.H</text>
</a>
</g>
</g>
<!-- Node33&#45;&gt;Node36 -->
<g id="edge59" class="edge">
<title>Node33&#45;&gt;Node36</title>
<path fill="none" stroke="midnightblue" d="M620.18,-61.98C633.81,-52.43 656.13,-36.81 672.47,-25.37"/>
<polygon fill="midnightblue" stroke="midnightblue" points="674.66,-28.11 680.84,-19.51 670.64,-22.38 674.66,-28.11"/>
</g>
<!-- Node37&#45;&gt;Node16 -->
<g id="edge61" class="edge">
<title>Node37&#45;&gt;Node16</title>
<path fill="none" stroke="midnightblue" d="M807.58,-61.99C819.72,-59.88 832.83,-57.72 845,-56 986.67,-35.95 1156.73,-20 1226.61,-13.8"/>
<polygon fill="midnightblue" stroke="midnightblue" points="1227.29,-17.26 1236.95,-12.89 1226.68,-10.28 1227.29,-17.26"/>
</g>
<!-- Node37&#45;&gt;Node17 -->
<g id="edge63" class="edge">
<title>Node37&#45;&gt;Node17</title>
<path fill="none" stroke="midnightblue" d="M792.09,-61.98C828.89,-51.55 891.31,-33.86 932.09,-22.31"/>
<polygon fill="midnightblue" stroke="midnightblue" points="933.3,-25.6 941.97,-19.51 931.39,-18.87 933.3,-25.6"/>
</g>
<!-- Node37&#45;&gt;Node23 -->
<g id="edge62" class="edge">
<title>Node37&#45;&gt;Node23</title>
<path fill="none" stroke="midnightblue" d="M763.29,-61.98C764.56,-53.58 766.54,-40.48 768.18,-29.66"/>
<polygon fill="midnightblue" stroke="midnightblue" points="771.68,-29.92 769.71,-19.51 764.76,-28.87 771.68,-29.92"/>
</g>
<!-- Node37&#45;&gt;Node28 -->
<g id="edge64" class="edge">
<title>Node37&#45;&gt;Node28</title>
<path fill="none" stroke="midnightblue" d="M826.28,-61.99C844.58,-59.79 864.56,-57.59 883,-56 1180.01,-30.39 1536.6,-17.23 1675.53,-12.78"/>
<polygon fill="midnightblue" stroke="midnightblue" points="1676.05,-16.26 1685.94,-12.45 1675.83,-9.27 1676.05,-16.26"/>
</g>
<!-- Node39 -->
<g id="node39" class="node">
<title>Node39</title>
<g id="a_node39"><a xlink:title=" ">
<polygon fill="white" stroke="#bfbfbf" points="262,-0.5 262,-19.5 310,-19.5 310,-0.5 262,-0.5"/>
<text text-anchor="middle" x="286" y="-7.5" font-family="Helvetica,sans-Serif" font-size="10.00">iosfwd</text>
</a>
</g>
</g>
<!-- Node38&#45;&gt;Node39 -->
<g id="edge66" class="edge">
<title>Node38&#45;&gt;Node39</title>
<path fill="none" stroke="midnightblue" d="M286,-56.4C286,-48.47 286,-38.46 286,-29.86"/>
<polygon fill="midnightblue" stroke="midnightblue" points="289.5,-29.66 286,-19.66 282.5,-29.66 289.5,-29.66"/>
</g>
<!-- Node40&#45;&gt;Node20 -->
<g id="edge72" class="edge">
<title>Node40&#45;&gt;Node20</title>
<path fill="none" stroke="midnightblue" d="M984.18,-128.92C1038.34,-111.61 1166.89,-72.72 1278,-56 1298.89,-52.86 1918.69,-23.62 2123.22,-14.03"/>
<polygon fill="midnightblue" stroke="midnightblue" points="2123.4,-17.53 2133.22,-13.56 2123.07,-10.53 2123.4,-17.53"/>
</g>
<!-- Node40&#45;&gt;Node33 -->
<g id="edge70" class="edge">
<title>Node40&#45;&gt;Node33</title>
<path fill="none" stroke="midnightblue" d="M912.22,-128.97C901.64,-127.01 890.43,-124.93 880,-123 792.91,-106.91 771.06,-103.3 684,-87 677.17,-85.72 670,-84.37 662.9,-83.02"/>
<polygon fill="midnightblue" stroke="midnightblue" points="663.08,-79.49 652.6,-81.06 661.77,-86.37 663.08,-79.49"/>
</g>
<!-- Node40&#45;&gt;Node37 -->
<g id="edge71" class="edge">
<title>Node40&#45;&gt;Node37</title>
<path fill="none" stroke="midnightblue" d="M931.97,-128.87C897.46,-117.42 836.42,-97.18 797.65,-84.32"/>
<polygon fill="midnightblue" stroke="midnightblue" points="798.42,-80.89 787.82,-81.06 796.21,-87.53 798.42,-80.89"/>
</g>
<!-- Node41 -->
<g id="node41" class="node">
<title>Node41</title>
<g id="a_node41"><a xlink:title=" ">
<polygon fill="white" stroke="#bfbfbf" points="925.5,-62 925.5,-81 1040.5,-81 1040.5,-62 925.5,-62"/>
<text text-anchor="middle" x="983" y="-69" font-family="Helvetica,sans-Serif" font-size="10.00">AMReX_Geometry.H</text>
</a>
</g>
</g>
<!-- Node40&#45;&gt;Node41 -->
<g id="edge73" class="edge">
<title>Node40&#45;&gt;Node41</title>
<path fill="none" stroke="midnightblue" d="M961.37,-128.73C965.12,-118.99 971.28,-102.98 976.06,-90.53"/>
<polygon fill="midnightblue" stroke="midnightblue" points="979.36,-91.72 979.68,-81.13 972.83,-89.2 979.36,-91.72"/>
</g>
</g>
</svg>
