<?xml version="1.0" encoding="UTF-8" standalone="no"?>
<!DOCTYPE svg PUBLIC "-//W3C//DTD SVG 1.1//EN"
 "http://www.w3.org/Graphics/SVG/1.1/DTD/svg11.dtd">
<!-- Generated by graphviz version 2.43.0 (0)
 -->
<!-- Title: equation_systems Pages: 1 -->
<svg width="822pt" height="483pt"
 viewBox="0.00 0.00 822.00 483.00" xmlns="http://www.w3.org/2000/svg" xmlns:xlink="http://www.w3.org/1999/xlink">
<g id="graph0" class="graph" transform="scale(1 1) rotate(0) translate(4 479)">
<title>equation_systems</title>
<polygon fill="white" stroke="transparent" points="-4,4 -4,-479 818,-479 818,4 -4,4"/>
<g id="clust1" class="cluster">
<title>clusterdir_d85575251dd712327fe3cf057fa568b4</title>
<g id="a_clust1"><a xlink:href="dir_d85575251dd712327fe3cf057fa568b4.html" target="_top" xlink:title="amr&#45;wind">
<polygon fill="#ddddee" stroke="black" points="138,-344 138,-431 806,-431 806,-344 138,-344"/>
<text text-anchor="middle" x="472" y="-419" font-family="Helvetica,sans-Serif" font-size="10.00">amr&#45;wind</text>
</a>
</g>
</g>
<g id="clust2" class="cluster">
<title>clusterdir_4bb30ed846ea1df1fc4d16874a455d91</title>
<g id="a_clust2"><a xlink:href="dir_4bb30ed846ea1df1fc4d16874a455d91.html" target="_top">
<polygon fill="#eeeeff" stroke="black" points="146,-352 146,-404 798,-404 798,-352 146,-352"/>
</a>
</g>
</g>
<!-- dir_4bb30ed846ea1df1fc4d16874a455d91 -->
<g id="node1" class="node">
<title>dir_4bb30ed846ea1df1fc4d16874a455d91</title>
<text text-anchor="middle" x="737" y="-375.5" font-family="Helvetica,sans-Serif" font-size="10.00">equation_systems</text>
</g>
<!-- dir_9ff815a534beac751fa88e427dbab695 -->
<g id="node9" class="node">
<title>dir_9ff815a534beac751fa88e427dbab695</title>
<g id="a_node9"><a xlink:href="dir_9ff815a534beac751fa88e427dbab695.html" target="_top" xlink:title="turbulence">
<polygon fill="white" stroke="red" points="383,-475 315,-475 315,-439 383,-439 383,-475"/>
<text text-anchor="middle" x="349" y="-454.5" font-family="Helvetica,sans-Serif" font-size="10.00">turbulence</text>
</a>
</g>
</g>
<!-- dir_4bb30ed846ea1df1fc4d16874a455d91&#45;&gt;dir_9ff815a534beac751fa88e427dbab695 -->
<g id="edge36" class="edge">
<title>dir_4bb30ed846ea1df1fc4d16874a455d91&#45;&gt;dir_9ff815a534beac751fa88e427dbab695</title>
<path fill="none" stroke="black" d="M722.3,-396.02C710.77,-408.08 693.6,-423.41 675,-431 625.18,-451.32 470.36,-455.25 393.38,-455.93"/>
<polygon fill="black" stroke="black" points="393.03,-452.43 383.06,-456 393.08,-459.43 393.03,-452.43"/>
<g id="a_edge36&#45;headlabel"><a xlink:href="dir_000002_000026.html" target="_top" xlink:title="4">
<text text-anchor="middle" x="396.6" y="-447.06" font-family="Helvetica,sans-Serif" font-size="10.00">4</text>
</a>
</g>
</g>
<!-- dir_35ffb1505af3943bdf99903da87524fe -->
<g id="node11" class="node">
<title>dir_35ffb1505af3943bdf99903da87524fe</title>
<g id="a_node11"><a xlink:href="dir_35ffb1505af3943bdf99903da87524fe.html" target="_top" xlink:title="convection">
<polygon fill="none" stroke="black" points="117,-475 47,-475 47,-439 117,-439 117,-475"/>
<text text-anchor="middle" x="82" y="-454.5" font-family="Helvetica,sans-Serif" font-size="10.00">convection</text>
</a>
</g>
</g>
<!-- dir_4bb30ed846ea1df1fc4d16874a455d91&#45;&gt;dir_35ffb1505af3943bdf99903da87524fe -->
<g id="edge37" class="edge">
<title>dir_4bb30ed846ea1df1fc4d16874a455d91&#45;&gt;dir_35ffb1505af3943bdf99903da87524fe</title>
<path fill="none" stroke="black" d="M722.65,-396.06C711.18,-408.31 693.93,-423.88 675,-431 655.81,-438.22 326.48,-438 306,-439 244.02,-442.02 172.56,-447.85 127.34,-451.84"/>
<polygon fill="black" stroke="black" points="126.92,-448.36 117.27,-452.73 127.54,-455.33 126.92,-448.36"/>
<g id="a_edge37&#45;headlabel"><a xlink:href="dir_000002_000022.html" target="_top" xlink:title="2">
<text text-anchor="middle" x="130.25" y="-442.71" font-family="Helvetica,sans-Serif" font-size="10.00">2</text>
</a>
</g>
</g>
<!-- dir_ebb19deee3cd40f4ac122fef25c04ca8 -->
<g id="node13" class="node">
<title>dir_ebb19deee3cd40f4ac122fef25c04ca8</title>
<g id="a_node13"><a xlink:href="dir_ebb19deee3cd40f4ac122fef25c04ca8.html" target="_top" xlink:title="boundary_conditions">
<polygon fill="none" stroke="black" points="443,-252 325,-252 325,-216 443,-216 443,-252"/>
<text text-anchor="middle" x="384" y="-231.5" font-family="Helvetica,sans-Serif" font-size="10.00">boundary_conditions</text>
</a>
</g>
</g>
<!-- dir_4bb30ed846ea1df1fc4d16874a455d91&#45;&gt;dir_ebb19deee3cd40f4ac122fef25c04ca8 -->
<g id="edge38" class="edge">
<title>dir_4bb30ed846ea1df1fc4d16874a455d91&#45;&gt;dir_ebb19deee3cd40f4ac122fef25c04ca8</title>
<path fill="none" stroke="black" d="M707.61,-359.85C697.48,-354.35 685.93,-348.52 675,-344 646.67,-332.3 637.94,-334.09 609,-324 547.9,-302.7 478.86,-274.81 433.56,-255.97"/>
<polygon fill="black" stroke="black" points="434.85,-252.71 424.27,-252.09 432.15,-259.17 434.85,-252.71"/>
<g id="a_edge38&#45;headlabel"><a xlink:href="dir_000002_000009.html" target="_top" xlink:title="2">
<text text-anchor="middle" x="439.26" y="-248.98" font-family="Helvetica,sans-Serif" font-size="10.00">2</text>
</a>
</g>
</g>
<!-- dir_e4cd57caa88bf1f4e1bf9521bc47c3c0 -->
<g id="node14" class="node">
<title>dir_e4cd57caa88bf1f4e1bf9521bc47c3c0</title>
<g id="a_node14"><a xlink:href="dir_e4cd57caa88bf1f4e1bf9521bc47c3c0.html" target="_top" xlink:title="utilities">
<polygon fill="white" stroke="red" points="54,-396 0,-396 0,-360 54,-360 54,-396"/>
<text text-anchor="middle" x="27" y="-375.5" font-family="Helvetica,sans-Serif" font-size="10.00">utilities</text>
</a>
</g>
</g>
<!-- dir_4bb30ed846ea1df1fc4d16874a455d91&#45;&gt;dir_e4cd57caa88bf1f4e1bf9521bc47c3c0 -->
<g id="edge39" class="edge">
<title>dir_4bb30ed846ea1df1fc4d16874a455d91&#45;&gt;dir_e4cd57caa88bf1f4e1bf9521bc47c3c0</title>
<path fill="none" stroke="black" d="M723,-396.11C710.13,-410.85 689.5,-430.01 666,-435 652.01,-437.97 164.99,-437.97 151,-435 119.76,-428.37 87.04,-412.92 63.07,-399.78"/>
<polygon fill="black" stroke="black" points="64.76,-396.71 54.32,-394.88 61.33,-402.82 64.76,-396.71"/>
<g id="a_edge39&#45;headlabel"><a xlink:href="dir_000002_000008.html" target="_top" xlink:title="8">
<text text-anchor="middle" x="69.28" y="-393.5" font-family="Helvetica,sans-Serif" font-size="10.00">8</text>
</a>
</g>
</g>
<!-- dir_a816a247b59c90f95e41afe29b966a18 -->
<g id="node15" class="node">
<title>dir_a816a247b59c90f95e41afe29b966a18</title>
<g id="a_node15"><a xlink:href="dir_a816a247b59c90f95e41afe29b966a18.html" target="_top" xlink:title="diffusion">
<polygon fill="none" stroke="black" points="595.5,-36 536.5,-36 536.5,0 595.5,0 595.5,-36"/>
<text text-anchor="middle" x="566" y="-15.5" font-family="Helvetica,sans-Serif" font-size="10.00">diffusion</text>
</a>
</g>
</g>
<!-- dir_4bb30ed846ea1df1fc4d16874a455d91&#45;&gt;dir_a816a247b59c90f95e41afe29b966a18 -->
<g id="edge40" class="edge">
<title>dir_4bb30ed846ea1df1fc4d16874a455d91&#45;&gt;dir_a816a247b59c90f95e41afe29b966a18</title>
<path fill="none" stroke="black" d="M737,-359.95C737,-333.29 737,-280.11 737,-235 737,-235 737,-235 737,-161 737,-92.99 655.95,-51.32 605.45,-31.95"/>
<polygon fill="black" stroke="black" points="606.38,-28.57 595.79,-28.38 603.95,-35.13 606.38,-28.57"/>
<g id="a_edge40&#45;headlabel"><a xlink:href="dir_000002_000018.html" target="_top" xlink:title="1">
<text text-anchor="middle" x="610.74" y="-24.65" font-family="Helvetica,sans-Serif" font-size="10.00">1</text>
</a>
</g>
</g>
<!-- dir_70329d5a297148af2b67b1d844b9f654 -->
<g id="node2" class="node">
<title>dir_70329d5a297148af2b67b1d844b9f654</title>
<g id="a_node2"><a xlink:href="dir_70329d5a297148af2b67b1d844b9f654.html" target="_top" xlink:title="density">
<polygon fill="white" stroke="black" points="304,-396 250,-396 250,-360 304,-360 304,-396"/>
<text text-anchor="middle" x="277" y="-375.5" font-family="Helvetica,sans-Serif" font-size="10.00">density</text>
</a>
</g>
</g>
<!-- dir_3d3615e9a999cab4f3407307569d6ced -->
<g id="node16" class="node">
<title>dir_3d3615e9a999cab4f3407307569d6ced</title>
<g id="a_node16"><a xlink:href="dir_3d3615e9a999cab4f3407307569d6ced.html" target="_top" xlink:title="core">
<polygon fill="white" stroke="red" points="304,-324 250,-324 250,-288 304,-288 304,-324"/>
<text text-anchor="middle" x="277" y="-303.5" font-family="Helvetica,sans-Serif" font-size="10.00">core</text>
</a>
</g>
</g>
<!-- dir_70329d5a297148af2b67b1d844b9f654&#45;&gt;dir_3d3615e9a999cab4f3407307569d6ced -->
<g id="edge5" class="edge">
<title>dir_70329d5a297148af2b67b1d844b9f654&#45;&gt;dir_3d3615e9a999cab4f3407307569d6ced</title>
<path fill="none" stroke="black" d="M277,-359.7C277,-351.98 277,-342.71 277,-334.11"/>
<polygon fill="black" stroke="black" points="280.5,-334.1 277,-324.1 273.5,-334.1 280.5,-334.1"/>
<g id="a_edge5&#45;headlabel"><a xlink:href="dir_000016_000012.html" target="_top" xlink:title="4">
<text text-anchor="middle" x="283.34" y="-335.2" font-family="Helvetica,sans-Serif" font-size="10.00">4</text>
</a>
</g>
</g>
<!-- dir_4012ff34c1bb5bd303e44a1c9cef6c8a -->
<g id="node3" class="node">
<title>dir_4012ff34c1bb5bd303e44a1c9cef6c8a</title>
<g id="a_node3"><a xlink:href="dir_4012ff34c1bb5bd303e44a1c9cef6c8a.html" target="_top" xlink:title="icns">
<polygon fill="white" stroke="red" points="666,-396 612,-396 612,-360 666,-360 666,-396"/>
<text text-anchor="middle" x="639" y="-375.5" font-family="Helvetica,sans-Serif" font-size="10.00">icns</text>
</a>
</g>
</g>
<!-- dir_0c368f76a33d967d5b838b5681461de6 -->
<g id="node12" class="node">
<title>dir_0c368f76a33d967d5b838b5681461de6</title>
<g id="a_node12"><a xlink:href="dir_0c368f76a33d967d5b838b5681461de6.html" target="_top" xlink:title="wind_energy">
<polygon fill="white" stroke="red" points="605.5,-108 526.5,-108 526.5,-72 605.5,-72 605.5,-108"/>
<text text-anchor="middle" x="566" y="-87.5" font-family="Helvetica,sans-Serif" font-size="10.00">wind_energy</text>
</a>
</g>
</g>
<!-- dir_4012ff34c1bb5bd303e44a1c9cef6c8a&#45;&gt;dir_0c368f76a33d967d5b838b5681461de6 -->
<g id="edge25" class="edge">
<title>dir_4012ff34c1bb5bd303e44a1c9cef6c8a&#45;&gt;dir_0c368f76a33d967d5b838b5681461de6</title>
<path fill="none" stroke="black" d="M651.1,-359.73C657.38,-349.77 664.46,-336.73 668,-324 689.47,-246.78 703.42,-209.34 657,-144 646.55,-129.3 630.65,-118.06 615.04,-109.79"/>
<polygon fill="black" stroke="black" points="616.44,-106.58 605.93,-105.27 613.33,-112.85 616.44,-106.58"/>
<g id="a_edge25&#45;headlabel"><a xlink:href="dir_000003_000001.html" target="_top" xlink:title="3">
<text text-anchor="middle" x="620.92" y="-103.14" font-family="Helvetica,sans-Serif" font-size="10.00">3</text>
</a>
</g>
</g>
<!-- dir_4012ff34c1bb5bd303e44a1c9cef6c8a&#45;&gt;dir_ebb19deee3cd40f4ac122fef25c04ca8 -->
<g id="edge26" class="edge">
<title>dir_4012ff34c1bb5bd303e44a1c9cef6c8a&#45;&gt;dir_ebb19deee3cd40f4ac122fef25c04ca8</title>
<path fill="none" stroke="black" d="M624.5,-359.75C618.49,-353.75 611.04,-347.63 603,-344 564.5,-326.64 446.96,-350.41 414,-324 395.56,-309.22 388.38,-282.64 385.63,-262.37"/>
<polygon fill="black" stroke="black" points="389.08,-261.72 384.53,-252.15 382.12,-262.47 389.08,-261.72"/>
<g id="a_edge26&#45;headlabel"><a xlink:href="dir_000003_000009.html" target="_top" xlink:title="1">
<text text-anchor="middle" x="392.28" y="-262.49" font-family="Helvetica,sans-Serif" font-size="10.00">1</text>
</a>
</g>
</g>
<!-- dir_4012ff34c1bb5bd303e44a1c9cef6c8a&#45;&gt;dir_e4cd57caa88bf1f4e1bf9521bc47c3c0 -->
<g id="edge27" class="edge">
<title>dir_4012ff34c1bb5bd303e44a1c9cef6c8a&#45;&gt;dir_e4cd57caa88bf1f4e1bf9521bc47c3c0</title>
<path fill="none" stroke="black" d="M632.31,-396.02C625.42,-411.16 612.99,-430.97 594,-435 569.93,-440.11 175.07,-440.11 151,-435 119.76,-428.37 87.04,-412.92 63.07,-399.78"/>
<polygon fill="black" stroke="black" points="64.76,-396.71 54.32,-394.88 61.33,-402.82 64.76,-396.71"/>
<g id="a_edge27&#45;headlabel"><a xlink:href="dir_000003_000008.html" target="_top" xlink:title="6">
<text text-anchor="middle" x="69.28" y="-393.5" font-family="Helvetica,sans-Serif" font-size="10.00">6</text>
</a>
</g>
</g>
<!-- dir_4012ff34c1bb5bd303e44a1c9cef6c8a&#45;&gt;dir_3d3615e9a999cab4f3407307569d6ced -->
<g id="edge28" class="edge">
<title>dir_4012ff34c1bb5bd303e44a1c9cef6c8a&#45;&gt;dir_3d3615e9a999cab4f3407307569d6ced</title>
<path fill="none" stroke="black" d="M624.53,-359.67C618.53,-353.66 611.07,-347.55 603,-344 556.04,-323.35 423.86,-330.7 373,-324 353.5,-321.43 331.93,-317.69 314.18,-314.37"/>
<polygon fill="black" stroke="black" points="314.69,-310.91 304.21,-312.48 313.38,-317.79 314.69,-310.91"/>
<g id="a_edge28&#45;headlabel"><a xlink:href="dir_000003_000012.html" target="_top" xlink:title="19">
<text text-anchor="middle" x="318.75" y="-306.29" font-family="Helvetica,sans-Serif" font-size="10.00">19</text>
</a>
</g>
</g>
<!-- dir_ce0741f9b73f67c263a459724eeecf8b -->
<g id="node4" class="node">
<title>dir_ce0741f9b73f67c263a459724eeecf8b</title>
<g id="a_node4"><a xlink:href="dir_ce0741f9b73f67c263a459724eeecf8b.html" target="_top" xlink:title="levelset">
<polygon fill="white" stroke="black" points="522,-396 466,-396 466,-360 522,-360 522,-396"/>
<text text-anchor="middle" x="494" y="-375.5" font-family="Helvetica,sans-Serif" font-size="10.00">levelset</text>
</a>
</g>
</g>
<!-- dir_f2c65bfcbdc19ebacbfc0bbbfb0d01b6 -->
<g id="node10" class="node">
<title>dir_f2c65bfcbdc19ebacbfc0bbbfb0d01b6</title>
<g id="a_node10"><a xlink:href="dir_f2c65bfcbdc19ebacbfc0bbbfb0d01b6.html" target="_top" xlink:title="physics">
<polygon fill="white" stroke="red" points="517,-180 463,-180 463,-144 517,-144 517,-180"/>
<text text-anchor="middle" x="490" y="-159.5" font-family="Helvetica,sans-Serif" font-size="10.00">physics</text>
</a>
</g>
</g>
<!-- dir_ce0741f9b73f67c263a459724eeecf8b&#45;&gt;dir_f2c65bfcbdc19ebacbfc0bbbfb0d01b6 -->
<g id="edge13" class="edge">
<title>dir_ce0741f9b73f67c263a459724eeecf8b&#45;&gt;dir_f2c65bfcbdc19ebacbfc0bbbfb0d01b6</title>
<path fill="none" stroke="black" d="M493.68,-359.85C492.99,-322.83 491.35,-235.18 490.51,-190.39"/>
<polygon fill="black" stroke="black" points="494.01,-190.17 490.32,-180.23 487.01,-190.3 494.01,-190.17"/>
<g id="a_edge13&#45;headlabel"><a xlink:href="dir_000030_000010.html" target="_top" xlink:title="1">
<text text-anchor="middle" x="496.91" y="-191.21" font-family="Helvetica,sans-Serif" font-size="10.00">1</text>
</a>
</g>
</g>
<!-- dir_9f8434f21d2c2598f33c85a8b98c6d56 -->
<g id="node5" class="node">
<title>dir_9f8434f21d2c2598f33c85a8b98c6d56</title>
<g id="a_node5"><a xlink:href="dir_9f8434f21d2c2598f33c85a8b98c6d56.html" target="_top" xlink:title="sdr">
<polygon fill="white" stroke="red" points="448,-396 394,-396 394,-360 448,-360 448,-396"/>
<text text-anchor="middle" x="421" y="-375.5" font-family="Helvetica,sans-Serif" font-size="10.00">sdr</text>
</a>
</g>
</g>
<!-- dir_9f8434f21d2c2598f33c85a8b98c6d56&#45;&gt;dir_9ff815a534beac751fa88e427dbab695 -->
<g id="edge29" class="edge">
<title>dir_9f8434f21d2c2598f33c85a8b98c6d56&#45;&gt;dir_9ff815a534beac751fa88e427dbab695</title>
<path fill="none" stroke="black" d="M403.64,-396.08C395.77,-406.83 386.4,-420.59 376,-431 375.66,-431.34 375.32,-431.67 374.98,-432"/>
<polygon fill="black" stroke="black" points="372.51,-429.51 367.26,-438.72 377.1,-434.79 372.51,-429.51"/>
<g id="a_edge29&#45;headlabel"><a xlink:href="dir_000039_000026.html" target="_top" xlink:title="1">
<text text-anchor="middle" x="373.36" y="-422.51" font-family="Helvetica,sans-Serif" font-size="10.00">1</text>
</a>
</g>
</g>
<!-- dir_9f8434f21d2c2598f33c85a8b98c6d56&#45;&gt;dir_3d3615e9a999cab4f3407307569d6ced -->
<g id="edge30" class="edge">
<title>dir_9f8434f21d2c2598f33c85a8b98c6d56&#45;&gt;dir_3d3615e9a999cab4f3407307569d6ced</title>
<path fill="none" stroke="black" d="M405.31,-360C399.38,-354.31 392.29,-348.33 385,-344 362.93,-330.89 335.56,-321.58 313.89,-315.57"/>
<polygon fill="black" stroke="black" points="314.63,-312.15 304.07,-312.97 312.84,-318.92 314.63,-312.15"/>
<g id="a_edge30&#45;headlabel"><a xlink:href="dir_000039_000012.html" target="_top" xlink:title="6">
<text text-anchor="middle" x="318.83" y="-307.83" font-family="Helvetica,sans-Serif" font-size="10.00">6</text>
</a>
</g>
</g>
<!-- dir_c96908905c9887b0bdc2167e5354d30c -->
<g id="node6" class="node">
<title>dir_c96908905c9887b0bdc2167e5354d30c</title>
<g id="a_node6"><a xlink:href="dir_c96908905c9887b0bdc2167e5354d30c.html" target="_top" xlink:title="temperature">
<polygon fill="white" stroke="black" points="231.5,-396 154.5,-396 154.5,-360 231.5,-360 231.5,-396"/>
<text text-anchor="middle" x="193" y="-375.5" font-family="Helvetica,sans-Serif" font-size="10.00">temperature</text>
</a>
</g>
</g>
<!-- dir_c96908905c9887b0bdc2167e5354d30c&#45;&gt;dir_3d3615e9a999cab4f3407307569d6ced -->
<g id="edge14" class="edge">
<title>dir_c96908905c9887b0bdc2167e5354d30c&#45;&gt;dir_3d3615e9a999cab4f3407307569d6ced</title>
<path fill="none" stroke="black" d="M213.76,-359.7C224.24,-350.97 237.11,-340.24 248.5,-330.75"/>
<polygon fill="black" stroke="black" points="251.03,-333.19 256.47,-324.1 246.55,-327.82 251.03,-333.19"/>
<g id="a_edge14&#45;headlabel"><a xlink:href="dir_000041_000012.html" target="_top" xlink:title="4">
<text text-anchor="middle" x="250.09" y="-335.18" font-family="Helvetica,sans-Serif" font-size="10.00">4</text>
</a>
</g>
</g>
<!-- dir_be932497d8c26b6aa8596ee64638838f -->
<g id="node7" class="node">
<title>dir_be932497d8c26b6aa8596ee64638838f</title>
<g id="a_node7"><a xlink:href="dir_be932497d8c26b6aa8596ee64638838f.html" target="_top" xlink:title="tke">
<polygon fill="white" stroke="red" points="376,-396 322,-396 322,-360 376,-360 376,-396"/>
<text text-anchor="middle" x="349" y="-375.5" font-family="Helvetica,sans-Serif" font-size="10.00">tke</text>
</a>
</g>
</g>
<!-- dir_be932497d8c26b6aa8596ee64638838f&#45;&gt;dir_9ff815a534beac751fa88e427dbab695 -->
<g id="edge6" class="edge">
<title>dir_be932497d8c26b6aa8596ee64638838f&#45;&gt;dir_9ff815a534beac751fa88e427dbab695</title>
<path fill="none" stroke="black" d="M343.29,-396.04C342.25,-405.6 341.99,-417.76 342.51,-428.62"/>
<polygon fill="black" stroke="black" points="339.04,-429.2 343.28,-438.91 346.02,-428.68 339.04,-429.2"/>
<g id="a_edge6&#45;headlabel"><a xlink:href="dir_000028_000026.html" target="_top" xlink:title="2">
<text text-anchor="middle" x="335.94" y="-423.33" font-family="Helvetica,sans-Serif" font-size="10.00">2</text>
</a>
</g>
</g>
<!-- dir_be932497d8c26b6aa8596ee64638838f&#45;&gt;dir_3d3615e9a999cab4f3407307569d6ced -->
<g id="edge7" class="edge">
<title>dir_be932497d8c26b6aa8596ee64638838f&#45;&gt;dir_3d3615e9a999cab4f3407307569d6ced</title>
<path fill="none" stroke="black" d="M331.2,-359.7C322.4,-351.14 311.62,-340.66 302,-331.3"/>
<polygon fill="black" stroke="black" points="304.2,-328.57 294.59,-324.1 299.32,-333.58 304.2,-328.57"/>
<g id="a_edge7&#45;headlabel"><a xlink:href="dir_000028_000012.html" target="_top" xlink:title="6">
<text text-anchor="middle" x="308.76" y="-326.54" font-family="Helvetica,sans-Serif" font-size="10.00">6</text>
</a>
</g>
</g>
<!-- dir_bfcf7e25e8a41bb3b30f8e11e2280479 -->
<g id="node8" class="node">
<title>dir_bfcf7e25e8a41bb3b30f8e11e2280479</title>
<g id="a_node8"><a xlink:href="dir_bfcf7e25e8a41bb3b30f8e11e2280479.html" target="_top" xlink:title="vof">
<polygon fill="white" stroke="black" points="594,-396 540,-396 540,-360 594,-360 594,-396"/>
<text text-anchor="middle" x="567" y="-375.5" font-family="Helvetica,sans-Serif" font-size="10.00">vof</text>
</a>
</g>
</g>
<!-- dir_bfcf7e25e8a41bb3b30f8e11e2280479&#45;&gt;dir_f2c65bfcbdc19ebacbfc0bbbfb0d01b6 -->
<g id="edge32" class="edge">
<title>dir_bfcf7e25e8a41bb3b30f8e11e2280479&#45;&gt;dir_f2c65bfcbdc19ebacbfc0bbbfb0d01b6</title>
<path fill="none" stroke="black" d="M562.9,-359.7C555.55,-329.8 538.95,-266.78 518,-216 514.31,-207.05 509.6,-197.61 505.11,-189.22"/>
<polygon fill="black" stroke="black" points="508.07,-187.34 500.19,-180.26 501.94,-190.71 508.07,-187.34"/>
<g id="a_edge32&#45;headlabel"><a xlink:href="dir_000023_000010.html" target="_top" xlink:title="1">
<text text-anchor="middle" x="512.29" y="-186.63" font-family="Helvetica,sans-Serif" font-size="10.00">1</text>
</a>
</g>
</g>
<!-- dir_bfcf7e25e8a41bb3b30f8e11e2280479&#45;&gt;dir_3d3615e9a999cab4f3407307569d6ced -->
<g id="edge33" class="edge">
<title>dir_bfcf7e25e8a41bb3b30f8e11e2280479&#45;&gt;dir_3d3615e9a999cab4f3407307569d6ced</title>
<path fill="none" stroke="black" d="M552.46,-359.83C546.44,-353.85 539,-347.71 531,-344 466.78,-314.24 442.98,-334.62 373,-324 353.56,-321.05 331.98,-317.28 314.22,-314.03"/>
<polygon fill="black" stroke="black" points="314.72,-310.57 304.25,-312.2 313.45,-317.45 314.72,-310.57"/>
<g id="a_edge33&#45;headlabel"><a xlink:href="dir_000023_000012.html" target="_top" xlink:title="1">
<text text-anchor="middle" x="318.77" y="-305.92" font-family="Helvetica,sans-Serif" font-size="10.00">1</text>
</a>
</g>
</g>
<!-- dir_9ff815a534beac751fa88e427dbab695&#45;&gt;dir_9f8434f21d2c2598f33c85a8b98c6d56 -->
<g id="edge3" class="edge">
<title>dir_9ff815a534beac751fa88e427dbab695&#45;&gt;dir_9f8434f21d2c2598f33c85a8b98c6d56</title>
<path fill="none" stroke="black" d="M383.21,-440.16C387.08,-437.32 390.77,-434.23 394,-431 401.72,-423.27 408.87,-413.7 414.21,-404.88"/>
<polygon fill="black" stroke="black" points="417.3,-406.53 419.06,-396.08 411.17,-403.15 417.3,-406.53"/>
<g id="a_edge3&#45;headlabel"><a xlink:href="dir_000026_000039.html" target="_top" xlink:title="3">
<text text-anchor="middle" x="418.05" y="-408.55" font-family="Helvetica,sans-Serif" font-size="10.00">3</text>
</a>
</g>
</g>
<!-- dir_9ff815a534beac751fa88e427dbab695&#45;&gt;dir_be932497d8c26b6aa8596ee64638838f -->
<g id="edge1" class="edge">
<title>dir_9ff815a534beac751fa88e427dbab695&#45;&gt;dir_be932497d8c26b6aa8596ee64638838f</title>
<path fill="none" stroke="black" d="M354.72,-438.91C355.75,-429.34 356.01,-417.18 355.49,-406.32"/>
<polygon fill="black" stroke="black" points="358.96,-405.75 354.71,-396.04 351.98,-406.28 358.96,-405.75"/>
<g id="a_edge1&#45;headlabel"><a xlink:href="dir_000026_000028.html" target="_top" xlink:title="4">
<text text-anchor="middle" x="362.06" y="-406.62" font-family="Helvetica,sans-Serif" font-size="10.00">4</text>
</a>
</g>
</g>
<!-- dir_9ff815a534beac751fa88e427dbab695&#45;&gt;dir_e4cd57caa88bf1f4e1bf9521bc47c3c0 -->
<g id="edge2" class="edge">
<title>dir_9ff815a534beac751fa88e427dbab695&#45;&gt;dir_e4cd57caa88bf1f4e1bf9521bc47c3c0</title>
<path fill="none" stroke="black" d="M314.62,-454.48C257,-451.59 143.55,-444.38 106,-431 87.64,-424.46 69.32,-412.8 54.95,-402.18"/>
<polygon fill="black" stroke="black" points="57.05,-399.38 46.98,-396.1 52.8,-404.94 57.05,-399.38"/>
<g id="a_edge2&#45;headlabel"><a xlink:href="dir_000026_000008.html" target="_top" xlink:title="1">
<text text-anchor="middle" x="61.63" y="-396.8" font-family="Helvetica,sans-Serif" font-size="10.00">1</text>
</a>
</g>
</g>
<!-- dir_9ff815a534beac751fa88e427dbab695&#45;&gt;dir_3d3615e9a999cab4f3407307569d6ced -->
<g id="edge4" class="edge">
<title>dir_9ff815a534beac751fa88e427dbab695&#45;&gt;dir_3d3615e9a999cab4f3407307569d6ced</title>
<path fill="none" stroke="black" d="M314.89,-454.32C259.07,-451.21 153.26,-443.7 142,-431 116.35,-402.07 117.7,-374.08 142,-344 168.57,-311.11 194.59,-336.42 235,-324 236.65,-323.49 238.33,-322.94 240.02,-322.37"/>
<polygon fill="black" stroke="black" points="241.49,-325.56 249.68,-318.85 239.09,-318.99 241.49,-325.56"/>
<g id="a_edge4&#45;headlabel"><a xlink:href="dir_000026_000012.html" target="_top" xlink:title="5">
<text text-anchor="middle" x="239.08" y="-326.96" font-family="Helvetica,sans-Serif" font-size="10.00">5</text>
</a>
</g>
</g>
<!-- dir_f2c65bfcbdc19ebacbfc0bbbfb0d01b6&#45;&gt;dir_4012ff34c1bb5bd303e44a1c9cef6c8a -->
<g id="edge10" class="edge">
<title>dir_f2c65bfcbdc19ebacbfc0bbbfb0d01b6&#45;&gt;dir_4012ff34c1bb5bd303e44a1c9cef6c8a</title>
<path fill="none" stroke="black" d="M502,-180.23C528.15,-217.79 590.41,-307.21 621.17,-351.39"/>
<polygon fill="black" stroke="black" points="618.47,-353.64 627.06,-359.85 624.22,-349.64 618.47,-353.64"/>
<g id="a_edge10&#45;headlabel"><a xlink:href="dir_000010_000003.html" target="_top" xlink:title="2">
<text text-anchor="middle" x="614.09" y="-349.81" font-family="Helvetica,sans-Serif" font-size="10.00">2</text>
</a>
</g>
</g>
<!-- dir_f2c65bfcbdc19ebacbfc0bbbfb0d01b6&#45;&gt;dir_bfcf7e25e8a41bb3b30f8e11e2280479 -->
<g id="edge11" class="edge">
<title>dir_f2c65bfcbdc19ebacbfc0bbbfb0d01b6&#45;&gt;dir_bfcf7e25e8a41bb3b30f8e11e2280479</title>
<path fill="none" stroke="black" d="M492.76,-180.03C498,-210.06 510.92,-273.98 533,-324 537.13,-333.35 542.78,-342.94 548.29,-351.35"/>
<polygon fill="black" stroke="black" points="545.39,-353.32 553.9,-359.63 551.18,-349.39 545.39,-353.32"/>
<g id="a_edge11&#45;headlabel"><a xlink:href="dir_000010_000023.html" target="_top" xlink:title="1">
<text text-anchor="middle" x="541.02" y="-349.44" font-family="Helvetica,sans-Serif" font-size="10.00">1</text>
</a>
</g>
</g>
<!-- dir_f2c65bfcbdc19ebacbfc0bbbfb0d01b6&#45;&gt;dir_0c368f76a33d967d5b838b5681461de6 -->
<g id="edge8" class="edge">
<title>dir_f2c65bfcbdc19ebacbfc0bbbfb0d01b6&#45;&gt;dir_0c368f76a33d967d5b838b5681461de6</title>
<path fill="none" stroke="black" d="M508.79,-143.7C518.17,-135.05 529.68,-124.45 539.91,-115.03"/>
<polygon fill="black" stroke="black" points="542.45,-117.45 547.43,-108.1 537.7,-112.3 542.45,-117.45"/>
<g id="a_edge8&#45;headlabel"><a xlink:href="dir_000010_000001.html" target="_top" xlink:title="1">
<text text-anchor="middle" x="541.72" y="-119.48" font-family="Helvetica,sans-Serif" font-size="10.00">1</text>
</a>
</g>
</g>
<!-- dir_f2c65bfcbdc19ebacbfc0bbbfb0d01b6&#45;&gt;dir_e4cd57caa88bf1f4e1bf9521bc47c3c0 -->
<g id="edge9" class="edge">
<title>dir_f2c65bfcbdc19ebacbfc0bbbfb0d01b6&#45;&gt;dir_e4cd57caa88bf1f4e1bf9521bc47c3c0</title>
<path fill="none" stroke="black" d="M462.7,-167.51C423.07,-174.65 347.84,-190.41 288,-216 241.56,-235.86 120.56,-314.74 61.05,-354.23"/>
<polygon fill="black" stroke="black" points="58.78,-351.54 52.39,-359.99 62.66,-357.36 58.78,-351.54"/>
<g id="a_edge9&#45;headlabel"><a xlink:href="dir_000010_000008.html" target="_top" xlink:title="9">
<text text-anchor="middle" x="60.2" y="-344.68" font-family="Helvetica,sans-Serif" font-size="10.00">9</text>
</a>
</g>
</g>
<!-- dir_f2c65bfcbdc19ebacbfc0bbbfb0d01b6&#45;&gt;dir_3d3615e9a999cab4f3407307569d6ced -->
<g id="edge12" class="edge">
<title>dir_f2c65bfcbdc19ebacbfc0bbbfb0d01b6&#45;&gt;dir_3d3615e9a999cab4f3407307569d6ced</title>
<path fill="none" stroke="black" d="M462.77,-164.39C425.34,-167.68 357.89,-178.76 316,-216 297.94,-232.06 287.88,-258.01 282.52,-277.76"/>
<polygon fill="black" stroke="black" points="279.06,-277.17 280.07,-287.71 285.86,-278.84 279.06,-277.17"/>
<g id="a_edge12&#45;headlabel"><a xlink:href="dir_000010_000012.html" target="_top" xlink:title="45">
<text text-anchor="middle" x="277.17" y="-270.5" font-family="Helvetica,sans-Serif" font-size="10.00">45</text>
</a>
</g>
</g>
<!-- dir_35ffb1505af3943bdf99903da87524fe&#45;&gt;dir_e4cd57caa88bf1f4e1bf9521bc47c3c0 -->
<g id="edge15" class="edge">
<title>dir_35ffb1505af3943bdf99903da87524fe&#45;&gt;dir_e4cd57caa88bf1f4e1bf9521bc47c3c0</title>
<path fill="none" stroke="black" d="M69.79,-438.91C62.53,-428.74 53.18,-415.65 45.07,-404.3"/>
<polygon fill="black" stroke="black" points="47.83,-402.14 39.17,-396.04 42.14,-406.21 47.83,-402.14"/>
<g id="a_edge15&#45;headlabel"><a xlink:href="dir_000022_000008.html" target="_top" xlink:title="3">
<text text-anchor="middle" x="52.23" y="-400.92" font-family="Helvetica,sans-Serif" font-size="10.00">3</text>
</a>
</g>
</g>
<!-- dir_35ffb1505af3943bdf99903da87524fe&#45;&gt;dir_3d3615e9a999cab4f3407307569d6ced -->
<g id="edge16" class="edge">
<title>dir_35ffb1505af3943bdf99903da87524fe&#45;&gt;dir_3d3615e9a999cab4f3407307569d6ced</title>
<path fill="none" stroke="black" d="M82.63,-438.6C84.54,-413.64 91.92,-368.03 120,-344 159.41,-310.26 185.12,-338.26 235,-324 236.66,-323.52 238.35,-323.01 240.05,-322.45"/>
<polygon fill="black" stroke="black" points="241.48,-325.66 249.73,-319.01 239.14,-319.06 241.48,-325.66"/>
<g id="a_edge16&#45;headlabel"><a xlink:href="dir_000022_000012.html" target="_top" xlink:title="2">
<text text-anchor="middle" x="239.05" y="-327.04" font-family="Helvetica,sans-Serif" font-size="10.00">2</text>
</a>
</g>
</g>
<!-- dir_0c368f76a33d967d5b838b5681461de6&#45;&gt;dir_4bb30ed846ea1df1fc4d16874a455d91 -->
<g id="edge20" class="edge">
<title>dir_0c368f76a33d967d5b838b5681461de6&#45;&gt;dir_4bb30ed846ea1df1fc4d16874a455d91</title>
<path fill="none" stroke="black" d="M576.35,-108.31C605.29,-156.71 687.19,-293.69 721.54,-351.14"/>
<polygon fill="black" stroke="black" points="718.68,-353.18 726.82,-359.97 724.69,-349.59 718.68,-353.18"/>
<g id="a_edge20&#45;headlabel"><a xlink:href="dir_000001_000002.html" target="_top" xlink:title="4">
<text text-anchor="middle" x="714.4" y="-349.05" font-family="Helvetica,sans-Serif" font-size="10.00">4</text>
</a>
</g>
</g>
<!-- dir_0c368f76a33d967d5b838b5681461de6&#45;&gt;dir_4012ff34c1bb5bd303e44a1c9cef6c8a -->
<g id="edge18" class="edge">
<title>dir_0c368f76a33d967d5b838b5681461de6&#45;&gt;dir_4012ff34c1bb5bd303e44a1c9cef6c8a</title>
<path fill="none" stroke="black" d="M601.1,-108.09C614.91,-116.78 629.28,-128.77 637,-144 671.11,-211.31 656.57,-304.25 646.17,-349.72"/>
<polygon fill="black" stroke="black" points="642.71,-349.16 643.78,-359.7 649.51,-350.79 642.71,-349.16"/>
<g id="a_edge18&#45;headlabel"><a xlink:href="dir_000001_000003.html" target="_top" xlink:title="3">
<text text-anchor="middle" x="640.78" y="-342.5" font-family="Helvetica,sans-Serif" font-size="10.00">3</text>
</a>
</g>
</g>
<!-- dir_0c368f76a33d967d5b838b5681461de6&#45;&gt;dir_e4cd57caa88bf1f4e1bf9521bc47c3c0 -->
<g id="edge17" class="edge">
<title>dir_0c368f76a33d967d5b838b5681461de6&#45;&gt;dir_e4cd57caa88bf1f4e1bf9521bc47c3c0</title>
<path fill="none" stroke="black" d="M526.26,-94.87C476.43,-100.77 389.15,-114.58 320,-144 214.51,-188.88 192.29,-212.53 106,-288 83.65,-307.55 61.49,-333.2 46.36,-351.94"/>
<polygon fill="black" stroke="black" points="43.62,-349.76 40.12,-359.76 49.09,-354.13 43.62,-349.76"/>
<g id="a_edge17&#45;headlabel"><a xlink:href="dir_000001_000008.html" target="_top" xlink:title="26">
<text text-anchor="middle" x="43.64" y="-342.68" font-family="Helvetica,sans-Serif" font-size="10.00">26</text>
</a>
</g>
</g>
<!-- dir_0c368f76a33d967d5b838b5681461de6&#45;&gt;dir_a816a247b59c90f95e41afe29b966a18 -->
<g id="edge19" class="edge">
<title>dir_0c368f76a33d967d5b838b5681461de6&#45;&gt;dir_a816a247b59c90f95e41afe29b966a18</title>
<path fill="none" stroke="black" d="M566,-71.7C566,-63.98 566,-54.71 566,-46.11"/>
<polygon fill="black" stroke="black" points="569.5,-46.1 566,-36.1 562.5,-46.1 569.5,-46.1"/>
<g id="a_edge19&#45;headlabel"><a xlink:href="dir_000001_000018.html" target="_top" xlink:title="1">
<text text-anchor="middle" x="572.34" y="-47.2" font-family="Helvetica,sans-Serif" font-size="10.00">1</text>
</a>
</g>
</g>
<!-- dir_0c368f76a33d967d5b838b5681461de6&#45;&gt;dir_3d3615e9a999cab4f3407307569d6ced -->
<g id="edge21" class="edge">
<title>dir_0c368f76a33d967d5b838b5681461de6&#45;&gt;dir_3d3615e9a999cab4f3407307569d6ced</title>
<path fill="none" stroke="black" d="M526.37,-96.46C464.45,-107.27 345.88,-137.54 288,-216 275.04,-233.57 272.98,-258.6 273.76,-277.65"/>
<polygon fill="black" stroke="black" points="270.28,-278.06 274.47,-287.79 277.27,-277.58 270.28,-278.06"/>
<g id="a_edge21&#45;headlabel"><a xlink:href="dir_000001_000012.html" target="_top" xlink:title="23">
<text text-anchor="middle" x="267.2" y="-272.17" font-family="Helvetica,sans-Serif" font-size="10.00">23</text>
</a>
</g>
</g>
<!-- dir_ebb19deee3cd40f4ac122fef25c04ca8&#45;&gt;dir_f2c65bfcbdc19ebacbfc0bbbfb0d01b6 -->
<g id="edge22" class="edge">
<title>dir_ebb19deee3cd40f4ac122fef25c04ca8&#45;&gt;dir_f2c65bfcbdc19ebacbfc0bbbfb0d01b6</title>
<path fill="none" stroke="black" d="M409.93,-215.88C423.66,-206.81 440.71,-195.55 455.54,-185.76"/>
<polygon fill="black" stroke="black" points="457.55,-188.62 463.97,-180.19 453.7,-182.78 457.55,-188.62"/>
<g id="a_edge22&#45;headlabel"><a xlink:href="dir_000009_000010.html" target="_top" xlink:title="2">
<text text-anchor="middle" x="456.12" y="-190.47" font-family="Helvetica,sans-Serif" font-size="10.00">2</text>
</a>
</g>
</g>
<!-- dir_ebb19deee3cd40f4ac122fef25c04ca8&#45;&gt;dir_3d3615e9a999cab4f3407307569d6ced -->
<g id="edge23" class="edge">
<title>dir_ebb19deee3cd40f4ac122fef25c04ca8&#45;&gt;dir_3d3615e9a999cab4f3407307569d6ced</title>
<path fill="none" stroke="black" d="M363.74,-252.11C349.33,-262.23 329.76,-275.09 312.79,-285.59"/>
<polygon fill="black" stroke="black" points="310.91,-282.63 304.2,-290.83 314.56,-288.61 310.91,-282.63"/>
<g id="a_edge23&#45;headlabel"><a xlink:href="dir_000009_000012.html" target="_top" xlink:title="8">
<text text-anchor="middle" x="312.5" y="-275.84" font-family="Helvetica,sans-Serif" font-size="10.00">8</text>
</a>
</g>
</g>
<!-- dir_e4cd57caa88bf1f4e1bf9521bc47c3c0&#45;&gt;dir_3d3615e9a999cab4f3407307569d6ced -->
<g id="edge24" class="edge">
<title>dir_e4cd57caa88bf1f4e1bf9521bc47c3c0&#45;&gt;dir_3d3615e9a999cab4f3407307569d6ced</title>
<path fill="none" stroke="black" d="M35.54,-359.81C41.83,-353.82 50.24,-347.69 59,-344 127.9,-315 153.61,-342.63 226,-324 230.61,-322.81 235.4,-321.24 240.13,-319.52"/>
<polygon fill="black" stroke="black" points="241.59,-322.71 249.69,-315.88 239.1,-316.16 241.59,-322.71"/>
<g id="a_edge24&#45;headlabel"><a xlink:href="dir_000008_000012.html" target="_top" xlink:title="19">
<text text-anchor="middle" x="239.24" y="-324.14" font-family="Helvetica,sans-Serif" font-size="10.00">19</text>
</a>
</g>
</g>
<!-- dir_a816a247b59c90f95e41afe29b966a18&#45;&gt;dir_3d3615e9a999cab4f3407307569d6ced -->
<g id="edge31" class="edge">
<title>dir_a816a247b59c90f95e41afe29b966a18&#45;&gt;dir_3d3615e9a999cab4f3407307569d6ced</title>
<path fill="none" stroke="black" d="M536.34,-28.66C487.13,-45.78 387.35,-85.29 320,-144 290.63,-169.6 281.64,-178.82 270,-216 263.69,-236.15 266.08,-260.07 269.7,-278.03"/>
<polygon fill="black" stroke="black" points="266.29,-278.86 271.91,-287.84 273.12,-277.32 266.29,-278.86"/>
<g id="a_edge31&#45;headlabel"><a xlink:href="dir_000018_000012.html" target="_top" xlink:title="1">
<text text-anchor="middle" x="262.73" y="-273.48" font-family="Helvetica,sans-Serif" font-size="10.00">1</text>
</a>
</g>
</g>
<!-- dir_3d3615e9a999cab4f3407307569d6ced&#45;&gt;dir_ebb19deee3cd40f4ac122fef25c04ca8 -->
<g id="edge34" class="edge">
<title>dir_3d3615e9a999cab4f3407307569d6ced&#45;&gt;dir_ebb19deee3cd40f4ac122fef25c04ca8</title>
<path fill="none" stroke="black" d="M297.28,-287.88C310.31,-278.72 327.56,-267.34 343.28,-257.48"/>
<polygon fill="black" stroke="black" points="345.17,-260.43 351.82,-252.19 341.48,-254.48 345.17,-260.43"/>
<g id="a_edge34&#45;headlabel"><a xlink:href="dir_000012_000009.html" target="_top" xlink:title="1">
<text text-anchor="middle" x="343.61" y="-262.24" font-family="Helvetica,sans-Serif" font-size="10.00">1</text>
</a>
</g>
</g>
<!-- dir_3d3615e9a999cab4f3407307569d6ced&#45;&gt;dir_e4cd57caa88bf1f4e1bf9521bc47c3c0 -->
<g id="edge35" class="edge">
<title>dir_3d3615e9a999cab4f3407307569d6ced&#45;&gt;dir_e4cd57caa88bf1f4e1bf9521bc47c3c0</title>
<path fill="none" stroke="black" d="M250,-322.28C247.99,-322.91 245.98,-323.49 244,-324 171.61,-342.63 145.9,-315 77,-344 71.25,-346.42 65.66,-349.89 60.37,-353.69"/>
<polygon fill="black" stroke="black" points="58.16,-350.97 52.33,-359.81 62.41,-356.54 58.16,-350.97"/>
<g id="a_edge35&#45;headlabel"><a xlink:href="dir_000012_000008.html" target="_top" xlink:title="1">
<text text-anchor="middle" x="59.3" y="-344.03" font-family="Helvetica,sans-Serif" font-size="10.00">1</text>
</a>
</g>
</g>
</g>
</svg>
