<?xml version="1.0" encoding="UTF-8" standalone="no"?>
<!DOCTYPE svg PUBLIC "-//W3C//DTD SVG 1.1//EN"
 "http://www.w3.org/Graphics/SVG/1.1/DTD/svg11.dtd">
<!-- Generated by graphviz version 2.43.0 (0)
 -->
<!-- Title: amr&#45;wind Pages: 1 -->
<!--zoomable 796 -->
<svg id="main" version="1.1" xmlns="http://www.w3.org/2000/svg" xmlns:xlink="http://www.w3.org/1999/xlink" xml:space="preserve" onload="init(evt)">
<style type="text/css"><![CDATA[
.edge:hover path { stroke: red; }
.edge:hover polygon { stroke: red; fill: red; }
]]></style>
<script type="text/javascript"><![CDATA[
var edges = document.getElementsByTagName('g');
if (edges && edges.length) {
  for (var i=0;i<edges.length;i++) {
    if (edges[i].id.substr(0,4)=='edge') {
      edges[i].setAttribute('class','edge');
    }
  }
}
]]></script>
        <defs>
                <circle id="rim" cx="0" cy="0" r="7"/>
                <circle id="rim2" cx="0" cy="0" r="3.5"/>
                <g id="zoomPlus">
                        <use xlink:href="#rim" fill="#404040">
                                <set attributeName="fill" to="#808080" begin="zoomplus.mouseover" end="zoomplus.mouseout"/>
                        </use>
                        <path d="M-4,0h8M0,-4v8" fill="none" stroke="white" stroke-width="1.5" pointer-events="none"/>
                </g>
                <g id="zoomMin">
                        <use xlink:href="#rim" fill="#404040">
                                <set attributeName="fill" to="#808080" begin="zoomminus.mouseover" end="zoomminus.mouseout"/>
                        </use>
                        <path d="M-4,0h8" fill="none" stroke="white" stroke-width="1.5" pointer-events="none"/>
                </g>
                <g id="dirArrow">
                        <path fill="none" stroke="white" stroke-width="1.5" d="M0,-3.0v7 M-2.5,-0.5L0,-3.0L2.5,-0.5"/>
                </g>
               <g id="resetDef">
                       <use xlink:href="#rim2" fill="#404040">
                               <set attributeName="fill" to="#808080" begin="reset.mouseover" end="reset.mouseout"/>
                       </use>
               </g>
        </defs>

<script type="text/javascript">
var viewWidth = 640;
var viewHeight = 796;
var sectionId = 'dynsection-0';
</script>
<script xlink:href="svgpan.js"/>
<svg id="graph" class="graph">
<g id="viewport">
<title>amr&#45;wind</title>
<polygon fill="white" stroke="transparent" points="-4,4 -4,-792 636,-792 636,4 -4,4"/>
<g id="clust1" class="cluster">
<title>clusterdir_d85575251dd712327fe3cf057fa568b4</title>
<g id="a_clust1"><a xlink:href="dir_d85575251dd712327fe3cf057fa568b4.html" target="_top">
<polygon fill="#eeeeff" stroke="black" points="8,-8 8,-780 624,-780 624,-8 8,-8"/>
</a>
</g>
</g>
<!-- dir_d85575251dd712327fe3cf057fa568b4 -->
<g id="node1" class="node">
<title>dir_d85575251dd712327fe3cf057fa568b4</title>
<text text-anchor="middle" x="147" y="-751.5" font-family="Helvetica,sans-Serif" font-size="10.00">amr&#45;wind</text>
</g>
<!-- dir_4bb30ed846ea1df1fc4d16874a455d91 -->
<g id="node7" class="node">
<title>dir_4bb30ed846ea1df1fc4d16874a455d91</title>
<g id="a_node7"><a xlink:href="dir_4bb30ed846ea1df1fc4d16874a455d91.html" target="_top" xlink:title="equation_systems">
<polygon fill="white" stroke="red" points="312,-628 206,-628 206,-592 312,-592 312,-628"/>
<text text-anchor="middle" x="259" y="-607.5" font-family="Helvetica,sans-Serif" font-size="10.00">equation_systems</text>
</a>
</g>
</g>
<!-- dir_d85575251dd712327fe3cf057fa568b4&#45;&gt;dir_4bb30ed846ea1df1fc4d16874a455d91 -->
<g id="edge12" class="edge">
<title>dir_d85575251dd712327fe3cf057fa568b4&#45;&gt;dir_4bb30ed846ea1df1fc4d16874a455d91</title>
<path fill="none" stroke="black" d="M160.51,-735.87C180.1,-711.03 216.53,-664.85 239.17,-636.14"/>
<polygon fill="black" stroke="black" points="242,-638.21 245.44,-628.19 236.5,-633.87 242,-638.21"/>
<g id="a_edge12&#45;headlabel"><a xlink:href="dir_000000_000002.html" target="_top" xlink:title="23">
<text text-anchor="middle" x="242" y="-640.29" font-family="Helvetica,sans-Serif" font-size="10.00">23</text>
</a>
</g>
</g>
<!-- dir_629222d9fcf2f4ceefae477297f2ec84 -->
<g id="node9" class="node">
<title>dir_629222d9fcf2f4ceefae477297f2ec84</title>
<g id="a_node9"><a xlink:href="dir_629222d9fcf2f4ceefae477297f2ec84.html" target="_top" xlink:title="overset">
<polygon fill="white" stroke="black" points="82,-700 28,-700 28,-664 82,-664 82,-700"/>
<text text-anchor="middle" x="55" y="-679.5" font-family="Helvetica,sans-Serif" font-size="10.00">overset</text>
</a>
</g>
</g>
<!-- dir_d85575251dd712327fe3cf057fa568b4&#45;&gt;dir_629222d9fcf2f4ceefae477297f2ec84 -->
<g id="edge10" class="edge">
<title>dir_d85575251dd712327fe3cf057fa568b4&#45;&gt;dir_629222d9fcf2f4ceefae477297f2ec84</title>
<path fill="none" stroke="black" d="M124.26,-735.7C112.56,-726.8 98.14,-715.82 85.49,-706.2"/>
<polygon fill="black" stroke="black" points="87.56,-703.37 77.48,-700.1 83.32,-708.94 87.56,-703.37"/>
<g id="a_edge10&#45;headlabel"><a xlink:href="dir_000000_000037.html" target="_top" xlink:title="2">
<text text-anchor="middle" x="92.14" y="-700.79" font-family="Helvetica,sans-Serif" font-size="10.00">2</text>
</a>
</g>
</g>
<!-- dir_9ff815a534beac751fa88e427dbab695 -->
<g id="node14" class="node">
<title>dir_9ff815a534beac751fa88e427dbab695</title>
<g id="a_node14"><a xlink:href="dir_9ff815a534beac751fa88e427dbab695.html" target="_top" xlink:title="turbulence">
<polygon fill="white" stroke="red" points="539,-556 471,-556 471,-520 539,-520 539,-556"/>
<text text-anchor="middle" x="505" y="-535.5" font-family="Helvetica,sans-Serif" font-size="10.00">turbulence</text>
</a>
</g>
</g>
<!-- dir_d85575251dd712327fe3cf057fa568b4&#45;&gt;dir_9ff815a534beac751fa88e427dbab695 -->
<g id="edge9" class="edge">
<title>dir_d85575251dd712327fe3cf057fa568b4&#45;&gt;dir_9ff815a534beac751fa88e427dbab695</title>
<path fill="none" stroke="black" d="M175.69,-735.85C239.97,-697.42 395.53,-604.44 467.42,-561.46"/>
<polygon fill="black" stroke="black" points="469.38,-564.37 476.17,-556.23 465.79,-558.36 469.38,-564.37"/>
<g id="a_edge9&#45;headlabel"><a xlink:href="dir_000000_000026.html" target="_top" xlink:title="6">
<text text-anchor="middle" x="467.76" y="-566.15" font-family="Helvetica,sans-Serif" font-size="10.00">6</text>
</a>
</g>
</g>
<!-- dir_0c368f76a33d967d5b838b5681461de6 -->
<g id="node16" class="node">
<title>dir_0c368f76a33d967d5b838b5681461de6</title>
<g id="a_node16"><a xlink:href="dir_0c368f76a33d967d5b838b5681461de6.html" target="_top" xlink:title="wind_energy">
<polygon fill="white" stroke="red" points="226.5,-340 147.5,-340 147.5,-304 226.5,-304 226.5,-340"/>
<text text-anchor="middle" x="187" y="-319.5" font-family="Helvetica,sans-Serif" font-size="10.00">wind_energy</text>
</a>
</g>
</g>
<!-- dir_d85575251dd712327fe3cf057fa568b4&#45;&gt;dir_0c368f76a33d967d5b838b5681461de6 -->
<g id="edge11" class="edge">
<title>dir_d85575251dd712327fe3cf057fa568b4&#45;&gt;dir_0c368f76a33d967d5b838b5681461de6</title>
<path fill="none" stroke="black" d="M137.47,-735.66C124,-709.47 101,-657.9 101,-611 101,-611 101,-611 101,-465 101,-418.31 135.44,-373.84 160.73,-347.49"/>
<polygon fill="black" stroke="black" points="163.37,-349.8 167.91,-340.23 158.39,-344.88 163.37,-349.8"/>
<g id="a_edge11&#45;headlabel"><a xlink:href="dir_000000_000001.html" target="_top" xlink:title="10">
<text text-anchor="middle" x="162.86" y="-351.85" font-family="Helvetica,sans-Serif" font-size="10.00">10</text>
</a>
</g>
</g>
<!-- dir_ebb19deee3cd40f4ac122fef25c04ca8 -->
<g id="node2" class="node">
<title>dir_ebb19deee3cd40f4ac122fef25c04ca8</title>
<g id="a_node2"><a xlink:href="dir_ebb19deee3cd40f4ac122fef25c04ca8.html" target="_top" xlink:title="boundary_conditions">
<polygon fill="white" stroke="black" points="416,-484 298,-484 298,-448 416,-448 416,-484"/>
<text text-anchor="middle" x="357" y="-463.5" font-family="Helvetica,sans-Serif" font-size="10.00">boundary_conditions</text>
</a>
</g>
</g>
<!-- dir_3d3615e9a999cab4f3407307569d6ced -->
<g id="node4" class="node">
<title>dir_3d3615e9a999cab4f3407307569d6ced</title>
<g id="a_node4"><a xlink:href="dir_3d3615e9a999cab4f3407307569d6ced.html" target="_top" xlink:title="core">
<polygon fill="white" stroke="red" points="405,-196 351,-196 351,-160 405,-160 405,-196"/>
<text text-anchor="middle" x="378" y="-175.5" font-family="Helvetica,sans-Serif" font-size="10.00">core</text>
</a>
</g>
</g>
<!-- dir_ebb19deee3cd40f4ac122fef25c04ca8&#45;&gt;dir_3d3615e9a999cab4f3407307569d6ced -->
<g id="edge29" class="edge">
<title>dir_ebb19deee3cd40f4ac122fef25c04ca8&#45;&gt;dir_3d3615e9a999cab4f3407307569d6ced</title>
<path fill="none" stroke="black" d="M370.99,-447.84C401.21,-416.27 470.27,-345.1 496,-268 501.07,-252.82 504.87,-245.32 496,-232 477.79,-204.67 442.53,-191.41 415.16,-184.99"/>
<polygon fill="black" stroke="black" points="415.63,-181.51 405.12,-182.85 414.17,-188.36 415.63,-181.51"/>
<g id="a_edge29&#45;headlabel"><a xlink:href="dir_000009_000012.html" target="_top" xlink:title="8">
<text text-anchor="middle" x="419.73" y="-176.98" font-family="Helvetica,sans-Serif" font-size="10.00">8</text>
</a>
</g>
</g>
<!-- dir_f2c65bfcbdc19ebacbfc0bbbfb0d01b6 -->
<g id="node10" class="node">
<title>dir_f2c65bfcbdc19ebacbfc0bbbfb0d01b6</title>
<g id="a_node10"><a xlink:href="dir_f2c65bfcbdc19ebacbfc0bbbfb0d01b6.html" target="_top" xlink:title="physics">
<polygon fill="white" stroke="red" points="358,-412 304,-412 304,-376 358,-376 358,-412"/>
<text text-anchor="middle" x="331" y="-391.5" font-family="Helvetica,sans-Serif" font-size="10.00">physics</text>
</a>
</g>
</g>
<!-- dir_ebb19deee3cd40f4ac122fef25c04ca8&#45;&gt;dir_f2c65bfcbdc19ebacbfc0bbbfb0d01b6 -->
<g id="edge28" class="edge">
<title>dir_ebb19deee3cd40f4ac122fef25c04ca8&#45;&gt;dir_f2c65bfcbdc19ebacbfc0bbbfb0d01b6</title>
<path fill="none" stroke="black" d="M350.57,-447.7C347.64,-439.81 344.11,-430.3 340.86,-421.55"/>
<polygon fill="black" stroke="black" points="344.12,-420.26 337.35,-412.1 337.55,-422.7 344.12,-420.26"/>
<g id="a_edge28&#45;headlabel"><a xlink:href="dir_000009_000010.html" target="_top" xlink:title="2">
<text text-anchor="middle" x="348.03" y="-420.14" font-family="Helvetica,sans-Serif" font-size="10.00">2</text>
</a>
</g>
</g>
<!-- dir_35ffb1505af3943bdf99903da87524fe -->
<g id="node3" class="node">
<title>dir_35ffb1505af3943bdf99903da87524fe</title>
<g id="a_node3"><a xlink:href="dir_35ffb1505af3943bdf99903da87524fe.html" target="_top" xlink:title="convection">
<polygon fill="white" stroke="black" points="146,-268 76,-268 76,-232 146,-232 146,-268"/>
<text text-anchor="middle" x="111" y="-247.5" font-family="Helvetica,sans-Serif" font-size="10.00">convection</text>
</a>
</g>
</g>
<!-- dir_35ffb1505af3943bdf99903da87524fe&#45;&gt;dir_3d3615e9a999cab4f3407307569d6ced -->
<g id="edge22" class="edge">
<title>dir_35ffb1505af3943bdf99903da87524fe&#45;&gt;dir_3d3615e9a999cab4f3407307569d6ced</title>
<path fill="none" stroke="black" d="M146.2,-236.34C150.82,-234.81 155.51,-233.32 160,-232 222.96,-213.47 297.48,-196.37 341.07,-186.85"/>
<polygon fill="black" stroke="black" points="341.9,-190.25 350.93,-184.71 340.42,-183.41 341.9,-190.25"/>
<g id="a_edge22&#45;headlabel"><a xlink:href="dir_000022_000012.html" target="_top" xlink:title="2">
<text text-anchor="middle" x="338.99" y="-191.29" font-family="Helvetica,sans-Serif" font-size="10.00">2</text>
</a>
</g>
</g>
<!-- dir_e4cd57caa88bf1f4e1bf9521bc47c3c0 -->
<g id="node15" class="node">
<title>dir_e4cd57caa88bf1f4e1bf9521bc47c3c0</title>
<g id="a_node15"><a xlink:href="dir_e4cd57caa88bf1f4e1bf9521bc47c3c0.html" target="_top" xlink:title="utilities">
<polygon fill="white" stroke="red" points="252,-124 198,-124 198,-88 252,-88 252,-124"/>
<text text-anchor="middle" x="225" y="-103.5" font-family="Helvetica,sans-Serif" font-size="10.00">utilities</text>
</a>
</g>
</g>
<!-- dir_35ffb1505af3943bdf99903da87524fe&#45;&gt;dir_e4cd57caa88bf1f4e1bf9521bc47c3c0 -->
<g id="edge21" class="edge">
<title>dir_35ffb1505af3943bdf99903da87524fe&#45;&gt;dir_e4cd57caa88bf1f4e1bf9521bc47c3c0</title>
<path fill="none" stroke="black" d="M124,-231.76C137.71,-213.7 160.04,-184.59 180,-160 187.57,-150.67 196.06,-140.58 203.6,-131.74"/>
<polygon fill="black" stroke="black" points="206.36,-133.89 210.21,-124.02 201.05,-129.34 206.36,-133.89"/>
<g id="a_edge21&#45;headlabel"><a xlink:href="dir_000022_000008.html" target="_top" xlink:title="3">
<text text-anchor="middle" x="206.18" y="-135.97" font-family="Helvetica,sans-Serif" font-size="10.00">3</text>
</a>
</g>
</g>
<!-- dir_3d3615e9a999cab4f3407307569d6ced&#45;&gt;dir_ebb19deee3cd40f4ac122fef25c04ca8 -->
<g id="edge47" class="edge">
<title>dir_3d3615e9a999cab4f3407307569d6ced&#45;&gt;dir_ebb19deee3cd40f4ac122fef25c04ca8</title>
<path fill="none" stroke="black" d="M405.04,-180.84C437.64,-184.68 490.29,-196.41 514,-232 522.87,-245.32 519.07,-252.82 514,-268 489.98,-339.98 428.19,-406.79 389.51,-441.04"/>
<polygon fill="black" stroke="black" points="386.91,-438.66 381.63,-447.84 391.48,-443.96 386.91,-438.66"/>
<g id="a_edge47&#45;headlabel"><a xlink:href="dir_000012_000009.html" target="_top" xlink:title="1">
<text text-anchor="middle" x="387.78" y="-431.66" font-family="Helvetica,sans-Serif" font-size="10.00">1</text>
</a>
</g>
</g>
<!-- dir_3d3615e9a999cab4f3407307569d6ced&#45;&gt;dir_e4cd57caa88bf1f4e1bf9521bc47c3c0 -->
<g id="edge48" class="edge">
<title>dir_3d3615e9a999cab4f3407307569d6ced&#45;&gt;dir_e4cd57caa88bf1f4e1bf9521bc47c3c0</title>
<path fill="none" stroke="black" d="M350.82,-166.82C325.84,-156.27 288.84,-139.53 261.35,-126.43"/>
<polygon fill="black" stroke="black" points="262.59,-123.14 252.06,-121.97 259.56,-129.45 262.59,-123.14"/>
<g id="a_edge48&#45;headlabel"><a xlink:href="dir_000012_000008.html" target="_top" xlink:title="1">
<text text-anchor="middle" x="267.06" y="-119.64" font-family="Helvetica,sans-Serif" font-size="10.00">1</text>
</a>
</g>
</g>
<!-- dir_63a0b6c750cdf58b4c6ba486311e48e1 -->
<g id="node5" class="node">
<title>dir_63a0b6c750cdf58b4c6ba486311e48e1</title>
<g id="a_node5"><a xlink:href="dir_63a0b6c750cdf58b4c6ba486311e48e1.html" target="_top" xlink:title="derive">
<polygon fill="white" stroke="black" points="496,-268 442,-268 442,-232 496,-232 496,-268"/>
<text text-anchor="middle" x="469" y="-247.5" font-family="Helvetica,sans-Serif" font-size="10.00">derive</text>
</a>
</g>
</g>
<!-- dir_63a0b6c750cdf58b4c6ba486311e48e1&#45;&gt;dir_3d3615e9a999cab4f3407307569d6ced -->
<g id="edge30" class="edge">
<title>dir_63a0b6c750cdf58b4c6ba486311e48e1&#45;&gt;dir_3d3615e9a999cab4f3407307569d6ced</title>
<path fill="none" stroke="black" d="M446.51,-231.7C435.04,-222.88 420.94,-212.03 408.52,-202.47"/>
<polygon fill="black" stroke="black" points="410.3,-199.43 400.24,-196.1 406.03,-204.98 410.3,-199.43"/>
<g id="a_edge30&#45;headlabel"><a xlink:href="dir_000017_000012.html" target="_top" xlink:title="1">
<text text-anchor="middle" x="414.88" y="-196.87" font-family="Helvetica,sans-Serif" font-size="10.00">1</text>
</a>
</g>
</g>
<!-- dir_a816a247b59c90f95e41afe29b966a18 -->
<g id="node6" class="node">
<title>dir_a816a247b59c90f95e41afe29b966a18</title>
<g id="a_node6"><a xlink:href="dir_a816a247b59c90f95e41afe29b966a18.html" target="_top" xlink:title="diffusion">
<polygon fill="white" stroke="black" points="383.5,-268 324.5,-268 324.5,-232 383.5,-232 383.5,-268"/>
<text text-anchor="middle" x="354" y="-247.5" font-family="Helvetica,sans-Serif" font-size="10.00">diffusion</text>
</a>
</g>
</g>
<!-- dir_a816a247b59c90f95e41afe29b966a18&#45;&gt;dir_3d3615e9a999cab4f3407307569d6ced -->
<g id="edge38" class="edge">
<title>dir_a816a247b59c90f95e41afe29b966a18&#45;&gt;dir_3d3615e9a999cab4f3407307569d6ced</title>
<path fill="none" stroke="black" d="M359.93,-231.7C362.61,-223.9 365.83,-214.51 368.8,-205.83"/>
<polygon fill="black" stroke="black" points="372.2,-206.7 372.14,-196.1 365.58,-204.43 372.2,-206.7"/>
<g id="a_edge38&#45;headlabel"><a xlink:href="dir_000018_000012.html" target="_top" xlink:title="1">
<text text-anchor="middle" x="373.72" y="-208.52" font-family="Helvetica,sans-Serif" font-size="10.00">1</text>
</a>
</g>
</g>
<!-- dir_4bb30ed846ea1df1fc4d16874a455d91&#45;&gt;dir_ebb19deee3cd40f4ac122fef25c04ca8 -->
<g id="edge43" class="edge">
<title>dir_4bb30ed846ea1df1fc4d16874a455d91&#45;&gt;dir_ebb19deee3cd40f4ac122fef25c04ca8</title>
<path fill="none" stroke="black" d="M270.82,-591.87C287.89,-567.14 319.57,-521.24 339.39,-492.51"/>
<polygon fill="black" stroke="black" points="342.34,-494.41 345.14,-484.19 336.58,-490.43 342.34,-494.41"/>
<g id="a_edge43&#45;headlabel"><a xlink:href="dir_000002_000009.html" target="_top" xlink:title="2">
<text text-anchor="middle" x="342.63" y="-496.48" font-family="Helvetica,sans-Serif" font-size="10.00">2</text>
</a>
</g>
</g>
<!-- dir_4bb30ed846ea1df1fc4d16874a455d91&#45;&gt;dir_35ffb1505af3943bdf99903da87524fe -->
<g id="edge41" class="edge">
<title>dir_4bb30ed846ea1df1fc4d16874a455d91&#45;&gt;dir_35ffb1505af3943bdf99903da87524fe</title>
<path fill="none" stroke="black" d="M222.63,-591.92C207.27,-583.1 190.35,-571.02 179,-556 114.45,-470.63 109,-335.7 109.9,-278.3"/>
<polygon fill="black" stroke="black" points="113.4,-278.28 110.14,-268.2 106.41,-278.12 113.4,-278.28"/>
<g id="a_edge41&#45;headlabel"><a xlink:href="dir_000002_000022.html" target="_top" xlink:title="2">
<text text-anchor="middle" x="116.16" y="-279.44" font-family="Helvetica,sans-Serif" font-size="10.00">2</text>
</a>
</g>
</g>
<!-- dir_4bb30ed846ea1df1fc4d16874a455d91&#45;&gt;dir_3d3615e9a999cab4f3407307569d6ced -->
<g id="edge46" class="edge">
<title>dir_4bb30ed846ea1df1fc4d16874a455d91&#45;&gt;dir_3d3615e9a999cab4f3407307569d6ced</title>
<path fill="none" stroke="black" d="M291.24,-591.85C328.06,-570.82 387.98,-531.99 425,-484 440.8,-463.51 507.23,-293.43 512,-268 514.95,-252.27 521,-245.23 512,-232 490.52,-200.4 446.97,-187.64 415.33,-182.49"/>
<polygon fill="black" stroke="black" points="415.51,-178.98 405.11,-181.02 414.51,-185.91 415.51,-178.98"/>
<g id="a_edge46&#45;headlabel"><a xlink:href="dir_000002_000012.html" target="_top" xlink:title="54">
<text text-anchor="middle" x="419.47" y="-174.18" font-family="Helvetica,sans-Serif" font-size="10.00">54</text>
</a>
</g>
</g>
<!-- dir_4bb30ed846ea1df1fc4d16874a455d91&#45;&gt;dir_a816a247b59c90f95e41afe29b966a18 -->
<g id="edge45" class="edge">
<title>dir_4bb30ed846ea1df1fc4d16874a455d91&#45;&gt;dir_a816a247b59c90f95e41afe29b966a18</title>
<path fill="none" stroke="black" d="M260.22,-591.93C263.14,-555.23 271.63,-470.33 289,-448 312.45,-417.87 346.42,-444.16 367,-412 393.16,-371.11 378,-311.91 365.44,-277.86"/>
<polygon fill="black" stroke="black" points="368.55,-276.2 361.67,-268.14 362.02,-278.73 368.55,-276.2"/>
<g id="a_edge45&#45;headlabel"><a xlink:href="dir_000002_000018.html" target="_top" xlink:title="1">
<text text-anchor="middle" x="372.5" y="-276.02" font-family="Helvetica,sans-Serif" font-size="10.00">1</text>
</a>
</g>
</g>
<!-- dir_4bb30ed846ea1df1fc4d16874a455d91&#45;&gt;dir_f2c65bfcbdc19ebacbfc0bbbfb0d01b6 -->
<g id="edge40" class="edge">
<title>dir_4bb30ed846ea1df1fc4d16874a455d91&#45;&gt;dir_f2c65bfcbdc19ebacbfc0bbbfb0d01b6</title>
<path fill="none" stroke="black" d="M251.46,-591.96C244.59,-561.36 241.45,-495.86 265,-448 271.74,-434.31 283.62,-422.38 295.58,-413.33"/>
<polygon fill="black" stroke="black" points="297.64,-416.15 303.8,-407.53 293.61,-410.43 297.64,-416.15"/>
<g id="a_edge40&#45;headlabel"><a xlink:href="dir_000002_000010.html" target="_top" xlink:title="2">
<text text-anchor="middle" x="296.34" y="-418.04" font-family="Helvetica,sans-Serif" font-size="10.00">2</text>
</a>
</g>
</g>
<!-- dir_4bb30ed846ea1df1fc4d16874a455d91&#45;&gt;dir_9ff815a534beac751fa88e427dbab695 -->
<g id="edge39" class="edge">
<title>dir_4bb30ed846ea1df1fc4d16874a455d91&#45;&gt;dir_9ff815a534beac751fa88e427dbab695</title>
<path fill="none" stroke="black" d="M312.06,-592.23C356.49,-579.19 419.04,-561.47 460.8,-550.13"/>
<polygon fill="black" stroke="black" points="461.94,-553.44 470.69,-547.46 460.12,-546.69 461.94,-553.44"/>
<g id="a_edge39&#45;headlabel"><a xlink:href="dir_000002_000026.html" target="_top" xlink:title="4">
<text text-anchor="middle" x="459.21" y="-554.62" font-family="Helvetica,sans-Serif" font-size="10.00">4</text>
</a>
</g>
</g>
<!-- dir_4bb30ed846ea1df1fc4d16874a455d91&#45;&gt;dir_e4cd57caa88bf1f4e1bf9521bc47c3c0 -->
<g id="edge44" class="edge">
<title>dir_4bb30ed846ea1df1fc4d16874a455d91&#45;&gt;dir_e4cd57caa88bf1f4e1bf9521bc47c3c0</title>
<path fill="none" stroke="black" d="M205.67,-592.54C152.28,-572.36 78,-532.5 78,-467 78,-467 78,-467 78,-393 78,-321.28 37.42,-297.34 67,-232 90.8,-179.42 149.57,-142.69 188.33,-123.22"/>
<polygon fill="black" stroke="black" points="190.27,-126.17 197.72,-118.64 187.2,-119.88 190.27,-126.17"/>
<g id="a_edge44&#45;headlabel"><a xlink:href="dir_000002_000008.html" target="_top" xlink:title="8">
<text text-anchor="middle" x="188.28" y="-127.8" font-family="Helvetica,sans-Serif" font-size="10.00">8</text>
</a>
</g>
</g>
<!-- dir_4bb30ed846ea1df1fc4d16874a455d91&#45;&gt;dir_0c368f76a33d967d5b838b5681461de6 -->
<g id="edge42" class="edge">
<title>dir_4bb30ed846ea1df1fc4d16874a455d91&#45;&gt;dir_0c368f76a33d967d5b838b5681461de6</title>
<path fill="none" stroke="black" d="M234.18,-591.68C209.02,-569.32 172.46,-528.03 158,-484 143.03,-438.41 156.84,-382.19 170.41,-349.68"/>
<polygon fill="black" stroke="black" points="173.68,-350.95 174.58,-340.39 167.3,-348.08 173.68,-350.95"/>
<g id="a_edge42&#45;headlabel"><a xlink:href="dir_000002_000001.html" target="_top" xlink:title="3">
<text text-anchor="middle" x="174.8" y="-352.89" font-family="Helvetica,sans-Serif" font-size="10.00">3</text>
</a>
</g>
</g>
<!-- dir_7f7a014517bfe31ea45620a6a947e37b -->
<g id="node8" class="node">
<title>dir_7f7a014517bfe31ea45620a6a947e37b</title>
<g id="a_node8"><a xlink:href="dir_7f7a014517bfe31ea45620a6a947e37b.html" target="_top" xlink:title="fvm">
<polygon fill="white" stroke="black" points="332,-52 278,-52 278,-16 332,-16 332,-52"/>
<text text-anchor="middle" x="305" y="-31.5" font-family="Helvetica,sans-Serif" font-size="10.00">fvm</text>
</a>
</g>
</g>
<!-- dir_7f7a014517bfe31ea45620a6a947e37b&#45;&gt;dir_3d3615e9a999cab4f3407307569d6ced -->
<g id="edge37" class="edge">
<title>dir_7f7a014517bfe31ea45620a6a947e37b&#45;&gt;dir_3d3615e9a999cab4f3407307569d6ced</title>
<path fill="none" stroke="black" d="M313.84,-52.19C326.46,-76.74 349.76,-122.07 364.54,-150.81"/>
<polygon fill="black" stroke="black" points="361.51,-152.58 369.19,-159.87 367.74,-149.38 361.51,-152.58"/>
<g id="a_edge37&#45;headlabel"><a xlink:href="dir_000014_000012.html" target="_top" xlink:title="1">
<text text-anchor="middle" x="357.34" y="-148.18" font-family="Helvetica,sans-Serif" font-size="10.00">1</text>
</a>
</g>
</g>
<!-- dir_629222d9fcf2f4ceefae477297f2ec84&#45;&gt;dir_3d3615e9a999cab4f3407307569d6ced -->
<g id="edge20" class="edge">
<title>dir_629222d9fcf2f4ceefae477297f2ec84&#45;&gt;dir_3d3615e9a999cab4f3407307569d6ced</title>
<path fill="none" stroke="black" d="M55.59,-663.95C56.47,-637.3 58,-584.12 58,-539 58,-539 58,-539 58,-393 58,-286.66 141.64,-282.91 235,-232 269.21,-213.35 311.34,-198.63 340.98,-189.48"/>
<polygon fill="black" stroke="black" points="342.35,-192.72 350.91,-186.48 340.32,-186.02 342.35,-192.72"/>
<g id="a_edge20&#45;headlabel"><a xlink:href="dir_000037_000012.html" target="_top" xlink:title="3">
<text text-anchor="middle" x="339.73" y="-193.98" font-family="Helvetica,sans-Serif" font-size="10.00">3</text>
</a>
</g>
</g>
<!-- dir_629222d9fcf2f4ceefae477297f2ec84&#45;&gt;dir_4bb30ed846ea1df1fc4d16874a455d91 -->
<g id="edge19" class="edge">
<title>dir_629222d9fcf2f4ceefae477297f2ec84&#45;&gt;dir_4bb30ed846ea1df1fc4d16874a455d91</title>
<path fill="none" stroke="black" d="M82.09,-671.7C111.96,-661.45 160.95,-644.65 199.8,-631.31"/>
<polygon fill="black" stroke="black" points="201.12,-634.56 209.45,-628 198.85,-627.94 201.12,-634.56"/>
<g id="a_edge19&#45;headlabel"><a xlink:href="dir_000037_000002.html" target="_top" xlink:title="1">
<text text-anchor="middle" x="198.65" y="-635.91" font-family="Helvetica,sans-Serif" font-size="10.00">1</text>
</a>
</g>
</g>
<!-- dir_629222d9fcf2f4ceefae477297f2ec84&#45;&gt;dir_e4cd57caa88bf1f4e1bf9521bc47c3c0 -->
<g id="edge18" class="edge">
<title>dir_629222d9fcf2f4ceefae477297f2ec84&#45;&gt;dir_e4cd57caa88bf1f4e1bf9521bc47c3c0</title>
<path fill="none" stroke="black" d="M47.31,-663.91C36.21,-637.62 17,-585.45 17,-539 17,-539 17,-539 17,-249 17,-167.16 128.19,-129.09 187.98,-114.53"/>
<polygon fill="black" stroke="black" points="188.87,-117.91 197.81,-112.23 187.27,-111.1 188.87,-117.91"/>
<g id="a_edge18&#45;headlabel"><a xlink:href="dir_000037_000008.html" target="_top" xlink:title="1">
<text text-anchor="middle" x="186.01" y="-119" font-family="Helvetica,sans-Serif" font-size="10.00">1</text>
</a>
</g>
</g>
<!-- dir_f2c65bfcbdc19ebacbfc0bbbfb0d01b6&#45;&gt;dir_3d3615e9a999cab4f3407307569d6ced -->
<g id="edge17" class="edge">
<title>dir_f2c65bfcbdc19ebacbfc0bbbfb0d01b6&#45;&gt;dir_3d3615e9a999cab4f3407307569d6ced</title>
<path fill="none" stroke="black" d="M345.92,-375.88C364.68,-353.08 395.91,-310.67 408,-268 412.36,-252.61 412.08,-247.47 408,-232 405.51,-222.54 400.9,-212.99 396.03,-204.66"/>
<polygon fill="black" stroke="black" points="398.99,-202.79 390.73,-196.15 393.05,-206.49 398.99,-202.79"/>
<g id="a_edge17&#45;headlabel"><a xlink:href="dir_000010_000012.html" target="_top" xlink:title="45">
<text text-anchor="middle" x="403.3" y="-201.84" font-family="Helvetica,sans-Serif" font-size="10.00">45</text>
</a>
</g>
</g>
<!-- dir_f2c65bfcbdc19ebacbfc0bbbfb0d01b6&#45;&gt;dir_4bb30ed846ea1df1fc4d16874a455d91 -->
<g id="edge16" class="edge">
<title>dir_f2c65bfcbdc19ebacbfc0bbbfb0d01b6&#45;&gt;dir_4bb30ed846ea1df1fc4d16874a455d91</title>
<path fill="none" stroke="black" d="M313.42,-412.13C302.7,-421.32 290.04,-433.69 283,-448 261.84,-491 262.23,-548.24 262.17,-581.61"/>
<polygon fill="black" stroke="black" points="258.67,-581.93 262.1,-591.96 265.67,-581.98 258.67,-581.93"/>
<g id="a_edge16&#45;headlabel"><a xlink:href="dir_000010_000002.html" target="_top" xlink:title="4">
<text text-anchor="middle" x="255.85" y="-575.82" font-family="Helvetica,sans-Serif" font-size="10.00">4</text>
</a>
</g>
</g>
<!-- dir_f2c65bfcbdc19ebacbfc0bbbfb0d01b6&#45;&gt;dir_7f7a014517bfe31ea45620a6a947e37b -->
<g id="edge15" class="edge">
<title>dir_f2c65bfcbdc19ebacbfc0bbbfb0d01b6&#45;&gt;dir_7f7a014517bfe31ea45620a6a947e37b</title>
<path fill="none" stroke="black" d="M328.52,-375.65C325.16,-351.55 319.22,-306.55 316,-268 309.8,-193.78 306.83,-105.95 305.65,-62.36"/>
<polygon fill="black" stroke="black" points="309.15,-62.18 305.39,-52.27 302.15,-62.36 309.15,-62.18"/>
<g id="a_edge15&#45;headlabel"><a xlink:href="dir_000010_000014.html" target="_top" xlink:title="4">
<text text-anchor="middle" x="312.08" y="-63.2" font-family="Helvetica,sans-Serif" font-size="10.00">4</text>
</a>
</g>
</g>
<!-- dir_f2c65bfcbdc19ebacbfc0bbbfb0d01b6&#45;&gt;dir_e4cd57caa88bf1f4e1bf9521bc47c3c0 -->
<g id="edge14" class="edge">
<title>dir_f2c65bfcbdc19ebacbfc0bbbfb0d01b6&#45;&gt;dir_e4cd57caa88bf1f4e1bf9521bc47c3c0</title>
<path fill="none" stroke="black" d="M324.69,-375.97C306.94,-328.09 256.53,-192.06 234.97,-133.9"/>
<polygon fill="black" stroke="black" points="238.17,-132.47 231.41,-124.31 231.61,-134.9 238.17,-132.47"/>
<g id="a_edge14&#45;headlabel"><a xlink:href="dir_000010_000008.html" target="_top" xlink:title="9">
<text text-anchor="middle" x="242.08" y="-132.35" font-family="Helvetica,sans-Serif" font-size="10.00">9</text>
</a>
</g>
</g>
<!-- dir_f2c65bfcbdc19ebacbfc0bbbfb0d01b6&#45;&gt;dir_0c368f76a33d967d5b838b5681461de6 -->
<g id="edge13" class="edge">
<title>dir_f2c65bfcbdc19ebacbfc0bbbfb0d01b6&#45;&gt;dir_0c368f76a33d967d5b838b5681461de6</title>
<path fill="none" stroke="black" d="M303.91,-379.83C283.49,-369.9 255.03,-356.07 231.31,-344.54"/>
<polygon fill="black" stroke="black" points="232.66,-341.31 222.14,-340.08 229.6,-347.6 232.66,-341.31"/>
<g id="a_edge13&#45;headlabel"><a xlink:href="dir_000010_000001.html" target="_top" xlink:title="1">
<text text-anchor="middle" x="237.14" y="-337.82" font-family="Helvetica,sans-Serif" font-size="10.00">1</text>
</a>
</g>
</g>
<!-- dir_d599e6111b2fbf4fd47cd3a4f2a09da4 -->
<g id="node11" class="node">
<title>dir_d599e6111b2fbf4fd47cd3a4f2a09da4</title>
<g id="a_node11"><a xlink:href="dir_d599e6111b2fbf4fd47cd3a4f2a09da4.html" target="_top" xlink:title="projection">
<polygon fill="white" stroke="black" points="265.5,-412 200.5,-412 200.5,-376 265.5,-376 265.5,-412"/>
<text text-anchor="middle" x="233" y="-391.5" font-family="Helvetica,sans-Serif" font-size="10.00">projection</text>
</a>
</g>
</g>
<!-- dir_d599e6111b2fbf4fd47cd3a4f2a09da4&#45;&gt;dir_3d3615e9a999cab4f3407307569d6ced -->
<g id="edge8" class="edge">
<title>dir_d599e6111b2fbf4fd47cd3a4f2a09da4&#45;&gt;dir_3d3615e9a999cab4f3407307569d6ced</title>
<path fill="none" stroke="black" d="M239.31,-375.75C251.15,-344.84 278.91,-278.84 316,-232 324.46,-221.31 335.33,-211.17 345.59,-202.67"/>
<polygon fill="black" stroke="black" points="348.02,-205.21 353.64,-196.23 343.64,-199.75 348.02,-205.21"/>
<g id="a_edge8&#45;headlabel"><a xlink:href="dir_000024_000012.html" target="_top" xlink:title="2">
<text text-anchor="middle" x="346.99" y="-207.17" font-family="Helvetica,sans-Serif" font-size="10.00">2</text>
</a>
</g>
</g>
<!-- dir_d599e6111b2fbf4fd47cd3a4f2a09da4&#45;&gt;dir_e4cd57caa88bf1f4e1bf9521bc47c3c0 -->
<g id="edge7" class="edge">
<title>dir_d599e6111b2fbf4fd47cd3a4f2a09da4&#45;&gt;dir_e4cd57caa88bf1f4e1bf9521bc47c3c0</title>
<path fill="none" stroke="black" d="M234.22,-375.82C234.89,-365.46 235.66,-351.98 236,-340 238.11,-265.55 231.51,-177.82 227.63,-134.31"/>
<polygon fill="black" stroke="black" points="231.1,-133.88 226.7,-124.24 224.13,-134.51 231.1,-133.88"/>
<g id="a_edge7&#45;headlabel"><a xlink:href="dir_000024_000008.html" target="_top" xlink:title="1">
<text text-anchor="middle" x="234.26" y="-134.7" font-family="Helvetica,sans-Serif" font-size="10.00">1</text>
</a>
</g>
</g>
<!-- dir_d599e6111b2fbf4fd47cd3a4f2a09da4&#45;&gt;dir_0c368f76a33d967d5b838b5681461de6 -->
<g id="edge6" class="edge">
<title>dir_d599e6111b2fbf4fd47cd3a4f2a09da4&#45;&gt;dir_0c368f76a33d967d5b838b5681461de6</title>
<path fill="none" stroke="black" d="M221.63,-375.7C216.28,-367.56 209.8,-357.69 203.89,-348.7"/>
<polygon fill="black" stroke="black" points="206.66,-346.54 198.24,-340.1 200.81,-350.38 206.66,-346.54"/>
<g id="a_edge6&#45;headlabel"><a xlink:href="dir_000024_000001.html" target="_top" xlink:title="1">
<text text-anchor="middle" x="211" y="-345.48" font-family="Helvetica,sans-Serif" font-size="10.00">1</text>
</a>
</g>
</g>
<!-- dir_073a3c37bc9e3eb3e412aa8cf4eda4c3 -->
<g id="node12" class="node">
<title>dir_073a3c37bc9e3eb3e412aa8cf4eda4c3</title>
<g id="a_node12"><a xlink:href="dir_073a3c37bc9e3eb3e412aa8cf4eda4c3.html" target="_top" xlink:title="setup">
<polygon fill="white" stroke="black" points="230,-484 176,-484 176,-448 230,-448 230,-484"/>
<text text-anchor="middle" x="203" y="-463.5" font-family="Helvetica,sans-Serif" font-size="10.00">setup</text>
</a>
</g>
</g>
<!-- dir_073a3c37bc9e3eb3e412aa8cf4eda4c3&#45;&gt;dir_3d3615e9a999cab4f3407307569d6ced -->
<g id="edge36" class="edge">
<title>dir_073a3c37bc9e3eb3e412aa8cf4eda4c3&#45;&gt;dir_3d3615e9a999cab4f3407307569d6ced</title>
<path fill="none" stroke="black" d="M230.2,-449.01C244.72,-439.54 262.18,-426.57 275,-412 287.09,-398.26 284.34,-390.88 295,-376 313.88,-349.66 381.33,-298.23 393,-268 400.73,-247.99 395.9,-223.93 389.74,-205.87"/>
<polygon fill="black" stroke="black" points="392.93,-204.41 386.14,-196.27 386.37,-206.86 392.93,-204.41"/>
<g id="a_edge36&#45;headlabel"><a xlink:href="dir_000025_000012.html" target="_top" xlink:title="1">
<text text-anchor="middle" x="396.84" y="-204.28" font-family="Helvetica,sans-Serif" font-size="10.00">1</text>
</a>
</g>
</g>
<!-- dir_073a3c37bc9e3eb3e412aa8cf4eda4c3&#45;&gt;dir_f2c65bfcbdc19ebacbfc0bbbfb0d01b6 -->
<g id="edge33" class="edge">
<title>dir_073a3c37bc9e3eb3e412aa8cf4eda4c3&#45;&gt;dir_f2c65bfcbdc19ebacbfc0bbbfb0d01b6</title>
<path fill="none" stroke="black" d="M230.15,-450.15C249.07,-439.81 274.51,-425.89 295.11,-414.63"/>
<polygon fill="black" stroke="black" points="296.8,-417.69 303.89,-409.82 293.44,-411.55 296.8,-417.69"/>
<g id="a_edge33&#45;headlabel"><a xlink:href="dir_000025_000010.html" target="_top" xlink:title="1">
<text text-anchor="middle" x="295.01" y="-419.41" font-family="Helvetica,sans-Serif" font-size="10.00">1</text>
</a>
</g>
</g>
<!-- dir_073a3c37bc9e3eb3e412aa8cf4eda4c3&#45;&gt;dir_e4cd57caa88bf1f4e1bf9521bc47c3c0 -->
<g id="edge35" class="edge">
<title>dir_073a3c37bc9e3eb3e412aa8cf4eda4c3&#45;&gt;dir_e4cd57caa88bf1f4e1bf9521bc47c3c0</title>
<path fill="none" stroke="black" d="M188.66,-447.75C166.43,-418.92 127.39,-358.73 139,-304 142.63,-286.87 147.95,-284.03 155,-268 175.7,-220.92 199.52,-165.96 213.36,-133.96"/>
<polygon fill="black" stroke="black" points="216.73,-134.98 217.48,-124.41 210.3,-132.2 216.73,-134.98"/>
<g id="a_edge35&#45;headlabel"><a xlink:href="dir_000025_000008.html" target="_top" xlink:title="2">
<text text-anchor="middle" x="217.91" y="-136.91" font-family="Helvetica,sans-Serif" font-size="10.00">2</text>
</a>
</g>
</g>
<!-- dir_073a3c37bc9e3eb3e412aa8cf4eda4c3&#45;&gt;dir_0c368f76a33d967d5b838b5681461de6 -->
<g id="edge34" class="edge">
<title>dir_073a3c37bc9e3eb3e412aa8cf4eda4c3&#45;&gt;dir_0c368f76a33d967d5b838b5681461de6</title>
<path fill="none" stroke="black" d="M198.78,-447.92C196.4,-437.59 193.59,-424.11 192,-412 189.3,-391.41 188.06,-367.96 187.49,-350.3"/>
<polygon fill="black" stroke="black" points="190.98,-350.03 187.21,-340.13 183.98,-350.22 190.98,-350.03"/>
<g id="a_edge34&#45;headlabel"><a xlink:href="dir_000025_000001.html" target="_top" xlink:title="1">
<text text-anchor="middle" x="193.92" y="-351.05" font-family="Helvetica,sans-Serif" font-size="10.00">1</text>
</a>
</g>
</g>
<!-- dir_7b7e55eaa727ae9c717abfc097345a8f -->
<g id="node13" class="node">
<title>dir_7b7e55eaa727ae9c717abfc097345a8f</title>
<g id="a_node13"><a xlink:href="dir_7b7e55eaa727ae9c717abfc097345a8f.html" target="_top" xlink:title="transport_models">
<polygon fill="white" stroke="black" points="556,-484 454,-484 454,-448 556,-448 556,-484"/>
<text text-anchor="middle" x="505" y="-463.5" font-family="Helvetica,sans-Serif" font-size="10.00">transport_models</text>
</a>
</g>
</g>
<!-- dir_7b7e55eaa727ae9c717abfc097345a8f&#45;&gt;dir_3d3615e9a999cab4f3407307569d6ced -->
<g id="edge50" class="edge">
<title>dir_7b7e55eaa727ae9c717abfc097345a8f&#45;&gt;dir_3d3615e9a999cab4f3407307569d6ced</title>
<path fill="none" stroke="black" d="M520.18,-447.7C527.73,-437.94 536.07,-425.1 540,-412 563.02,-335.38 586.96,-296.77 540,-232 511.66,-192.91 453.64,-182.12 415.28,-179.43"/>
<polygon fill="black" stroke="black" points="415.2,-175.92 405.03,-178.87 414.82,-182.91 415.2,-175.92"/>
<g id="a_edge50&#45;headlabel"><a xlink:href="dir_000013_000012.html" target="_top" xlink:title="2">
<text text-anchor="middle" x="418.95" y="-170.78" font-family="Helvetica,sans-Serif" font-size="10.00">2</text>
</a>
</g>
</g>
<!-- dir_7b7e55eaa727ae9c717abfc097345a8f&#45;&gt;dir_f2c65bfcbdc19ebacbfc0bbbfb0d01b6 -->
<g id="edge49" class="edge">
<title>dir_7b7e55eaa727ae9c717abfc097345a8f&#45;&gt;dir_f2c65bfcbdc19ebacbfc0bbbfb0d01b6</title>
<path fill="none" stroke="black" d="M462.43,-447.88C433.37,-436.18 395.25,-420.85 367.55,-409.7"/>
<polygon fill="black" stroke="black" points="368.81,-406.44 358.22,-405.95 366.19,-412.93 368.81,-406.44"/>
<g id="a_edge49&#45;headlabel"><a xlink:href="dir_000013_000010.html" target="_top" xlink:title="1">
<text text-anchor="middle" x="373.2" y="-402.64" font-family="Helvetica,sans-Serif" font-size="10.00">1</text>
</a>
</g>
</g>
<!-- dir_9ff815a534beac751fa88e427dbab695&#45;&gt;dir_3d3615e9a999cab4f3407307569d6ced -->
<g id="edge3" class="edge">
<title>dir_9ff815a534beac751fa88e427dbab695&#45;&gt;dir_3d3615e9a999cab4f3407307569d6ced</title>
<path fill="none" stroke="black" d="M532.22,-519.85C544.32,-510.74 557.5,-498.43 565,-484 583.37,-448.69 575,-434.8 575,-395 575,-395 575,-395 575,-321 575,-280.36 581.85,-261.6 554,-232 517.97,-193.71 455.4,-182.75 415.39,-179.81"/>
<polygon fill="black" stroke="black" points="415.43,-176.3 405.24,-179.19 415.01,-183.29 415.43,-176.3"/>
<g id="a_edge3&#45;headlabel"><a xlink:href="dir_000026_000012.html" target="_top" xlink:title="5">
<text text-anchor="middle" x="419.19" y="-171.18" font-family="Helvetica,sans-Serif" font-size="10.00">5</text>
</a>
</g>
</g>
<!-- dir_9ff815a534beac751fa88e427dbab695&#45;&gt;dir_4bb30ed846ea1df1fc4d16874a455d91 -->
<g id="edge4" class="edge">
<title>dir_9ff815a534beac751fa88e427dbab695&#45;&gt;dir_4bb30ed846ea1df1fc4d16874a455d91</title>
<path fill="none" stroke="black" d="M470.63,-550.23C432.19,-561.72 369.33,-579.67 322.03,-592.72"/>
<polygon fill="black" stroke="black" points="320.91,-589.4 312.19,-595.42 322.76,-596.15 320.91,-589.4"/>
<g id="a_edge4&#45;headlabel"><a xlink:href="dir_000026_000002.html" target="_top" xlink:title="11">
<text text-anchor="middle" x="323.62" y="-583.21" font-family="Helvetica,sans-Serif" font-size="10.00">11</text>
</a>
</g>
</g>
<!-- dir_9ff815a534beac751fa88e427dbab695&#45;&gt;dir_7f7a014517bfe31ea45620a6a947e37b -->
<g id="edge2" class="edge">
<title>dir_9ff815a534beac751fa88e427dbab695&#45;&gt;dir_7f7a014517bfe31ea45620a6a947e37b</title>
<path fill="none" stroke="black" d="M539.06,-522.3C555.96,-513.44 575.4,-500.62 588,-484 612.97,-451.06 615,-436.34 615,-395 615,-395 615,-395 615,-177 615,-58.33 424.91,-38.44 342.44,-35.39"/>
<polygon fill="black" stroke="black" points="342.34,-31.89 332.24,-35.08 342.13,-38.89 342.34,-31.89"/>
<g id="a_edge2&#45;headlabel"><a xlink:href="dir_000026_000014.html" target="_top" xlink:title="8">
<text text-anchor="middle" x="346.02" y="-26.66" font-family="Helvetica,sans-Serif" font-size="10.00">8</text>
</a>
</g>
</g>
<!-- dir_9ff815a534beac751fa88e427dbab695&#45;&gt;dir_7b7e55eaa727ae9c717abfc097345a8f -->
<g id="edge5" class="edge">
<title>dir_9ff815a534beac751fa88e427dbab695&#45;&gt;dir_7b7e55eaa727ae9c717abfc097345a8f</title>
<path fill="none" stroke="black" d="M505,-519.7C505,-511.98 505,-502.71 505,-494.11"/>
<polygon fill="black" stroke="black" points="508.5,-494.1 505,-484.1 501.5,-494.1 508.5,-494.1"/>
<g id="a_edge5&#45;headlabel"><a xlink:href="dir_000026_000013.html" target="_top" xlink:title="2">
<text text-anchor="middle" x="511.34" y="-495.2" font-family="Helvetica,sans-Serif" font-size="10.00">2</text>
</a>
</g>
</g>
<!-- dir_9ff815a534beac751fa88e427dbab695&#45;&gt;dir_e4cd57caa88bf1f4e1bf9521bc47c3c0 -->
<g id="edge1" class="edge">
<title>dir_9ff815a534beac751fa88e427dbab695&#45;&gt;dir_e4cd57caa88bf1f4e1bf9521bc47c3c0</title>
<path fill="none" stroke="black" d="M536.68,-519.89C550.42,-510.93 565.51,-498.74 575,-484 596.94,-449.91 595,-435.54 595,-395 595,-395 595,-395 595,-249 595,-178.21 355.92,-129.47 262.12,-113.08"/>
<polygon fill="black" stroke="black" points="262.66,-109.62 252.21,-111.37 261.47,-116.51 262.66,-109.62"/>
<g id="a_edge1&#45;headlabel"><a xlink:href="dir_000026_000008.html" target="_top" xlink:title="1">
<text text-anchor="middle" x="266.68" y="-104.93" font-family="Helvetica,sans-Serif" font-size="10.00">1</text>
</a>
</g>
</g>
<!-- dir_e4cd57caa88bf1f4e1bf9521bc47c3c0&#45;&gt;dir_3d3615e9a999cab4f3407307569d6ced -->
<g id="edge32" class="edge">
<title>dir_e4cd57caa88bf1f4e1bf9521bc47c3c0&#45;&gt;dir_3d3615e9a999cab4f3407307569d6ced</title>
<path fill="none" stroke="black" d="M252.32,-117.24C277.28,-127.78 314.14,-144.47 341.56,-157.53"/>
<polygon fill="black" stroke="black" points="340.31,-160.81 350.83,-161.98 343.34,-154.5 340.31,-160.81"/>
<g id="a_edge32&#45;headlabel"><a xlink:href="dir_000008_000012.html" target="_top" xlink:title="19">
<text text-anchor="middle" x="335.84" y="-159.31" font-family="Helvetica,sans-Serif" font-size="10.00">19</text>
</a>
</g>
</g>
<!-- dir_e4cd57caa88bf1f4e1bf9521bc47c3c0&#45;&gt;dir_7f7a014517bfe31ea45620a6a947e37b -->
<g id="edge31" class="edge">
<title>dir_e4cd57caa88bf1f4e1bf9521bc47c3c0&#45;&gt;dir_7f7a014517bfe31ea45620a6a947e37b</title>
<path fill="none" stroke="black" d="M244.78,-87.7C254.75,-78.97 267.01,-68.24 277.86,-58.75"/>
<polygon fill="black" stroke="black" points="280.23,-61.32 285.45,-52.1 275.62,-56.06 280.23,-61.32"/>
<g id="a_edge31&#45;headlabel"><a xlink:href="dir_000008_000014.html" target="_top" xlink:title="1">
<text text-anchor="middle" x="279.4" y="-63.33" font-family="Helvetica,sans-Serif" font-size="10.00">1</text>
</a>
</g>
</g>
<!-- dir_0c368f76a33d967d5b838b5681461de6&#45;&gt;dir_3d3615e9a999cab4f3407307569d6ced -->
<g id="edge27" class="edge">
<title>dir_0c368f76a33d967d5b838b5681461de6&#45;&gt;dir_3d3615e9a999cab4f3407307569d6ced</title>
<path fill="none" stroke="black" d="M202.28,-303.83C219.81,-284.78 250.02,-253.84 280,-232 299.21,-218 322.56,-205.23 341.65,-195.73"/>
<polygon fill="black" stroke="black" points="343.19,-198.88 350.64,-191.34 340.12,-192.59 343.19,-198.88"/>
<g id="a_edge27&#45;headlabel"><a xlink:href="dir_000001_000012.html" target="_top" xlink:title="23">
<text text-anchor="middle" x="341.21" y="-200.5" font-family="Helvetica,sans-Serif" font-size="10.00">23</text>
</a>
</g>
</g>
<!-- dir_0c368f76a33d967d5b838b5681461de6&#45;&gt;dir_a816a247b59c90f95e41afe29b966a18 -->
<g id="edge25" class="edge">
<title>dir_0c368f76a33d967d5b838b5681461de6&#45;&gt;dir_a816a247b59c90f95e41afe29b966a18</title>
<path fill="none" stroke="black" d="M226.58,-304.41C253.29,-293.21 288.4,-278.5 314.99,-267.35"/>
<polygon fill="black" stroke="black" points="316.5,-270.51 324.37,-263.42 313.8,-264.06 316.5,-270.51"/>
<g id="a_edge25&#45;headlabel"><a xlink:href="dir_000001_000018.html" target="_top" xlink:title="1">
<text text-anchor="middle" x="314.29" y="-272.02" font-family="Helvetica,sans-Serif" font-size="10.00">1</text>
</a>
</g>
</g>
<!-- dir_0c368f76a33d967d5b838b5681461de6&#45;&gt;dir_4bb30ed846ea1df1fc4d16874a455d91 -->
<g id="edge26" class="edge">
<title>dir_0c368f76a33d967d5b838b5681461de6&#45;&gt;dir_4bb30ed846ea1df1fc4d16874a455d91</title>
<path fill="none" stroke="black" d="M185.46,-340.39C178.01,-370.44 159.48,-433.69 176,-484 188.93,-523.39 219.55,-560.58 239.97,-583.99"/>
<polygon fill="black" stroke="black" points="237.5,-586.48 246.72,-591.68 242.75,-581.86 237.5,-586.48"/>
<g id="a_edge26&#45;headlabel"><a xlink:href="dir_000001_000002.html" target="_top" xlink:title="4">
<text text-anchor="middle" x="232.99" y="-583.15" font-family="Helvetica,sans-Serif" font-size="10.00">4</text>
</a>
</g>
</g>
<!-- dir_0c368f76a33d967d5b838b5681461de6&#45;&gt;dir_7f7a014517bfe31ea45620a6a947e37b -->
<g id="edge24" class="edge">
<title>dir_0c368f76a33d967d5b838b5681461de6&#45;&gt;dir_7f7a014517bfe31ea45620a6a947e37b</title>
<path fill="none" stroke="black" d="M147.31,-314.95C119.64,-308.44 84.65,-295.1 67,-268 58.27,-254.59 61.49,-247.02 67,-232 95.88,-153.25 122.13,-138.65 189,-88 213.04,-69.79 244.35,-55.95 268.38,-46.99"/>
<polygon fill="black" stroke="black" points="269.64,-50.25 277.85,-43.56 267.26,-43.67 269.64,-50.25"/>
<g id="a_edge24&#45;headlabel"><a xlink:href="dir_000001_000014.html" target="_top" xlink:title="1">
<text text-anchor="middle" x="267.22" y="-51.65" font-family="Helvetica,sans-Serif" font-size="10.00">1</text>
</a>
</g>
</g>
<!-- dir_0c368f76a33d967d5b838b5681461de6&#45;&gt;dir_e4cd57caa88bf1f4e1bf9521bc47c3c0 -->
<g id="edge23" class="edge">
<title>dir_0c368f76a33d967d5b838b5681461de6&#45;&gt;dir_e4cd57caa88bf1f4e1bf9521bc47c3c0</title>
<path fill="none" stroke="black" d="M190.05,-303.85C196.63,-266.75 212.25,-178.81 220.19,-134.1"/>
<polygon fill="black" stroke="black" points="223.64,-134.69 221.94,-124.23 216.75,-133.47 223.64,-134.69"/>
<g id="a_edge23&#45;headlabel"><a xlink:href="dir_000001_000008.html" target="_top" xlink:title="26">
<text text-anchor="middle" x="225.8" y="-136.23" font-family="Helvetica,sans-Serif" font-size="10.00">26</text>
</a>
</g>
</g>
</g>
</svg>
        <g id="navigator" transform="translate(0 0)" fill="#404254">
                <rect fill="#f2f5e9" fill-opacity="0.5" stroke="#606060" stroke-width=".5" x="0" y="0" width="60" height="60"/>
                <use id="zoomplus" xlink:href="#zoomPlus" x="17" y="9" onmousedown="handleZoom(evt,'in')"/>
                <use id="zoomminus" xlink:href="#zoomMin" x="42" y="9" onmousedown="handleZoom(evt,'out')"/>
                <use id="reset" xlink:href="#resetDef" x="30" y="36" onmousedown="handleReset()"/>
                <g id="arrowUp" xlink:href="#dirArrow" transform="translate(30 24)" onmousedown="handlePan(0,-1)">
                  <use xlink:href="#rim" fill="#404040">
                        <set attributeName="fill" to="#808080" begin="arrowUp.mouseover" end="arrowUp.mouseout"/>
                  </use>
                  <path fill="none" stroke="white" stroke-width="1.5" d="M0,-3.0v7 M-2.5,-0.5L0,-3.0L2.5,-0.5"/>
                </g>
                <g id="arrowRight" xlink:href="#dirArrow" transform="rotate(90) translate(36 -43)" onmousedown="handlePan(1,0)">
                  <use xlink:href="#rim" fill="#404040">
                        <set attributeName="fill" to="#808080" begin="arrowRight.mouseover" end="arrowRight.mouseout"/>
                  </use>
                  <path fill="none" stroke="white" stroke-width="1.5" d="M0,-3.0v7 M-2.5,-0.5L0,-3.0L2.5,-0.5"/>
                </g>
                <g id="arrowDown" xlink:href="#dirArrow" transform="rotate(180) translate(-30 -48)" onmousedown="handlePan(0,1)">
                  <use xlink:href="#rim" fill="#404040">
                        <set attributeName="fill" to="#808080" begin="arrowDown.mouseover" end="arrowDown.mouseout"/>
                  </use>
                  <path fill="none" stroke="white" stroke-width="1.5" d="M0,-3.0v7 M-2.5,-0.5L0,-3.0L2.5,-0.5"/>
                </g>
                <g id="arrowLeft" xlink:href="#dirArrow" transform="rotate(270) translate(-36 17)" onmousedown="handlePan(-1,0)">
                  <use xlink:href="#rim" fill="#404040">
                        <set attributeName="fill" to="#808080" begin="arrowLeft.mouseover" end="arrowLeft.mouseout"/>
                  </use>
                  <path fill="none" stroke="white" stroke-width="1.5" d="M0,-3.0v7 M-2.5,-0.5L0,-3.0L2.5,-0.5"/>
                </g>
        </g>
        <svg viewBox="0 0 15 15" width="100%" height="30px" preserveAspectRatio="xMaxYMin meet">
         <g id="arrow_out" transform="scale(0.3 0.3)">
          <a xlink:href="dir_d85575251dd712327fe3cf057fa568b4_dep_org.svg" target="_base">
           <rect id="button" ry="5" rx="5" y="6" x="6" height="38" width="38"
                fill="#f2f5e9" fill-opacity="0.5" stroke="#606060" stroke-width="1.0"/>
           <path id="arrow"
             d="M 11.500037,31.436501 C 11.940474,20.09759 22.043105,11.32322 32.158766,21.979434 L 37.068811,17.246167 C 37.068811,17.246167 37.088388,32 37.088388,32 L 22.160133,31.978069 C 22.160133,31.978069 26.997745,27.140456 26.997745,27.140456 C 18.528582,18.264221 13.291696,25.230495 11.500037,31.436501 z"
             style="fill:#404040;"/>
          </a>
         </g>
        </svg>
</svg>
