<?xml version="1.0" encoding="UTF-8" standalone="no"?>
<!DOCTYPE svg PUBLIC "-//W3C//DTD SVG 1.1//EN"
 "http://www.w3.org/Graphics/SVG/1.1/DTD/svg11.dtd">
<!-- Generated by graphviz version 2.43.0 (0)
 -->
<!-- Title: physics Pages: 1 -->
<svg width="569pt" height="447pt"
 viewBox="0.00 0.00 569.00 447.00" xmlns="http://www.w3.org/2000/svg" xmlns:xlink="http://www.w3.org/1999/xlink">
<g id="graph0" class="graph" transform="scale(1 1) rotate(0) translate(4 443)">
<title>physics</title>
<polygon fill="white" stroke="transparent" points="-4,4 -4,-443 565,-443 565,4 -4,4"/>
<g id="clust1" class="cluster">
<title>clusterdir_d85575251dd712327fe3cf057fa568b4</title>
<g id="a_clust1"><a xlink:href="dir_d85575251dd712327fe3cf057fa568b4.html" target="_top" xlink:title="amr&#45;wind">
<polygon fill="#ddddee" stroke="black" points="8,-272 8,-431 256,-431 256,-272 8,-272"/>
<text text-anchor="middle" x="132" y="-419" font-family="Helvetica,sans-Serif" font-size="10.00">amr&#45;wind</text>
</a>
</g>
</g>
<g id="clust2" class="cluster">
<title>clusterdir_f2c65bfcbdc19ebacbfc0bbbfb0d01b6</title>
<g id="a_clust2"><a xlink:href="dir_f2c65bfcbdc19ebacbfc0bbbfb0d01b6.html" target="_top">
<polygon fill="#eeeeff" stroke="black" points="16,-280 16,-404 248,-404 248,-280 16,-280"/>
</a>
</g>
</g>
<!-- dir_f2c65bfcbdc19ebacbfc0bbbfb0d01b6 -->
<g id="node1" class="node">
<title>dir_f2c65bfcbdc19ebacbfc0bbbfb0d01b6</title>
<text text-anchor="middle" x="51" y="-375.5" font-family="Helvetica,sans-Serif" font-size="10.00">physics</text>
</g>
<!-- dir_112afea7a726e6a1d518c2be02377acb -->
<g id="node4" class="node">
<title>dir_112afea7a726e6a1d518c2be02377acb</title>
<g id="a_node4"><a xlink:href="dir_112afea7a726e6a1d518c2be02377acb.html" target="_top" xlink:title="udfs">
<polygon fill="white" stroke="black" points="126,-324 72,-324 72,-288 126,-288 126,-324"/>
<text text-anchor="middle" x="99" y="-303.5" font-family="Helvetica,sans-Serif" font-size="10.00">udfs</text>
</a>
</g>
</g>
<!-- dir_f2c65bfcbdc19ebacbfc0bbbfb0d01b6&#45;&gt;dir_112afea7a726e6a1d518c2be02377acb -->
<g id="edge3" class="edge">
<title>dir_f2c65bfcbdc19ebacbfc0bbbfb0d01b6&#45;&gt;dir_112afea7a726e6a1d518c2be02377acb</title>
<path fill="none" stroke="black" d="M62.87,-359.7C68.5,-351.47 75.35,-341.48 81.57,-332.42"/>
<polygon fill="black" stroke="black" points="84.5,-334.33 87.27,-324.1 78.73,-330.37 84.5,-334.33"/>
<g id="a_edge3&#45;headlabel"><a xlink:href="dir_000010_000031.html" target="_top" xlink:title="2">
<text text-anchor="middle" x="84.81" y="-336.4" font-family="Helvetica,sans-Serif" font-size="10.00">2</text>
</a>
</g>
</g>
<!-- dir_0c368f76a33d967d5b838b5681461de6 -->
<g id="node5" class="node">
<title>dir_0c368f76a33d967d5b838b5681461de6</title>
<g id="a_node5"><a xlink:href="dir_0c368f76a33d967d5b838b5681461de6.html" target="_top" xlink:title="wind_energy">
<polygon fill="white" stroke="red" points="342.5,-324 263.5,-324 263.5,-288 342.5,-288 342.5,-324"/>
<text text-anchor="middle" x="303" y="-303.5" font-family="Helvetica,sans-Serif" font-size="10.00">wind_energy</text>
</a>
</g>
</g>
<!-- dir_f2c65bfcbdc19ebacbfc0bbbfb0d01b6&#45;&gt;dir_0c368f76a33d967d5b838b5681461de6 -->
<g id="edge4" class="edge">
<title>dir_f2c65bfcbdc19ebacbfc0bbbfb0d01b6&#45;&gt;dir_0c368f76a33d967d5b838b5681461de6</title>
<path fill="none" stroke="black" d="M78.25,-363.35C81.17,-362.12 84.12,-360.98 87,-360 158.06,-335.82 179.63,-343.9 252,-324 252.46,-323.87 252.92,-323.74 253.39,-323.61"/>
<polygon fill="black" stroke="black" points="254.71,-326.87 263.31,-320.69 252.73,-320.16 254.71,-326.87"/>
<g id="a_edge4&#45;headlabel"><a xlink:href="dir_000010_000001.html" target="_top" xlink:title="1">
<text text-anchor="middle" x="252.07" y="-328.11" font-family="Helvetica,sans-Serif" font-size="10.00">1</text>
</a>
</g>
</g>
<!-- dir_e4cd57caa88bf1f4e1bf9521bc47c3c0 -->
<g id="node6" class="node">
<title>dir_e4cd57caa88bf1f4e1bf9521bc47c3c0</title>
<g id="a_node6"><a xlink:href="dir_e4cd57caa88bf1f4e1bf9521bc47c3c0.html" target="_top" xlink:title="utilities">
<polygon fill="white" stroke="red" points="274,-180 220,-180 220,-144 274,-144 274,-180"/>
<text text-anchor="middle" x="247" y="-159.5" font-family="Helvetica,sans-Serif" font-size="10.00">utilities</text>
</a>
</g>
</g>
<!-- dir_f2c65bfcbdc19ebacbfc0bbbfb0d01b6&#45;&gt;dir_e4cd57caa88bf1f4e1bf9521bc47c3c0 -->
<g id="edge5" class="edge">
<title>dir_f2c65bfcbdc19ebacbfc0bbbfb0d01b6&#45;&gt;dir_e4cd57caa88bf1f4e1bf9521bc47c3c0</title>
<path fill="none" stroke="black" d="M78.28,-363.45C95.73,-353.95 118.17,-340.09 135,-324 177.97,-282.92 214.42,-222.99 233.26,-189.03"/>
<polygon fill="black" stroke="black" points="236.37,-190.63 238.1,-180.18 230.23,-187.27 236.37,-190.63"/>
<g id="a_edge5&#45;headlabel"><a xlink:href="dir_000010_000008.html" target="_top" xlink:title="9">
<text text-anchor="middle" x="237.14" y="-192.65" font-family="Helvetica,sans-Serif" font-size="10.00">9</text>
</a>
</g>
</g>
<!-- dir_cc5375afd167f33c2803dc418e7dff36 -->
<g id="node2" class="node">
<title>dir_cc5375afd167f33c2803dc418e7dff36</title>
<g id="a_node2"><a xlink:href="dir_cc5375afd167f33c2803dc418e7dff36.html" target="_top" xlink:title="mms">
<polygon fill="white" stroke="black" points="240,-396 186,-396 186,-360 240,-360 240,-396"/>
<text text-anchor="middle" x="213" y="-375.5" font-family="Helvetica,sans-Serif" font-size="10.00">mms</text>
</a>
</g>
</g>
<!-- dir_4bb30ed846ea1df1fc4d16874a455d91 -->
<g id="node8" class="node">
<title>dir_4bb30ed846ea1df1fc4d16874a455d91</title>
<g id="a_node8"><a xlink:href="dir_4bb30ed846ea1df1fc4d16874a455d91.html" target="_top" xlink:title="equation_systems">
<polygon fill="white" stroke="red" points="419,-252 313,-252 313,-216 419,-216 419,-252"/>
<text text-anchor="middle" x="366" y="-231.5" font-family="Helvetica,sans-Serif" font-size="10.00">equation_systems</text>
</a>
</g>
</g>
<!-- dir_cc5375afd167f33c2803dc418e7dff36&#45;&gt;dir_4bb30ed846ea1df1fc4d16874a455d91 -->
<g id="edge1" class="edge">
<title>dir_cc5375afd167f33c2803dc418e7dff36&#45;&gt;dir_4bb30ed846ea1df1fc4d16874a455d91</title>
<path fill="none" stroke="black" d="M240.04,-374.24C291.54,-368.37 400.59,-352.77 423,-324 437.2,-305.77 434.03,-292.31 423,-272 420.19,-266.82 416.3,-262.25 411.87,-258.25"/>
<polygon fill="black" stroke="black" points="414.01,-255.49 403.98,-252.06 409.68,-260.99 414.01,-255.49"/>
<g id="a_edge1&#45;headlabel"><a xlink:href="dir_000034_000002.html" target="_top" xlink:title="1">
<text text-anchor="middle" x="418.59" y="-252.97" font-family="Helvetica,sans-Serif" font-size="10.00">1</text>
</a>
</g>
</g>
<!-- dir_3d3615e9a999cab4f3407307569d6ced -->
<g id="node9" class="node">
<title>dir_3d3615e9a999cab4f3407307569d6ced</title>
<g id="a_node9"><a xlink:href="dir_3d3615e9a999cab4f3407307569d6ced.html" target="_top" xlink:title="core">
<polygon fill="white" stroke="red" points="306,-36 252,-36 252,0 306,0 306,-36"/>
<text text-anchor="middle" x="279" y="-15.5" font-family="Helvetica,sans-Serif" font-size="10.00">core</text>
</a>
</g>
</g>
<!-- dir_cc5375afd167f33c2803dc418e7dff36&#45;&gt;dir_3d3615e9a999cab4f3407307569d6ced -->
<g id="edge2" class="edge">
<title>dir_cc5375afd167f33c2803dc418e7dff36&#45;&gt;dir_3d3615e9a999cab4f3407307569d6ced</title>
<path fill="none" stroke="black" d="M240.14,-374.31C284.08,-369.19 372.77,-355.56 441,-324 501.27,-296.12 561,-301.4 561,-235 561,-235 561,-235 561,-161 561,-52.63 392.81,-26.95 316.21,-20.88"/>
<polygon fill="black" stroke="black" points="316.27,-17.37 306.04,-20.14 315.76,-24.35 316.27,-17.37"/>
<g id="a_edge2&#45;headlabel"><a xlink:href="dir_000034_000012.html" target="_top" xlink:title="3">
<text text-anchor="middle" x="320.05" y="-12.3" font-family="Helvetica,sans-Serif" font-size="10.00">3</text>
</a>
</g>
</g>
<!-- dir_e037da66ad872c58acfc861df6f5c212 -->
<g id="node3" class="node">
<title>dir_e037da66ad872c58acfc861df6f5c212</title>
<g id="a_node3"><a xlink:href="dir_e037da66ad872c58acfc861df6f5c212.html" target="_top" xlink:title="multiphase">
<polygon fill="white" stroke="black" points="167.5,-396 96.5,-396 96.5,-360 167.5,-360 167.5,-396"/>
<text text-anchor="middle" x="132" y="-375.5" font-family="Helvetica,sans-Serif" font-size="10.00">multiphase</text>
</a>
</g>
</g>
<!-- dir_7f7a014517bfe31ea45620a6a947e37b -->
<g id="node7" class="node">
<title>dir_7f7a014517bfe31ea45620a6a947e37b</title>
<g id="a_node7"><a xlink:href="dir_7f7a014517bfe31ea45620a6a947e37b.html" target="_top" xlink:title="fvm">
<polygon fill="none" stroke="black" points="338,-108 284,-108 284,-72 338,-72 338,-108"/>
<text text-anchor="middle" x="311" y="-87.5" font-family="Helvetica,sans-Serif" font-size="10.00">fvm</text>
</a>
</g>
</g>
<!-- dir_e037da66ad872c58acfc861df6f5c212&#45;&gt;dir_7f7a014517bfe31ea45620a6a947e37b -->
<g id="edge8" class="edge">
<title>dir_e037da66ad872c58acfc861df6f5c212&#45;&gt;dir_7f7a014517bfe31ea45620a6a947e37b</title>
<path fill="none" stroke="black" d="M167.65,-362.81C170.79,-361.78 173.94,-360.83 177,-360 270.54,-334.76 314.09,-381.59 392,-324 432.69,-293.93 446.59,-263.06 428,-216 411.15,-173.35 372.12,-136.71 343.76,-114.32"/>
<polygon fill="black" stroke="black" points="345.77,-111.45 335.71,-108.12 341.49,-116.99 345.77,-111.45"/>
<g id="a_edge8&#45;headlabel"><a xlink:href="dir_000015_000014.html" target="_top" xlink:title="4">
<text text-anchor="middle" x="350.35" y="-108.89" font-family="Helvetica,sans-Serif" font-size="10.00">4</text>
</a>
</g>
</g>
<!-- dir_e037da66ad872c58acfc861df6f5c212&#45;&gt;dir_4bb30ed846ea1df1fc4d16874a455d91 -->
<g id="edge9" class="edge">
<title>dir_e037da66ad872c58acfc861df6f5c212&#45;&gt;dir_4bb30ed846ea1df1fc4d16874a455d91</title>
<path fill="none" stroke="black" d="M167.69,-362.93C170.82,-361.88 173.95,-360.88 177,-360 253.27,-337.9 297.18,-381.45 352,-324 367.4,-307.86 369.99,-282.09 369.26,-262.42"/>
<polygon fill="black" stroke="black" points="372.73,-261.97 368.57,-252.22 365.75,-262.44 372.73,-261.97"/>
<g id="a_edge9&#45;headlabel"><a xlink:href="dir_000015_000002.html" target="_top" xlink:title="2">
<text text-anchor="middle" x="375.81" y="-262.86" font-family="Helvetica,sans-Serif" font-size="10.00">2</text>
</a>
</g>
</g>
<!-- dir_e037da66ad872c58acfc861df6f5c212&#45;&gt;dir_3d3615e9a999cab4f3407307569d6ced -->
<g id="edge10" class="edge">
<title>dir_e037da66ad872c58acfc861df6f5c212&#45;&gt;dir_3d3615e9a999cab4f3407307569d6ced</title>
<path fill="none" stroke="black" d="M167.63,-362.74C170.77,-361.72 173.93,-360.79 177,-360 285.27,-332.08 331.53,-383.82 426,-324 466.1,-298.61 485,-282.46 485,-235 485,-235 485,-235 485,-161 485,-79.9 375.43,-41.57 316.11,-26.76"/>
<polygon fill="black" stroke="black" points="316.9,-23.34 306.36,-24.42 315.26,-30.15 316.9,-23.34"/>
<g id="a_edge10&#45;headlabel"><a xlink:href="dir_000015_000012.html" target="_top" xlink:title="17">
<text text-anchor="middle" x="321.05" y="-18.92" font-family="Helvetica,sans-Serif" font-size="10.00">17</text>
</a>
</g>
</g>
<!-- dir_112afea7a726e6a1d518c2be02377acb&#45;&gt;dir_4bb30ed846ea1df1fc4d16874a455d91 -->
<g id="edge6" class="edge">
<title>dir_112afea7a726e6a1d518c2be02377acb&#45;&gt;dir_4bb30ed846ea1df1fc4d16874a455d91</title>
<path fill="none" stroke="black" d="M126.07,-297.9C167.28,-287.1 246.88,-266.23 303.08,-251.5"/>
<polygon fill="black" stroke="black" points="304.15,-254.83 312.93,-248.91 302.37,-248.06 304.15,-254.83"/>
<g id="a_edge6&#45;headlabel"><a xlink:href="dir_000031_000002.html" target="_top" xlink:title="1">
<text text-anchor="middle" x="301.39" y="-255.99" font-family="Helvetica,sans-Serif" font-size="10.00">1</text>
</a>
</g>
</g>
<!-- dir_112afea7a726e6a1d518c2be02377acb&#45;&gt;dir_3d3615e9a999cab4f3407307569d6ced -->
<g id="edge7" class="edge">
<title>dir_112afea7a726e6a1d518c2be02377acb&#45;&gt;dir_3d3615e9a999cab4f3407307569d6ced</title>
<path fill="none" stroke="black" d="M104.74,-287.82C118.85,-247.24 158.28,-143.52 215,-72 223.72,-61.01 235.04,-50.73 245.74,-42.19"/>
<polygon fill="black" stroke="black" points="247.96,-44.9 253.74,-36.03 243.68,-39.36 247.96,-44.9"/>
<g id="a_edge7&#45;headlabel"><a xlink:href="dir_000031_000012.html" target="_top" xlink:title="8">
<text text-anchor="middle" x="246.84" y="-46.85" font-family="Helvetica,sans-Serif" font-size="10.00">8</text>
</a>
</g>
</g>
<!-- dir_0c368f76a33d967d5b838b5681461de6&#45;&gt;dir_e4cd57caa88bf1f4e1bf9521bc47c3c0 -->
<g id="edge11" class="edge">
<title>dir_0c368f76a33d967d5b838b5681461de6&#45;&gt;dir_e4cd57caa88bf1f4e1bf9521bc47c3c0</title>
<path fill="none" stroke="black" d="M291.05,-287.99C284.4,-277.9 276.4,-264.65 271,-252 262.44,-231.94 256.2,-208.02 252.22,-190.04"/>
<polygon fill="black" stroke="black" points="255.64,-189.26 250.15,-180.2 248.79,-190.71 255.64,-189.26"/>
<g id="a_edge11&#45;headlabel"><a xlink:href="dir_000001_000008.html" target="_top" xlink:title="26">
<text text-anchor="middle" x="259.16" y="-189.7" font-family="Helvetica,sans-Serif" font-size="10.00">26</text>
</a>
</g>
</g>
<!-- dir_0c368f76a33d967d5b838b5681461de6&#45;&gt;dir_7f7a014517bfe31ea45620a6a947e37b -->
<g id="edge12" class="edge">
<title>dir_0c368f76a33d967d5b838b5681461de6&#45;&gt;dir_7f7a014517bfe31ea45620a6a947e37b</title>
<path fill="none" stroke="black" d="M302.97,-287.93C302.98,-270.01 303.16,-241.02 304,-216 305.13,-182.51 307.43,-144.02 309.09,-118.7"/>
<polygon fill="black" stroke="black" points="312.61,-118.59 309.78,-108.38 305.62,-118.12 312.61,-118.59"/>
<g id="a_edge12&#45;headlabel"><a xlink:href="dir_000001_000014.html" target="_top" xlink:title="1">
<text text-anchor="middle" x="315.2" y="-119.87" font-family="Helvetica,sans-Serif" font-size="10.00">1</text>
</a>
</g>
</g>
<!-- dir_0c368f76a33d967d5b838b5681461de6&#45;&gt;dir_4bb30ed846ea1df1fc4d16874a455d91 -->
<g id="edge13" class="edge">
<title>dir_0c368f76a33d967d5b838b5681461de6&#45;&gt;dir_4bb30ed846ea1df1fc4d16874a455d91</title>
<path fill="none" stroke="black" d="M312.66,-287.7C319.48,-279.14 328.73,-268.66 337.66,-259.3"/>
<polygon fill="black" stroke="black" points="340.22,-261.7 344.71,-252.1 335.22,-256.8 340.22,-261.7"/>
<g id="a_edge13&#45;headlabel"><a xlink:href="dir_000001_000002.html" target="_top" xlink:title="4">
<text text-anchor="middle" x="339.73" y="-263.75" font-family="Helvetica,sans-Serif" font-size="10.00">4</text>
</a>
</g>
</g>
<!-- dir_0c368f76a33d967d5b838b5681461de6&#45;&gt;dir_3d3615e9a999cab4f3407307569d6ced -->
<g id="edge14" class="edge">
<title>dir_0c368f76a33d967d5b838b5681461de6&#45;&gt;dir_3d3615e9a999cab4f3407307569d6ced</title>
<path fill="none" stroke="black" d="M283.84,-287.87C260.77,-265.7 223.55,-224.61 211,-180 196.97,-130.13 231.9,-75.16 256.73,-44.08"/>
<polygon fill="black" stroke="black" points="259.45,-46.29 263.1,-36.34 254.04,-41.84 259.45,-46.29"/>
<g id="a_edge14&#45;headlabel"><a xlink:href="dir_000001_000012.html" target="_top" xlink:title="23">
<text text-anchor="middle" x="259.35" y="-48.37" font-family="Helvetica,sans-Serif" font-size="10.00">23</text>
</a>
</g>
</g>
<!-- dir_e4cd57caa88bf1f4e1bf9521bc47c3c0&#45;&gt;dir_7f7a014517bfe31ea45620a6a947e37b -->
<g id="edge15" class="edge">
<title>dir_e4cd57caa88bf1f4e1bf9521bc47c3c0&#45;&gt;dir_7f7a014517bfe31ea45620a6a947e37b</title>
<path fill="none" stroke="black" d="M262.82,-143.7C270.57,-135.22 280.04,-124.86 288.52,-115.58"/>
<polygon fill="black" stroke="black" points="291.2,-117.85 295.36,-108.1 286.03,-113.12 291.2,-117.85"/>
<g id="a_edge15&#45;headlabel"><a xlink:href="dir_000008_000014.html" target="_top" xlink:title="1">
<text text-anchor="middle" x="290.87" y="-119.92" font-family="Helvetica,sans-Serif" font-size="10.00">1</text>
</a>
</g>
</g>
<!-- dir_e4cd57caa88bf1f4e1bf9521bc47c3c0&#45;&gt;dir_3d3615e9a999cab4f3407307569d6ced -->
<g id="edge16" class="edge">
<title>dir_e4cd57caa88bf1f4e1bf9521bc47c3c0&#45;&gt;dir_3d3615e9a999cab4f3407307569d6ced</title>
<path fill="none" stroke="black" d="M246.28,-143.87C249.18,-119.56 258.98,-74.82 267.48,-46.01"/>
<polygon fill="black" stroke="black" points="270.91,-46.78 270.54,-36.19 264.22,-44.7 270.91,-46.78"/>
<g id="a_edge16&#45;headlabel"><a xlink:href="dir_000008_000012.html" target="_top" xlink:title="19">
<text text-anchor="middle" x="272.55" y="-48.55" font-family="Helvetica,sans-Serif" font-size="10.00">19</text>
</a>
</g>
</g>
<!-- dir_7f7a014517bfe31ea45620a6a947e37b&#45;&gt;dir_3d3615e9a999cab4f3407307569d6ced -->
<g id="edge17" class="edge">
<title>dir_7f7a014517bfe31ea45620a6a947e37b&#45;&gt;dir_3d3615e9a999cab4f3407307569d6ced</title>
<path fill="none" stroke="black" d="M303.09,-71.7C299.45,-63.73 295.05,-54.1 291.01,-45.26"/>
<polygon fill="black" stroke="black" points="294.16,-43.74 286.82,-36.1 287.79,-46.65 294.16,-43.74"/>
<g id="a_edge17&#45;headlabel"><a xlink:href="dir_000014_000012.html" target="_top" xlink:title="1">
<text text-anchor="middle" x="298.24" y="-43.33" font-family="Helvetica,sans-Serif" font-size="10.00">1</text>
</a>
</g>
</g>
<!-- dir_4bb30ed846ea1df1fc4d16874a455d91&#45;&gt;dir_e037da66ad872c58acfc861df6f5c212 -->
<g id="edge19" class="edge">
<title>dir_4bb30ed846ea1df1fc4d16874a455d91&#45;&gt;dir_e037da66ad872c58acfc861df6f5c212</title>
<path fill="none" stroke="black" d="M374.1,-252.22C382.03,-271.91 390.69,-303.98 374,-324 319,-389.96 266.58,-339.97 177.55,-360.34"/>
<polygon fill="black" stroke="black" points="176.49,-357 167.67,-362.86 178.22,-363.78 176.49,-357"/>
<g id="a_edge19&#45;headlabel"><a xlink:href="dir_000002_000015.html" target="_top" xlink:title="2">
<text text-anchor="middle" x="179.28" y="-350.86" font-family="Helvetica,sans-Serif" font-size="10.00">2</text>
</a>
</g>
</g>
<!-- dir_4bb30ed846ea1df1fc4d16874a455d91&#45;&gt;dir_0c368f76a33d967d5b838b5681461de6 -->
<g id="edge20" class="edge">
<title>dir_4bb30ed846ea1df1fc4d16874a455d91&#45;&gt;dir_0c368f76a33d967d5b838b5681461de6</title>
<path fill="none" stroke="black" d="M356.5,-252.1C349.72,-260.64 340.48,-271.11 331.54,-280.48"/>
<polygon fill="black" stroke="black" points="328.98,-278.1 324.49,-287.7 333.98,-282.99 328.98,-278.1"/>
<g id="a_edge20&#45;headlabel"><a xlink:href="dir_000002_000001.html" target="_top" xlink:title="3">
<text text-anchor="middle" x="329.46" y="-271.04" font-family="Helvetica,sans-Serif" font-size="10.00">3</text>
</a>
</g>
</g>
<!-- dir_4bb30ed846ea1df1fc4d16874a455d91&#45;&gt;dir_e4cd57caa88bf1f4e1bf9521bc47c3c0 -->
<g id="edge21" class="edge">
<title>dir_4bb30ed846ea1df1fc4d16874a455d91&#45;&gt;dir_e4cd57caa88bf1f4e1bf9521bc47c3c0</title>
<path fill="none" stroke="black" d="M336.89,-215.88C320.6,-206.29 300.16,-194.27 282.88,-184.11"/>
<polygon fill="black" stroke="black" points="284.57,-181.04 274.18,-178.99 281.02,-187.07 284.57,-181.04"/>
<g id="a_edge21&#45;headlabel"><a xlink:href="dir_000002_000008.html" target="_top" xlink:title="8">
<text text-anchor="middle" x="289.11" y="-177.92" font-family="Helvetica,sans-Serif" font-size="10.00">8</text>
</a>
</g>
</g>
<!-- dir_4bb30ed846ea1df1fc4d16874a455d91&#45;&gt;dir_3d3615e9a999cab4f3407307569d6ced -->
<g id="edge22" class="edge">
<title>dir_4bb30ed846ea1df1fc4d16874a455d91&#45;&gt;dir_3d3615e9a999cab4f3407307569d6ced</title>
<path fill="none" stroke="black" d="M368.1,-215.7C371,-184.71 373.25,-118.59 347,-72 339.42,-58.54 326.9,-47.32 314.66,-38.73"/>
<polygon fill="black" stroke="black" points="316.56,-35.79 306.29,-33.19 312.7,-41.63 316.56,-35.79"/>
<g id="a_edge22&#45;headlabel"><a xlink:href="dir_000002_000012.html" target="_top" xlink:title="54">
<text text-anchor="middle" x="321.13" y="-32.9" font-family="Helvetica,sans-Serif" font-size="10.00">54</text>
</a>
</g>
</g>
<!-- dir_3d3615e9a999cab4f3407307569d6ced&#45;&gt;dir_e4cd57caa88bf1f4e1bf9521bc47c3c0 -->
<g id="edge18" class="edge">
<title>dir_3d3615e9a999cab4f3407307569d6ced&#45;&gt;dir_e4cd57caa88bf1f4e1bf9521bc47c3c0</title>
<path fill="none" stroke="black" d="M279.72,-36.19C276.8,-60.53 266.99,-105.28 258.5,-134.06"/>
<polygon fill="black" stroke="black" points="255.07,-133.28 255.44,-143.87 261.76,-135.36 255.07,-133.28"/>
<g id="a_edge18&#45;headlabel"><a xlink:href="dir_000012_000008.html" target="_top" xlink:title="1">
<text text-anchor="middle" x="253.43" y="-126.51" font-family="Helvetica,sans-Serif" font-size="10.00">1</text>
</a>
</g>
</g>
</g>
</svg>
