<?xml version="1.0" encoding="UTF-8" standalone="no"?>
<!DOCTYPE svg PUBLIC "-//W3C//DTD SVG 1.1//EN"
 "http://www.w3.org/Graphics/SVG/1.1/DTD/svg11.dtd">
<!-- Generated by graphviz version 2.43.0 (0)
 -->
<!-- Title: sampling Pages: 1 -->
<svg width="134pt" height="151pt"
 viewBox="0.00 0.00 134.00 151.00" xmlns="http://www.w3.org/2000/svg" xmlns:xlink="http://www.w3.org/1999/xlink">
<g id="graph0" class="graph" transform="scale(1 1) rotate(0) translate(4 147)">
<title>sampling</title>
<polygon fill="white" stroke="transparent" points="-4,4 -4,-147 130,-147 130,4 -4,4"/>
<g id="clust1" class="cluster">
<title>clusterdir_e4cd57caa88bf1f4e1bf9521bc47c3c0</title>
<g id="a_clust1"><a xlink:href="dir_e4cd57caa88bf1f4e1bf9521bc47c3c0.html" target="_top" xlink:title="utilities">
<polygon fill="#ddddee" stroke="black" points="24,-64 24,-135 102,-135 102,-64 24,-64"/>
<text text-anchor="middle" x="63" y="-123" font-family="Helvetica,sans-Serif" font-size="10.00">utilities</text>
</a>
</g>
</g>
<!-- dir_0ad5cc9f0732862bd2f85bb38c1084f0 -->
<g id="node1" class="node">
<title>dir_0ad5cc9f0732862bd2f85bb38c1084f0</title>
<g id="a_node1"><a xlink:href="dir_0ad5cc9f0732862bd2f85bb38c1084f0.html" target="_top" xlink:title="sampling">
<polygon fill="#eeeeff" stroke="black" points="94,-108 32,-108 32,-72 94,-72 94,-108"/>
<text text-anchor="middle" x="63" y="-87.5" font-family="Helvetica,sans-Serif" font-size="10.00">sampling</text>
</a>
</g>
</g>
<!-- dir_e4878a39f7a1ff4e13f4c83bf1db7931 -->
<g id="node2" class="node">
<title>dir_e4878a39f7a1ff4e13f4c83bf1db7931</title>
<g id="a_node2"><a xlink:href="dir_e4878a39f7a1ff4e13f4c83bf1db7931.html" target="_top" xlink:title="ncutils">
<polygon fill="none" stroke="black" points="54,-36 0,-36 0,0 54,0 54,-36"/>
<text text-anchor="middle" x="27" y="-15.5" font-family="Helvetica,sans-Serif" font-size="10.00">ncutils</text>
</a>
</g>
</g>
<!-- dir_0ad5cc9f0732862bd2f85bb38c1084f0&#45;&gt;dir_e4878a39f7a1ff4e13f4c83bf1db7931 -->
<g id="edge1" class="edge">
<title>dir_0ad5cc9f0732862bd2f85bb38c1084f0&#45;&gt;dir_e4878a39f7a1ff4e13f4c83bf1db7931</title>
<path fill="none" stroke="black" d="M54.1,-71.7C50,-63.73 45.05,-54.1 40.51,-45.26"/>
<polygon fill="black" stroke="black" points="43.48,-43.4 35.8,-36.1 37.26,-46.6 43.48,-43.4"/>
<g id="a_edge1&#45;headlabel"><a xlink:href="dir_000021_000035.html" target="_top" xlink:title="3">
<text text-anchor="middle" x="47.65" y="-42.79" font-family="Helvetica,sans-Serif" font-size="10.00">3</text>
</a>
</g>
</g>
<!-- dir_3d3615e9a999cab4f3407307569d6ced -->
<g id="node3" class="node">
<title>dir_3d3615e9a999cab4f3407307569d6ced</title>
<g id="a_node3"><a xlink:href="dir_3d3615e9a999cab4f3407307569d6ced.html" target="_top" xlink:title="core">
<polygon fill="white" stroke="red" points="126,-36 72,-36 72,0 126,0 126,-36"/>
<text text-anchor="middle" x="99" y="-15.5" font-family="Helvetica,sans-Serif" font-size="10.00">core</text>
</a>
</g>
</g>
<!-- dir_0ad5cc9f0732862bd2f85bb38c1084f0&#45;&gt;dir_3d3615e9a999cab4f3407307569d6ced -->
<g id="edge2" class="edge">
<title>dir_0ad5cc9f0732862bd2f85bb38c1084f0&#45;&gt;dir_3d3615e9a999cab4f3407307569d6ced</title>
<path fill="none" stroke="black" d="M71.9,-71.7C76,-63.73 80.95,-54.1 85.49,-45.26"/>
<polygon fill="black" stroke="black" points="88.74,-46.6 90.2,-36.1 82.52,-43.4 88.74,-46.6"/>
<g id="a_edge2&#45;headlabel"><a xlink:href="dir_000021_000012.html" target="_top" xlink:title="2">
<text text-anchor="middle" x="89.62" y="-48.59" font-family="Helvetica,sans-Serif" font-size="10.00">2</text>
</a>
</g>
</g>
</g>
</svg>
