<?xml version="1.0" encoding="UTF-8" standalone="no"?>
<!DOCTYPE svg PUBLIC "-//W3C//DTD SVG 1.1//EN"
 "http://www.w3.org/Graphics/SVG/1.1/DTD/svg11.dtd">
<!-- Generated by graphviz version 2.43.0 (0)
 -->
<!-- Title: incflo.H Pages: 1 -->
<svg width="1378pt" height="95pt"
 viewBox="0.00 0.00 1378.00 95.00" xmlns="http://www.w3.org/2000/svg" xmlns:xlink="http://www.w3.org/1999/xlink">
<g id="graph0" class="graph" transform="scale(1 1) rotate(0) translate(4 91)">
<title>incflo.H</title>
<polygon fill="white" stroke="transparent" points="-4,4 -4,-91 1374,-91 1374,4 -4,4"/>
<!-- Node1 -->
<g id="node1" class="node">
<title>Node1</title>
<g id="a_node1"><a xlink:title=" ">
<polygon fill="#bfbfbf" stroke="black" points="688.5,-67.5 688.5,-86.5 741.5,-86.5 741.5,-67.5 688.5,-67.5"/>
<text text-anchor="middle" x="715" y="-74.5" font-family="Helvetica,sans-Serif" font-size="10.00">incflo.H</text>
</a>
</g>
</g>
<!-- Node2 -->
<g id="node2" class="node">
<title>Node2</title>
<g id="a_node2"><a xlink:href="derive_8cpp.html" target="_top" xlink:title=" ">
<polygon fill="white" stroke="black" points="0,-6 0,-25 68,-25 68,-6 0,-6"/>
<text text-anchor="middle" x="34" y="-13" font-family="Helvetica,sans-Serif" font-size="10.00">derive.cpp</text>
</a>
</g>
</g>
<!-- Node1&#45;&gt;Node2 -->
<g id="edge1" class="edge">
<title>Node1&#45;&gt;Node2</title>
<path fill="none" stroke="midnightblue" d="M678.19,-76.65C579.66,-77.71 302.06,-76.11 77,-31 70.05,-29.61 62.67,-27.4 56.02,-25.13"/>
<polygon fill="midnightblue" stroke="midnightblue" points="678.28,-80.15 688.24,-76.53 678.2,-73.15 678.28,-80.15"/>
</g>
<!-- Node3 -->
<g id="node3" class="node">
<title>Node3</title>
<g id="a_node3"><a xlink:href="incflo__diffusion_8cpp.html" target="_top" xlink:title=" ">
<polygon fill="white" stroke="black" points="86,-6 86,-25 196,-25 196,-6 86,-6"/>
<text text-anchor="middle" x="141" y="-13" font-family="Helvetica,sans-Serif" font-size="10.00">incflo_diffusion.cpp</text>
</a>
</g>
</g>
<!-- Node1&#45;&gt;Node3 -->
<g id="edge2" class="edge">
<title>Node1&#45;&gt;Node3</title>
<path fill="none" stroke="midnightblue" d="M678.22,-74.46C594.03,-70.55 381,-58.57 205,-31 195.1,-29.45 184.44,-27.25 174.71,-25.03"/>
<polygon fill="midnightblue" stroke="midnightblue" points="678.15,-77.96 688.3,-74.91 678.47,-70.96 678.15,-77.96"/>
</g>
<!-- Node4 -->
<g id="node4" class="node">
<title>Node4</title>
<g id="a_node4"><a xlink:href="incflo_8cpp.html" target="_top" xlink:title=" ">
<polygon fill="white" stroke="black" points="214.5,-6 214.5,-25 277.5,-25 277.5,-6 214.5,-6"/>
<text text-anchor="middle" x="246" y="-13" font-family="Helvetica,sans-Serif" font-size="10.00">incflo.cpp</text>
</a>
</g>
</g>
<!-- Node1&#45;&gt;Node4 -->
<g id="edge3" class="edge">
<title>Node1&#45;&gt;Node4</title>
<path fill="none" stroke="midnightblue" d="M677.78,-75.02C602.9,-72.41 429.05,-63.11 287,-31 280.52,-29.53 273.65,-27.36 267.42,-25.14"/>
<polygon fill="midnightblue" stroke="midnightblue" points="677.99,-78.53 688.1,-75.36 678.22,-71.53 677.99,-78.53"/>
</g>
<!-- Node5 -->
<g id="node5" class="node">
<title>Node5</title>
<g id="a_node5"><a xlink:href="incflo__advance_8cpp.html" target="_top" xlink:title=" ">
<polygon fill="white" stroke="black" points="296,-6 296,-25 406,-25 406,-6 296,-6"/>
<text text-anchor="middle" x="351" y="-13" font-family="Helvetica,sans-Serif" font-size="10.00">incflo_advance.cpp</text>
</a>
</g>
</g>
<!-- Node1&#45;&gt;Node5 -->
<g id="edge4" class="edge">
<title>Node1&#45;&gt;Node5</title>
<path fill="none" stroke="midnightblue" d="M678.14,-71.36C621.4,-64.03 509.33,-48.74 415,-31 405.71,-29.25 395.71,-27.11 386.45,-25.02"/>
<polygon fill="midnightblue" stroke="midnightblue" points="678.04,-74.88 688.4,-72.68 678.93,-67.94 678.04,-74.88"/>
</g>
<!-- Node6 -->
<g id="node6" class="node">
<title>Node6</title>
<g id="a_node6"><a xlink:href="incflo__compute__dt_8cpp.html" target="_top" xlink:title=" ">
<polygon fill="white" stroke="black" points="424,-6 424,-25 550,-25 550,-6 424,-6"/>
<text text-anchor="middle" x="487" y="-13" font-family="Helvetica,sans-Serif" font-size="10.00">incflo_compute_dt.cpp</text>
</a>
</g>
</g>
<!-- Node1&#45;&gt;Node6 -->
<g id="edge5" class="edge">
<title>Node1&#45;&gt;Node6</title>
<path fill="none" stroke="midnightblue" d="M678.72,-66.53C634.89,-55.09 561.81,-36.02 519.67,-25.03"/>
<polygon fill="midnightblue" stroke="midnightblue" points="677.84,-69.92 688.4,-69.06 679.61,-63.15 677.84,-69.92"/>
</g>
<!-- Node7 -->
<g id="node7" class="node">
<title>Node7</title>
<g id="a_node7"><a xlink:href="incflo__regrid_8cpp.html" target="_top" xlink:title=" ">
<polygon fill="white" stroke="black" points="568.5,-6 568.5,-25 665.5,-25 665.5,-6 568.5,-6"/>
<text text-anchor="middle" x="617" y="-13" font-family="Helvetica,sans-Serif" font-size="10.00">incflo_regrid.cpp</text>
</a>
</g>
</g>
<!-- Node1&#45;&gt;Node7 -->
<g id="edge6" class="edge">
<title>Node1&#45;&gt;Node7</title>
<path fill="none" stroke="midnightblue" d="M692.34,-62.24C673.41,-50.75 647.01,-34.72 631.01,-25.01"/>
<polygon fill="midnightblue" stroke="midnightblue" points="690.59,-65.28 700.96,-67.48 694.23,-59.29 690.59,-65.28"/>
</g>
<!-- Node8 -->
<g id="node8" class="node">
<title>Node8</title>
<g id="a_node8"><a xlink:href="main_8cpp.html" target="_top" xlink:title=" ">
<polygon fill="white" stroke="black" points="684,-6 684,-25 746,-25 746,-6 684,-6"/>
<text text-anchor="middle" x="715" y="-13" font-family="Helvetica,sans-Serif" font-size="10.00">main.cpp</text>
</a>
</g>
</g>
<!-- Node1&#45;&gt;Node8 -->
<g id="edge7" class="edge">
<title>Node1&#45;&gt;Node8</title>
<path fill="none" stroke="midnightblue" d="M715,-57.32C715,-46.5 715,-33.4 715,-25.01"/>
<polygon fill="midnightblue" stroke="midnightblue" points="711.5,-57.48 715,-67.48 718.5,-57.48 711.5,-57.48"/>
</g>
<!-- Node9 -->
<g id="node9" class="node">
<title>Node9</title>
<g id="a_node9"><a xlink:href="incflo__apply__nodal__projection_8cpp.html" target="_top" xlink:title=" ">
<polygon fill="white" stroke="black" points="764.5,-0.5 764.5,-30.5 871.5,-30.5 871.5,-0.5 764.5,-0.5"/>
<text text-anchor="start" x="772.5" y="-18.5" font-family="Helvetica,sans-Serif" font-size="10.00">incflo_apply_nodal</text>
<text text-anchor="middle" x="818" y="-7.5" font-family="Helvetica,sans-Serif" font-size="10.00">_projection.cpp</text>
</a>
</g>
</g>
<!-- Node1&#45;&gt;Node9 -->
<g id="edge8" class="edge">
<title>Node1&#45;&gt;Node9</title>
<path fill="none" stroke="midnightblue" d="M738.76,-62.28C755.24,-52.75 777.13,-40.11 793.72,-30.52"/>
<polygon fill="midnightblue" stroke="midnightblue" points="736.67,-59.44 729.76,-67.48 740.17,-65.5 736.67,-59.44"/>
</g>
<!-- Node10 -->
<g id="node10" class="node">
<title>Node10</title>
<g id="a_node10"><a xlink:href="init_8cpp.html" target="_top" xlink:title=" ">
<polygon fill="white" stroke="black" points="889.5,-6 889.5,-25 942.5,-25 942.5,-6 889.5,-6"/>
<text text-anchor="middle" x="916" y="-13" font-family="Helvetica,sans-Serif" font-size="10.00">init.cpp</text>
</a>
</g>
</g>
<!-- Node1&#45;&gt;Node10 -->
<g id="edge9" class="edge">
<title>Node1&#45;&gt;Node10</title>
<path fill="none" stroke="midnightblue" d="M751.69,-67.49C785.6,-59.28 837.2,-45.94 881,-31 886.1,-29.26 891.53,-27.15 896.55,-25.08"/>
<polygon fill="midnightblue" stroke="midnightblue" points="750.68,-64.13 741.77,-69.86 752.31,-70.94 750.68,-64.13"/>
</g>
<!-- Node11 -->
<g id="node11" class="node">
<title>Node11</title>
<g id="a_node11"><a xlink:href="set__background__pressure_8cpp.html" target="_top" xlink:title=" ">
<polygon fill="white" stroke="black" points="960.5,-6 960.5,-25 1121.5,-25 1121.5,-6 960.5,-6"/>
<text text-anchor="middle" x="1041" y="-13" font-family="Helvetica,sans-Serif" font-size="10.00">set_background_pressure.cpp</text>
</a>
</g>
</g>
<!-- Node1&#45;&gt;Node11 -->
<g id="edge10" class="edge">
<title>Node1&#45;&gt;Node11</title>
<path fill="none" stroke="midnightblue" d="M751.76,-69.29C811.34,-58.42 928.89,-36.96 994.3,-25.02"/>
<polygon fill="midnightblue" stroke="midnightblue" points="750.89,-65.89 741.68,-71.13 752.14,-72.78 750.89,-65.89"/>
</g>
<!-- Node12 -->
<g id="node12" class="node">
<title>Node12</title>
<g id="a_node12"><a xlink:href="diagnostics_8cpp.html" target="_top" xlink:title=" ">
<polygon fill="white" stroke="black" points="1140,-6 1140,-25 1232,-25 1232,-6 1140,-6"/>
<text text-anchor="middle" x="1186" y="-13" font-family="Helvetica,sans-Serif" font-size="10.00">diagnostics.cpp</text>
</a>
</g>
</g>
<!-- Node1&#45;&gt;Node12 -->
<g id="edge11" class="edge">
<title>Node1&#45;&gt;Node12</title>
<path fill="none" stroke="midnightblue" d="M752.04,-73.86C825.04,-69.24 992.45,-56.61 1131,-31 1139.45,-29.44 1148.51,-27.26 1156.78,-25.07"/>
<polygon fill="midnightblue" stroke="midnightblue" points="751.73,-70.38 741.97,-74.49 752.17,-77.36 751.73,-70.38"/>
</g>
<!-- Node13 -->
<g id="node13" class="node">
<title>Node13</title>
<g id="a_node13"><a xlink:href="io_8cpp.html" target="_top" xlink:title=" ">
<polygon fill="white" stroke="black" points="1250,-6 1250,-25 1296,-25 1296,-6 1250,-6"/>
<text text-anchor="middle" x="1273" y="-13" font-family="Helvetica,sans-Serif" font-size="10.00">io.cpp</text>
</a>
</g>
</g>
<!-- Node1&#45;&gt;Node13 -->
<g id="edge12" class="edge">
<title>Node1&#45;&gt;Node13</title>
<path fill="none" stroke="midnightblue" d="M751.8,-74.48C855.43,-69.93 1148.18,-55.24 1241,-31 1246.31,-29.61 1251.84,-27.41 1256.78,-25.13"/>
<polygon fill="midnightblue" stroke="midnightblue" points="751.36,-70.99 741.53,-74.92 751.67,-77.98 751.36,-70.99"/>
</g>
<!-- Node14 -->
<g id="node14" class="node">
<title>Node14</title>
<g id="a_node14"><a xlink:href="_a_b_l_8cpp.html" target="_top" xlink:title=" ">
<polygon fill="white" stroke="black" points="1314,-6 1314,-25 1370,-25 1370,-6 1314,-6"/>
<text text-anchor="middle" x="1342" y="-13" font-family="Helvetica,sans-Serif" font-size="10.00">ABL.cpp</text>
</a>
</g>
</g>
<!-- Node1&#45;&gt;Node14 -->
<g id="edge13" class="edge">
<title>Node1&#45;&gt;Node14</title>
<path fill="none" stroke="midnightblue" d="M751.64,-74.63C863.4,-70.23 1198.77,-55.29 1305,-31 1311.05,-29.62 1317.42,-27.41 1323.14,-25.14"/>
<polygon fill="midnightblue" stroke="midnightblue" points="751.4,-71.14 741.54,-75.02 751.67,-78.13 751.4,-71.14"/>
</g>
</g>
</svg>
