<?xml version="1.0" encoding="UTF-8" standalone="no"?>
<!DOCTYPE svg PUBLIC "-//W3C//DTD SVG 1.1//EN"
 "http://www.w3.org/Graphics/SVG/1.1/DTD/svg11.dtd">
<!-- Generated by graphviz version 2.43.0 (0)
 -->
<!-- Title: Graphical Class Hierarchy Pages: 1 -->
<svg width="270pt" height="671pt"
 viewBox="0.00 0.00 270.00 671.00" xmlns="http://www.w3.org/2000/svg" xmlns:xlink="http://www.w3.org/1999/xlink">
<g id="graph0" class="graph" transform="scale(1 1) rotate(0) translate(4 667)">
<title>Graphical Class Hierarchy</title>
<polygon fill="white" stroke="transparent" points="-4,4 -4,-667 266,-667 266,4 -4,4"/>
<!-- Node103 -->
<g id="node1" class="node">
<title>Node103</title>
<g id="a_node1"><a xlink:title=" ">
<polygon fill="white" stroke="#bfbfbf" points="0,-304.5 0,-323.5 57,-323.5 57,-304.5 0,-304.5"/>
<text text-anchor="middle" x="28.5" y="-311.5" font-family="Helvetica,sans-Serif" font-size="10.00">Register</text>
</a>
</g>
</g>
<!-- Node0 -->
<g id="node2" class="node">
<title>Node0</title>
<g id="a_node2"><a xlink:href="classamr__wind_1_1_a_b_l.html" target="_top" xlink:title="Atmospheric Boundary Layer physics.">
<polygon fill="white" stroke="black" points="133,-643.5 133,-662.5 222,-662.5 222,-643.5 133,-643.5"/>
<text text-anchor="middle" x="177.5" y="-650.5" font-family="Helvetica,sans-Serif" font-size="10.00">amr_wind::ABL</text>
</a>
</g>
</g>
<!-- Node103&#45;&gt;Node0 -->
<g id="edge1" class="edge">
<title>Node103&#45;&gt;Node0</title>
<path fill="none" stroke="midnightblue" d="M30.67,-333.77C34.81,-396.68 50.81,-590.62 93,-634 103.37,-644.66 118.37,-649.89 132.82,-652.31"/>
<polygon fill="midnightblue" stroke="midnightblue" points="34.15,-333.38 30.03,-323.61 27.17,-333.81 34.15,-333.38"/>
</g>
<!-- Node105 -->
<g id="node3" class="node">
<title>Node105</title>
<g id="a_node3"><a xlink:href="classamr__wind_1_1actuator_1_1_actuator.html" target="_top" xlink:title="Actuator line/disk modeling for wind turbines.">
<polygon fill="white" stroke="black" points="122,-594 122,-624 233,-624 233,-594 122,-594"/>
<text text-anchor="start" x="130" y="-612" font-family="Helvetica,sans-Serif" font-size="10.00">amr_wind::actuator</text>
<text text-anchor="middle" x="177.5" y="-601" font-family="Helvetica,sans-Serif" font-size="10.00">::Actuator</text>
</a>
</g>
</g>
<!-- Node103&#45;&gt;Node105 -->
<g id="edge2" class="edge">
<title>Node103&#45;&gt;Node105</title>
<path fill="none" stroke="midnightblue" d="M31.6,-333.8C37.9,-389.74 58.41,-547.27 93,-584 100.78,-592.26 111.17,-597.83 121.97,-601.57"/>
<polygon fill="midnightblue" stroke="midnightblue" points="35.06,-333.32 30.5,-323.76 28.11,-334.08 35.06,-333.32"/>
</g>
<!-- Node106 -->
<g id="node4" class="node">
<title>Node106</title>
<g id="a_node4"><a xlink:href="classamr__wind_1_1_boussinesq_bubble.html" target="_top" xlink:title="Boussinesq Bubble physics.">
<polygon fill="white" stroke="black" points="97.5,-555.5 97.5,-574.5 257.5,-574.5 257.5,-555.5 97.5,-555.5"/>
<text text-anchor="middle" x="177.5" y="-562.5" font-family="Helvetica,sans-Serif" font-size="10.00">amr_wind::BoussinesqBubble</text>
</a>
</g>
</g>
<!-- Node103&#45;&gt;Node106 -->
<g id="edge3" class="edge">
<title>Node103&#45;&gt;Node106</title>
<path fill="none" stroke="midnightblue" d="M28.63,-333.79C27.82,-378.54 32.51,-488.08 93,-546 96.97,-549.8 101.54,-552.91 106.45,-555.43"/>
<polygon fill="midnightblue" stroke="midnightblue" points="32.14,-333.76 28.94,-323.66 25.14,-333.55 32.14,-333.76"/>
</g>
<!-- Node107 -->
<g id="node5" class="node">
<title>Node107</title>
<g id="a_node5"><a xlink:href="classamr__wind_1_1channel__flow_1_1_channel_flow.html" target="_top" xlink:title="Channel Flow physics.">
<polygon fill="white" stroke="black" points="110.5,-506 110.5,-536 244.5,-536 244.5,-506 110.5,-506"/>
<text text-anchor="start" x="118.5" y="-524" font-family="Helvetica,sans-Serif" font-size="10.00">amr_wind::channel_flow</text>
<text text-anchor="middle" x="177.5" y="-513" font-family="Helvetica,sans-Serif" font-size="10.00">::ChannelFlow</text>
</a>
</g>
</g>
<!-- Node103&#45;&gt;Node107 -->
<g id="edge4" class="edge">
<title>Node103&#45;&gt;Node107</title>
<path fill="none" stroke="midnightblue" d="M30.58,-333.67C33.71,-370.99 45.87,-452.36 93,-497 98.04,-501.77 103.96,-505.6 110.29,-508.68"/>
<polygon fill="midnightblue" stroke="midnightblue" points="34.07,-333.31 29.87,-323.59 27.08,-333.81 34.07,-333.31"/>
</g>
<!-- Node108 -->
<g id="node6" class="node">
<title>Node108</title>
<g id="a_node6"><a xlink:href="classamr__wind_1_1ctv_1_1_convecting_taylor_vortex.html" target="_top" xlink:title="Convecting Taylor Vortex physics.">
<polygon fill="white" stroke="black" points="104.5,-457 104.5,-487 250.5,-487 250.5,-457 104.5,-457"/>
<text text-anchor="start" x="112.5" y="-475" font-family="Helvetica,sans-Serif" font-size="10.00">amr_wind::ctv::Convecting</text>
<text text-anchor="middle" x="177.5" y="-464" font-family="Helvetica,sans-Serif" font-size="10.00">TaylorVortex</text>
</a>
</g>
</g>
<!-- Node103&#45;&gt;Node108 -->
<g id="edge5" class="edge">
<title>Node103&#45;&gt;Node108</title>
<path fill="none" stroke="midnightblue" d="M33.51,-333.43C40.5,-362.4 57.67,-416.75 93,-447 97.48,-450.84 102.54,-454.09 107.89,-456.84"/>
<polygon fill="midnightblue" stroke="midnightblue" points="36.92,-332.66 31.31,-323.67 30.09,-334.19 36.92,-332.66"/>
</g>
<!-- Node109 -->
<g id="node7" class="node">
<title>Node109</title>
<g id="a_node7"><a xlink:href="classamr__wind_1_1_dam_break.html" target="_top" xlink:title=" ">
<polygon fill="white" stroke="black" points="116.5,-418.5 116.5,-437.5 238.5,-437.5 238.5,-418.5 116.5,-418.5"/>
<text text-anchor="middle" x="177.5" y="-425.5" font-family="Helvetica,sans-Serif" font-size="10.00">amr_wind::DamBreak</text>
</a>
</g>
</g>
<!-- Node103&#45;&gt;Node109 -->
<g id="edge6" class="edge">
<title>Node103&#45;&gt;Node109</title>
<path fill="none" stroke="midnightblue" d="M37.04,-333.09C46.68,-354.92 65.47,-390.06 93,-409 99.98,-413.8 107.99,-417.41 116.23,-420.11"/>
<polygon fill="midnightblue" stroke="midnightblue" points="40.15,-331.44 33.05,-323.58 33.69,-334.15 40.15,-331.44"/>
</g>
<!-- Node110 -->
<g id="node8" class="node">
<title>Node110</title>
<g id="a_node8"><a xlink:href="classamr__wind_1_1_ekman_spiral.html" target="_top" xlink:title="Ekman Spiral physics.">
<polygon fill="white" stroke="black" points="111.5,-380.5 111.5,-399.5 243.5,-399.5 243.5,-380.5 111.5,-380.5"/>
<text text-anchor="middle" x="177.5" y="-387.5" font-family="Helvetica,sans-Serif" font-size="10.00">amr_wind::EkmanSpiral</text>
</a>
</g>
</g>
<!-- Node103&#45;&gt;Node110 -->
<g id="edge7" class="edge">
<title>Node103&#45;&gt;Node110</title>
<path fill="none" stroke="midnightblue" d="M44.36,-331.45C56.24,-344.3 74.01,-361.17 93,-371 100.53,-374.9 108.84,-378 117.22,-380.47"/>
<polygon fill="midnightblue" stroke="midnightblue" points="46.71,-328.84 37.44,-323.71 41.49,-333.5 46.71,-328.84"/>
</g>
<!-- Node111 -->
<g id="node9" class="node">
<title>Node111</title>
<g id="a_node9"><a xlink:href="classamr__wind_1_1_free_stream.html" target="_top" xlink:title="Freestream physics.">
<polygon fill="white" stroke="black" points="114,-342.5 114,-361.5 241,-361.5 241,-342.5 114,-342.5"/>
<text text-anchor="middle" x="177.5" y="-349.5" font-family="Helvetica,sans-Serif" font-size="10.00">amr_wind::FreeStream</text>
</a>
</g>
</g>
<!-- Node103&#45;&gt;Node111 -->
<g id="edge8" class="edge">
<title>Node103&#45;&gt;Node111</title>
<path fill="none" stroke="midnightblue" d="M66.93,-325.65C75.47,-328.18 84.52,-330.77 93,-333 105.65,-336.33 119.47,-339.61 132.16,-342.49"/>
<polygon fill="midnightblue" stroke="midnightblue" points="67.79,-322.26 57.21,-322.73 65.77,-328.96 67.79,-322.26"/>
</g>
<!-- Node112 -->
<g id="node10" class="node">
<title>Node112</title>
<g id="a_node10"><a xlink:href="classamr__wind_1_1mms_1_1_m_m_s.html" target="_top" xlink:title="Method of manufactured solutions physics.">
<polygon fill="white" stroke="black" points="115,-304.5 115,-323.5 240,-323.5 240,-304.5 115,-304.5"/>
<text text-anchor="middle" x="177.5" y="-311.5" font-family="Helvetica,sans-Serif" font-size="10.00">amr_wind::mms::MMS</text>
</a>
</g>
</g>
<!-- Node103&#45;&gt;Node112 -->
<g id="edge9" class="edge">
<title>Node103&#45;&gt;Node112</title>
<path fill="none" stroke="midnightblue" d="M67.23,-314C81.73,-314 98.69,-314 114.86,-314"/>
<polygon fill="midnightblue" stroke="midnightblue" points="67.15,-310.5 57.15,-314 67.15,-317.5 67.15,-310.5"/>
</g>
<!-- Node113 -->
<g id="node11" class="node">
<title>Node113</title>
<g id="a_node11"><a xlink:href="classamr__wind_1_1_multi_phase.html" target="_top" xlink:title=" ">
<polygon fill="white" stroke="black" points="115,-266.5 115,-285.5 240,-285.5 240,-266.5 115,-266.5"/>
<text text-anchor="middle" x="177.5" y="-273.5" font-family="Helvetica,sans-Serif" font-size="10.00">amr_wind::MultiPhase</text>
</a>
</g>
</g>
<!-- Node103&#45;&gt;Node113 -->
<g id="edge10" class="edge">
<title>Node103&#45;&gt;Node113</title>
<path fill="none" stroke="midnightblue" d="M66.93,-302.35C75.47,-299.82 84.52,-297.23 93,-295 105.65,-291.67 119.47,-288.39 132.16,-285.51"/>
<polygon fill="midnightblue" stroke="midnightblue" points="65.77,-299.04 57.21,-305.27 67.79,-305.74 65.77,-299.04"/>
</g>
<!-- Node114 -->
<g id="node12" class="node">
<title>Node114</title>
<g id="a_node12"><a xlink:href="classamr__wind_1_1_rain_drop.html" target="_top" xlink:title=" ">
<polygon fill="white" stroke="black" points="119.5,-228.5 119.5,-247.5 235.5,-247.5 235.5,-228.5 119.5,-228.5"/>
<text text-anchor="middle" x="177.5" y="-235.5" font-family="Helvetica,sans-Serif" font-size="10.00">amr_wind::RainDrop</text>
</a>
</g>
</g>
<!-- Node103&#45;&gt;Node114 -->
<g id="edge11" class="edge">
<title>Node103&#45;&gt;Node114</title>
<path fill="none" stroke="midnightblue" d="M44.36,-296.55C56.24,-283.7 74.01,-266.83 93,-257 101.19,-252.76 110.3,-249.46 119.42,-246.9"/>
<polygon fill="midnightblue" stroke="midnightblue" points="41.49,-294.5 37.44,-304.29 46.71,-299.16 41.49,-294.5"/>
</g>
<!-- Node115 -->
<g id="node13" class="node">
<title>Node115</title>
<g id="a_node13"><a xlink:href="classamr__wind_1_1_rayleigh_taylor.html" target="_top" xlink:title="Rayleigh Taylor physics.">
<polygon fill="white" stroke="black" points="106,-190.5 106,-209.5 249,-209.5 249,-190.5 106,-190.5"/>
<text text-anchor="middle" x="177.5" y="-197.5" font-family="Helvetica,sans-Serif" font-size="10.00">amr_wind::RayleighTaylor</text>
</a>
</g>
</g>
<!-- Node103&#45;&gt;Node115 -->
<g id="edge12" class="edge">
<title>Node103&#45;&gt;Node115</title>
<path fill="none" stroke="midnightblue" d="M37.04,-294.91C46.68,-273.08 65.47,-237.94 93,-219 98.63,-215.12 104.94,-212.03 111.49,-209.55"/>
<polygon fill="midnightblue" stroke="midnightblue" points="33.69,-293.85 33.05,-304.42 40.15,-296.56 33.69,-293.85"/>
</g>
<!-- Node116 -->
<g id="node14" class="node">
<title>Node116</title>
<g id="a_node14"><a xlink:href="classamr__wind_1_1_sloshing_tank.html" target="_top" xlink:title=" ">
<polygon fill="white" stroke="black" points="110.5,-152.5 110.5,-171.5 244.5,-171.5 244.5,-152.5 110.5,-152.5"/>
<text text-anchor="middle" x="177.5" y="-159.5" font-family="Helvetica,sans-Serif" font-size="10.00">amr_wind::SloshingTank</text>
</a>
</g>
</g>
<!-- Node103&#45;&gt;Node116 -->
<g id="edge13" class="edge">
<title>Node103&#45;&gt;Node116</title>
<path fill="none" stroke="midnightblue" d="M33.26,-294.27C39.92,-264.9 56.68,-210.05 93,-181 98.22,-176.82 104.19,-173.53 110.48,-170.93"/>
<polygon fill="midnightblue" stroke="midnightblue" points="29.81,-293.66 31.18,-304.17 36.66,-295.1 29.81,-293.66"/>
</g>
<!-- Node117 -->
<g id="node15" class="node">
<title>Node117</title>
<g id="a_node15"><a xlink:href="classamr__wind_1_1_synthetic_turbulence.html" target="_top" xlink:title=" ">
<polygon fill="white" stroke="black" points="93,-114.5 93,-133.5 262,-133.5 262,-114.5 93,-114.5"/>
<text text-anchor="middle" x="177.5" y="-121.5" font-family="Helvetica,sans-Serif" font-size="10.00">amr_wind::SyntheticTurbulence</text>
</a>
</g>
</g>
<!-- Node103&#45;&gt;Node117 -->
<g id="edge14" class="edge">
<title>Node103&#45;&gt;Node117</title>
<path fill="none" stroke="midnightblue" d="M30.94,-293.89C34.63,-257.95 47.65,-182.73 93,-143 97.36,-139.18 102.33,-136.08 107.62,-133.58"/>
<polygon fill="midnightblue" stroke="midnightblue" points="27.43,-293.82 30.04,-304.09 34.4,-294.44 27.43,-293.82"/>
</g>
<!-- Node118 -->
<g id="node16" class="node">
<title>Node118</title>
<g id="a_node16"><a xlink:href="classamr__wind_1_1_taylor_green_vortex.html" target="_top" xlink:title="Taylor Green Vortex physics.">
<polygon fill="white" stroke="black" points="97,-76.5 97,-95.5 258,-95.5 258,-76.5 97,-76.5"/>
<text text-anchor="middle" x="177.5" y="-83.5" font-family="Helvetica,sans-Serif" font-size="10.00">amr_wind::TaylorGreenVortex</text>
</a>
</g>
</g>
<!-- Node103&#45;&gt;Node118 -->
<g id="edge15" class="edge">
<title>Node103&#45;&gt;Node118</title>
<path fill="none" stroke="midnightblue" d="M29.35,-294.2C30.16,-252.66 38.21,-156.02 93,-105 97.03,-101.25 101.63,-98.19 106.57,-95.69"/>
<polygon fill="midnightblue" stroke="midnightblue" points="25.85,-294.35 29.28,-304.38 32.85,-294.4 25.85,-294.35"/>
</g>
<!-- Node119 -->
<g id="node17" class="node">
<title>Node119</title>
<g id="a_node17"><a xlink:href="classamr__wind_1_1_vortex_patch.html" target="_top" xlink:title=" ">
<polygon fill="white" stroke="black" points="113.5,-38.5 113.5,-57.5 241.5,-57.5 241.5,-38.5 113.5,-38.5"/>
<text text-anchor="middle" x="177.5" y="-45.5" font-family="Helvetica,sans-Serif" font-size="10.00">amr_wind::VortexPatch</text>
</a>
</g>
</g>
<!-- Node103&#45;&gt;Node119 -->
<g id="edge16" class="edge">
<title>Node103&#45;&gt;Node119</title>
<path fill="none" stroke="midnightblue" d="M31.9,-294.41C38.75,-241.76 60.03,-99.07 93,-67 98.76,-61.4 105.8,-57.32 113.33,-54.37"/>
<polygon fill="midnightblue" stroke="midnightblue" points="28.41,-294.1 30.63,-304.46 35.36,-294.98 28.41,-294.1"/>
</g>
<!-- Node120 -->
<g id="node18" class="node">
<title>Node120</title>
<g id="a_node18"><a xlink:href="classamr__wind_1_1_zalesak_disk.html" target="_top" xlink:title=" ">
<polygon fill="white" stroke="black" points="112,-0.5 112,-19.5 243,-19.5 243,-0.5 112,-0.5"/>
<text text-anchor="middle" x="177.5" y="-7.5" font-family="Helvetica,sans-Serif" font-size="10.00">amr_wind::ZalesakDisk</text>
</a>
</g>
</g>
<!-- Node103&#45;&gt;Node120 -->
<g id="edge17" class="edge">
<title>Node103&#45;&gt;Node120</title>
<path fill="none" stroke="midnightblue" d="M31.2,-294.14C36.61,-235.84 55.28,-66.89 93,-29 98.35,-23.63 104.88,-19.64 111.91,-16.7"/>
<polygon fill="midnightblue" stroke="midnightblue" points="27.7,-293.98 30.3,-304.25 34.68,-294.6 27.7,-293.98"/>
</g>
</g>
</svg>
