<?xml version="1.0" encoding="UTF-8" standalone="no"?>
<!DOCTYPE svg PUBLIC "-//W3C//DTD SVG 1.1//EN"
 "http://www.w3.org/Graphics/SVG/1.1/DTD/svg11.dtd">
<!-- Generated by graphviz version 2.43.0 (0)
 -->
<!-- Title: Graphical Class Hierarchy Pages: 1 -->
<svg width="229pt" height="137pt"
 viewBox="0.00 0.00 229.00 137.00" xmlns="http://www.w3.org/2000/svg" xmlns:xlink="http://www.w3.org/1999/xlink">
<g id="graph0" class="graph" transform="scale(1 1) rotate(0) translate(4 133)">
<title>Graphical Class Hierarchy</title>
<polygon fill="white" stroke="transparent" points="-4,4 -4,-133 225,-133 225,4 -4,4"/>
<!-- Node135 -->
<g id="node1" class="node">
<title>Node135</title>
<g id="a_node1"><a xlink:title=" ">
<polygon fill="white" stroke="#bfbfbf" points="0,-55 0,-74 57,-74 57,-55 0,-55"/>
<text text-anchor="middle" x="28.5" y="-62" font-family="Helvetica,sans-Serif" font-size="10.00">Register</text>
</a>
</g>
</g>
<!-- Node0 -->
<g id="node2" class="node">
<title>Node0</title>
<g id="a_node2"><a xlink:href="classamr__wind_1_1averaging_1_1_time_averaging.html" target="_top" xlink:title="A collection of time&#45;averaged quantities.">
<polygon fill="white" stroke="black" points="97.5,-98.5 97.5,-128.5 216.5,-128.5 216.5,-98.5 97.5,-98.5"/>
<text text-anchor="start" x="105.5" y="-116.5" font-family="Helvetica,sans-Serif" font-size="10.00">amr_wind::averaging</text>
<text text-anchor="middle" x="157" y="-105.5" font-family="Helvetica,sans-Serif" font-size="10.00">::TimeAveraging</text>
</a>
</g>
</g>
<!-- Node135&#45;&gt;Node0 -->
<g id="edge1" class="edge">
<title>Node135&#45;&gt;Node0</title>
<path fill="none" stroke="midnightblue" d="M62.92,-77.74C72.62,-81.56 83.22,-85.71 93,-89.5 100.53,-92.42 108.58,-95.5 116.32,-98.46"/>
<polygon fill="midnightblue" stroke="midnightblue" points="64.18,-74.47 53.6,-74.06 61.62,-80.99 64.18,-74.47"/>
</g>
<!-- Node137 -->
<g id="node3" class="node">
<title>Node137</title>
<g id="a_node3"><a xlink:href="classamr__wind_1_1field__norms_1_1_field_norms.html" target="_top" xlink:title="field norm object">
<polygon fill="white" stroke="black" points="93,-49.5 93,-79.5 221,-79.5 221,-49.5 93,-49.5"/>
<text text-anchor="start" x="101" y="-67.5" font-family="Helvetica,sans-Serif" font-size="10.00">amr_wind::field_norms</text>
<text text-anchor="middle" x="157" y="-56.5" font-family="Helvetica,sans-Serif" font-size="10.00">::FieldNorms</text>
</a>
</g>
</g>
<!-- Node135&#45;&gt;Node137 -->
<g id="edge2" class="edge">
<title>Node135&#45;&gt;Node137</title>
<path fill="none" stroke="midnightblue" d="M67.39,-64.5C75.42,-64.5 84.1,-64.5 92.79,-64.5"/>
<polygon fill="midnightblue" stroke="midnightblue" points="67.26,-61 57.26,-64.5 67.26,-68 67.26,-61"/>
</g>
<!-- Node138 -->
<g id="node4" class="node">
<title>Node138</title>
<g id="a_node4"><a xlink:href="classamr__wind_1_1sampling_1_1_sampling.html" target="_top" xlink:title="Collection of data sampling objects.">
<polygon fill="white" stroke="black" points="99,-0.5 99,-30.5 215,-30.5 215,-0.5 99,-0.5"/>
<text text-anchor="start" x="107" y="-18.5" font-family="Helvetica,sans-Serif" font-size="10.00">amr_wind::sampling</text>
<text text-anchor="middle" x="157" y="-7.5" font-family="Helvetica,sans-Serif" font-size="10.00">::Sampling</text>
</a>
</g>
</g>
<!-- Node135&#45;&gt;Node138 -->
<g id="edge3" class="edge">
<title>Node135&#45;&gt;Node138</title>
<path fill="none" stroke="midnightblue" d="M63.92,-51.17C80.31,-44.82 99.98,-37.2 116.93,-30.63"/>
<polygon fill="midnightblue" stroke="midnightblue" points="62.25,-48.06 54.19,-54.94 64.78,-54.59 62.25,-48.06"/>
</g>
</g>
</svg>
