<?xml version="1.0" encoding="UTF-8" standalone="no"?>
<!DOCTYPE svg PUBLIC "-//W3C//DTD SVG 1.1//EN"
 "http://www.w3.org/Graphics/SVG/1.1/DTD/svg11.dtd">
<!-- Generated by graphviz version 2.43.0 (0)
 -->
<!-- Title: nc_interface.H Pages: 1 -->
<!--zoomable 207 -->
<svg id="main" version="1.1" xmlns="http://www.w3.org/2000/svg" xmlns:xlink="http://www.w3.org/1999/xlink" xml:space="preserve" onload="init(evt)">
<style type="text/css"><![CDATA[
.edge:hover path { stroke: red; }
.edge:hover polygon { stroke: red; fill: red; }
]]></style>
<script type="text/javascript"><![CDATA[
var edges = document.getElementsByTagName('g');
if (edges && edges.length) {
  for (var i=0;i<edges.length;i++) {
    if (edges[i].id.substr(0,4)=='edge') {
      edges[i].setAttribute('class','edge');
    }
  }
}
]]></script>
        <defs>
                <circle id="rim" cx="0" cy="0" r="7"/>
                <circle id="rim2" cx="0" cy="0" r="3.5"/>
                <g id="zoomPlus">
                        <use xlink:href="#rim" fill="#404040">
                                <set attributeName="fill" to="#808080" begin="zoomplus.mouseover" end="zoomplus.mouseout"/>
                        </use>
                        <path d="M-4,0h8M0,-4v8" fill="none" stroke="white" stroke-width="1.5" pointer-events="none"/>
                </g>
                <g id="zoomMin">
                        <use xlink:href="#rim" fill="#404040">
                                <set attributeName="fill" to="#808080" begin="zoomminus.mouseover" end="zoomminus.mouseout"/>
                        </use>
                        <path d="M-4,0h8" fill="none" stroke="white" stroke-width="1.5" pointer-events="none"/>
                </g>
                <g id="dirArrow">
                        <path fill="none" stroke="white" stroke-width="1.5" d="M0,-3.0v7 M-2.5,-0.5L0,-3.0L2.5,-0.5"/>
                </g>
               <g id="resetDef">
                       <use xlink:href="#rim2" fill="#404040">
                               <set attributeName="fill" to="#808080" begin="reset.mouseover" end="reset.mouseout"/>
                       </use>
               </g>
        </defs>

<script type="text/javascript">
var viewWidth = 1804;
var viewHeight = 207;
var sectionId = 'dynsection-1';
</script>
<script xlink:href="svgpan.js"/>
<svg id="graph" class="graph">
<g id="viewport">
<title>nc_interface.H</title>
<polygon fill="white" stroke="transparent" points="-4,4 -4,-203 1800,-203 1800,4 -4,4"/>
<!-- Node1 -->
<g id="node1" class="node">
<title>Node1</title>
<g id="a_node1"><a xlink:title=" ">
<polygon fill="#bfbfbf" stroke="black" points="885,-179.5 885,-198.5 972,-198.5 972,-179.5 885,-179.5"/>
<text text-anchor="middle" x="928.5" y="-186.5" font-family="Helvetica,sans-Serif" font-size="10.00">nc_interface.H</text>
</a>
</g>
</g>
<!-- Node2 -->
<g id="node2" class="node">
<title>Node2</title>
<g id="a_node2"><a xlink:href="_a_b_l_boundary_plane_8_h.html" target="_top" xlink:title=" ">
<polygon fill="white" stroke="black" points="232,-123.5 232,-142.5 351,-142.5 351,-123.5 232,-123.5"/>
<text text-anchor="middle" x="291.5" y="-130.5" font-family="Helvetica,sans-Serif" font-size="10.00">ABLBoundaryPlane.H</text>
</a>
</g>
</g>
<!-- Node1&#45;&gt;Node2 -->
<g id="edge1" class="edge">
<title>Node1&#45;&gt;Node2</title>
<path fill="none" stroke="midnightblue" d="M874.46,-183.42C756.15,-173.39 474.94,-149.55 351.43,-139.08"/>
<polygon fill="midnightblue" stroke="midnightblue" points="874.46,-186.93 884.72,-184.29 875.05,-179.96 874.46,-186.93"/>
</g>
<!-- Node11 -->
<g id="node11" class="node">
<title>Node11</title>
<g id="a_node11"><a xlink:href="_a_b_l_boundary_plane_8cpp.html" target="_top" xlink:title=" ">
<polygon fill="white" stroke="black" points="0,-6 0,-25 129,-25 129,-6 0,-6"/>
<text text-anchor="middle" x="64.5" y="-13" font-family="Helvetica,sans-Serif" font-size="10.00">ABLBoundaryPlane.cpp</text>
</a>
</g>
</g>
<!-- Node1&#45;&gt;Node11 -->
<g id="edge31" class="edge">
<title>Node1&#45;&gt;Node11</title>
<path fill="none" stroke="midnightblue" d="M874.44,-187.33C731.33,-185.11 345.26,-176.14 222.5,-143 168.77,-128.5 152.04,-124.04 110.5,-87 90.21,-68.91 75.12,-39.89 68.39,-25.37"/>
<polygon fill="midnightblue" stroke="midnightblue" points="874.66,-190.83 884.71,-187.48 874.77,-183.83 874.66,-190.83"/>
</g>
<!-- Node14 -->
<g id="node14" class="node">
<title>Node14</title>
<g id="a_node14"><a xlink:href="_synthetic_turbulence_8cpp.html" target="_top" xlink:title=" ">
<polygon fill="white" stroke="black" points="540,-123.5 540,-142.5 675,-142.5 675,-123.5 540,-123.5"/>
<text text-anchor="middle" x="607.5" y="-130.5" font-family="Helvetica,sans-Serif" font-size="10.00">SyntheticTurbulence.cpp</text>
</a>
</g>
</g>
<!-- Node1&#45;&gt;Node14 -->
<g id="edge15" class="edge">
<title>Node1&#45;&gt;Node14</title>
<path fill="none" stroke="midnightblue" d="M874.79,-178.96C814.45,-168.81 717.24,-152.46 658.17,-142.52"/>
<polygon fill="midnightblue" stroke="midnightblue" points="874.43,-182.45 884.87,-180.66 875.59,-175.55 874.43,-182.45"/>
</g>
<!-- Node15 -->
<g id="node15" class="node">
<title>Node15</title>
<g id="a_node15"><a xlink:href="nc__interface_8cpp.html" target="_top" xlink:title=" ">
<polygon fill="white" stroke="black" points="693,-123.5 693,-142.5 790,-142.5 790,-123.5 693,-123.5"/>
<text text-anchor="middle" x="741.5" y="-130.5" font-family="Helvetica,sans-Serif" font-size="10.00">nc_interface.cpp</text>
</a>
</g>
</g>
<!-- Node1&#45;&gt;Node15 -->
<g id="edge16" class="edge">
<title>Node1&#45;&gt;Node15</title>
<path fill="none" stroke="midnightblue" d="M888.91,-176.57C853.63,-166.38 802.81,-151.7 770.99,-142.52"/>
<polygon fill="midnightblue" stroke="midnightblue" points="888.29,-180.03 898.87,-179.44 890.23,-173.31 888.29,-180.03"/>
</g>
<!-- Node16 -->
<g id="node16" class="node">
<title>Node16</title>
<g id="a_node16"><a xlink:href="_field_norms_8cpp.html" target="_top" xlink:title=" ">
<polygon fill="white" stroke="black" points="808.5,-123.5 808.5,-142.5 900.5,-142.5 900.5,-123.5 808.5,-123.5"/>
<text text-anchor="middle" x="854.5" y="-130.5" font-family="Helvetica,sans-Serif" font-size="10.00">FieldNorms.cpp</text>
</a>
</g>
</g>
<!-- Node1&#45;&gt;Node16 -->
<g id="edge17" class="edge">
<title>Node1&#45;&gt;Node16</title>
<path fill="none" stroke="midnightblue" d="M908.47,-173.38C895.09,-163.62 877.94,-151.11 866.61,-142.83"/>
<polygon fill="midnightblue" stroke="midnightblue" points="906.47,-176.26 916.61,-179.32 910.6,-170.6 906.47,-176.26"/>
</g>
<!-- Node17 -->
<g id="node17" class="node">
<title>Node17</title>
<g id="a_node17"><a xlink:href="_sampler_base_8_h.html" target="_top" xlink:title=" ">
<polygon fill="white" stroke="black" points="1196.5,-123.5 1196.5,-142.5 1288.5,-142.5 1288.5,-123.5 1196.5,-123.5"/>
<text text-anchor="middle" x="1242.5" y="-130.5" font-family="Helvetica,sans-Serif" font-size="10.00">SamplerBase.H</text>
</a>
</g>
</g>
<!-- Node1&#45;&gt;Node17 -->
<g id="edge18" class="edge">
<title>Node1&#45;&gt;Node17</title>
<path fill="none" stroke="midnightblue" d="M982.25,-178.76C1042.56,-168.38 1139.41,-151.73 1196.41,-141.93"/>
<polygon fill="midnightblue" stroke="midnightblue" points="981.42,-175.35 972.16,-180.49 982.61,-182.25 981.42,-175.35"/>
</g>
<!-- Node25 -->
<g id="node25" class="node">
<title>Node25</title>
<g id="a_node25"><a xlink:href="_sampling_8cpp.html" target="_top" xlink:title=" ">
<polygon fill="white" stroke="black" points="1016,-6 1016,-25 1099,-25 1099,-6 1016,-6"/>
<text text-anchor="middle" x="1057.5" y="-13" font-family="Helvetica,sans-Serif" font-size="10.00">Sampling.cpp</text>
</a>
</g>
</g>
<!-- Node1&#45;&gt;Node25 -->
<g id="edge30" class="edge">
<title>Node1&#45;&gt;Node25</title>
<path fill="none" stroke="midnightblue" d="M926.32,-169.07C924.39,-143.31 924.79,-96.99 947.5,-67 958.25,-52.8 1002.99,-35.27 1031.99,-25.04"/>
<polygon fill="midnightblue" stroke="midnightblue" points="922.86,-169.71 927.29,-179.33 929.83,-169.05 922.86,-169.71"/>
</g>
<!-- Node28 -->
<g id="node28" class="node">
<title>Node28</title>
<g id="a_node28"><a xlink:href="_a_b_l_stats_8cpp.html" target="_top" xlink:title=" ">
<polygon fill="white" stroke="black" points="1563.5,-6 1563.5,-25 1643.5,-25 1643.5,-6 1563.5,-6"/>
<text text-anchor="middle" x="1603.5" y="-13" font-family="Helvetica,sans-Serif" font-size="10.00">ABLStats.cpp</text>
</a>
</g>
</g>
<!-- Node1&#45;&gt;Node28 -->
<g id="edge32" class="edge">
<title>Node1&#45;&gt;Node28</title>
<path fill="none" stroke="midnightblue" d="M982.53,-181.91C1139.45,-163.96 1585.44,-111.04 1605.5,-87 1620.25,-69.33 1612.26,-39.59 1606.97,-25.04"/>
<polygon fill="midnightblue" stroke="midnightblue" points="981.71,-178.48 972.18,-183.09 982.51,-185.43 981.71,-178.48"/>
</g>
<!-- Node29 -->
<g id="node29" class="node">
<title>Node29</title>
<g id="a_node29"><a xlink:href="_fast_iface_8cpp.html" target="_top" xlink:title=" ">
<polygon fill="white" stroke="black" points="1498.5,-123.5 1498.5,-142.5 1578.5,-142.5 1578.5,-123.5 1498.5,-123.5"/>
<text text-anchor="middle" x="1538.5" y="-130.5" font-family="Helvetica,sans-Serif" font-size="10.00">FastIface.cpp</text>
</a>
</g>
</g>
<!-- Node1&#45;&gt;Node29 -->
<g id="edge33" class="edge">
<title>Node1&#45;&gt;Node29</title>
<path fill="none" stroke="midnightblue" d="M982.34,-185.16C1081.8,-179.57 1300.93,-165.68 1484.5,-143 1489.03,-142.44 1493.76,-141.77 1498.45,-141.06"/>
<polygon fill="midnightblue" stroke="midnightblue" points="982.03,-181.67 972.24,-185.72 982.42,-188.66 982.03,-181.67"/>
</g>
<!-- Node30 -->
<g id="node30" class="node">
<title>Node30</title>
<g id="a_node30"><a xlink:href="turbine__utils_8cpp.html" target="_top" xlink:title=" ">
<polygon fill="white" stroke="black" points="1596.5,-123.5 1596.5,-142.5 1694.5,-142.5 1694.5,-123.5 1596.5,-123.5"/>
<text text-anchor="middle" x="1645.5" y="-130.5" font-family="Helvetica,sans-Serif" font-size="10.00">turbine_utils.cpp</text>
</a>
</g>
</g>
<!-- Node1&#45;&gt;Node30 -->
<g id="edge34" class="edge">
<title>Node1&#45;&gt;Node30</title>
<path fill="none" stroke="midnightblue" d="M982.26,-185.89C1094.82,-181.14 1363.42,-167.99 1587.5,-143 1590.44,-142.67 1593.45,-142.3 1596.49,-141.91"/>
<polygon fill="midnightblue" stroke="midnightblue" points="982.03,-182.4 972.18,-186.31 982.32,-189.39 982.03,-182.4"/>
</g>
<!-- Node31 -->
<g id="node31" class="node">
<title>Node31</title>
<g id="a_node31"><a xlink:href="wing__ops_8cpp.html" target="_top" xlink:title=" ">
<polygon fill="white" stroke="black" points="1713,-123.5 1713,-142.5 1796,-142.5 1796,-123.5 1713,-123.5"/>
<text text-anchor="middle" x="1754.5" y="-130.5" font-family="Helvetica,sans-Serif" font-size="10.00">wing_ops.cpp</text>
</a>
</g>
</g>
<!-- Node1&#45;&gt;Node31 -->
<g id="edge35" class="edge">
<title>Node1&#45;&gt;Node31</title>
<path fill="none" stroke="midnightblue" d="M982.55,-187.03C1109.02,-184.29 1433.98,-174.5 1703.5,-143 1706.54,-142.65 1709.67,-142.23 1712.81,-141.77"/>
<polygon fill="midnightblue" stroke="midnightblue" points="982.28,-183.53 972.35,-187.24 982.43,-190.53 982.28,-183.53"/>
</g>
<!-- Node3 -->
<g id="node3" class="node">
<title>Node3</title>
<g id="a_node3"><a xlink:href="_a_b_l_8_h.html" target="_top" xlink:title=" ">
<polygon fill="white" stroke="black" points="505.5,-67.5 505.5,-86.5 551.5,-86.5 551.5,-67.5 505.5,-67.5"/>
<text text-anchor="middle" x="528.5" y="-74.5" font-family="Helvetica,sans-Serif" font-size="10.00">ABL.H</text>
</a>
</g>
</g>
<!-- Node2&#45;&gt;Node3 -->
<g id="edge2" class="edge">
<title>Node2&#45;&gt;Node3</title>
<path fill="none" stroke="midnightblue" d="M339.07,-121.16C389.53,-109.66 467.13,-91.98 505.46,-83.25"/>
<polygon fill="midnightblue" stroke="midnightblue" points="338.03,-117.81 329.05,-123.44 339.58,-124.63 338.03,-117.81"/>
</g>
<!-- Node9 -->
<g id="node9" class="node">
<title>Node9</title>
<g id="a_node9"><a xlink:href="_a_b_l_8cpp.html" target="_top" xlink:title=" ">
<polygon fill="white" stroke="black" points="263.5,-6 263.5,-25 319.5,-25 319.5,-6 263.5,-6"/>
<text text-anchor="middle" x="291.5" y="-13" font-family="Helvetica,sans-Serif" font-size="10.00">ABL.cpp</text>
</a>
</g>
</g>
<!-- Node2&#45;&gt;Node9 -->
<g id="edge10" class="edge">
<title>Node2&#45;&gt;Node9</title>
<path fill="none" stroke="midnightblue" d="M291.5,-113.16C291.5,-87.87 291.5,-43.94 291.5,-25.28"/>
<polygon fill="midnightblue" stroke="midnightblue" points="288,-113.32 291.5,-123.32 295,-113.32 288,-113.32"/>
</g>
<!-- Node2&#45;&gt;Node11 -->
<g id="edge11" class="edge">
<title>Node2&#45;&gt;Node11</title>
<path fill="none" stroke="midnightblue" d="M234.8,-121.11C205.93,-114.05 171.02,-103.11 142.5,-87 112.62,-70.12 84.56,-40.01 71.76,-25.21"/>
<polygon fill="midnightblue" stroke="midnightblue" points="234.2,-124.56 244.73,-123.44 235.8,-117.75 234.2,-124.56"/>
</g>
<!-- Node12 -->
<g id="node12" class="node">
<title>Node12</title>
<g id="a_node12"><a xlink:href="_a_b_l_fill_inflow_8_h.html" target="_top" xlink:title=" ">
<polygon fill="white" stroke="black" points="152,-67.5 152,-86.5 241,-86.5 241,-67.5 152,-67.5"/>
<text text-anchor="middle" x="196.5" y="-74.5" font-family="Helvetica,sans-Serif" font-size="10.00">ABLFillInflow.H</text>
</a>
</g>
</g>
<!-- Node2&#45;&gt;Node12 -->
<g id="edge12" class="edge">
<title>Node2&#45;&gt;Node12</title>
<path fill="none" stroke="midnightblue" d="M267.18,-118.18C249.7,-108.24 226.67,-95.15 211.73,-86.65"/>
<polygon fill="midnightblue" stroke="midnightblue" points="265.81,-121.43 276.24,-123.32 269.27,-115.34 265.81,-121.43"/>
</g>
<!-- Node4 -->
<g id="node4" class="node">
<title>Node4</title>
<g id="a_node4"><a xlink:href="_a_b_l_forcing_8cpp.html" target="_top" xlink:title=" ">
<polygon fill="white" stroke="black" points="544,-6 544,-25 635,-25 635,-6 544,-6"/>
<text text-anchor="middle" x="589.5" y="-13" font-family="Helvetica,sans-Serif" font-size="10.00">ABLForcing.cpp</text>
</a>
</g>
</g>
<!-- Node3&#45;&gt;Node4 -->
<g id="edge3" class="edge">
<title>Node3&#45;&gt;Node4</title>
<path fill="none" stroke="midnightblue" d="M544.57,-60.32C556.16,-49.02 571.36,-34.19 580.78,-25.01"/>
<polygon fill="midnightblue" stroke="midnightblue" points="541.95,-57.99 537.24,-67.48 546.84,-63 541.95,-57.99"/>
</g>
<!-- Node5 -->
<g id="node5" class="node">
<title>Node5</title>
<g id="a_node5"><a xlink:href="_a_b_l_mean_boussinesq_8cpp.html" target="_top" xlink:title=" ">
<polygon fill="white" stroke="black" points="653.5,-6 653.5,-25 791.5,-25 791.5,-6 653.5,-6"/>
<text text-anchor="middle" x="722.5" y="-13" font-family="Helvetica,sans-Serif" font-size="10.00">ABLMeanBoussinesq.cpp</text>
</a>
</g>
</g>
<!-- Node3&#45;&gt;Node5 -->
<g id="edge4" class="edge">
<title>Node3&#45;&gt;Node5</title>
<path fill="none" stroke="midnightblue" d="M561.42,-65.9C598.83,-54.43 659.27,-35.89 694.5,-25.09"/>
<polygon fill="midnightblue" stroke="midnightblue" points="560.05,-62.66 551.52,-68.94 562.1,-69.35 560.05,-62.66"/>
</g>
<!-- Node6 -->
<g id="node6" class="node">
<title>Node6</title>
<g id="a_node6"><a xlink:href="incflo_8cpp.html" target="_top" xlink:title=" ">
<polygon fill="white" stroke="black" points="810,-6 810,-25 873,-25 873,-6 810,-6"/>
<text text-anchor="middle" x="841.5" y="-13" font-family="Helvetica,sans-Serif" font-size="10.00">incflo.cpp</text>
</a>
</g>
</g>
<!-- Node3&#45;&gt;Node6 -->
<g id="edge5" class="edge">
<title>Node3&#45;&gt;Node6</title>
<path fill="none" stroke="midnightblue" d="M561.95,-72.39C613.67,-66.38 715.9,-52.78 800.5,-31 806.79,-29.38 813.48,-27.21 819.59,-25.05"/>
<polygon fill="midnightblue" stroke="midnightblue" points="561.25,-68.95 551.71,-73.56 562.04,-75.9 561.25,-68.95"/>
</g>
<!-- Node7 -->
<g id="node7" class="node">
<title>Node7</title>
<g id="a_node7"><a xlink:href="incflo__apply__nodal__projection_8cpp.html" target="_top" xlink:title=" ">
<polygon fill="white" stroke="black" points="891,-0.5 891,-30.5 998,-30.5 998,-0.5 891,-0.5"/>
<text text-anchor="start" x="899" y="-18.5" font-family="Helvetica,sans-Serif" font-size="10.00">incflo_apply_nodal</text>
<text text-anchor="middle" x="944.5" y="-7.5" font-family="Helvetica,sans-Serif" font-size="10.00">_projection.cpp</text>
</a>
</g>
</g>
<!-- Node3&#45;&gt;Node7 -->
<g id="edge6" class="edge">
<title>Node3&#45;&gt;Node7</title>
<path fill="none" stroke="midnightblue" d="M561.86,-72.86C624.7,-66.71 764.79,-51.82 881.5,-31 884.59,-30.45 887.76,-29.84 890.96,-29.2"/>
<polygon fill="midnightblue" stroke="midnightblue" points="561.37,-69.4 551.75,-73.84 562.04,-76.36 561.37,-69.4"/>
</g>
<!-- Node8 -->
<g id="node8" class="node">
<title>Node8</title>
<g id="a_node8"><a xlink:href="init_8cpp.html" target="_top" xlink:title=" ">
<polygon fill="white" stroke="black" points="338,-6 338,-25 391,-25 391,-6 338,-6"/>
<text text-anchor="middle" x="364.5" y="-13" font-family="Helvetica,sans-Serif" font-size="10.00">init.cpp</text>
</a>
</g>
</g>
<!-- Node3&#45;&gt;Node8 -->
<g id="edge7" class="edge">
<title>Node3&#45;&gt;Node8</title>
<path fill="none" stroke="midnightblue" d="M495.26,-64.99C469.09,-56.18 431.78,-43.31 399.5,-31 394.71,-29.17 389.58,-27.11 384.78,-25.13"/>
<polygon fill="midnightblue" stroke="midnightblue" points="494.46,-68.41 505.05,-68.27 496.68,-61.77 494.46,-68.41"/>
</g>
<!-- Node3&#45;&gt;Node9 -->
<g id="edge8" class="edge">
<title>Node3&#45;&gt;Node9</title>
<path fill="none" stroke="midnightblue" d="M495.41,-70.16C455.42,-62.73 386.29,-48.71 328.5,-31 322.96,-29.3 317.07,-27.16 311.66,-25.04"/>
<polygon fill="midnightblue" stroke="midnightblue" points="494.94,-73.63 505.41,-71.99 496.2,-66.74 494.94,-73.63"/>
</g>
<!-- Node10 -->
<g id="node10" class="node">
<title>Node10</title>
<g id="a_node10"><a xlink:href="_a_b_l_wall_function_8cpp.html" target="_top" xlink:title=" ">
<polygon fill="white" stroke="black" points="409,-6 409,-25 526,-25 526,-6 409,-6"/>
<text text-anchor="middle" x="467.5" y="-13" font-family="Helvetica,sans-Serif" font-size="10.00">ABLWallFunction.cpp</text>
</a>
</g>
</g>
<!-- Node3&#45;&gt;Node10 -->
<g id="edge9" class="edge">
<title>Node3&#45;&gt;Node10</title>
<path fill="none" stroke="midnightblue" d="M512.43,-60.32C500.84,-49.02 485.64,-34.19 476.22,-25.01"/>
<polygon fill="midnightblue" stroke="midnightblue" points="510.16,-63 519.76,-67.48 515.05,-57.99 510.16,-63"/>
</g>
<!-- Node12&#45;&gt;Node11 -->
<g id="edge13" class="edge">
<title>Node12&#45;&gt;Node11</title>
<path fill="none" stroke="midnightblue" d="M168.39,-63.33C142.76,-51.78 105.61,-35.03 83.38,-25.01"/>
<polygon fill="midnightblue" stroke="midnightblue" points="167.03,-66.56 177.59,-67.48 169.91,-60.17 167.03,-66.56"/>
</g>
<!-- Node13 -->
<g id="node13" class="node">
<title>Node13</title>
<g id="a_node13"><a xlink:href="_a_b_l_fill_inflow_8cpp.html" target="_top" xlink:title=" ">
<polygon fill="white" stroke="black" points="147.5,-6 147.5,-25 245.5,-25 245.5,-6 147.5,-6"/>
<text text-anchor="middle" x="196.5" y="-13" font-family="Helvetica,sans-Serif" font-size="10.00">ABLFillInflow.cpp</text>
</a>
</g>
</g>
<!-- Node12&#45;&gt;Node13 -->
<g id="edge14" class="edge">
<title>Node12&#45;&gt;Node13</title>
<path fill="none" stroke="midnightblue" d="M196.5,-57.32C196.5,-46.5 196.5,-33.4 196.5,-25.01"/>
<polygon fill="midnightblue" stroke="midnightblue" points="193,-57.48 196.5,-67.48 200,-57.48 193,-57.48"/>
</g>
<!-- Node18 -->
<g id="node18" class="node">
<title>Node18</title>
<g id="a_node18"><a xlink:href="_line_sampler_8_h.html" target="_top" xlink:title=" ">
<polygon fill="white" stroke="black" points="1308,-67.5 1308,-86.5 1395,-86.5 1395,-67.5 1308,-67.5"/>
<text text-anchor="middle" x="1351.5" y="-74.5" font-family="Helvetica,sans-Serif" font-size="10.00">LineSampler.H</text>
</a>
</g>
</g>
<!-- Node17&#45;&gt;Node18 -->
<g id="edge19" class="edge">
<title>Node17&#45;&gt;Node18</title>
<path fill="none" stroke="midnightblue" d="M1269.02,-118.86C1289.23,-108.85 1316.49,-95.35 1334.03,-86.65"/>
<polygon fill="midnightblue" stroke="midnightblue" points="1267.42,-115.75 1260.01,-123.32 1270.53,-122.02 1267.42,-115.75"/>
</g>
<!-- Node20 -->
<g id="node20" class="node">
<title>Node20</title>
<g id="a_node20"><a xlink:href="_plane_sampler_8_h.html" target="_top" xlink:title=" ">
<polygon fill="white" stroke="black" points="1413.5,-67.5 1413.5,-86.5 1507.5,-86.5 1507.5,-67.5 1413.5,-67.5"/>
<text text-anchor="middle" x="1460.5" y="-74.5" font-family="Helvetica,sans-Serif" font-size="10.00">PlaneSampler.H</text>
</a>
</g>
</g>
<!-- Node17&#45;&gt;Node20 -->
<g id="edge21" class="edge">
<title>Node17&#45;&gt;Node20</title>
<path fill="none" stroke="midnightblue" d="M1286.81,-121.02C1327.99,-110.82 1388.47,-95.84 1426.12,-86.52"/>
<polygon fill="midnightblue" stroke="midnightblue" points="1285.91,-117.64 1277.04,-123.44 1287.59,-124.44 1285.91,-117.64"/>
</g>
<!-- Node22 -->
<g id="node22" class="node">
<title>Node22</title>
<g id="a_node22"><a xlink:href="_probe_sampler_8_h.html" target="_top" xlink:title=" ">
<polygon fill="white" stroke="black" points="1195,-67.5 1195,-86.5 1290,-86.5 1290,-67.5 1195,-67.5"/>
<text text-anchor="middle" x="1242.5" y="-74.5" font-family="Helvetica,sans-Serif" font-size="10.00">ProbeSampler.H</text>
</a>
</g>
</g>
<!-- Node17&#45;&gt;Node22 -->
<g id="edge23" class="edge">
<title>Node17&#45;&gt;Node22</title>
<path fill="none" stroke="midnightblue" d="M1242.5,-112.8C1242.5,-103.91 1242.5,-93.78 1242.5,-86.75"/>
<polygon fill="midnightblue" stroke="midnightblue" points="1239,-113.08 1242.5,-123.08 1246,-113.08 1239,-113.08"/>
</g>
<!-- Node24 -->
<g id="node24" class="node">
<title>Node24</title>
<g id="a_node24"><a xlink:href="_sampling_8_h.html" target="_top" xlink:title=" ">
<polygon fill="white" stroke="black" points="957,-67.5 957,-86.5 1030,-86.5 1030,-67.5 957,-67.5"/>
<text text-anchor="middle" x="993.5" y="-74.5" font-family="Helvetica,sans-Serif" font-size="10.00">Sampling.H</text>
</a>
</g>
</g>
<!-- Node17&#45;&gt;Node24 -->
<g id="edge25" class="edge">
<title>Node17&#45;&gt;Node24</title>
<path fill="none" stroke="midnightblue" d="M1193.19,-121.31C1145.25,-110.91 1073.51,-95.35 1030.33,-85.99"/>
<polygon fill="midnightblue" stroke="midnightblue" points="1192.53,-124.74 1203.05,-123.44 1194.01,-117.9 1192.53,-124.74"/>
</g>
<!-- Node26 -->
<g id="node26" class="node">
<title>Node26</title>
<g id="a_node26"><a xlink:href="_sampling_container_8cpp.html" target="_top" xlink:title=" ">
<polygon fill="white" stroke="black" points="1048,-67.5 1048,-86.5 1177,-86.5 1177,-67.5 1048,-67.5"/>
<text text-anchor="middle" x="1112.5" y="-74.5" font-family="Helvetica,sans-Serif" font-size="10.00">SamplingContainer.cpp</text>
</a>
</g>
</g>
<!-- Node17&#45;&gt;Node26 -->
<g id="edge27" class="edge">
<title>Node17&#45;&gt;Node26</title>
<path fill="none" stroke="midnightblue" d="M1212.41,-119.5C1188.04,-109.38 1154.36,-95.39 1133,-86.52"/>
<polygon fill="midnightblue" stroke="midnightblue" points="1211.32,-122.84 1221.9,-123.44 1214.01,-116.38 1211.32,-122.84"/>
</g>
<!-- Node27 -->
<g id="node27" class="node">
<title>Node27</title>
<g id="a_node27"><a xlink:href="_a_b_l_stats_8_h.html" target="_top" xlink:title=" ">
<polygon fill="white" stroke="black" points="1526,-67.5 1526,-86.5 1597,-86.5 1597,-67.5 1526,-67.5"/>
<text text-anchor="middle" x="1561.5" y="-74.5" font-family="Helvetica,sans-Serif" font-size="10.00">ABLStats.H</text>
</a>
</g>
</g>
<!-- Node17&#45;&gt;Node27 -->
<g id="edge28" class="edge">
<title>Node17&#45;&gt;Node27</title>
<path fill="none" stroke="midnightblue" d="M1298.61,-123.37C1354.07,-114.7 1441.27,-100.7 1516.5,-87 1519.48,-86.46 1522.56,-85.88 1525.66,-85.28"/>
<polygon fill="midnightblue" stroke="midnightblue" points="1297.98,-119.92 1288.64,-124.92 1299.06,-126.84 1297.98,-119.92"/>
</g>
<!-- Node19 -->
<g id="node19" class="node">
<title>Node19</title>
<g id="a_node19"><a xlink:href="_line_sampler_8cpp.html" target="_top" xlink:title=" ">
<polygon fill="white" stroke="black" points="1303,-6 1303,-25 1400,-25 1400,-6 1303,-6"/>
<text text-anchor="middle" x="1351.5" y="-13" font-family="Helvetica,sans-Serif" font-size="10.00">LineSampler.cpp</text>
</a>
</g>
</g>
<!-- Node18&#45;&gt;Node19 -->
<g id="edge20" class="edge">
<title>Node18&#45;&gt;Node19</title>
<path fill="none" stroke="midnightblue" d="M1351.5,-57.32C1351.5,-46.5 1351.5,-33.4 1351.5,-25.01"/>
<polygon fill="midnightblue" stroke="midnightblue" points="1348,-57.48 1351.5,-67.48 1355,-57.48 1348,-57.48"/>
</g>
<!-- Node21 -->
<g id="node21" class="node">
<title>Node21</title>
<g id="a_node21"><a xlink:href="_plane_sampler_8cpp.html" target="_top" xlink:title=" ">
<polygon fill="white" stroke="black" points="1418.5,-6 1418.5,-25 1522.5,-25 1522.5,-6 1418.5,-6"/>
<text text-anchor="middle" x="1470.5" y="-13" font-family="Helvetica,sans-Serif" font-size="10.00">PlaneSampler.cpp</text>
</a>
</g>
</g>
<!-- Node20&#45;&gt;Node21 -->
<g id="edge22" class="edge">
<title>Node20&#45;&gt;Node21</title>
<path fill="none" stroke="midnightblue" d="M1463.64,-57.32C1465.46,-46.5 1467.66,-33.4 1469.07,-25.01"/>
<polygon fill="midnightblue" stroke="midnightblue" points="1460.14,-57.03 1461.93,-67.48 1467.04,-58.19 1460.14,-57.03"/>
</g>
<!-- Node23 -->
<g id="node23" class="node">
<title>Node23</title>
<g id="a_node23"><a xlink:href="_probe_sampler_8cpp.html" target="_top" xlink:title=" ">
<polygon fill="white" stroke="black" points="1180.5,-6 1180.5,-25 1284.5,-25 1284.5,-6 1180.5,-6"/>
<text text-anchor="middle" x="1232.5" y="-13" font-family="Helvetica,sans-Serif" font-size="10.00">ProbeSampler.cpp</text>
</a>
</g>
</g>
<!-- Node22&#45;&gt;Node23 -->
<g id="edge24" class="edge">
<title>Node22&#45;&gt;Node23</title>
<path fill="none" stroke="midnightblue" d="M1239.36,-57.32C1237.54,-46.5 1235.34,-33.4 1233.93,-25.01"/>
<polygon fill="midnightblue" stroke="midnightblue" points="1235.96,-58.19 1241.07,-67.48 1242.86,-57.03 1235.96,-58.19"/>
</g>
<!-- Node24&#45;&gt;Node25 -->
<g id="edge26" class="edge">
<title>Node24&#45;&gt;Node25</title>
<path fill="none" stroke="midnightblue" d="M1010.01,-60.65C1022.21,-49.31 1038.37,-34.28 1048.35,-25.01"/>
<polygon fill="midnightblue" stroke="midnightblue" points="1007.61,-58.1 1002.67,-67.48 1012.38,-63.23 1007.61,-58.1"/>
</g>
<!-- Node27&#45;&gt;Node28 -->
<g id="edge29" class="edge">
<title>Node27&#45;&gt;Node28</title>
<path fill="none" stroke="midnightblue" d="M1573.5,-59.01C1581.34,-47.89 1591.26,-33.84 1597.49,-25.01"/>
<polygon fill="midnightblue" stroke="midnightblue" points="1570.43,-57.29 1567.52,-67.48 1576.14,-61.32 1570.43,-57.29"/>
</g>
</g>
</svg>
        <g id="navigator" transform="translate(0 0)" fill="#404254">
                <rect fill="#f2f5e9" fill-opacity="0.5" stroke="#606060" stroke-width=".5" x="0" y="0" width="60" height="60"/>
                <use id="zoomplus" xlink:href="#zoomPlus" x="17" y="9" onmousedown="handleZoom(evt,'in')"/>
                <use id="zoomminus" xlink:href="#zoomMin" x="42" y="9" onmousedown="handleZoom(evt,'out')"/>
                <use id="reset" xlink:href="#resetDef" x="30" y="36" onmousedown="handleReset()"/>
                <g id="arrowUp" xlink:href="#dirArrow" transform="translate(30 24)" onmousedown="handlePan(0,-1)">
                  <use xlink:href="#rim" fill="#404040">
                        <set attributeName="fill" to="#808080" begin="arrowUp.mouseover" end="arrowUp.mouseout"/>
                  </use>
                  <path fill="none" stroke="white" stroke-width="1.5" d="M0,-3.0v7 M-2.5,-0.5L0,-3.0L2.5,-0.5"/>
                </g>
                <g id="arrowRight" xlink:href="#dirArrow" transform="rotate(90) translate(36 -43)" onmousedown="handlePan(1,0)">
                  <use xlink:href="#rim" fill="#404040">
                        <set attributeName="fill" to="#808080" begin="arrowRight.mouseover" end="arrowRight.mouseout"/>
                  </use>
                  <path fill="none" stroke="white" stroke-width="1.5" d="M0,-3.0v7 M-2.5,-0.5L0,-3.0L2.5,-0.5"/>
                </g>
                <g id="arrowDown" xlink:href="#dirArrow" transform="rotate(180) translate(-30 -48)" onmousedown="handlePan(0,1)">
                  <use xlink:href="#rim" fill="#404040">
                        <set attributeName="fill" to="#808080" begin="arrowDown.mouseover" end="arrowDown.mouseout"/>
                  </use>
                  <path fill="none" stroke="white" stroke-width="1.5" d="M0,-3.0v7 M-2.5,-0.5L0,-3.0L2.5,-0.5"/>
                </g>
                <g id="arrowLeft" xlink:href="#dirArrow" transform="rotate(270) translate(-36 17)" onmousedown="handlePan(-1,0)">
                  <use xlink:href="#rim" fill="#404040">
                        <set attributeName="fill" to="#808080" begin="arrowLeft.mouseover" end="arrowLeft.mouseout"/>
                  </use>
                  <path fill="none" stroke="white" stroke-width="1.5" d="M0,-3.0v7 M-2.5,-0.5L0,-3.0L2.5,-0.5"/>
                </g>
        </g>
        <svg viewBox="0 0 15 15" width="100%" height="30px" preserveAspectRatio="xMaxYMin meet">
         <g id="arrow_out" transform="scale(0.3 0.3)">
          <a xlink:href="nc__interface_8_h__dep__incl_org.svg" target="_base">
           <rect id="button" ry="5" rx="5" y="6" x="6" height="38" width="38"
                fill="#f2f5e9" fill-opacity="0.5" stroke="#606060" stroke-width="1.0"/>
           <path id="arrow"
             d="M 11.500037,31.436501 C 11.940474,20.09759 22.043105,11.32322 32.158766,21.979434 L 37.068811,17.246167 C 37.068811,17.246167 37.088388,32 37.088388,32 L 22.160133,31.978069 C 22.160133,31.978069 26.997745,27.140456 26.997745,27.140456 C 18.528582,18.264221 13.291696,25.230495 11.500037,31.436501 z"
             style="fill:#404040;"/>
          </a>
         </g>
        </svg>
</svg>
