<?xml version="1.0" encoding="UTF-8" standalone="no"?>
<!DOCTYPE svg PUBLIC "-//W3C//DTD SVG 1.1//EN"
 "http://www.w3.org/Graphics/SVG/1.1/DTD/svg11.dtd">
<!-- Generated by graphviz version 2.43.0 (0)
 -->
<!-- Title: stencils.H Pages: 1 -->
<!--zoomable 252 -->
<svg id="main" version="1.1" xmlns="http://www.w3.org/2000/svg" xmlns:xlink="http://www.w3.org/1999/xlink" xml:space="preserve" onload="init(evt)">
<style type="text/css"><![CDATA[
.edge:hover path { stroke: red; }
.edge:hover polygon { stroke: red; fill: red; }
]]></style>
<script type="text/javascript"><![CDATA[
var edges = document.getElementsByTagName('g');
if (edges && edges.length) {
  for (var i=0;i<edges.length;i++) {
    if (edges[i].id.substr(0,4)=='edge') {
      edges[i].setAttribute('class','edge');
    }
  }
}
]]></script>
        <defs>
                <circle id="rim" cx="0" cy="0" r="7"/>
                <circle id="rim2" cx="0" cy="0" r="3.5"/>
                <g id="zoomPlus">
                        <use xlink:href="#rim" fill="#404040">
                                <set attributeName="fill" to="#808080" begin="zoomplus.mouseover" end="zoomplus.mouseout"/>
                        </use>
                        <path d="M-4,0h8M0,-4v8" fill="none" stroke="white" stroke-width="1.5" pointer-events="none"/>
                </g>
                <g id="zoomMin">
                        <use xlink:href="#rim" fill="#404040">
                                <set attributeName="fill" to="#808080" begin="zoomminus.mouseover" end="zoomminus.mouseout"/>
                        </use>
                        <path d="M-4,0h8" fill="none" stroke="white" stroke-width="1.5" pointer-events="none"/>
                </g>
                <g id="dirArrow">
                        <path fill="none" stroke="white" stroke-width="1.5" d="M0,-3.0v7 M-2.5,-0.5L0,-3.0L2.5,-0.5"/>
                </g>
               <g id="resetDef">
                       <use xlink:href="#rim2" fill="#404040">
                               <set attributeName="fill" to="#808080" begin="reset.mouseover" end="reset.mouseout"/>
                       </use>
               </g>
        </defs>

<script type="text/javascript">
var viewWidth = 1185;
var viewHeight = 252;
var sectionId = 'dynsection-1';
</script>
<script xlink:href="svgpan.js"/>
<svg id="graph" class="graph">
<g id="viewport">
<title>stencils.H</title>
<polygon fill="white" stroke="transparent" points="-4,4 -4,-248 1181,-248 1181,4 -4,4"/>
<!-- Node1 -->
<g id="node1" class="node">
<title>Node1</title>
<g id="a_node1"><a xlink:title="Second&#45;order finite volume discretization stencil coefficients.">
<polygon fill="#bfbfbf" stroke="black" points="336.5,-224.5 336.5,-243.5 401.5,-243.5 401.5,-224.5 336.5,-224.5"/>
<text text-anchor="middle" x="369" y="-231.5" font-family="Helvetica,sans-Serif" font-size="10.00">stencils.H</text>
</a>
</g>
</g>
<!-- Node2 -->
<g id="node2" class="node">
<title>Node2</title>
<g id="a_node2"><a xlink:href="fvm__utils_8_h.html" target="_top" xlink:title=" ">
<polygon fill="white" stroke="black" points="332.5,-168.5 332.5,-187.5 405.5,-187.5 405.5,-168.5 332.5,-168.5"/>
<text text-anchor="middle" x="369" y="-175.5" font-family="Helvetica,sans-Serif" font-size="10.00">fvm_utils.H</text>
</a>
</g>
</g>
<!-- Node1&#45;&gt;Node2 -->
<g id="edge1" class="edge">
<title>Node1&#45;&gt;Node2</title>
<path fill="none" stroke="midnightblue" d="M369,-213.8C369,-204.91 369,-194.78 369,-187.75"/>
<polygon fill="midnightblue" stroke="midnightblue" points="365.5,-214.08 369,-224.08 372.5,-214.08 365.5,-214.08"/>
</g>
<!-- Node3 -->
<g id="node3" class="node">
<title>Node3</title>
<g id="a_node3"><a xlink:href="curvature_8_h.html" target="_top" xlink:title=" ">
<polygon fill="white" stroke="black" points="92,-112.5 92,-131.5 166,-131.5 166,-112.5 92,-112.5"/>
<text text-anchor="middle" x="129" y="-119.5" font-family="Helvetica,sans-Serif" font-size="10.00">curvature.H</text>
</a>
</g>
</g>
<!-- Node2&#45;&gt;Node3 -->
<g id="edge2" class="edge">
<title>Node2&#45;&gt;Node3</title>
<path fill="none" stroke="midnightblue" d="M322.35,-166.5C276.72,-156.24 208.14,-140.81 166.1,-131.35"/>
<polygon fill="midnightblue" stroke="midnightblue" points="321.76,-169.96 332.29,-168.74 323.3,-163.13 321.76,-169.96"/>
</g>
<!-- Node6 -->
<g id="node6" class="node">
<title>Node6</title>
<g id="a_node6"><a xlink:href="divergence_8_h.html" target="_top" xlink:title=" ">
<polygon fill="white" stroke="black" points="184.5,-112.5 184.5,-131.5 265.5,-131.5 265.5,-112.5 184.5,-112.5"/>
<text text-anchor="middle" x="225" y="-119.5" font-family="Helvetica,sans-Serif" font-size="10.00">divergence.H</text>
</a>
</g>
</g>
<!-- Node2&#45;&gt;Node6 -->
<g id="edge5" class="edge">
<title>Node2&#45;&gt;Node6</title>
<path fill="none" stroke="midnightblue" d="M336.75,-164.91C309.68,-154.75 271.68,-140.51 247.71,-131.52"/>
<polygon fill="midnightblue" stroke="midnightblue" points="335.59,-168.21 346.18,-168.44 338.05,-161.66 335.59,-168.21"/>
</g>
<!-- Node7 -->
<g id="node7" class="node">
<title>Node7</title>
<g id="a_node7"><a xlink:href="gradient_8_h.html" target="_top" xlink:title=" ">
<polygon fill="white" stroke="black" points="503,-112.5 503,-131.5 571,-131.5 571,-112.5 503,-112.5"/>
<text text-anchor="middle" x="537" y="-119.5" font-family="Helvetica,sans-Serif" font-size="10.00">gradient.H</text>
</a>
</g>
</g>
<!-- Node2&#45;&gt;Node7 -->
<g id="edge7" class="edge">
<title>Node2&#45;&gt;Node7</title>
<path fill="none" stroke="midnightblue" d="M405.39,-165.3C437.04,-155.13 482.17,-140.62 510.5,-131.52"/>
<polygon fill="midnightblue" stroke="midnightblue" points="404.07,-162.05 395.62,-168.44 406.21,-168.72 404.07,-162.05"/>
</g>
<!-- Node16 -->
<g id="node16" class="node">
<title>Node16</title>
<g id="a_node16"><a xlink:href="laplacian_8_h.html" target="_top" xlink:title=" ">
<polygon fill="white" stroke="black" points="283.5,-112.5 283.5,-131.5 354.5,-131.5 354.5,-112.5 283.5,-112.5"/>
<text text-anchor="middle" x="319" y="-119.5" font-family="Helvetica,sans-Serif" font-size="10.00">laplacian.H</text>
</a>
</g>
</g>
<!-- Node2&#45;&gt;Node16 -->
<g id="edge17" class="edge">
<title>Node2&#45;&gt;Node16</title>
<path fill="none" stroke="midnightblue" d="M353.92,-160.72C345.11,-151.2 334.33,-139.56 327.1,-131.75"/>
<polygon fill="midnightblue" stroke="midnightblue" points="351.38,-163.12 360.74,-168.08 356.52,-158.37 351.38,-163.12"/>
</g>
<!-- Node17 -->
<g id="node17" class="node">
<title>Node17</title>
<g id="a_node17"><a xlink:href="strainrate_8_h.html" target="_top" xlink:title=" ">
<polygon fill="white" stroke="black" points="758,-112.5 758,-131.5 832,-131.5 832,-112.5 758,-112.5"/>
<text text-anchor="middle" x="795" y="-119.5" font-family="Helvetica,sans-Serif" font-size="10.00">strainrate.H</text>
</a>
</g>
</g>
<!-- Node2&#45;&gt;Node17 -->
<g id="edge19" class="edge">
<title>Node2&#45;&gt;Node17</title>
<path fill="none" stroke="midnightblue" d="M415.87,-171.06C501.24,-160.24 680.42,-137.52 757.94,-127.7"/>
<polygon fill="midnightblue" stroke="midnightblue" points="415.17,-167.62 405.69,-172.35 416.05,-174.56 415.17,-167.62"/>
</g>
<!-- Node19 -->
<g id="node19" class="node">
<title>Node19</title>
<g id="a_node19"><a xlink:href="vorticity__mag_8_h.html" target="_top" xlink:title=" ">
<polygon fill="white" stroke="black" points="372.5,-112.5 372.5,-131.5 467.5,-131.5 467.5,-112.5 372.5,-112.5"/>
<text text-anchor="middle" x="420" y="-119.5" font-family="Helvetica,sans-Serif" font-size="10.00">vorticity_mag.H</text>
</a>
</g>
</g>
<!-- Node2&#45;&gt;Node19 -->
<g id="edge25" class="edge">
<title>Node2&#45;&gt;Node19</title>
<path fill="none" stroke="midnightblue" d="M384.38,-160.72C393.37,-151.2 404.36,-139.56 411.74,-131.75"/>
<polygon fill="midnightblue" stroke="midnightblue" points="381.74,-158.41 377.42,-168.08 386.83,-163.22 381.74,-158.41"/>
</g>
<!-- Node20 -->
<g id="node20" class="node">
<title>Node20</title>
<g id="a_node20"><a xlink:href="qcriterion_8_h.html" target="_top" xlink:title=" ">
<polygon fill="white" stroke="black" points="0,-112.5 0,-131.5 74,-131.5 74,-112.5 0,-112.5"/>
<text text-anchor="middle" x="37" y="-119.5" font-family="Helvetica,sans-Serif" font-size="10.00">qcriterion.H</text>
</a>
</g>
</g>
<!-- Node2&#45;&gt;Node20 -->
<g id="edge27" class="edge">
<title>Node2&#45;&gt;Node20</title>
<path fill="none" stroke="midnightblue" d="M322.27,-170.19C265.57,-161.81 167.11,-146.84 83,-132 80.12,-131.49 77.13,-130.95 74.14,-130.39"/>
<polygon fill="midnightblue" stroke="midnightblue" points="321.95,-173.68 332.36,-171.68 322.98,-166.76 321.95,-173.68"/>
</g>
<!-- Node21 -->
<g id="node21" class="node">
<title>Node21</title>
<g id="a_node21"><a xlink:href="vorticity_8_h.html" target="_top" xlink:title=" ">
<polygon fill="white" stroke="black" points="926,-112.5 926,-131.5 992,-131.5 992,-112.5 926,-112.5"/>
<text text-anchor="middle" x="959" y="-119.5" font-family="Helvetica,sans-Serif" font-size="10.00">vorticity.H</text>
</a>
</g>
</g>
<!-- Node2&#45;&gt;Node21 -->
<g id="edge29" class="edge">
<title>Node2&#45;&gt;Node21</title>
<path fill="none" stroke="midnightblue" d="M416.19,-172.68C531.72,-162.11 826.54,-135.12 925.81,-126.04"/>
<polygon fill="midnightblue" stroke="midnightblue" points="415.55,-169.23 405.91,-173.62 416.18,-176.2 415.55,-169.23"/>
</g>
<!-- Node4 -->
<g id="node4" class="node">
<title>Node4</title>
<g id="a_node4"><a xlink:href="fvm_8_h.html" target="_top" xlink:title=" ">
<polygon fill="white" stroke="black" points="96.5,-56.5 96.5,-75.5 143.5,-75.5 143.5,-56.5 96.5,-56.5"/>
<text text-anchor="middle" x="120" y="-63.5" font-family="Helvetica,sans-Serif" font-size="10.00">fvm.H</text>
</a>
</g>
</g>
<!-- Node3&#45;&gt;Node4 -->
<g id="edge3" class="edge">
<title>Node3&#45;&gt;Node4</title>
<path fill="none" stroke="midnightblue" d="M125.85,-102.1C124.36,-93.14 122.64,-82.86 121.46,-75.75"/>
<polygon fill="midnightblue" stroke="midnightblue" points="122.42,-102.79 127.51,-112.08 129.32,-101.64 122.42,-102.79"/>
</g>
<!-- Node5 -->
<g id="node5" class="node">
<title>Node5</title>
<g id="a_node5"><a xlink:href="_derived_qty_defs_8cpp.html" target="_top" xlink:title=" ">
<polygon fill="white" stroke="black" points="62.5,-0.5 62.5,-19.5 177.5,-19.5 177.5,-0.5 62.5,-0.5"/>
<text text-anchor="middle" x="120" y="-7.5" font-family="Helvetica,sans-Serif" font-size="10.00">DerivedQtyDefs.cpp</text>
</a>
</g>
</g>
<!-- Node4&#45;&gt;Node5 -->
<g id="edge4" class="edge">
<title>Node4&#45;&gt;Node5</title>
<path fill="none" stroke="midnightblue" d="M120,-45.8C120,-36.91 120,-26.78 120,-19.75"/>
<polygon fill="midnightblue" stroke="midnightblue" points="116.5,-46.08 120,-56.08 123.5,-46.08 116.5,-46.08"/>
</g>
<!-- Node6&#45;&gt;Node4 -->
<g id="edge6" class="edge">
<title>Node6&#45;&gt;Node4</title>
<path fill="none" stroke="midnightblue" d="M199.19,-107.73C179.75,-97.73 153.65,-84.31 136.83,-75.65"/>
<polygon fill="midnightblue" stroke="midnightblue" points="197.64,-110.86 208.13,-112.32 200.84,-104.64 197.64,-110.86"/>
</g>
<!-- Node7&#45;&gt;Node4 -->
<g id="edge8" class="edge">
<title>Node7&#45;&gt;Node4</title>
<path fill="none" stroke="midnightblue" d="M492.8,-114.29C487.15,-113.49 481.44,-112.7 476,-112 332.31,-93.42 294.21,-103.71 152,-76 149.28,-75.47 146.46,-74.82 143.66,-74.12"/>
<polygon fill="midnightblue" stroke="midnightblue" points="492.43,-117.77 502.83,-115.74 493.44,-110.84 492.43,-117.77"/>
</g>
<!-- Node8 -->
<g id="node8" class="node">
<title>Node8</title>
<g id="a_node8"><a xlink:href="_dam_break_8cpp.html" target="_top" xlink:title=" ">
<polygon fill="white" stroke="black" points="161.5,-56.5 161.5,-75.5 250.5,-75.5 250.5,-56.5 161.5,-56.5"/>
<text text-anchor="middle" x="206" y="-63.5" font-family="Helvetica,sans-Serif" font-size="10.00">DamBreak.cpp</text>
</a>
</g>
</g>
<!-- Node7&#45;&gt;Node8 -->
<g id="edge9" class="edge">
<title>Node7&#45;&gt;Node8</title>
<path fill="none" stroke="midnightblue" d="M492.67,-113.93C437.79,-105.16 341.47,-89.68 259,-76 256.24,-75.54 253.4,-75.07 250.53,-74.59"/>
<polygon fill="midnightblue" stroke="midnightblue" points="492.32,-117.42 502.75,-115.54 493.43,-110.51 492.32,-117.42"/>
</g>
<!-- Node9 -->
<g id="node9" class="node">
<title>Node9</title>
<g id="a_node9"><a xlink:href="_multi_phase_8cpp.html" target="_top" xlink:title=" ">
<polygon fill="white" stroke="black" points="268.5,-56.5 268.5,-75.5 359.5,-75.5 359.5,-56.5 268.5,-56.5"/>
<text text-anchor="middle" x="314" y="-63.5" font-family="Helvetica,sans-Serif" font-size="10.00">MultiPhase.cpp</text>
</a>
</g>
</g>
<!-- Node7&#45;&gt;Node9 -->
<g id="edge10" class="edge">
<title>Node7&#45;&gt;Node9</title>
<path fill="none" stroke="midnightblue" d="M492.66,-110.26C450.5,-100.05 387.94,-84.9 349.13,-75.51"/>
<polygon fill="midnightblue" stroke="midnightblue" points="492.1,-113.73 502.64,-112.68 493.75,-106.93 492.1,-113.73"/>
</g>
<!-- Node10 -->
<g id="node10" class="node">
<title>Node10</title>
<g id="a_node10"><a xlink:href="_sloshing_tank_8cpp.html" target="_top" xlink:title=" ">
<polygon fill="white" stroke="black" points="377.5,-56.5 377.5,-75.5 478.5,-75.5 478.5,-56.5 377.5,-56.5"/>
<text text-anchor="middle" x="428" y="-63.5" font-family="Helvetica,sans-Serif" font-size="10.00">SloshingTank.cpp</text>
</a>
</g>
</g>
<!-- Node7&#45;&gt;Node10 -->
<g id="edge11" class="edge">
<title>Node7&#45;&gt;Node10</title>
<path fill="none" stroke="midnightblue" d="M510.48,-107.86C490.27,-97.85 463.01,-84.35 445.47,-75.65"/>
<polygon fill="midnightblue" stroke="midnightblue" points="508.97,-111.02 519.49,-112.32 512.08,-104.75 508.97,-111.02"/>
</g>
<!-- Node11 -->
<g id="node11" class="node">
<title>Node11</title>
<g id="a_node11"><a xlink:href="_zalesak_disk_8cpp.html" target="_top" xlink:title=" ">
<polygon fill="white" stroke="black" points="497,-56.5 497,-75.5 595,-75.5 595,-56.5 497,-56.5"/>
<text text-anchor="middle" x="546" y="-63.5" font-family="Helvetica,sans-Serif" font-size="10.00">ZalesakDisk.cpp</text>
</a>
</g>
</g>
<!-- Node7&#45;&gt;Node11 -->
<g id="edge12" class="edge">
<title>Node7&#45;&gt;Node11</title>
<path fill="none" stroke="midnightblue" d="M540.15,-102.1C541.64,-93.14 543.36,-82.86 544.54,-75.75"/>
<polygon fill="midnightblue" stroke="midnightblue" points="536.68,-101.64 538.49,-112.08 543.58,-102.79 536.68,-101.64"/>
</g>
<!-- Node12 -->
<g id="node12" class="node">
<title>Node12</title>
<g id="a_node12"><a xlink:href="_one_eq_ksgs_8cpp.html" target="_top" xlink:title=" ">
<polygon fill="white" stroke="black" points="711,-56.5 711,-75.5 803,-75.5 803,-56.5 711,-56.5"/>
<text text-anchor="middle" x="757" y="-63.5" font-family="Helvetica,sans-Serif" font-size="10.00">OneEqKsgs.cpp</text>
</a>
</g>
</g>
<!-- Node7&#45;&gt;Node12 -->
<g id="edge13" class="edge">
<title>Node7&#45;&gt;Node12</title>
<path fill="none" stroke="midnightblue" d="M581.22,-110.15C622.72,-99.96 683.98,-84.92 722.14,-75.56"/>
<polygon fill="midnightblue" stroke="midnightblue" points="580.25,-106.78 571.38,-112.56 581.92,-113.58 580.25,-106.78"/>
</g>
<!-- Node13 -->
<g id="node13" class="node">
<title>Node13</title>
<g id="a_node13"><a xlink:href="_k_omega_s_s_t_8cpp.html" target="_top" xlink:title=" ">
<polygon fill="white" stroke="black" points="821.5,-56.5 821.5,-75.5 916.5,-75.5 916.5,-56.5 821.5,-56.5"/>
<text text-anchor="middle" x="869" y="-63.5" font-family="Helvetica,sans-Serif" font-size="10.00">KOmegaSST.cpp</text>
</a>
</g>
</g>
<!-- Node7&#45;&gt;Node13 -->
<g id="edge14" class="edge">
<title>Node7&#45;&gt;Node13</title>
<path fill="none" stroke="midnightblue" d="M581.21,-113.81C643.63,-103.66 757.12,-85.2 821.35,-74.75"/>
<polygon fill="midnightblue" stroke="midnightblue" points="580.59,-110.36 571.28,-115.42 581.71,-117.27 580.59,-110.36"/>
</g>
<!-- Node14 -->
<g id="node14" class="node">
<title>Node14</title>
<g id="a_node14"><a xlink:href="_k_omega_s_s_t_i_d_d_e_s_8cpp.html" target="_top" xlink:title=" ">
<polygon fill="white" stroke="black" points="935,-56.5 935,-75.5 1061,-75.5 1061,-56.5 935,-56.5"/>
<text text-anchor="middle" x="998" y="-63.5" font-family="Helvetica,sans-Serif" font-size="10.00">KOmegaSSTIDDES.cpp</text>
</a>
</g>
</g>
<!-- Node7&#45;&gt;Node14 -->
<g id="edge15" class="edge">
<title>Node7&#45;&gt;Node14</title>
<path fill="none" stroke="midnightblue" d="M581.18,-116.02C653.36,-107.86 801.03,-91.04 926,-76 928.88,-75.65 931.82,-75.3 934.79,-74.93"/>
<polygon fill="midnightblue" stroke="midnightblue" points="580.64,-112.56 571.09,-117.16 581.42,-119.52 580.64,-112.56"/>
</g>
<!-- Node15 -->
<g id="node15" class="node">
<title>Node15</title>
<g id="a_node15"><a xlink:href="_a_b_l_stats_8cpp.html" target="_top" xlink:title=" ">
<polygon fill="white" stroke="black" points="613,-56.5 613,-75.5 693,-75.5 693,-56.5 613,-56.5"/>
<text text-anchor="middle" x="653" y="-63.5" font-family="Helvetica,sans-Serif" font-size="10.00">ABLStats.cpp</text>
</a>
</g>
</g>
<!-- Node7&#45;&gt;Node15 -->
<g id="edge16" class="edge">
<title>Node7&#45;&gt;Node15</title>
<path fill="none" stroke="midnightblue" d="M564.72,-108.1C586.39,-98.01 615.9,-84.27 634.71,-75.52"/>
<polygon fill="midnightblue" stroke="midnightblue" points="562.97,-105.05 555.38,-112.44 565.92,-111.4 562.97,-105.05"/>
</g>
<!-- Node16&#45;&gt;Node4 -->
<g id="edge18" class="edge">
<title>Node16&#45;&gt;Node4</title>
<path fill="none" stroke="midnightblue" d="M276.97,-109.81C243.18,-100.78 194.5,-87.7 152,-76 149.33,-75.26 146.54,-74.49 143.76,-73.71"/>
<polygon fill="midnightblue" stroke="midnightblue" points="276.39,-113.28 286.96,-112.48 278.2,-106.52 276.39,-113.28"/>
</g>
<!-- Node17&#45;&gt;Node4 -->
<g id="edge20" class="edge">
<title>Node17&#45;&gt;Node4</title>
<path fill="none" stroke="midnightblue" d="M747.58,-118.94C619.16,-113.16 266.61,-95.91 152,-76 149.27,-75.53 146.44,-74.91 143.64,-74.23"/>
<polygon fill="midnightblue" stroke="midnightblue" points="747.72,-122.45 757.87,-119.4 748.03,-115.46 747.72,-122.45"/>
</g>
<!-- Node17&#45;&gt;Node12 -->
<g id="edge21" class="edge">
<title>Node17&#45;&gt;Node12</title>
<path fill="none" stroke="midnightblue" d="M782.94,-103.86C776.36,-94.5 768.49,-83.33 763.16,-75.75"/>
<polygon fill="midnightblue" stroke="midnightblue" points="780.11,-105.92 788.73,-112.08 785.83,-101.89 780.11,-105.92"/>
</g>
<!-- Node17&#45;&gt;Node13 -->
<g id="edge23" class="edge">
<title>Node17&#45;&gt;Node13</title>
<path fill="none" stroke="midnightblue" d="M815.03,-106.38C828.41,-96.62 845.56,-84.11 856.89,-75.83"/>
<polygon fill="midnightblue" stroke="midnightblue" points="812.9,-103.6 806.89,-112.32 817.03,-109.26 812.9,-103.6"/>
</g>
<!-- Node17&#45;&gt;Node14 -->
<g id="edge24" class="edge">
<title>Node17&#45;&gt;Node14</title>
<path fill="none" stroke="midnightblue" d="M836.99,-109.83C875.32,-99.63 931.15,-84.78 965.98,-75.52"/>
<polygon fill="midnightblue" stroke="midnightblue" points="835.93,-106.49 827.17,-112.44 837.73,-113.26 835.93,-106.49"/>
</g>
<!-- Node18 -->
<g id="node18" class="node">
<title>Node18</title>
<g id="a_node18"><a xlink:href="_smagorinsky_8cpp.html" target="_top" xlink:title=" ">
<polygon fill="white" stroke="black" points="1079,-56.5 1079,-75.5 1177,-75.5 1177,-56.5 1079,-56.5"/>
<text text-anchor="middle" x="1128" y="-63.5" font-family="Helvetica,sans-Serif" font-size="10.00">Smagorinsky.cpp</text>
</a>
</g>
</g>
<!-- Node17&#45;&gt;Node18 -->
<g id="edge22" class="edge">
<title>Node17&#45;&gt;Node18</title>
<path fill="none" stroke="midnightblue" d="M842.25,-113.34C904.99,-103.16 1015.25,-85.28 1078.9,-74.96"/>
<polygon fill="midnightblue" stroke="midnightblue" points="841.54,-109.91 832.23,-114.96 842.66,-116.82 841.54,-109.91"/>
</g>
<!-- Node19&#45;&gt;Node4 -->
<g id="edge26" class="edge">
<title>Node19&#45;&gt;Node4</title>
<path fill="none" stroke="midnightblue" d="M362.56,-111.69C290.01,-99.89 172.14,-80.51 152,-76 149.3,-75.39 146.48,-74.7 143.69,-73.97"/>
<polygon fill="midnightblue" stroke="midnightblue" points="362.05,-115.16 372.48,-113.31 363.17,-108.25 362.05,-115.16"/>
</g>
<!-- Node20&#45;&gt;Node4 -->
<g id="edge28" class="edge">
<title>Node20&#45;&gt;Node4</title>
<path fill="none" stroke="midnightblue" d="M59.1,-106.62C74.26,-96.76 93.88,-83.99 106.7,-75.65"/>
<polygon fill="midnightblue" stroke="midnightblue" points="56.81,-103.94 50.34,-112.32 60.63,-109.8 56.81,-103.94"/>
</g>
<!-- Node21&#45;&gt;Node14 -->
<g id="edge30" class="edge">
<title>Node21&#45;&gt;Node14</title>
<path fill="none" stroke="midnightblue" d="M971.38,-103.86C978.14,-94.5 986.21,-83.33 991.68,-75.75"/>
<polygon fill="midnightblue" stroke="midnightblue" points="968.46,-101.93 965.44,-112.08 974.13,-106.03 968.46,-101.93"/>
</g>
</g>
</svg>
        <g id="navigator" transform="translate(0 0)" fill="#404254">
                <rect fill="#f2f5e9" fill-opacity="0.5" stroke="#606060" stroke-width=".5" x="0" y="0" width="60" height="60"/>
                <use id="zoomplus" xlink:href="#zoomPlus" x="17" y="9" onmousedown="handleZoom(evt,'in')"/>
                <use id="zoomminus" xlink:href="#zoomMin" x="42" y="9" onmousedown="handleZoom(evt,'out')"/>
                <use id="reset" xlink:href="#resetDef" x="30" y="36" onmousedown="handleReset()"/>
                <g id="arrowUp" xlink:href="#dirArrow" transform="translate(30 24)" onmousedown="handlePan(0,-1)">
                  <use xlink:href="#rim" fill="#404040">
                        <set attributeName="fill" to="#808080" begin="arrowUp.mouseover" end="arrowUp.mouseout"/>
                  </use>
                  <path fill="none" stroke="white" stroke-width="1.5" d="M0,-3.0v7 M-2.5,-0.5L0,-3.0L2.5,-0.5"/>
                </g>
                <g id="arrowRight" xlink:href="#dirArrow" transform="rotate(90) translate(36 -43)" onmousedown="handlePan(1,0)">
                  <use xlink:href="#rim" fill="#404040">
                        <set attributeName="fill" to="#808080" begin="arrowRight.mouseover" end="arrowRight.mouseout"/>
                  </use>
                  <path fill="none" stroke="white" stroke-width="1.5" d="M0,-3.0v7 M-2.5,-0.5L0,-3.0L2.5,-0.5"/>
                </g>
                <g id="arrowDown" xlink:href="#dirArrow" transform="rotate(180) translate(-30 -48)" onmousedown="handlePan(0,1)">
                  <use xlink:href="#rim" fill="#404040">
                        <set attributeName="fill" to="#808080" begin="arrowDown.mouseover" end="arrowDown.mouseout"/>
                  </use>
                  <path fill="none" stroke="white" stroke-width="1.5" d="M0,-3.0v7 M-2.5,-0.5L0,-3.0L2.5,-0.5"/>
                </g>
                <g id="arrowLeft" xlink:href="#dirArrow" transform="rotate(270) translate(-36 17)" onmousedown="handlePan(-1,0)">
                  <use xlink:href="#rim" fill="#404040">
                        <set attributeName="fill" to="#808080" begin="arrowLeft.mouseover" end="arrowLeft.mouseout"/>
                  </use>
                  <path fill="none" stroke="white" stroke-width="1.5" d="M0,-3.0v7 M-2.5,-0.5L0,-3.0L2.5,-0.5"/>
                </g>
        </g>
        <svg viewBox="0 0 15 15" width="100%" height="30px" preserveAspectRatio="xMaxYMin meet">
         <g id="arrow_out" transform="scale(0.3 0.3)">
          <a xlink:href="stencils_8_h__dep__incl_org.svg" target="_base">
           <rect id="button" ry="5" rx="5" y="6" x="6" height="38" width="38"
                fill="#f2f5e9" fill-opacity="0.5" stroke="#606060" stroke-width="1.0"/>
           <path id="arrow"
             d="M 11.500037,31.436501 C 11.940474,20.09759 22.043105,11.32322 32.158766,21.979434 L 37.068811,17.246167 C 37.068811,17.246167 37.088388,32 37.088388,32 L 22.160133,31.978069 C 22.160133,31.978069 26.997745,27.140456 26.997745,27.140456 C 18.528582,18.264221 13.291696,25.230495 11.500037,31.436501 z"
             style="fill:#404040;"/>
          </a>
         </g>
        </svg>
</svg>
