<?xml version="1.0" encoding="UTF-8" standalone="no"?>
<!DOCTYPE svg PUBLIC "-//W3C//DTD SVG 1.1//EN"
 "http://www.w3.org/Graphics/SVG/1.1/DTD/svg11.dtd">
<!-- Generated by graphviz version 2.43.0 (0)
 -->
<!-- Title: amr_wind::actuator::TurbineFastData Pages: 1 -->
<svg width="1600pt" height="481pt"
 viewBox="0.00 0.00 1600.00 481.00" xmlns="http://www.w3.org/2000/svg" xmlns:xlink="http://www.w3.org/1999/xlink">
<g id="graph0" class="graph" transform="scale(1 1) rotate(0) translate(4 477)">
<title>amr_wind::actuator::TurbineFastData</title>
<polygon fill="white" stroke="transparent" points="-4,4 -4,-477 1596,-477 1596,4 -4,4"/>
<!-- Node1 -->
<g id="node1" class="node">
<title>Node1</title>
<g id="a_node1"><a xlink:title=" ">
<polygon fill="#bfbfbf" stroke="black" points="1481,-181.5 1481,-211.5 1592,-211.5 1592,-181.5 1481,-181.5"/>
<text text-anchor="start" x="1489" y="-199.5" font-family="Helvetica,sans-Serif" font-size="10.00">amr_wind::actuator</text>
<text text-anchor="middle" x="1536.5" y="-188.5" font-family="Helvetica,sans-Serif" font-size="10.00">::TurbineFastData</text>
</a>
</g>
</g>
<!-- Node2 -->
<g id="node2" class="node">
<title>Node2</title>
<g id="a_node2"><a xlink:href="structamr__wind_1_1actuator_1_1_turbine_base_data.html" target="_top" xlink:title=" ">
<polygon fill="white" stroke="black" points="1312,-298.5 1312,-328.5 1423,-328.5 1423,-298.5 1312,-298.5"/>
<text text-anchor="start" x="1320" y="-316.5" font-family="Helvetica,sans-Serif" font-size="10.00">amr_wind::actuator</text>
<text text-anchor="middle" x="1367.5" y="-305.5" font-family="Helvetica,sans-Serif" font-size="10.00">::TurbineBaseData</text>
</a>
</g>
</g>
<!-- Node2&#45;&gt;Node1 -->
<g id="edge1" class="edge">
<title>Node2&#45;&gt;Node1</title>
<path fill="none" stroke="midnightblue" d="M1398.39,-292.56C1431.59,-269.3 1484.38,-232.32 1513.83,-211.68"/>
<polygon fill="midnightblue" stroke="midnightblue" points="1396.17,-289.84 1389.99,-298.44 1400.19,-295.57 1396.17,-289.84"/>
</g>
<!-- Node3 -->
<g id="node3" class="node">
<title>Node3</title>
<g id="a_node3"><a xlink:title=" ">
<polygon fill="white" stroke="#bfbfbf" points="1035,-298.5 1035,-328.5 1196,-328.5 1196,-298.5 1035,-298.5"/>
<text text-anchor="start" x="1043" y="-316.5" font-family="Helvetica,sans-Serif" font-size="10.00">std::vector&lt; amr_wind</text>
<text text-anchor="middle" x="1115.5" y="-305.5" font-family="Helvetica,sans-Serif" font-size="10.00">::actuator::ComponentView &gt;</text>
</a>
</g>
</g>
<!-- Node3&#45;&gt;Node2 -->
<g id="edge2" class="edge">
<title>Node3&#45;&gt;Node2</title>
<path fill="none" stroke="#9a32cd" stroke-dasharray="5,2" d="M1206.6,-313.5C1241.85,-313.5 1281.13,-313.5 1311.94,-313.5"/>
<polygon fill="#9a32cd" stroke="#9a32cd" points="1206.29,-310 1196.29,-313.5 1206.29,-317 1206.29,-310"/>
<text text-anchor="middle" x="1254" y="-316.5" font-family="Helvetica,sans-Serif" font-size="10.00"> blades</text>
</g>
<!-- Node4 -->
<g id="node4" class="node">
<title>Node4</title>
<g id="a_node4"><a xlink:href="structamr__wind_1_1actuator_1_1_component_view.html" target="_top" xlink:title=" ">
<polygon fill="white" stroke="black" points="743.5,-352.5 743.5,-382.5 854.5,-382.5 854.5,-352.5 743.5,-352.5"/>
<text text-anchor="start" x="751.5" y="-370.5" font-family="Helvetica,sans-Serif" font-size="10.00">amr_wind::actuator</text>
<text text-anchor="middle" x="799" y="-359.5" font-family="Helvetica,sans-Serif" font-size="10.00">::ComponentView</text>
</a>
</g>
</g>
<!-- Node4&#45;&gt;Node2 -->
<g id="edge16" class="edge">
<title>Node4&#45;&gt;Node2</title>
<path fill="none" stroke="#9a32cd" stroke-dasharray="5,2" d="M864.77,-365.44C959.5,-361.75 1141.2,-352.04 1294,-328.5 1299.84,-327.6 1305.93,-326.54 1311.98,-325.4"/>
<polygon fill="#9a32cd" stroke="#9a32cd" points="864.62,-361.95 854.76,-365.83 864.89,-368.94 864.62,-361.95"/>
<text text-anchor="middle" x="1115.5" y="-358.5" font-family="Helvetica,sans-Serif" font-size="10.00"> tower</text>
</g>
<!-- Node4&#45;&gt;Node3 -->
<g id="edge3" class="edge">
<title>Node4&#45;&gt;Node3</title>
<path fill="none" stroke="#9a32cd" stroke-dasharray="5,2" d="M851.76,-349.42C860.44,-346.81 869.42,-344.38 878,-342.5 929.62,-331.17 988.61,-323.93 1034.77,-319.51"/>
<polygon fill="#9a32cd" stroke="#9a32cd" points="850.62,-346.1 842.11,-352.41 852.7,-352.79 850.62,-346.1"/>
<text text-anchor="middle" x="947.5" y="-345.5" font-family="Helvetica,sans-Serif" font-size="10.00"> elements</text>
</g>
<!-- Node5 -->
<g id="node5" class="node">
<title>Node5</title>
<g id="a_node5"><a xlink:href="structamr__wind_1_1utils_1_1_slice.html" target="_top" xlink:title=" ">
<polygon fill="white" stroke="black" points="450.5,-442.5 450.5,-472.5 571.5,-472.5 571.5,-442.5 450.5,-442.5"/>
<text text-anchor="start" x="458.5" y="-460.5" font-family="Helvetica,sans-Serif" font-size="10.00">amr_wind::utils::Slice</text>
<text text-anchor="middle" x="511" y="-449.5" font-family="Helvetica,sans-Serif" font-size="10.00">&lt; amrex::Real &gt;</text>
</a>
</g>
</g>
<!-- Node5&#45;&gt;Node4 -->
<g id="edge4" class="edge">
<title>Node5&#45;&gt;Node4</title>
<path fill="none" stroke="#9a32cd" stroke-dasharray="5,2" d="M581.43,-446.29C622.52,-438.48 675.15,-426.4 720,-409.5 738.85,-402.4 758.84,-391.56 773.86,-382.68"/>
<polygon fill="#9a32cd" stroke="#9a32cd" points="580.7,-442.86 571.51,-448.13 581.98,-449.75 580.7,-442.86"/>
<text text-anchor="middle" x="663.5" y="-443.5" font-family="Helvetica,sans-Serif" font-size="10.00"> chord</text>
</g>
<!-- Node6 -->
<g id="node6" class="node">
<title>Node6</title>
<g id="a_node6"><a xlink:href="structamr__wind_1_1utils_1_1_slice.html" target="_top" xlink:title=" ">
<polygon fill="white" stroke="black" points="116.5,-420 116.5,-439 265.5,-439 265.5,-420 116.5,-420"/>
<text text-anchor="middle" x="191" y="-427" font-family="Helvetica,sans-Serif" font-size="10.00">amr_wind::utils::Slice&lt; T &gt;</text>
</a>
</g>
</g>
<!-- Node6&#45;&gt;Node5 -->
<g id="edge5" class="edge">
<title>Node6&#45;&gt;Node5</title>
<path fill="none" stroke="orange" stroke-dasharray="5,2" d="M275.82,-436.88C330.76,-441.72 401.24,-447.92 450.47,-452.26"/>
<polygon fill="orange" stroke="orange" points="276.02,-433.38 265.75,-435.99 275.41,-440.36 276.02,-433.38"/>
<text text-anchor="middle" x="350.5" y="-450.5" font-family="Helvetica,sans-Serif" font-size="10.00"> &lt; amrex::Real &gt;</text>
</g>
<!-- Node7 -->
<g id="node7" class="node">
<title>Node7</title>
<g id="a_node7"><a xlink:href="structamr__wind_1_1utils_1_1_slice.html" target="_top" xlink:title=" ">
<polygon fill="white" stroke="black" points="440,-388.5 440,-418.5 582,-418.5 582,-388.5 440,-388.5"/>
<text text-anchor="start" x="448" y="-406.5" font-family="Helvetica,sans-Serif" font-size="10.00">amr_wind::utils::Slice</text>
<text text-anchor="middle" x="511" y="-395.5" font-family="Helvetica,sans-Serif" font-size="10.00">&lt; amr_wind::vs::Tensor &gt;</text>
</a>
</g>
</g>
<!-- Node6&#45;&gt;Node7 -->
<g id="edge9" class="edge">
<title>Node6&#45;&gt;Node7</title>
<path fill="none" stroke="orange" stroke-dasharray="5,2" d="M275.79,-422.65C326.92,-418.47 391.52,-413.19 439.92,-409.23"/>
<polygon fill="orange" stroke="orange" points="275.44,-419.17 265.75,-423.47 276.01,-426.14 275.44,-419.17"/>
<text text-anchor="middle" x="350.5" y="-423.5" font-family="Helvetica,sans-Serif" font-size="10.00"> &lt; amr_wind::vs::Tensor &gt;</text>
</g>
<!-- Node10 -->
<g id="node10" class="node">
<title>Node10</title>
<g id="a_node10"><a xlink:href="structamr__wind_1_1utils_1_1_slice.html" target="_top" xlink:title=" ">
<polygon fill="white" stroke="black" points="440.5,-310.5 440.5,-340.5 581.5,-340.5 581.5,-310.5 440.5,-310.5"/>
<text text-anchor="start" x="448.5" y="-328.5" font-family="Helvetica,sans-Serif" font-size="10.00">amr_wind::utils::Slice</text>
<text text-anchor="middle" x="511" y="-317.5" font-family="Helvetica,sans-Serif" font-size="10.00">&lt; amr_wind::vs::Vector &gt;</text>
</a>
</g>
</g>
<!-- Node6&#45;&gt;Node10 -->
<g id="edge13" class="edge">
<title>Node6&#45;&gt;Node10</title>
<path fill="none" stroke="orange" stroke-dasharray="5,2" d="M225.38,-416.31C243.16,-409.65 265.53,-401.88 286,-396.5 342.32,-381.7 359.76,-391.94 415,-373.5 439.89,-365.19 466.4,-351.33 485.07,-340.64"/>
<polygon fill="orange" stroke="orange" points="224.12,-413.04 216.01,-419.86 226.6,-419.58 224.12,-413.04"/>
<text text-anchor="middle" x="350.5" y="-399.5" font-family="Helvetica,sans-Serif" font-size="10.00"> &lt; amr_wind::vs::Vector &gt;</text>
</g>
<!-- Node7&#45;&gt;Node4 -->
<g id="edge6" class="edge">
<title>Node7&#45;&gt;Node4</title>
<path fill="none" stroke="#9a32cd" stroke-dasharray="5,2" d="M592.59,-396.34C631.21,-392.56 678.09,-387.47 720,-381.5 727.49,-380.43 735.36,-379.18 743.11,-377.87"/>
<polygon fill="#9a32cd" stroke="#9a32cd" points="592.06,-392.88 582.44,-397.32 592.73,-399.85 592.06,-392.88"/>
<text text-anchor="middle" x="663.5" y="-397.5" font-family="Helvetica,sans-Serif" font-size="10.00"> orientation</text>
</g>
<!-- Node8 -->
<g id="node8" class="node">
<title>Node8</title>
<g id="a_node8"><a xlink:href="structamr__wind_1_1vs_1_1_tensor_t.html" target="_top" xlink:title="Tensor in 3D vector space.">
<polygon fill="white" stroke="black" points="114,-339 114,-358 268,-358 268,-339 114,-339"/>
<text text-anchor="middle" x="191" y="-346" font-family="Helvetica,sans-Serif" font-size="10.00">amr_wind::vs::TensorT&lt; T &gt;</text>
</a>
</g>
</g>
<!-- Node8&#45;&gt;Node7 -->
<g id="edge7" class="edge">
<title>Node8&#45;&gt;Node7</title>
<path fill="none" stroke="#9a32cd" stroke-dasharray="5,2" d="M278.25,-340.04C320.17,-338.34 370.89,-339.9 415,-351.5 442.64,-358.77 470.95,-375.74 489.39,-388.33"/>
<polygon fill="#9a32cd" stroke="#9a32cd" points="277.89,-336.55 268.07,-340.52 278.22,-343.54 277.89,-336.55"/>
<text text-anchor="middle" x="350.5" y="-365.5" font-family="Helvetica,sans-Serif" font-size="10.00"> ptr_begin</text>
<text text-anchor="middle" x="350.5" y="-354.5" font-family="Helvetica,sans-Serif" font-size="10.00">ptr_end</text>
</g>
<!-- Node9 -->
<g id="node9" class="node">
<title>Node9</title>
<g id="a_node9"><a xlink:title=" ">
<polygon fill="white" stroke="#bfbfbf" points="0,-281 0,-300 29,-300 29,-281 0,-281"/>
<text text-anchor="middle" x="14.5" y="-288" font-family="Helvetica,sans-Serif" font-size="10.00">T</text>
</a>
</g>
</g>
<!-- Node9&#45;&gt;Node8 -->
<g id="edge8" class="edge">
<title>Node9&#45;&gt;Node8</title>
<path fill="none" stroke="#9a32cd" stroke-dasharray="5,2" d="M34.52,-306.19C38.48,-308.92 42.74,-311.52 47,-313.5 72.61,-325.41 102.75,-333.56 128.75,-338.98"/>
<polygon fill="#9a32cd" stroke="#9a32cd" points="36.59,-303.36 26.49,-300.18 32.4,-308.97 36.59,-303.36"/>
<text text-anchor="middle" x="71.5" y="-332.5" font-family="Helvetica,sans-Serif" font-size="10.00"> vv</text>
</g>
<!-- Node11 -->
<g id="node11" class="node">
<title>Node11</title>
<g id="a_node11"><a xlink:href="structamr__wind_1_1vs_1_1_vector_t.html" target="_top" xlink:title="Vector in 3D space.">
<polygon fill="white" stroke="black" points="114.5,-300 114.5,-319 267.5,-319 267.5,-300 114.5,-300"/>
<text text-anchor="middle" x="191" y="-307" font-family="Helvetica,sans-Serif" font-size="10.00">amr_wind::vs::VectorT&lt; T &gt;</text>
</a>
</g>
</g>
<!-- Node9&#45;&gt;Node11 -->
<g id="edge12" class="edge">
<title>Node9&#45;&gt;Node11</title>
<path fill="none" stroke="#9a32cd" stroke-dasharray="5,2" d="M39.22,-293.08C58.61,-295.19 87.16,-298.3 114.21,-301.25"/>
<polygon fill="#9a32cd" stroke="#9a32cd" points="39.51,-289.59 29.19,-291.99 38.76,-296.55 39.51,-289.59"/>
<text text-anchor="middle" x="71.5" y="-301.5" font-family="Helvetica,sans-Serif" font-size="10.00"> vv</text>
</g>
<!-- Node12 -->
<g id="node12" class="node">
<title>Node12</title>
<g id="a_node12"><a xlink:title="STL class.">
<polygon fill="white" stroke="#bfbfbf" points="750.5,-262 750.5,-281 847.5,-281 847.5,-262 750.5,-262"/>
<text text-anchor="middle" x="799" y="-269" font-family="Helvetica,sans-Serif" font-size="10.00">std::vector&lt; T &gt;</text>
</a>
</g>
</g>
<!-- Node9&#45;&gt;Node12 -->
<g id="edge15" class="edge">
<title>Node9&#45;&gt;Node12</title>
<path fill="none" stroke="#9a32cd" stroke-dasharray="5,2" d="M39.45,-289.72C42,-289.64 44.55,-289.57 47,-289.5 312.63,-282.1 631.15,-275.08 750.11,-272.52"/>
<polygon fill="#9a32cd" stroke="#9a32cd" points="39.18,-286.23 29.3,-290.04 39.4,-293.22 39.18,-286.23"/>
<text text-anchor="middle" x="350.5" y="-285.5" font-family="Helvetica,sans-Serif" font-size="10.00"> elements</text>
</g>
<!-- Node16 -->
<g id="node16" class="node">
<title>Node16</title>
<g id="a_node16"><a xlink:title="STL class.">
<polygon fill="white" stroke="#bfbfbf" points="140.5,-224 140.5,-243 241.5,-243 241.5,-224 140.5,-224"/>
<text text-anchor="middle" x="191" y="-231" font-family="Helvetica,sans-Serif" font-size="10.00">std::map&lt; K, T &gt;</text>
</a>
</g>
</g>
<!-- Node9&#45;&gt;Node16 -->
<g id="edge22" class="edge">
<title>Node9&#45;&gt;Node16</title>
<path fill="none" stroke="#9a32cd" stroke-dasharray="5,2" d="M24.03,-271.91C29.28,-262.66 36.96,-252.25 47,-246.5 75.01,-230.46 111.28,-227.32 140.28,-228.13"/>
<polygon fill="#9a32cd" stroke="#9a32cd" points="20.87,-270.39 19.42,-280.88 27.1,-273.58 20.87,-270.39"/>
<text text-anchor="middle" x="71.5" y="-249.5" font-family="Helvetica,sans-Serif" font-size="10.00"> elements</text>
</g>
<!-- Node10&#45;&gt;Node4 -->
<g id="edge10" class="edge">
<title>Node10&#45;&gt;Node4</title>
<path fill="none" stroke="#9a32cd" stroke-dasharray="5,2" d="M591.61,-314.27C630.89,-311.25 678.6,-311.41 720,-322.5 741.6,-328.28 763.4,-341.65 778.45,-352.32"/>
<polygon fill="#9a32cd" stroke="#9a32cd" points="591.22,-310.79 581.55,-315.12 591.82,-317.76 591.22,-310.79"/>
<text text-anchor="middle" x="663.5" y="-369.5" font-family="Helvetica,sans-Serif" font-size="10.00"> vel_pos</text>
<text text-anchor="middle" x="663.5" y="-358.5" font-family="Helvetica,sans-Serif" font-size="10.00">force</text>
<text text-anchor="middle" x="663.5" y="-347.5" font-family="Helvetica,sans-Serif" font-size="10.00">vel</text>
<text text-anchor="middle" x="663.5" y="-336.5" font-family="Helvetica,sans-Serif" font-size="10.00">epsilon</text>
<text text-anchor="middle" x="663.5" y="-325.5" font-family="Helvetica,sans-Serif" font-size="10.00">pos</text>
</g>
<!-- Node11&#45;&gt;Node10 -->
<g id="edge11" class="edge">
<title>Node11&#45;&gt;Node10</title>
<path fill="none" stroke="#9a32cd" stroke-dasharray="5,2" d="M277.62,-303.87C319.18,-302.28 369.79,-302.02 415,-306.5 424.29,-307.42 434.02,-308.83 443.55,-310.48"/>
<polygon fill="#9a32cd" stroke="#9a32cd" points="277.38,-300.38 267.53,-304.29 277.67,-307.37 277.38,-300.38"/>
<text text-anchor="middle" x="350.5" y="-320.5" font-family="Helvetica,sans-Serif" font-size="10.00"> ptr_begin</text>
<text text-anchor="middle" x="350.5" y="-309.5" font-family="Helvetica,sans-Serif" font-size="10.00">ptr_end</text>
</g>
<!-- Node12&#45;&gt;Node3 -->
<g id="edge14" class="edge">
<title>Node12&#45;&gt;Node3</title>
<path fill="none" stroke="orange" stroke-dasharray="5,2" d="M858.08,-277.77C901.84,-282.65 963.27,-289.88 1017,-297.5 1022.86,-298.33 1028.91,-299.23 1034.99,-300.16"/>
<polygon fill="orange" stroke="orange" points="858.24,-274.26 847.92,-276.64 857.47,-281.22 858.24,-274.26"/>
<text text-anchor="start" x="893" y="-311.5" font-family="Helvetica,sans-Serif" font-size="10.00"> &lt; amr_wind::actuator</text>
<text text-anchor="middle" x="947.5" y="-300.5" font-family="Helvetica,sans-Serif" font-size="10.00">::ComponentView &gt;</text>
</g>
<!-- Node20 -->
<g id="node20" class="node">
<title>Node20</title>
<g id="a_node20"><a xlink:title=" ">
<polygon fill="white" stroke="#bfbfbf" points="1053.5,-247.5 1053.5,-277.5 1177.5,-277.5 1177.5,-247.5 1053.5,-247.5"/>
<text text-anchor="start" x="1061.5" y="-265.5" font-family="Helvetica,sans-Serif" font-size="10.00">std::vector&lt; exw_fast</text>
<text text-anchor="middle" x="1115.5" y="-254.5" font-family="Helvetica,sans-Serif" font-size="10.00">::FastTurbine * &gt;</text>
</a>
</g>
</g>
<!-- Node12&#45;&gt;Node20 -->
<g id="edge32" class="edge">
<title>Node12&#45;&gt;Node20</title>
<path fill="none" stroke="orange" stroke-dasharray="5,2" d="M858.2,-264.9C864.87,-264.33 871.58,-263.84 878,-263.5 937.45,-260.33 1005.43,-260.43 1053.2,-261.11"/>
<polygon fill="orange" stroke="orange" points="857.43,-261.45 847.79,-265.85 858.07,-268.43 857.43,-261.45"/>
<text text-anchor="middle" x="947.5" y="-266.5" font-family="Helvetica,sans-Serif" font-size="10.00"> &lt; exw_fast::FastTurbine * &gt;</text>
</g>
<!-- Node13 -->
<g id="node13" class="node">
<title>Node13</title>
<g id="a_node13"><a xlink:href="classexw__fast_1_1_fast_iface.html" target="_top" xlink:title=" ">
<polygon fill="white" stroke="black" points="1312.5,-187 1312.5,-206 1422.5,-206 1422.5,-187 1312.5,-187"/>
<text text-anchor="middle" x="1367.5" y="-194" font-family="Helvetica,sans-Serif" font-size="10.00">exw_fast::FastIface</text>
</a>
</g>
</g>
<!-- Node13&#45;&gt;Node1 -->
<g id="edge17" class="edge">
<title>Node13&#45;&gt;Node1</title>
<path fill="none" stroke="#9a32cd" stroke-dasharray="5,2" d="M1432.97,-196.5C1448.83,-196.5 1465.65,-196.5 1480.98,-196.5"/>
<polygon fill="#9a32cd" stroke="#9a32cd" points="1432.72,-193 1422.72,-196.5 1432.72,-200 1432.72,-193"/>
<text text-anchor="middle" x="1452" y="-199.5" font-family="Helvetica,sans-Serif" font-size="10.00"> fast</text>
</g>
<!-- Node14 -->
<g id="node14" class="node">
<title>Node14</title>
<g id="a_node14"><a xlink:title=" ">
<polygon fill="white" stroke="#bfbfbf" points="1051,-159.5 1051,-189.5 1180,-189.5 1180,-159.5 1051,-159.5"/>
<text text-anchor="start" x="1059" y="-177.5" font-family="Helvetica,sans-Serif" font-size="10.00">amr_wind::ExtSolver</text>
<text text-anchor="middle" x="1115.5" y="-166.5" font-family="Helvetica,sans-Serif" font-size="10.00">::Register&lt; FastIface &gt;</text>
</a>
</g>
</g>
<!-- Node14&#45;&gt;Node13 -->
<g id="edge18" class="edge">
<title>Node14&#45;&gt;Node13</title>
<path fill="none" stroke="midnightblue" d="M1190.49,-181.01C1229.53,-184.45 1276.57,-188.59 1312.2,-191.72"/>
<polygon fill="midnightblue" stroke="midnightblue" points="1190.5,-177.5 1180.23,-180.11 1189.89,-184.47 1190.5,-177.5"/>
</g>
<!-- Node15 -->
<g id="node15" class="node">
<title>Node15</title>
<g id="a_node15"><a xlink:title=" ">
<polygon fill="white" stroke="#bfbfbf" points="607,-218 607,-237 720,-237 720,-218 607,-218"/>
<text text-anchor="middle" x="663.5" y="-225" font-family="Helvetica,sans-Serif" font-size="10.00">std::map&lt; int, int &gt;</text>
</a>
</g>
</g>
<!-- Node15&#45;&gt;Node13 -->
<g id="edge19" class="edge">
<title>Node15&#45;&gt;Node13</title>
<path fill="none" stroke="#9a32cd" stroke-dasharray="5,2" d="M730.09,-224.95C844.57,-220.44 1088.25,-210.59 1294,-200.5 1299.92,-200.21 1306.11,-199.89 1312.27,-199.56"/>
<polygon fill="#9a32cd" stroke="#9a32cd" points="729.94,-221.45 720.09,-225.34 730.22,-228.45 729.94,-221.45"/>
<text text-anchor="middle" x="947.5" y="-221.5" font-family="Helvetica,sans-Serif" font-size="10.00"> m_turbine_map</text>
</g>
<!-- Node16&#45;&gt;Node15 -->
<g id="edge20" class="edge">
<title>Node16&#45;&gt;Node15</title>
<path fill="none" stroke="orange" stroke-dasharray="5,2" d="M252.15,-232.73C344.01,-231.56 517.93,-229.34 606.95,-228.21"/>
<polygon fill="orange" stroke="orange" points="251.86,-229.24 241.91,-232.86 251.95,-236.24 251.86,-229.24"/>
<text text-anchor="middle" x="350.5" y="-234.5" font-family="Helvetica,sans-Serif" font-size="10.00"> &lt; int, int &gt;</text>
</g>
<!-- Node17 -->
<g id="node17" class="node">
<title>Node17</title>
<g id="a_node17"><a xlink:title=" ">
<polygon fill="white" stroke="#bfbfbf" points="0,-202 0,-221 29,-221 29,-202 0,-202"/>
<text text-anchor="middle" x="14.5" y="-209" font-family="Helvetica,sans-Serif" font-size="10.00">K</text>
</a>
</g>
</g>
<!-- Node17&#45;&gt;Node16 -->
<g id="edge21" class="edge">
<title>Node17&#45;&gt;Node16</title>
<path fill="none" stroke="#9a32cd" stroke-dasharray="5,2" d="M39.36,-210.51C55.42,-210.15 77.05,-210.29 96,-212.5 115.93,-214.82 137.83,-219.58 155.47,-223.99"/>
<polygon fill="#9a32cd" stroke="#9a32cd" points="39.12,-207.01 29.23,-210.81 39.33,-214.01 39.12,-207.01"/>
<text text-anchor="middle" x="71.5" y="-215.5" font-family="Helvetica,sans-Serif" font-size="10.00"> keys</text>
</g>
<!-- Node18 -->
<g id="node18" class="node">
<title>Node18</title>
<g id="a_node18"><a xlink:title="STL class.">
<polygon fill="white" stroke="#bfbfbf" points="478.5,-6 478.5,-25 543.5,-25 543.5,-6 478.5,-6"/>
<text text-anchor="middle" x="511" y="-13" font-family="Helvetica,sans-Serif" font-size="10.00">std::string</text>
</a>
</g>
</g>
<!-- Node18&#45;&gt;Node13 -->
<g id="edge23" class="edge">
<title>Node18&#45;&gt;Node13</title>
<path fill="none" stroke="#9a32cd" stroke-dasharray="5,2" d="M554,-13.01C596.13,-11.15 662.79,-9.91 720,-16.5 979.95,-46.42 1053.95,-43.35 1294,-147.5 1317.41,-157.66 1341.32,-175.59 1354.99,-186.71"/>
<polygon fill="#9a32cd" stroke="#9a32cd" points="553.67,-9.52 543.84,-13.49 554,-16.52 553.67,-9.52"/>
<text text-anchor="middle" x="947.5" y="-56.5" font-family="Helvetica,sans-Serif" font-size="10.00"> m_output_dir</text>
</g>
<!-- Node21 -->
<g id="node21" class="node">
<title>Node21</title>
<g id="a_node21"><a xlink:href="structexw__fast_1_1_fast_turbine.html" target="_top" xlink:title="Representation of a turbine for exchanging data with FAST.">
<polygon fill="white" stroke="black" points="738,-121 738,-140 860,-140 860,-121 738,-121"/>
<text text-anchor="middle" x="799" y="-128" font-family="Helvetica,sans-Serif" font-size="10.00">exw_fast::FastTurbine</text>
</a>
</g>
</g>
<!-- Node18&#45;&gt;Node21 -->
<g id="edge30" class="edge">
<title>Node18&#45;&gt;Node21</title>
<path fill="none" stroke="#9a32cd" stroke-dasharray="5,2" d="M553.87,-15.36C597.66,-16.85 667.23,-23.92 720,-51.5 752.46,-68.46 779.7,-103.76 791.59,-120.84"/>
<polygon fill="#9a32cd" stroke="#9a32cd" points="553.94,-11.86 543.86,-15.1 553.76,-18.86 553.94,-11.86"/>
<text text-anchor="middle" x="663.5" y="-76.5" font-family="Helvetica,sans-Serif" font-size="10.00"> tlabel</text>
<text text-anchor="middle" x="663.5" y="-65.5" font-family="Helvetica,sans-Serif" font-size="10.00">input_file</text>
<text text-anchor="middle" x="663.5" y="-54.5" font-family="Helvetica,sans-Serif" font-size="10.00">checkpoint_file</text>
</g>
<!-- Node19 -->
<g id="node19" class="node">
<title>Node19</title>
<g id="a_node19"><a xlink:title="STL class.">
<polygon fill="white" stroke="#bfbfbf" points="139,-0.5 139,-30.5 243,-30.5 243,-0.5 139,-0.5"/>
<text text-anchor="start" x="147" y="-18.5" font-family="Helvetica,sans-Serif" font-size="10.00">std::basic_string&lt;</text>
<text text-anchor="middle" x="191" y="-7.5" font-family="Helvetica,sans-Serif" font-size="10.00"> char &gt;</text>
</a>
</g>
</g>
<!-- Node19&#45;&gt;Node18 -->
<g id="edge24" class="edge">
<title>Node19&#45;&gt;Node18</title>
<path fill="none" stroke="midnightblue" d="M253.14,-15.5C320.44,-15.5 426,-15.5 478.36,-15.5"/>
<polygon fill="midnightblue" stroke="midnightblue" points="253.09,-12 243.09,-15.5 253.09,-19 253.09,-12"/>
</g>
<!-- Node20&#45;&gt;Node13 -->
<g id="edge25" class="edge">
<title>Node20&#45;&gt;Node13</title>
<path fill="none" stroke="#9a32cd" stroke-dasharray="5,2" d="M1187.54,-255.34C1220.46,-250.8 1259.79,-243.62 1294,-232.5 1314.45,-225.86 1336.35,-214.29 1350.67,-206.07"/>
<polygon fill="#9a32cd" stroke="#9a32cd" points="1186.99,-251.88 1177.53,-256.67 1187.91,-258.82 1186.99,-251.88"/>
<text text-anchor="middle" x="1254" y="-253.5" font-family="Helvetica,sans-Serif" font-size="10.00"> m_turbine_data</text>
</g>
<!-- Node21&#45;&gt;Node1 -->
<g id="edge33" class="edge">
<title>Node21&#45;&gt;Node1</title>
<path fill="none" stroke="#9a32cd" stroke-dasharray="5,2" d="M870.48,-132.61C949.74,-135.33 1082.27,-140.88 1196,-150.5 1297.24,-159.07 1322.43,-163.04 1423,-177.5 1441.92,-180.22 1462.56,-183.59 1480.94,-186.73"/>
<polygon fill="#9a32cd" stroke="#9a32cd" points="870.24,-129.1 860.13,-132.27 870.01,-136.1 870.24,-129.1"/>
<text text-anchor="middle" x="1254" y="-162.5" font-family="Helvetica,sans-Serif" font-size="10.00"> fast_data</text>
</g>
<!-- Node21&#45;&gt;Node20 -->
<g id="edge26" class="edge">
<title>Node21&#45;&gt;Node20</title>
<path fill="none" stroke="#9a32cd" stroke-dasharray="5,2" d="M856.86,-142.09C911.28,-153.69 989.11,-171.74 1017,-185.5 1018.11,-186.05 1067.45,-225.16 1095.51,-247.42"/>
<polygon fill="#9a32cd" stroke="#9a32cd" points="857.49,-138.65 846.98,-140 856.04,-145.5 857.49,-138.65"/>
<text text-anchor="middle" x="947.5" y="-188.5" font-family="Helvetica,sans-Serif" font-size="10.00"> elements</text>
</g>
<!-- Node22 -->
<g id="node22" class="node">
<title>Node22</title>
<g id="a_node22"><a xlink:href="structexw__fast_1_1_op_f_m___output_type.html" target="_top" xlink:title=" ">
<polygon fill="white" stroke="black" points="433,-186 433,-205 589,-205 589,-186 433,-186"/>
<text text-anchor="middle" x="511" y="-193" font-family="Helvetica,sans-Serif" font-size="10.00">exw_fast::OpFM_OutputType</text>
</a>
</g>
</g>
<!-- Node22&#45;&gt;Node21 -->
<g id="edge27" class="edge">
<title>Node22&#45;&gt;Node21</title>
<path fill="none" stroke="#9a32cd" stroke-dasharray="5,2" d="M599.86,-186.16C637.31,-181 681.22,-173.37 720,-162.5 740.44,-156.77 762.75,-147.27 778.25,-140.1"/>
<polygon fill="#9a32cd" stroke="#9a32cd" points="598.92,-182.75 589.48,-187.55 599.85,-189.69 598.92,-182.75"/>
<text text-anchor="middle" x="663.5" y="-187.5" font-family="Helvetica,sans-Serif" font-size="10.00"> from_cfd</text>
</g>
<!-- Node23 -->
<g id="node23" class="node">
<title>Node23</title>
<g id="a_node23"><a xlink:href="structexw__fast_1_1_s_c___output_type.html" target="_top" xlink:title=" ">
<polygon fill="white" stroke="black" points="441,-148 441,-167 581,-167 581,-148 441,-148"/>
<text text-anchor="middle" x="511" y="-155" font-family="Helvetica,sans-Serif" font-size="10.00">exw_fast::SC_OutputType</text>
</a>
</g>
</g>
<!-- Node23&#45;&gt;Node21 -->
<g id="edge28" class="edge">
<title>Node23&#45;&gt;Node21</title>
<path fill="none" stroke="#9a32cd" stroke-dasharray="5,2" d="M591.23,-150.02C637.53,-145.65 695.04,-140.22 737.65,-136.2"/>
<polygon fill="#9a32cd" stroke="#9a32cd" points="590.86,-146.54 581.23,-150.96 591.52,-153.51 590.86,-146.54"/>
<text text-anchor="middle" x="663.5" y="-150.5" font-family="Helvetica,sans-Serif" font-size="10.00"> from_sc</text>
</g>
<!-- Node24 -->
<g id="node24" class="node">
<title>Node24</title>
<g id="a_node24"><a xlink:href="structexw__fast_1_1_op_f_m___input_type.html" target="_top" xlink:title=" ">
<polygon fill="white" stroke="black" points="437,-110 437,-129 585,-129 585,-110 437,-110"/>
<text text-anchor="middle" x="511" y="-117" font-family="Helvetica,sans-Serif" font-size="10.00">exw_fast::OpFM_InputType</text>
</a>
</g>
</g>
<!-- Node24&#45;&gt;Node21 -->
<g id="edge29" class="edge">
<title>Node24&#45;&gt;Node21</title>
<path fill="none" stroke="#9a32cd" stroke-dasharray="5,2" d="M595.21,-120.5C633.27,-121.21 678.94,-122.43 720,-124.5 725.83,-124.79 731.91,-125.16 737.98,-125.56"/>
<polygon fill="#9a32cd" stroke="#9a32cd" points="595.25,-117 585.19,-120.32 595.13,-124 595.25,-117"/>
<text text-anchor="middle" x="663.5" y="-127.5" font-family="Helvetica,sans-Serif" font-size="10.00"> to_cfd</text>
</g>
<!-- Node25 -->
<g id="node25" class="node">
<title>Node25</title>
<g id="a_node25"><a xlink:href="structexw__fast_1_1_s_c___input_type.html" target="_top" xlink:title=" ">
<polygon fill="white" stroke="black" points="445,-72 445,-91 577,-91 577,-72 445,-72"/>
<text text-anchor="middle" x="511" y="-79" font-family="Helvetica,sans-Serif" font-size="10.00">exw_fast::SC_InputType</text>
</a>
</g>
</g>
<!-- Node25&#45;&gt;Node21 -->
<g id="edge31" class="edge">
<title>Node25&#45;&gt;Node21</title>
<path fill="none" stroke="#9a32cd" stroke-dasharray="5,2" d="M587.33,-86.62C627.1,-90.22 676.53,-96.12 720,-105.5 737.79,-109.34 757.29,-115.59 772.34,-120.88"/>
<polygon fill="#9a32cd" stroke="#9a32cd" points="587.45,-83.12 577.18,-85.73 586.84,-90.09 587.45,-83.12"/>
<text text-anchor="middle" x="663.5" y="-108.5" font-family="Helvetica,sans-Serif" font-size="10.00"> to_sc</text>
</g>
</g>
</svg>
