<?xml version="1.0" encoding="UTF-8" standalone="no"?>
<!DOCTYPE svg PUBLIC "-//W3C//DTD SVG 1.1//EN"
 "http://www.w3.org/Graphics/SVG/1.1/DTD/svg11.dtd">
<!-- Generated by graphviz version 2.43.0 (0)
 -->
<!-- Title: amr_wind::actuator::TurbineBaseData Pages: 1 -->
<svg width="1268pt" height="212pt"
 viewBox="0.00 0.00 1268.00 212.00" xmlns="http://www.w3.org/2000/svg" xmlns:xlink="http://www.w3.org/1999/xlink">
<g id="graph0" class="graph" transform="scale(1 1) rotate(0) translate(4 208)">
<title>amr_wind::actuator::TurbineBaseData</title>
<polygon fill="white" stroke="transparent" points="-4,4 -4,-208 1264,-208 1264,4 -4,4"/>
<!-- Node1 -->
<g id="node1" class="node">
<title>Node1</title>
<g id="a_node1"><a xlink:title=" ">
<polygon fill="#bfbfbf" stroke="black" points="1149,-37 1149,-67 1260,-67 1260,-37 1149,-37"/>
<text text-anchor="start" x="1157" y="-55" font-family="Helvetica,sans-Serif" font-size="10.00">amr_wind::actuator</text>
<text text-anchor="middle" x="1204.5" y="-44" font-family="Helvetica,sans-Serif" font-size="10.00">::TurbineBaseData</text>
</a>
</g>
</g>
<!-- Node2 -->
<g id="node2" class="node">
<title>Node2</title>
<g id="a_node2"><a xlink:title=" ">
<polygon fill="white" stroke="#bfbfbf" points="916,-11 916,-41 1077,-41 1077,-11 916,-11"/>
<text text-anchor="start" x="924" y="-29" font-family="Helvetica,sans-Serif" font-size="10.00">std::vector&lt; amr_wind</text>
<text text-anchor="middle" x="996.5" y="-18" font-family="Helvetica,sans-Serif" font-size="10.00">::actuator::ComponentView &gt;</text>
</a>
</g>
</g>
<!-- Node2&#45;&gt;Node1 -->
<g id="edge1" class="edge">
<title>Node2&#45;&gt;Node1</title>
<path fill="none" stroke="#9a32cd" stroke-dasharray="5,2" d="M1087.08,-37.31C1108.13,-39.96 1129.94,-42.72 1148.92,-45.11"/>
<polygon fill="#9a32cd" stroke="#9a32cd" points="1087.5,-33.83 1077.14,-36.05 1086.63,-40.78 1087.5,-33.83"/>
<text text-anchor="middle" x="1113" y="-46" font-family="Helvetica,sans-Serif" font-size="10.00"> blades</text>
</g>
<!-- Node3 -->
<g id="node3" class="node">
<title>Node3</title>
<g id="a_node3"><a xlink:href="structamr__wind_1_1actuator_1_1_component_view.html" target="_top" xlink:title=" ">
<polygon fill="white" stroke="black" points="720,-63 720,-93 831,-93 831,-63 720,-63"/>
<text text-anchor="start" x="728" y="-81" font-family="Helvetica,sans-Serif" font-size="10.00">amr_wind::actuator</text>
<text text-anchor="middle" x="775.5" y="-70" font-family="Helvetica,sans-Serif" font-size="10.00">::ComponentView</text>
</a>
</g>
</g>
<!-- Node3&#45;&gt;Node1 -->
<g id="edge15" class="edge">
<title>Node3&#45;&gt;Node1</title>
<path fill="none" stroke="#9a32cd" stroke-dasharray="5,2" d="M841.33,-74.85C912.44,-71.28 1029.89,-65.03 1131,-58 1136.8,-57.6 1142.85,-57.14 1148.88,-56.67"/>
<polygon fill="#9a32cd" stroke="#9a32cd" points="841,-71.37 831.18,-75.36 841.35,-78.36 841,-71.37"/>
<text text-anchor="middle" x="996.5" y="-74" font-family="Helvetica,sans-Serif" font-size="10.00"> tower</text>
</g>
<!-- Node3&#45;&gt;Node2 -->
<g id="edge2" class="edge">
<title>Node3&#45;&gt;Node2</title>
<path fill="none" stroke="#9a32cd" stroke-dasharray="5,2" d="M826.51,-59.67C833.99,-57.24 841.66,-54.93 849,-53 870.51,-47.34 894.1,-42.44 915.95,-38.42"/>
<polygon fill="#9a32cd" stroke="#9a32cd" points="825.19,-56.42 816.82,-62.9 827.41,-63.06 825.19,-56.42"/>
<text text-anchor="middle" x="873.5" y="-56" font-family="Helvetica,sans-Serif" font-size="10.00"> elements</text>
</g>
<!-- Node4 -->
<g id="node4" class="node">
<title>Node4</title>
<g id="a_node4"><a xlink:href="structamr__wind_1_1utils_1_1_slice.html" target="_top" xlink:title=" ">
<polygon fill="white" stroke="black" points="443.5,-99 443.5,-129 564.5,-129 564.5,-99 443.5,-99"/>
<text text-anchor="start" x="451.5" y="-117" font-family="Helvetica,sans-Serif" font-size="10.00">amr_wind::utils::Slice</text>
<text text-anchor="middle" x="504" y="-106" font-family="Helvetica,sans-Serif" font-size="10.00">&lt; amrex::Real &gt;</text>
</a>
</g>
</g>
<!-- Node4&#45;&gt;Node3 -->
<g id="edge3" class="edge">
<title>Node4&#45;&gt;Node3</title>
<path fill="none" stroke="#9a32cd" stroke-dasharray="5,2" d="M574.94,-106.22C612.63,-101.84 659.92,-96.04 702,-90 707.81,-89.17 713.87,-88.24 719.91,-87.29"/>
<polygon fill="#9a32cd" stroke="#9a32cd" points="574.1,-102.79 564.57,-107.41 574.91,-109.74 574.1,-102.79"/>
<text text-anchor="middle" x="647.5" y="-107" font-family="Helvetica,sans-Serif" font-size="10.00"> chord</text>
</g>
<!-- Node5 -->
<g id="node5" class="node">
<title>Node5</title>
<g id="a_node5"><a xlink:href="structamr__wind_1_1utils_1_1_slice.html" target="_top" xlink:title=" ">
<polygon fill="white" stroke="black" points="116.5,-112.5 116.5,-131.5 265.5,-131.5 265.5,-112.5 116.5,-112.5"/>
<text text-anchor="middle" x="191" y="-119.5" font-family="Helvetica,sans-Serif" font-size="10.00">amr_wind::utils::Slice&lt; T &gt;</text>
</a>
</g>
</g>
<!-- Node5&#45;&gt;Node4 -->
<g id="edge4" class="edge">
<title>Node5&#45;&gt;Node4</title>
<path fill="none" stroke="orange" stroke-dasharray="5,2" d="M275.75,-119.85C328.68,-118.48 395.82,-116.76 443.36,-115.53"/>
<polygon fill="orange" stroke="orange" points="275.61,-116.35 265.7,-120.1 275.79,-123.35 275.61,-116.35"/>
<text text-anchor="middle" x="350.5" y="-123" font-family="Helvetica,sans-Serif" font-size="10.00"> &lt; amrex::Real &gt;</text>
</g>
<!-- Node6 -->
<g id="node6" class="node">
<title>Node6</title>
<g id="a_node6"><a xlink:href="structamr__wind_1_1utils_1_1_slice.html" target="_top" xlink:title=" ">
<polygon fill="white" stroke="black" points="433,-50 433,-80 575,-80 575,-50 433,-50"/>
<text text-anchor="start" x="441" y="-68" font-family="Helvetica,sans-Serif" font-size="10.00">amr_wind::utils::Slice</text>
<text text-anchor="middle" x="504" y="-57" font-family="Helvetica,sans-Serif" font-size="10.00">&lt; amr_wind::vs::Tensor &gt;</text>
</a>
</g>
</g>
<!-- Node5&#45;&gt;Node6 -->
<g id="edge8" class="edge">
<title>Node5&#45;&gt;Node6</title>
<path fill="none" stroke="orange" stroke-dasharray="5,2" d="M244.98,-110.33C258.34,-107.5 272.68,-104.55 286,-102 334.98,-92.62 390.42,-83.19 432.99,-76.19"/>
<polygon fill="orange" stroke="orange" points="244.02,-106.96 234.98,-112.47 245.49,-113.8 244.02,-106.96"/>
<text text-anchor="middle" x="350.5" y="-105" font-family="Helvetica,sans-Serif" font-size="10.00"> &lt; amr_wind::vs::Tensor &gt;</text>
</g>
<!-- Node9 -->
<g id="node9" class="node">
<title>Node9</title>
<g id="a_node9"><a xlink:href="structamr__wind_1_1utils_1_1_slice.html" target="_top" xlink:title=" ">
<polygon fill="white" stroke="black" points="433.5,-148 433.5,-178 574.5,-178 574.5,-148 433.5,-148"/>
<text text-anchor="start" x="441.5" y="-166" font-family="Helvetica,sans-Serif" font-size="10.00">amr_wind::utils::Slice</text>
<text text-anchor="middle" x="504" y="-155" font-family="Helvetica,sans-Serif" font-size="10.00">&lt; amr_wind::vs::Vector &gt;</text>
</a>
</g>
</g>
<!-- Node5&#45;&gt;Node9 -->
<g id="edge12" class="edge">
<title>Node5&#45;&gt;Node9</title>
<path fill="none" stroke="orange" stroke-dasharray="5,2" d="M274.19,-132.83C323.77,-139.37 386.26,-147.61 433.4,-153.82"/>
<polygon fill="orange" stroke="orange" points="274.5,-129.35 264.13,-131.51 273.59,-136.29 274.5,-129.35"/>
<text text-anchor="middle" x="350.5" y="-154" font-family="Helvetica,sans-Serif" font-size="10.00"> &lt; amr_wind::vs::Vector &gt;</text>
</g>
<!-- Node6&#45;&gt;Node3 -->
<g id="edge5" class="edge">
<title>Node6&#45;&gt;Node3</title>
<path fill="none" stroke="#9a32cd" stroke-dasharray="5,2" d="M585.34,-68.88C628.66,-70.96 680.99,-73.49 719.62,-75.35"/>
<polygon fill="#9a32cd" stroke="#9a32cd" points="585.26,-65.37 575.1,-68.38 584.92,-72.36 585.26,-65.37"/>
<text text-anchor="middle" x="647.5" y="-78" font-family="Helvetica,sans-Serif" font-size="10.00"> orientation</text>
</g>
<!-- Node7 -->
<g id="node7" class="node">
<title>Node7</title>
<g id="a_node7"><a xlink:href="structamr__wind_1_1vs_1_1_tensor_t.html" target="_top" xlink:title="Tensor in 3D vector space.">
<polygon fill="white" stroke="black" points="114,-38.5 114,-57.5 268,-57.5 268,-38.5 114,-38.5"/>
<text text-anchor="middle" x="191" y="-45.5" font-family="Helvetica,sans-Serif" font-size="10.00">amr_wind::vs::TensorT&lt; T &gt;</text>
</a>
</g>
</g>
<!-- Node7&#45;&gt;Node6 -->
<g id="edge6" class="edge">
<title>Node7&#45;&gt;Node6</title>
<path fill="none" stroke="#9a32cd" stroke-dasharray="5,2" d="M278.19,-41.05C319.68,-39.09 370.06,-38.71 415,-44 426.08,-45.3 437.78,-47.5 448.9,-49.99"/>
<polygon fill="#9a32cd" stroke="#9a32cd" points="277.92,-37.56 268.11,-41.57 278.28,-44.55 277.92,-37.56"/>
<text text-anchor="middle" x="350.5" y="-58" font-family="Helvetica,sans-Serif" font-size="10.00"> ptr_begin</text>
<text text-anchor="middle" x="350.5" y="-47" font-family="Helvetica,sans-Serif" font-size="10.00">ptr_end</text>
</g>
<!-- Node8 -->
<g id="node8" class="node">
<title>Node8</title>
<g id="a_node8"><a xlink:title=" ">
<polygon fill="white" stroke="#bfbfbf" points="0,-38.5 0,-57.5 29,-57.5 29,-38.5 0,-38.5"/>
<text text-anchor="middle" x="14.5" y="-45.5" font-family="Helvetica,sans-Serif" font-size="10.00">T</text>
</a>
</g>
</g>
<!-- Node8&#45;&gt;Node7 -->
<g id="edge7" class="edge">
<title>Node8&#45;&gt;Node7</title>
<path fill="none" stroke="#9a32cd" stroke-dasharray="5,2" d="M39.44,-48C58.73,-48 86.97,-48 113.79,-48"/>
<polygon fill="#9a32cd" stroke="#9a32cd" points="39.19,-44.5 29.19,-48 39.19,-51.5 39.19,-44.5"/>
<text text-anchor="middle" x="71.5" y="-51" font-family="Helvetica,sans-Serif" font-size="10.00"> vv</text>
</g>
<!-- Node10 -->
<g id="node10" class="node">
<title>Node10</title>
<g id="a_node10"><a xlink:href="structamr__wind_1_1vs_1_1_vector_t.html" target="_top" xlink:title="Vector in 3D space.">
<polygon fill="white" stroke="black" points="114.5,-165.5 114.5,-184.5 267.5,-184.5 267.5,-165.5 114.5,-165.5"/>
<text text-anchor="middle" x="191" y="-172.5" font-family="Helvetica,sans-Serif" font-size="10.00">amr_wind::vs::VectorT&lt; T &gt;</text>
</a>
</g>
</g>
<!-- Node8&#45;&gt;Node10 -->
<g id="edge11" class="edge">
<title>Node8&#45;&gt;Node10</title>
<path fill="none" stroke="#9a32cd" stroke-dasharray="5,2" d="M30.24,-65.05C48.36,-85.22 80.82,-118.85 114,-141 129.15,-151.11 147.79,-159.51 162.83,-165.43"/>
<polygon fill="#9a32cd" stroke="#9a32cd" points="32.85,-62.72 23.6,-57.55 27.61,-67.35 32.85,-62.72"/>
<text text-anchor="middle" x="71.5" y="-129" font-family="Helvetica,sans-Serif" font-size="10.00"> vv</text>
</g>
<!-- Node11 -->
<g id="node11" class="node">
<title>Node11</title>
<g id="a_node11"><a xlink:title="STL class.">
<polygon fill="white" stroke="#bfbfbf" points="302,-0.5 302,-19.5 399,-19.5 399,-0.5 302,-0.5"/>
<text text-anchor="middle" x="350.5" y="-7.5" font-family="Helvetica,sans-Serif" font-size="10.00">std::vector&lt; T &gt;</text>
</a>
</g>
</g>
<!-- Node8&#45;&gt;Node11 -->
<g id="edge14" class="edge">
<title>Node8&#45;&gt;Node11</title>
<path fill="none" stroke="#9a32cd" stroke-dasharray="5,2" d="M38.4,-35.92C41.24,-34.77 44.15,-33.76 47,-33 134.8,-9.63 241.62,-7.31 301.97,-8.29"/>
<polygon fill="#9a32cd" stroke="#9a32cd" points="36.83,-32.79 29.19,-40.13 39.74,-39.15 36.83,-32.79"/>
<text text-anchor="middle" x="71.5" y="-36" font-family="Helvetica,sans-Serif" font-size="10.00"> elements</text>
</g>
<!-- Node9&#45;&gt;Node3 -->
<g id="edge9" class="edge">
<title>Node9&#45;&gt;Node3</title>
<path fill="none" stroke="#9a32cd" stroke-dasharray="5,2" d="M584.93,-150.69C621.37,-143.68 664.63,-133.38 702,-119 719.54,-112.25 737.97,-101.78 751.85,-93.11"/>
<polygon fill="#9a32cd" stroke="#9a32cd" points="584.03,-147.3 574.84,-152.58 585.32,-154.18 584.03,-147.3"/>
<text text-anchor="middle" x="647.5" y="-196" font-family="Helvetica,sans-Serif" font-size="10.00"> vel_pos</text>
<text text-anchor="middle" x="647.5" y="-185" font-family="Helvetica,sans-Serif" font-size="10.00">force</text>
<text text-anchor="middle" x="647.5" y="-174" font-family="Helvetica,sans-Serif" font-size="10.00">vel</text>
<text text-anchor="middle" x="647.5" y="-163" font-family="Helvetica,sans-Serif" font-size="10.00">epsilon</text>
<text text-anchor="middle" x="647.5" y="-152" font-family="Helvetica,sans-Serif" font-size="10.00">pos</text>
</g>
<!-- Node10&#45;&gt;Node9 -->
<g id="edge10" class="edge">
<title>Node10&#45;&gt;Node9</title>
<path fill="none" stroke="#9a32cd" stroke-dasharray="5,2" d="M277.69,-172.82C319.17,-171.63 369.69,-170 415,-168 420.96,-167.74 427.15,-167.44 433.36,-167.12"/>
<polygon fill="#9a32cd" stroke="#9a32cd" points="277.52,-169.32 267.63,-173.1 277.72,-176.32 277.52,-169.32"/>
<text text-anchor="middle" x="350.5" y="-186" font-family="Helvetica,sans-Serif" font-size="10.00"> ptr_begin</text>
<text text-anchor="middle" x="350.5" y="-175" font-family="Helvetica,sans-Serif" font-size="10.00">ptr_end</text>
</g>
<!-- Node11&#45;&gt;Node2 -->
<g id="edge13" class="edge">
<title>Node11&#45;&gt;Node2</title>
<path fill="none" stroke="orange" stroke-dasharray="5,2" d="M409.17,-11.43C524.61,-14.3 784.29,-20.75 915.86,-24.02"/>
<polygon fill="orange" stroke="orange" points="409.2,-7.93 399.12,-11.18 409.03,-14.93 409.2,-7.93"/>
<text text-anchor="start" x="593" y="-33" font-family="Helvetica,sans-Serif" font-size="10.00"> &lt; amr_wind::actuator</text>
<text text-anchor="middle" x="647.5" y="-22" font-family="Helvetica,sans-Serif" font-size="10.00">::ComponentView &gt;</text>
</g>
</g>
</svg>
