<?xml version="1.0" encoding="UTF-8" standalone="no"?>
<!DOCTYPE svg PUBLIC "-//W3C//DTD SVG 1.1//EN"
 "http://www.w3.org/Graphics/SVG/1.1/DTD/svg11.dtd">
<!-- Generated by graphviz version 2.43.0 (0)
 -->
<!-- Title: amr_wind::actuator::ComponentView Pages: 1 -->
<svg width="754pt" height="171pt"
 viewBox="0.00 0.00 754.00 170.50" xmlns="http://www.w3.org/2000/svg" xmlns:xlink="http://www.w3.org/1999/xlink">
<g id="graph0" class="graph" transform="scale(1 1) rotate(0) translate(4 166.5)">
<title>amr_wind::actuator::ComponentView</title>
<polygon fill="white" stroke="transparent" points="-4,4 -4,-166.5 750,-166.5 750,4 -4,4"/>
<!-- Node1 -->
<g id="node1" class="node">
<title>Node1</title>
<g id="a_node1"><a xlink:title=" ">
<polygon fill="#bfbfbf" stroke="black" points="635,-78.5 635,-108.5 746,-108.5 746,-78.5 635,-78.5"/>
<text text-anchor="start" x="643" y="-96.5" font-family="Helvetica,sans-Serif" font-size="10.00">amr_wind::actuator</text>
<text text-anchor="middle" x="690.5" y="-85.5" font-family="Helvetica,sans-Serif" font-size="10.00">::ComponentView</text>
</a>
</g>
</g>
<!-- Node2 -->
<g id="node2" class="node">
<title>Node2</title>
<g id="a_node2"><a xlink:href="structamr__wind_1_1utils_1_1_slice.html" target="_top" xlink:title=" ">
<polygon fill="white" stroke="black" points="410.5,-74.5 410.5,-104.5 531.5,-104.5 531.5,-74.5 410.5,-74.5"/>
<text text-anchor="start" x="418.5" y="-92.5" font-family="Helvetica,sans-Serif" font-size="10.00">amr_wind::utils::Slice</text>
<text text-anchor="middle" x="471" y="-81.5" font-family="Helvetica,sans-Serif" font-size="10.00">&lt; amrex::Real &gt;</text>
</a>
</g>
</g>
<!-- Node2&#45;&gt;Node1 -->
<g id="edge1" class="edge">
<title>Node2&#45;&gt;Node1</title>
<path fill="none" stroke="#9a32cd" stroke-dasharray="5,2" d="M541.74,-90.78C571.84,-91.34 606.55,-91.97 634.76,-92.49"/>
<polygon fill="#9a32cd" stroke="#9a32cd" points="541.78,-87.28 531.72,-90.6 541.65,-94.28 541.78,-87.28"/>
<text text-anchor="middle" x="588.5" y="-94.5" font-family="Helvetica,sans-Serif" font-size="10.00"> chord</text>
</g>
<!-- Node3 -->
<g id="node3" class="node">
<title>Node3</title>
<g id="a_node3"><a xlink:href="structamr__wind_1_1utils_1_1_slice.html" target="_top" xlink:title=" ">
<polygon fill="white" stroke="black" points="83.5,-80 83.5,-99 232.5,-99 232.5,-80 83.5,-80"/>
<text text-anchor="middle" x="158" y="-87" font-family="Helvetica,sans-Serif" font-size="10.00">amr_wind::utils::Slice&lt; T &gt;</text>
</a>
</g>
</g>
<!-- Node3&#45;&gt;Node2 -->
<g id="edge2" class="edge">
<title>Node3&#45;&gt;Node2</title>
<path fill="none" stroke="orange" stroke-dasharray="5,2" d="M242.75,-89.5C295.68,-89.5 362.82,-89.5 410.36,-89.5"/>
<polygon fill="orange" stroke="orange" points="242.7,-86 232.7,-89.5 242.7,-93 242.7,-86"/>
<text text-anchor="middle" x="317.5" y="-92.5" font-family="Helvetica,sans-Serif" font-size="10.00"> &lt; amrex::Real &gt;</text>
</g>
<!-- Node4 -->
<g id="node4" class="node">
<title>Node4</title>
<g id="a_node4"><a xlink:href="structamr__wind_1_1utils_1_1_slice.html" target="_top" xlink:title=" ">
<polygon fill="white" stroke="black" points="400,-123.5 400,-153.5 542,-153.5 542,-123.5 400,-123.5"/>
<text text-anchor="start" x="408" y="-141.5" font-family="Helvetica,sans-Serif" font-size="10.00">amr_wind::utils::Slice</text>
<text text-anchor="middle" x="471" y="-130.5" font-family="Helvetica,sans-Serif" font-size="10.00">&lt; amr_wind::vs::Tensor &gt;</text>
</a>
</g>
</g>
<!-- Node3&#45;&gt;Node4 -->
<g id="edge6" class="edge">
<title>Node3&#45;&gt;Node4</title>
<path fill="none" stroke="orange" stroke-dasharray="5,2" d="M230.04,-100.61C273.85,-107.47 331.19,-116.47 382,-124.5 387.81,-125.42 393.83,-126.37 399.87,-127.33"/>
<polygon fill="orange" stroke="orange" points="230.48,-97.14 220.05,-99.05 229.39,-104.05 230.48,-97.14"/>
<text text-anchor="middle" x="317.5" y="-127.5" font-family="Helvetica,sans-Serif" font-size="10.00"> &lt; amr_wind::vs::Tensor &gt;</text>
</g>
<!-- Node7 -->
<g id="node7" class="node">
<title>Node7</title>
<g id="a_node7"><a xlink:href="structamr__wind_1_1utils_1_1_slice.html" target="_top" xlink:title=" ">
<polygon fill="white" stroke="black" points="400.5,-0.5 400.5,-30.5 541.5,-30.5 541.5,-0.5 400.5,-0.5"/>
<text text-anchor="start" x="408.5" y="-18.5" font-family="Helvetica,sans-Serif" font-size="10.00">amr_wind::utils::Slice</text>
<text text-anchor="middle" x="471" y="-7.5" font-family="Helvetica,sans-Serif" font-size="10.00">&lt; amr_wind::vs::Vector &gt;</text>
</a>
</g>
</g>
<!-- Node3&#45;&gt;Node7 -->
<g id="edge10" class="edge">
<title>Node3&#45;&gt;Node7</title>
<path fill="none" stroke="orange" stroke-dasharray="5,2" d="M209,-77.6C262.74,-64.82 348.3,-44.46 406.7,-30.56"/>
<polygon fill="orange" stroke="orange" points="207.94,-74.26 199.02,-79.98 209.56,-81.07 207.94,-74.26"/>
<text text-anchor="middle" x="317.5" y="-68.5" font-family="Helvetica,sans-Serif" font-size="10.00"> &lt; amr_wind::vs::Vector &gt;</text>
</g>
<!-- Node4&#45;&gt;Node1 -->
<g id="edge3" class="edge">
<title>Node4&#45;&gt;Node1</title>
<path fill="none" stroke="#9a32cd" stroke-dasharray="5,2" d="M552.03,-121.94C579.56,-116.25 609.74,-110 634.79,-104.82"/>
<polygon fill="#9a32cd" stroke="#9a32cd" points="551.1,-118.56 542.02,-124.01 552.52,-125.42 551.1,-118.56"/>
<text text-anchor="middle" x="588.5" y="-122.5" font-family="Helvetica,sans-Serif" font-size="10.00"> orientation</text>
</g>
<!-- Node5 -->
<g id="node5" class="node">
<title>Node5</title>
<g id="a_node5"><a xlink:href="structamr__wind_1_1vs_1_1_tensor_t.html" target="_top" xlink:title="Tensor in 3D vector space.">
<polygon fill="white" stroke="black" points="81,-133 81,-152 235,-152 235,-133 81,-133"/>
<text text-anchor="middle" x="158" y="-140" font-family="Helvetica,sans-Serif" font-size="10.00">amr_wind::vs::TensorT&lt; T &gt;</text>
</a>
</g>
</g>
<!-- Node5&#45;&gt;Node4 -->
<g id="edge4" class="edge">
<title>Node5&#45;&gt;Node4</title>
<path fill="none" stroke="#9a32cd" stroke-dasharray="5,2" d="M245.28,-141.39C293.95,-140.76 353.99,-139.99 399.76,-139.4"/>
<polygon fill="#9a32cd" stroke="#9a32cd" points="245.03,-137.89 235.08,-141.52 245.12,-144.89 245.03,-137.89"/>
<text text-anchor="middle" x="317.5" y="-154.5" font-family="Helvetica,sans-Serif" font-size="10.00"> ptr_begin</text>
<text text-anchor="middle" x="317.5" y="-143.5" font-family="Helvetica,sans-Serif" font-size="10.00">ptr_end</text>
</g>
<!-- Node6 -->
<g id="node6" class="node">
<title>Node6</title>
<g id="a_node6"><a xlink:title=" ">
<polygon fill="white" stroke="#bfbfbf" points="0,-60 0,-79 29,-79 29,-60 0,-60"/>
<text text-anchor="middle" x="14.5" y="-67" font-family="Helvetica,sans-Serif" font-size="10.00">T</text>
</a>
</g>
</g>
<!-- Node6&#45;&gt;Node5 -->
<g id="edge5" class="edge">
<title>Node6&#45;&gt;Node5</title>
<path fill="none" stroke="#9a32cd" stroke-dasharray="5,2" d="M38.07,-83.82C50.53,-91.5 66.4,-100.92 81,-108.5 98.32,-117.49 118.51,-126.45 133.72,-132.92"/>
<polygon fill="#9a32cd" stroke="#9a32cd" points="39.63,-80.67 29.29,-78.35 35.92,-86.61 39.63,-80.67"/>
<text text-anchor="middle" x="55" y="-100.5" font-family="Helvetica,sans-Serif" font-size="10.00"> vv</text>
</g>
<!-- Node8 -->
<g id="node8" class="node">
<title>Node8</title>
<g id="a_node8"><a xlink:href="structamr__wind_1_1vs_1_1_vector_t.html" target="_top" xlink:title="Vector in 3D space.">
<polygon fill="white" stroke="black" points="81.5,-22 81.5,-41 234.5,-41 234.5,-22 81.5,-22"/>
<text text-anchor="middle" x="158" y="-29" font-family="Helvetica,sans-Serif" font-size="10.00">amr_wind::vs::VectorT&lt; T &gt;</text>
</a>
</g>
</g>
<!-- Node6&#45;&gt;Node8 -->
<g id="edge9" class="edge">
<title>Node6&#45;&gt;Node8</title>
<path fill="none" stroke="#9a32cd" stroke-dasharray="5,2" d="M38.78,-63.25C61.26,-57.21 95.63,-47.98 121.52,-41.03"/>
<polygon fill="#9a32cd" stroke="#9a32cd" points="37.82,-59.88 29.07,-65.86 39.63,-66.64 37.82,-59.88"/>
<text text-anchor="middle" x="55" y="-62.5" font-family="Helvetica,sans-Serif" font-size="10.00"> vv</text>
</g>
<!-- Node7&#45;&gt;Node1 -->
<g id="edge7" class="edge">
<title>Node7&#45;&gt;Node1</title>
<path fill="none" stroke="#9a32cd" stroke-dasharray="5,2" d="M551.89,-15.78C573.69,-18.12 596.84,-22.77 617,-31.5 641.32,-42.03 663.56,-63.62 676.82,-78.33"/>
<polygon fill="#9a32cd" stroke="#9a32cd" points="551.93,-12.27 541.65,-14.84 551.29,-19.24 551.93,-12.27"/>
<text text-anchor="middle" x="588.5" y="-78.5" font-family="Helvetica,sans-Serif" font-size="10.00"> vel_pos</text>
<text text-anchor="middle" x="588.5" y="-67.5" font-family="Helvetica,sans-Serif" font-size="10.00">force</text>
<text text-anchor="middle" x="588.5" y="-56.5" font-family="Helvetica,sans-Serif" font-size="10.00">vel</text>
<text text-anchor="middle" x="588.5" y="-45.5" font-family="Helvetica,sans-Serif" font-size="10.00">epsilon</text>
<text text-anchor="middle" x="588.5" y="-34.5" font-family="Helvetica,sans-Serif" font-size="10.00">pos</text>
</g>
<!-- Node8&#45;&gt;Node7 -->
<g id="edge8" class="edge">
<title>Node8&#45;&gt;Node7</title>
<path fill="none" stroke="#9a32cd" stroke-dasharray="5,2" d="M205.43,-19.61C220.5,-16.29 237.36,-13.15 253,-11.5 302.09,-6.34 357.76,-7.5 400.43,-9.88"/>
<polygon fill="#9a32cd" stroke="#9a32cd" points="204.29,-16.28 195.32,-21.91 205.85,-23.1 204.29,-16.28"/>
<text text-anchor="middle" x="317.5" y="-25.5" font-family="Helvetica,sans-Serif" font-size="10.00"> ptr_begin</text>
<text text-anchor="middle" x="317.5" y="-14.5" font-family="Helvetica,sans-Serif" font-size="10.00">ptr_end</text>
</g>
</g>
</svg>
